<?xml version="1.0" encoding="UTF-8" standalone="no"?>
<svg
   xmlns:dc="http://purl.org/dc/elements/1.1/"
   xmlns:cc="http://creativecommons.org/ns#"
   xmlns:rdf="http://www.w3.org/1999/02/22-rdf-syntax-ns#"
   xmlns:svg="http://www.w3.org/2000/svg"
   xmlns="http://www.w3.org/2000/svg"
   viewBox="0 0 193.028 194.25333"
   height="194.25333"
   width="193.028"
   xml:space="preserve"
   id="svg2"
   version="1.1"><metadata
     id="metadata8"><rdf:RDF><cc:Work
         rdf:about=""><dc:format>image/svg+xml</dc:format><dc:type
           rdf:resource="http://purl.org/dc/dcmitype/StillImage" /></cc:Work></rdf:RDF></metadata><defs
     id="defs6"><clipPath
       id="clipPath18"
       clipPathUnits="userSpaceOnUse"><path
         id="path16"
         d="M 72.385,145.69 C 32.407,145.69 0,113.281 0,73.304 v 0 C 0,33.326 32.407,0.917 72.385,0.917 v 0 c 39.978,0 72.386,32.409 72.386,72.387 v 0 c 0,39.977 -32.408,72.386 -72.386,72.386 z" /></clipPath><linearGradient
       id="linearGradient28"
       spreadMethod="pad"
       gradientTransform="matrix(0,144.77341,144.77341,0,72.38575,0.9167861)"
       gradientUnits="userSpaceOnUse"
       y2="0"
       x2="1"
       y1="0"
       x1="0"><stop
         id="stop24"
         offset="0"
         style="stop-opacity:1;stop-color:#8e8e8e" /><stop
         id="stop26"
         offset="1"
         style="stop-opacity:1;stop-color:#a5a5a5" /></linearGradient><clipPath
       id="clipPath38"
       clipPathUnits="userSpaceOnUse"><path
         id="path36"
         d="M 0,145.69 H 144.771 V 0 H 0 Z" /></clipPath><clipPath
       id="clipPath46"
       clipPathUnits="userSpaceOnUse"><path
         id="path44"
         d="M 0,145.69 H 144.771 V 0.916779 l -144.771,0 z" /></clipPath><clipPath
       id="clipPath62"
       clipPathUnits="userSpaceOnUse"><path
         id="path60"
         d="M 0,145.69 H 144.771 V 0 H 0 Z" /></clipPath><clipPath
       id="clipPath66"
       clipPathUnits="userSpaceOnUse"><path
         id="path64"
         d="m 144.771,73.304 c 0,39.977 -32.408,72.386 -72.386,72.386 C 32.407,145.69 0,113.281 0,73.304 0,33.326 32.407,0.917 72.385,0.917 c 39.978,0 72.386,32.409 72.386,72.387" /></clipPath><clipPath
       id="clipPath70"
       clipPathUnits="userSpaceOnUse"><path
         id="path68"
         d="M 62.9046,69.8494 H 81.8671 V 47.4426 H 62.9046 Z" /></clipPath></defs><g
     transform="matrix(1.3333333,0,0,-1.3333333,0,194.25333)"
     id="g10"><g
       id="g12"><g
         clip-path="url(#clipPath18)"
         id="g14"><g
           id="g20"><g
             id="g22"><path
               id="path30"
               style="fill:url(#linearGradient28);stroke:none"
               d="M 72.385,145.69 C 32.407,145.69 0,113.281 0,73.304 v 0 C 0,33.326 32.407,0.917 72.385,0.917 v 0 c 39.978,0 72.386,32.409 72.386,72.387 v 0 c 0,39.977 -32.408,72.386 -72.386,72.386 z" /></g></g></g></g><g
       id="g32"><g
         clip-path="url(#clipPath38)"
         id="g34"><g
           id="g40"><g
             id="g42" /><g
             id="g54"><g
               style="opacity:0.5"
               id="g52"
               clip-path="url(#clipPath46)"><g
                 id="g50"
                 transform="translate(144.7715,73.3045)"><path
                   id="path48"
                   style="fill:#353535;fill-opacity:1;fill-rule:nonzero;stroke:none"
                   d="m 0,0 c 0,39.977 -32.408,72.386 -72.387,72.386 -39.977,0 -72.384,-32.409 -72.384,-72.386 0,-39.979 32.407,-72.388 72.384,-72.388 C -32.408,-72.388 0,-39.979 0,0" /></g></g></g></g><g
           id="g56"><g
             id="g58" /><g
             id="g142"><g
               style="opacity:0.39999402"
               id="g140"
               clip-path="url(#clipPath62)"><g
                 id="g138"><g
                   id="g136"
                   clip-path="url(#clipPath66)"><g
                     id="g74"
                     transform="translate(112.6305,32.312)"><path
                       id="path72"
                       style="fill:#f1c9a5;fill-opacity:1;fill-rule:nonzero;stroke:none"
                       d="m 0,0 c -5.417,10.254 -40.245,16.689 -40.245,16.689 0,0 -34.827,-6.435 -40.244,-16.689 -4.005,-14.23 -7.354,-32.312 -7.354,-32.312 h 47.598 47.598 c 0,0 -2.262,19.388 -7.353,32.312" /></g><g
                     id="g78"
                     transform="translate(72.3858,49.0015)"><path
                       id="path76"
                       style="fill:#e4b692;fill-opacity:1;fill-rule:nonzero;stroke:none"
                       d="m 0,0 c 0,0 34.828,-6.435 40.245,-16.689 5.091,-12.925 7.353,-32.313 7.353,-32.313 H 0 Z" /></g><path
                     id="path80"
                     style="fill:#f1c9a5;fill-opacity:1;fill-rule:nonzero;stroke:none"
                     d="M 81.867,69.849 H 62.904 V 38.114 h 18.963 z" /><path
                     id="path82"
                     style="fill:#e4b692;fill-opacity:1;fill-rule:nonzero;stroke:none"
                     d="M 81.867,69.849 H 72.386 V 38.114 h 9.481 z" /><g
                     id="g94"><g
                       id="g84" /><g
                       id="g92"><g
                         style="opacity:0.10000598"
                         id="g90"
                         clip-path="url(#clipPath70)"><g
                           id="g88"
                           transform="translate(62.9046,55.144)"><path
                             id="path86"
                             style="fill:#ddac8c;fill-opacity:1;fill-rule:nonzero;stroke:none"
                             d="m 0,0 c 1.705,-4.895 8.588,-7.701 13.642,-7.701 1.829,0 3.607,0.306 5.321,0.867 V 14.705 L 0,14.705 Z" /></g></g></g></g><g
                     id="g98"
                     transform="translate(96.7653,89.8742)"><path
                       id="path96"
                       style="fill:#f1c9a5;fill-opacity:1;fill-rule:nonzero;stroke:none"
                       d="m 0,0 c 0,19.822 -10.915,31.093 -24.379,31.093 -13.465,0 -24.38,-11.271 -24.38,-31.093 0,-26.662 10.915,-35.892 24.38,-35.892 C -10.915,-35.892 0,-25.551 0,0" /></g><g
                     id="g102"
                     transform="translate(93.0546,76.129)"><path
                       id="path100"
                       style="fill:#e4b692;fill-opacity:1;fill-rule:nonzero;stroke:none"
                       d="m 0,0 c -4.419,0.463 -7.403,5.224 -6.655,10.63 0.739,5.41 4.925,9.427 9.346,8.966 C 7.108,19.136 10.088,14.377 9.342,8.967 8.6,3.557 4.419,-0.457 0,0" /></g><g
                     id="g106"
                     transform="translate(42.5475,85.0956)"><path
                       id="path104"
                       style="fill:#f1c9a5;fill-opacity:1;fill-rule:nonzero;stroke:none"
                       d="m 0,0 c -0.746,5.41 2.233,10.169 6.648,10.63 4.424,0.46 8.61,-3.557 9.351,-8.967 C 16.745,-3.742 13.759,-8.504 9.342,-8.967 4.923,-9.423 0.741,-5.41 0,0" /></g><g
                     id="g110"
                     transform="translate(96.7653,89.8742)"><path
                       id="path108"
                       style="fill:#e4b692;fill-opacity:1;fill-rule:nonzero;stroke:none"
                       d="M 0,0 C 0,19.822 -10.915,31.093 -24.379,31.093 V -35.892 C -10.915,-35.892 0,-25.551 0,0" /></g><g
                     id="g114"
                     transform="translate(112.6305,32.312)"><path
                       id="path112"
                       style="fill:#7b4353;fill-opacity:1;fill-rule:nonzero;stroke:none"
                       d="M 0,0 C -3.164,5.988 -16.348,10.671 -26.777,13.532 L -40.245,-1.862 -53.712,13.532 C -64.141,10.671 -77.325,5.988 -80.489,0 c -4.005,-14.23 -7.354,-32.312 -7.354,-32.312 h 47.598 47.598 c 0,0 -2.262,19.388 -7.353,32.312" /></g><g
                     id="g118"
                     transform="translate(112.6305,32.3121)"><path
                       id="path116"
                       style="fill:#593e4f;fill-opacity:1;fill-rule:nonzero;stroke:none"
                       d="m 0,0 c -3.164,5.988 -16.348,10.671 -26.777,13.532 l -13.429,-15.35 c -0.034,-10.165 -0.08,-20.329 -0.11,-30.494 H 7.353 c 0,0 -2.262,19.388 -7.353,32.312" /></g><g
                     id="g122"
                     transform="translate(51.9291,80.3861)"><path
                       id="path120"
                       style="fill:#262421;fill-opacity:1;fill-rule:nonzero;stroke:none"
                       d="m 0,0 c 0,0 17.222,11.753 19.249,18.236 -0.203,-5.876 0,-11.143 0,-11.143 0,0 16.819,16.614 15.197,30.189 C 15.399,47.414 0.608,35.662 -2.838,30.191 -6.282,24.721 -7.093,9.523 0,0" /></g><g
                     id="g126"
                     transform="translate(83.9429,112.1994)"><path
                       id="path124"
                       style="fill:#262421;fill-opacity:1;fill-rule:nonzero;stroke:none"
                       d="M 0,0 C 0,0 7.903,-9.526 9.524,-28.572 15.198,-20.263 21.277,3.849 2.432,5.469 0.811,2.431 0,0 0,0" /></g><g
                     id="g130"
                     transform="translate(89.7974,27.2137)"><path
                       id="path128"
                       style="fill:#ffffff;fill-opacity:1;fill-rule:nonzero;stroke:none"
                       d="m 0,0 -10.538,9.794 -6.891,-6.557 11.453,16.35 c 0,0 3.735,-0.414 5.063,-4.481 C -0.498,8.714 0,0 0,0" /></g><g
                     id="g134"
                     transform="translate(54.9402,27.2137)"><path
                       id="path132"
                       style="fill:#ffffff;fill-opacity:1;fill-rule:nonzero;stroke:none"
                       d="M 0,0 10.538,9.794 17.429,3.237 5.976,19.587 c 0,0 -3.735,-0.414 -5.063,-4.481 C 0.498,8.714 0,0 0,0" /></g></g></g></g></g></g><g
           transform="translate(72.3848,108.4296)"
           id="g144"><path
             id="path146"
             style="fill:#ffffff;fill-opacity:1;fill-rule:nonzero;stroke:none"
             d="m 0,0 c -11.472,0 -20.805,-9.337 -20.805,-20.809 0,-3.137 2.551,-5.69 5.686,-5.69 3.137,0 5.688,2.553 5.688,5.69 0,5.198 4.231,9.429 9.431,9.429 5.2,0 9.431,-4.231 9.431,-9.429 0,-5.199 -4.231,-9.429 -9.431,-9.429 -3.137,0 -5.688,-2.553 -5.688,-5.69 v -7.433 c 0,-3.133 2.551,-5.686 5.688,-5.686 3.137,0 5.688,2.553 5.688,5.686 v 2.392 c 8.925,2.561 15.119,10.79 15.119,20.16 C 20.807,-9.337 11.474,0 0,0" /></g><g
           transform="translate(67.9268,52.1647)"
           id="g148"><path
             id="path150"
             style="fill:#ffffff;fill-opacity:1;fill-rule:nonzero;stroke:none"
             d="m 0,0 c -1.207,-1.207 -1.81,-2.715 -1.81,-4.223 0,-1.509 0.603,-3.017 1.81,-4.224 1.207,-1.206 2.715,-1.81 4.223,-1.81 1.509,0 3.017,0.604 4.224,1.81 1.206,1.207 1.81,2.715 1.81,4.224 0,1.508 -0.603,3.016 -1.81,4.223 C 6.335,2.112 2.112,2.112 0,0" /></g></g></g></g></svg>