<?xml version="1.0" encoding="utf-8"?>
<!-- Generator: Adobe Illustrator 19.0.1, SVG Export Plug-In . SVG Version: 6.00 Build 0)  -->
<svg version="1.1" id="Layer_1" xmlns="http://www.w3.org/2000/svg" xmlns:xlink="http://www.w3.org/1999/xlink" x="0px" y="0px"
	 viewBox="0 0 60 60" style="enable-background:new 0 0 60 60;" xml:space="preserve">
<style type="text/css">
	.st0{fill:none;}
	.st1{fill:#804754;}
	.st2{fill:#D1BF99;}
	.st3{fill:url(#SVGID_1_);}
	.st4{fill:url(#SVGID_2_);}
	.st5{fill:url(#SVGID_3_);}
	.st6{fill:url(#SVGID_4_);}
	.st7{fill:url(#SVGID_5_);}
	.st8{fill:url(#SVGID_6_);}
	.st9{fill:url(#SVGID_7_);}
	.st10{fill:url(#SVGID_8_);}
	.st11{fill:url(#SVGID_9_);}
	.st12{fill:url(#SVGID_10_);}
	.st13{fill:url(#SVGID_11_);}
	.st14{fill:url(#SVGID_12_);}
	.st15{fill:url(#SVGID_13_);}
	.st16{fill:url(#SVGID_14_);}
	.st17{fill:url(#SVGID_15_);}
	.st18{fill:url(#SVGID_16_);}
	.st19{fill:url(#SVGID_17_);}
	.st20{fill:url(#SVGID_18_);}
	.st21{fill:url(#SVGID_19_);}
	.st22{fill:url(#SVGID_20_);}
	.st23{fill:#562636;}
	.st24{fill:url(#SVGID_21_);}
	.st25{fill:url(#SVGID_22_);}
	.st26{fill:url(#SVGID_23_);}
	.st27{fill:url(#SVGID_24_);}
	.st28{fill:url(#SVGID_25_);}
	.st29{fill:url(#SVGID_26_);}
	.st30{fill:url(#SVGID_27_);}
	.st31{fill:#FFFFFF;}
	.st32{fill:url(#SVGID_28_);}
	.st33{fill:url(#SVGID_29_);}
	.st34{fill:url(#SVGID_30_);}
	.st35{fill:url(#SVGID_31_);}
	.st36{fill:url(#SVGID_32_);}
	.st37{fill:url(#SVGID_33_);}
	.st38{fill:url(#SVGID_34_);}
	.st39{fill:url(#SVGID_35_);}
	.st40{fill:url(#SVGID_36_);}
	.st41{fill:url(#SVGID_37_);}
	.st42{fill:url(#SVGID_38_);}
	.st43{fill:url(#SVGID_39_);}
	.st44{fill:url(#SVGID_40_);}
	.st45{fill:url(#SVGID_41_);}
	.st46{fill:url(#SVGID_42_);}
	.st47{fill:url(#SVGID_43_);}
	.st48{fill:url(#SVGID_44_);}
	.st49{fill:url(#SVGID_45_);}
	.st50{fill:url(#SVGID_46_);}
	.st51{fill:url(#SVGID_47_);}
	.st52{fill:url(#SVGID_48_);}
	.st53{fill:url(#SVGID_49_);}
	.st54{fill:url(#SVGID_50_);}
	.st55{fill:url(#SVGID_51_);}
	.st56{fill:url(#SVGID_52_);}
	.st57{fill:url(#SVGID_53_);}
	.st58{fill:url(#SVGID_54_);}
	.st59{fill:url(#SVGID_55_);}
	.st60{fill:url(#SVGID_56_);}
	.st61{fill:url(#SVGID_57_);}
	.st62{fill:url(#SVGID_58_);}
	.st63{fill:url(#SVGID_59_);}
	.st64{fill:url(#SVGID_60_);}
	.st65{fill:url(#SVGID_61_);}
	.st66{fill:url(#SVGID_62_);}
	.st67{fill:url(#SVGID_63_);}
	.st68{fill:#19A95A;}
	.st69{fill:url(#SVGID_64_);}
	.st70{fill:url(#SVGID_65_);}
	.st71{fill:url(#SVGID_66_);}
	.st72{fill:url(#SVGID_67_);}
	.st73{fill:url(#SVGID_68_);}
	.st74{fill:url(#SVGID_69_);}
	.st75{fill:url(#SVGID_70_);}
	.st76{fill:url(#SVGID_71_);}
	.st77{fill:url(#SVGID_72_);}
	.st78{fill:url(#SVGID_73_);}
	.st79{fill:url(#SVGID_74_);}
	.st80{fill:url(#SVGID_75_);}
	.st81{fill:url(#SVGID_76_);}
	.st82{fill:url(#SVGID_77_);}
	.st83{fill:url(#SVGID_78_);}
	.st84{fill:url(#SVGID_79_);}
	.st85{fill:#D9C198;}
</style>
<path class="st0" d="M37.9,26c0.5,0.5,0.9,1.1,1.3,1.7c0.8-2.4,3.1-4.2,5.8-4.2c0.8,0,1.6,0.2,2.3,0.5c-0.4-0.5-0.9-0.9-1.5-1.2
	h-5.3C39.2,23.5,38.3,24.6,37.9,26z"/>
<path class="st0" d="M17,54.8c0,0.1-0.1,0.3-0.1,0.4h1.5c0-0.1,0-0.3,0-0.4H17z"/>
<path class="st0" d="M40,37c0,0.1-0.1,0.2-0.1,0.3c0.5-0.2,0.9-0.5,1.4-0.6C40.9,36.8,40.5,36.9,40,37z"/>
<path class="st0" d="M24,24.3c0.4-0.3,0.9-0.5,1.4-0.8l-0.8-0.8h-1.5C23.5,23.3,23.7,23.8,24,24.3z"/>
<path class="st0" d="M11.9,29.6c0-3.4,2.7-6.1,6.1-6.1c0.8,0,1.6,0.2,2.4,0.5c-0.4-0.5-1-0.9-1.6-1.3c-0.5,0-1-0.2-1.4-0.4h-1.3
	c-0.4,0-0.8-0.1-1.1-0.1c-2.5,0.5-4.3,2.7-4.3,5.3c0,1.4,0.5,2.6,1.3,3.5C11.9,30.6,11.9,30.1,11.9,29.6z"/>
<path class="st0" d="M14.2,36.8c-2,0.4-3.6,1.4-4.7,2.3c-0.2,0.2-1,1.1-1.6,1.9c-0.5,0.8-0.9,1.7-1.1,2.7h1.4
	C8.8,40.5,11.1,37.9,14.2,36.8z"/>
<linearGradient id="SVGID_1_" gradientUnits="userSpaceOnUse" x1="8.0963" y1="40.0455" x2="27.7861" y2="40.0455">
	<stop  offset="0" style="stop-color:#DADADA"/>
	<stop  offset="1" style="stop-color:#B2B2B2"/>
</linearGradient>
<path class="st3" d="M8.3,43.6h14.3c0.7-0.3,1.4-0.6,2.1-0.8c-2.2-1.2-3.9-3.2-4.8-5.5c-1.1-0.4-2.3-0.6-3.6-0.6
	c-0.7,0-1.4,0.1-2,0.2C11.1,37.9,8.8,40.5,8.3,43.6z"/>
<linearGradient id="SVGID_2_" gradientUnits="userSpaceOnUse" x1="11.8528" y1="28.2579" x2="24.0297" y2="28.2579">
	<stop  offset="0" style="stop-color:#DADADA"/>
	<stop  offset="1" style="stop-color:#B2B2B2"/>
</linearGradient>
<path class="st4" d="M11.9,29.6c0,0.5,0.1,1,0.2,1.4c1,1.2,2.5,1.9,4.1,1.9c1.1,0,2.2-0.3,3-0.9c0.2-2.1,1.1-4,2.3-5.5
	c-0.2-1-0.6-1.8-1.2-2.5c-0.7-0.3-1.5-0.5-2.4-0.5C14.6,23.5,11.9,26.3,11.9,29.6z"/>
<linearGradient id="SVGID_3_" gradientUnits="userSpaceOnUse" x1="35.0913" y1="40.8337" x2="54.7811" y2="40.8337">
	<stop  offset="0" style="stop-color:#DADADA"/>
	<stop  offset="1" style="stop-color:#B2B2B2"/>
</linearGradient>
<path class="st5" d="M51.2,43.6h1.3c-0.8-4-4.7-7-9.4-7c-0.6,0-1.2,0.1-1.8,0.2c-0.5,0.2-1,0.4-1.4,0.6c-0.2,0.5-0.5,1-0.7,1.5
	c-0.7,1.7-1.9,3.1-3.4,4c0.6,0.2,1.1,0.4,1.7,0.7h9.5c0.8,0,1.5,0.7,1.5,1.5c0,0,0,0.1,0,0.1h1.3c0,0,0-0.1,0-0.1
	C49.7,44.2,50.4,43.6,51.2,43.6z"/>
<linearGradient id="SVGID_4_" gradientUnits="userSpaceOnUse" x1="38.8478" y1="28.2579" x2="51.0247" y2="28.2579">
	<stop  offset="0" style="stop-color:#DADADA"/>
	<stop  offset="1" style="stop-color:#B2B2B2"/>
</linearGradient>
<path class="st6" d="M39.1,27.7c0.8,1.4,1.4,3,1.5,4.6c0.7,0.4,1.6,0.6,2.4,0.6c3,0,5.4-2.4,5.4-5.4c0-1.3-0.5-2.6-1.3-3.5
	c-0.7-0.3-1.5-0.5-2.3-0.5C42.2,23.5,39.9,25.3,39.1,27.7z"/>
<linearGradient id="SVGID_5_" gradientUnits="userSpaceOnUse" x1="38.8478" y1="32.675" x2="51.0247" y2="32.675">
	<stop  offset="0" style="stop-color:#DADADA"/>
	<stop  offset="1" style="stop-color:#B2B2B2"/>
</linearGradient>
<path class="st7" d="M48,34.4c0.2,0.1,0.3,0.1,0.4,0.2c1.3-0.9,2.2-2.3,2.5-3.9C50.3,32.2,49.3,33.5,48,34.4z"/>
<path class="st23" d="M48.4,34.6c-0.1-0.1-0.3-0.1-0.4-0.2c1.3-0.9,2.3-2.2,2.9-3.7c0.4-1,0.6-2.1,0.6-3.2c0-2.3-0.9-4.3-2.3-5.8
	c-0.6,0.7-1.5,1.1-2.5,1.1h-1c0.6,0.3,1.1,0.7,1.5,1.2c0.8,1,1.3,2.2,1.3,3.5c0,3-2.4,5.4-5.4,5.4c-0.9,0-1.7-0.2-2.4-0.6
	c-0.1-1.7-0.7-3.3-1.5-4.6c-0.4-0.6-0.8-1.2-1.3-1.7c0.4-1.4,1.3-2.6,2.6-3.3h-2.4l-4,4c0.9,0.6,1.7,1.4,2.3,2.3
	c0.8,1.2,1.3,2.7,1.3,4.2c0,4.3-3.5,7.8-7.8,7.8c-2.8,0-5.3-1.5-6.7-3.8c-0.7-1.2-1.1-2.5-1.1-4c0-3.5,2.3-6.5,5.6-7.5l1.8,1.8
	l0.5,0.5l0.7-0.7l0.8-0.8l0.7-0.7l2.3-2.3l1.2-1.2h0.6h5h2.4c0.2,0,0.5,0,0.7-0.1c1.3-0.2,2.4-0.9,3.2-1.8c0.7-0.8,1.1-1.9,1.1-3.1
	V6.7c0-0.3,0-0.6-0.1-0.9c-0.4-2.3-2.4-4.1-4.9-4.1c-0.8,0-1.5,0.7-1.5,1.5s0.7,1.5,1.5,1.5c0.5,0,0.9,0.2,1.2,0.4
	c0.5,0.4,0.8,0.9,0.8,1.5v10.7c0,0.8-0.5,1.5-1.3,1.8c-0.2,0.1-0.5,0.1-0.7,0.1H41h-6.5l-3.3,3.3L30,23.9l-1.3-1.3l-3.2-3.2h-7.2
	h-2.1c-0.2,0-0.4,0-0.6-0.1v-0.1c-0.1,0-0.2,0-0.3,0c-0.6-0.3-1.1-1-1.1-1.7V6.7c0-1.1,0.9-2,2-2h23c0.8,0,1.5-0.7,1.5-1.5
	s-0.7-1.5-1.5-1.5h-23c-2.7,0-5,2.2-5,5v10.7c0,1,0.3,2,0.9,2.8c-2.6,1.4-4.3,4.2-4.3,7.4c0,2.9,1.5,5.4,3.7,7
	c-1.3,0.5-2.6,1.3-3.7,2.2v0c-0.7,0.5-1.8,2-2.1,2.4l-0.1,0.1C4.3,41,3.7,43,3.7,45.1v1.5h14.7c-0.2,0.4-0.2,0.9,0.1,1.3
	c0,0.1,0.1,0.2,0.2,0.2c0.5,0.6,1.5,0.7,2.1,0.1c1-0.8,2-1.5,3.2-2.1c1.9-0.9,3.9-1.3,6.1-1.3c6.6,0,12,4.3,13,10
	c0,0.1,0.1,0.3,0.1,0.4H18.3h-1.5c0-0.1,0.1-0.3,0.1-0.4c0.3-1.4,0.8-2.8,1.6-4c0.4-0.7,0.2-1.6-0.5-2.1c0,0-0.1,0-0.1-0.1
	c-0.7-0.3-1.5-0.1-1.9,0.5c-1.5,2.3-2.2,4.9-2.2,7.5v1.5h32.5v-1.5c0-4-1.7-7.6-4.5-10.2h5.1c0.8,0,1.5-0.6,1.5-1.4c0,0,0-0.1,0-0.1
	c0-0.8-0.7-1.5-1.5-1.5h-9.5c-0.5-0.3-1.1-0.5-1.7-0.7c-0.1,0-0.2-0.1-0.3-0.1c-0.1,0-0.1,0-0.2-0.1c0.1,0,0.2-0.1,0.2-0.1
	c1.5-0.9,2.8-2.2,3.7-3.7c0.3-0.5,0.5-1,0.7-1.5c0-0.1,0.1-0.2,0.1-0.3c0.4-0.1,0.9-0.2,1.3-0.3c0.6-0.1,1.2-0.2,1.8-0.2
	c4.7,0,8.6,3,9.4,7h-1.3c-0.8,0-1.5,0.7-1.5,1.5c0,0,0,0.1,0,0.1c0,0.8,0.7,1.4,1.5,1.4h4.4v-1.5C55.7,40.4,52.7,36.4,48.4,34.6z
	 M15,22.2c0.4,0.1,0.7,0.1,1.1,0.1h1.3h0.4h5h1.4l0.4,0.4l0.8,0.8c-0.5,0.2-1,0.5-1.4,0.8c-0.2-0.5-0.5-1.1-0.8-1.5H19
	c-0.1,0-0.2,0-0.3,0c0.6,0.3,1.1,0.8,1.6,1.3c0.6,0.7,1,1.6,1.2,2.5c-1.2,1.5-2.1,3.4-2.3,5.5c-0.9,0.6-1.9,0.9-3,0.9
	c-1.6,0-3.1-0.7-4.1-1.9c-0.8-1-1.3-2.2-1.3-3.5C10.7,24.9,12.6,22.7,15,22.2z M7.9,40.9c0.6-0.7,1.3-1.7,1.6-1.9
	c1.1-0.9,2.6-1.8,4.7-2.3c0.6-0.1,1.3-0.2,2-0.2c1.3,0,2.5,0.2,3.6,0.6c0.9,2.4,2.6,4.3,4.8,5.5c-0.7,0.2-1.4,0.5-2.1,0.8H8.3H6.9
	C7.1,42.6,7.4,41.7,7.9,40.9z"/>
<path class="st31" d="M18.5,50.9c-0.8,1.2-1.3,2.6-1.6,4h1.4c0.4-3.6,2.5-6.7,5.5-8.6c-1.2,0.5-2.2,1.2-3.2,2.1
	c-0.6,0.5-1.6,0.5-2.1-0.1c-0.1-0.1-0.1-0.2-0.2-0.2c-0.2,0.3-0.4,0.5-0.5,0.8c0,0,0.1,0,0.1,0.1C18.8,49.2,19,50.2,18.5,50.9z"/>
<path class="st31" d="M36.5,29.1c-0.6-0.9-1.4-1.7-2.3-2.3l-0.8,0.8C34.4,27.9,35.5,28.4,36.5,29.1z"/>
<path class="st31" d="M32.3,27.4l-0.8-0.8l-0.8,0.8c0.2,0,0.5,0,0.7,0C31.7,27.4,32,27.4,32.3,27.4z"/>
<path class="st31" d="M29.5,27.6l-1.8-1.8c-3.2,1-5.6,3.9-5.6,7.5c0,1.5,0.4,2.8,1.1,4c-0.1-0.5-0.2-1.1-0.2-1.6
	C23.1,31.8,25.8,28.5,29.5,27.6z"/>
<linearGradient id="SVGID_6_" gradientUnits="userSpaceOnUse" x1="18.2831" y1="55.0663" x2="45.2877" y2="55.0663">
	<stop  offset="0" style="stop-color:#DADADA"/>
	<stop  offset="1" style="stop-color:#B2B2B2"/>
</linearGradient>
<path class="st8" d="M18.3,55.3h24.8c0-0.1-0.1-0.3-0.1-0.4H18.4C18.4,55,18.4,55.1,18.3,55.3z"/>
<path class="st31" d="M18.4,54.8H43c-1-5.6-6.5-10-13-10c-2.1,0-4.2,0.5-6.1,1.3C20.9,48.2,18.8,51.3,18.4,54.8z"/>
<linearGradient id="SVGID_7_" gradientUnits="userSpaceOnUse" x1="18.2831" y1="49.8627" x2="45.2877" y2="49.8627">
	<stop  offset="0" style="stop-color:#DADADA"/>
	<stop  offset="1" style="stop-color:#B2B2B2"/>
</linearGradient>
<path class="st9" d="M18.4,54.8H43c-1-5.6-6.5-10-13-10c-2.1,0-4.2,0.5-6.1,1.3C20.9,48.2,18.8,51.3,18.4,54.8z"/>
<linearGradient id="SVGID_8_" gradientUnits="userSpaceOnUse" x1="23.0835" y1="42.6507" x2="39.7843" y2="42.6507">
	<stop  offset="0" style="stop-color:#DADADA"/>
	<stop  offset="1" style="stop-color:#B2B2B2"/>
</linearGradient>
<path class="st10" d="M35.3,42.7c0.1,0,0.1,0,0.2,0.1c0-0.1,0-0.1,0.1-0.2C35.4,42.6,35.3,42.6,35.3,42.7z"/>
<linearGradient id="SVGID_9_" gradientUnits="userSpaceOnUse" x1="35.0913" y1="40.8481" x2="54.7811" y2="40.8481">
	<stop  offset="0" style="stop-color:#DADADA"/>
	<stop  offset="1" style="stop-color:#B2B2B2"/>
</linearGradient>
<path class="st11" d="M39.2,38.8c-0.9,1.5-2.2,2.8-3.7,3.7c0,0.1,0,0.1-0.1,0.2c0.1,0,0.2,0.1,0.3,0.1
	C37.3,41.9,38.5,40.5,39.2,38.8z"/>
<linearGradient id="SVGID_10_" gradientUnits="userSpaceOnUse" x1="23.0835" y1="40.8481" x2="39.7843" y2="40.8481">
	<stop  offset="0" style="stop-color:#DADADA"/>
	<stop  offset="1" style="stop-color:#B2B2B2"/>
</linearGradient>
<path class="st12" d="M39.2,38.8c-0.9,1.5-2.2,2.8-3.7,3.7c0,0.1,0,0.1-0.1,0.2c0.1,0,0.2,0.1,0.3,0.1
	C37.3,41.9,38.5,40.5,39.2,38.8z"/>
<path class="st31" d="M33.3,27.6L32.9,28l-0.5-0.5c-0.3,0-0.6-0.1-0.9-0.1c-0.2,0-0.5,0-0.7,0L30,28.2l-0.5-0.5
	c-3.7,0.9-6.4,4.2-6.4,8.1c0,0.5,0.1,1.1,0.2,1.6c1.4,2.3,3.8,3.8,6.7,3.8c4.3,0,7.8-3.5,7.8-7.8c0-1.6-0.5-3-1.3-4.2
	C35.5,28.4,34.4,27.9,33.3,27.6z"/>
<linearGradient id="SVGID_11_" gradientUnits="userSpaceOnUse" x1="23.0836" y1="34.2554" x2="39.7843" y2="34.2554">
	<stop  offset="0" style="stop-color:#DADADA"/>
	<stop  offset="1" style="stop-color:#B2B2B2"/>
</linearGradient>
<path class="st13" d="M33.3,27.6L32.9,28l-0.5-0.5c-0.3,0-0.6-0.1-0.9-0.1c-0.2,0-0.5,0-0.7,0L30,28.2l-0.5-0.5
	c-3.7,0.9-6.4,4.2-6.4,8.1c0,0.5,0.1,1.1,0.2,1.6c1.4,2.3,3.8,3.8,6.7,3.8c4.3,0,7.8-3.5,7.8-7.8c0-1.6-0.5-3-1.3-4.2
	C35.5,28.4,34.4,27.9,33.3,27.6z"/>
<linearGradient id="SVGID_12_" gradientUnits="userSpaceOnUse" x1="15.5605" y1="23.198" x2="50.197" y2="23.198">
	<stop  offset="0" style="stop-color:#FCC778"/>
	<stop  offset="1" style="stop-color:#F08244"/>
</linearGradient>
<path class="st14" d="M36.5,22.4h-0.6l-1.2,1.2c0.3,0.1,0.6,0.3,0.9,0.5C35.7,23.4,36,22.9,36.5,22.4z"/>
<linearGradient id="SVGID_13_" gradientUnits="userSpaceOnUse" x1="15.5605" y1="13.8803" x2="50.1969" y2="13.8803">
	<stop  offset="0" style="stop-color:#FCC778"/>
	<stop  offset="1" style="stop-color:#F08244"/>
</linearGradient>
<path class="st15" d="M18.2,19.3h7.2l3.2,3.2c0.4,0,0.8-0.1,1.3-0.1c0.5,0,0.9,0,1.4,0.1l3.3-3.3H41c0.7-0.2,1.4-0.3,2.1-0.3
	c0.5,0,1,0.1,1.4,0.1c0.7-0.3,1.3-1,1.3-1.8V6.7c0-0.6-0.3-1.2-0.8-1.5H19c-1.9,0-3.5,1.6-3.5,3.5v10.5c0.2,0,0.4,0,0.6,0
	C16.9,19.1,17.6,19.2,18.2,19.3z M38.2,15.9h-2.6c-0.6,0-1-0.4-1-1s0.4-1,1-1h2.6c0.6,0,1,0.4,1,1S38.8,15.9,38.2,15.9z M19.3,8.5
	h21.1c0.6,0,1,0.4,1,1s-0.4,1-1,1H19.3c-0.6,0-1-0.4-1-1S18.7,8.5,19.3,8.5z M19.3,13.9h12.5c0.6,0,1,0.4,1,1s-0.4,1-1,1H19.3
	c-0.6,0-1-0.4-1-1S18.7,13.9,19.3,13.9z"/>
<linearGradient id="SVGID_14_" gradientUnits="userSpaceOnUse" x1="15.5605" y1="22.5283" x2="50.197" y2="22.5283">
	<stop  offset="0" style="stop-color:#FCC778"/>
	<stop  offset="1" style="stop-color:#F08244"/>
</linearGradient>
<path class="st16" d="M43.8,22.4h-2.4c-0.3,0.1-0.7,0.3-1,0.4h5.3c-0.4-0.2-0.8-0.4-1.2-0.5C44.3,22.3,44.1,22.4,43.8,22.4z"/>
<linearGradient id="SVGID_15_" gradientUnits="userSpaceOnUse" x1="15.5605" y1="22.5627" x2="50.197" y2="22.5627">
	<stop  offset="0" style="stop-color:#FCC778"/>
	<stop  offset="1" style="stop-color:#F08244"/>
</linearGradient>
<path class="st17" d="M24.6,22.8l-0.4-0.4h-1.4c0.1,0.1,0.2,0.3,0.3,0.4H24.6z"/>
<linearGradient id="SVGID_16_" gradientUnits="userSpaceOnUse" x1="15.5605" y1="13.7447" x2="50.197" y2="13.7447">
	<stop  offset="0" style="stop-color:#FCC778"/>
	<stop  offset="1" style="stop-color:#F08244"/>
</linearGradient>
<path class="st18" d="M48.8,17.4c0,1.2-0.4,2.2-1.1,3.1c0.6,0.4,1.1,0.8,1.5,1.3c0.6-0.6,1-1.5,1-2.4V8.6c0-1.2-0.6-2.2-1.5-2.8
	c0.1,0.3,0.1,0.6,0.1,0.9V17.4z"/>
<linearGradient id="SVGID_17_" gradientUnits="userSpaceOnUse" x1="15.5605" y1="22.5497" x2="50.197" y2="22.5497">
	<stop  offset="0" style="stop-color:#FCC778"/>
	<stop  offset="1" style="stop-color:#F08244"/>
</linearGradient>
<path class="st19" d="M17.8,22.3h-0.4c0.4,0.2,0.9,0.4,1.4,0.4C18.5,22.6,18.2,22.5,17.8,22.3z"/>
<path class="st23" d="M16.1,19.3h2.1c-0.7-0.2-1.4-0.3-2.1-0.3c-0.2,0-0.4,0-0.6,0v0.1C15.7,19.3,15.9,19.3,16.1,19.3z"/>
<linearGradient id="SVGID_18_" gradientUnits="userSpaceOnUse" x1="15.5605" y1="19.2164" x2="50.1969" y2="19.2164">
	<stop  offset="0" style="stop-color:#FCC778"/>
	<stop  offset="1" style="stop-color:#F08244"/>
</linearGradient>
<path class="st20" d="M16.1,19.3h2.1c-0.7-0.2-1.4-0.3-2.1-0.3c-0.2,0-0.4,0-0.6,0v0.1C15.7,19.3,15.9,19.3,16.1,19.3z"/>
<path class="st23" d="M19,22.8h4.1c-0.1-0.1-0.2-0.3-0.3-0.4h-5c0.3,0.1,0.6,0.2,0.9,0.4C18.9,22.8,18.9,22.8,19,22.8z"/>
<linearGradient id="SVGID_19_" gradientUnits="userSpaceOnUse" x1="15.5605" y1="22.5627" x2="50.197" y2="22.5627">
	<stop  offset="0" style="stop-color:#FCC778"/>
	<stop  offset="1" style="stop-color:#F08244"/>
</linearGradient>
<path class="st21" d="M19,22.8h4.1c-0.1-0.1-0.2-0.3-0.3-0.4h-5c0.3,0.1,0.6,0.2,0.9,0.4C18.9,22.8,18.9,22.8,19,22.8z"/>
<path class="st23" d="M36.5,22.4c-0.4,0.5-0.8,1.1-1,1.7c-0.3-0.2-0.6-0.3-0.9-0.5l-2.3,2.3c0.7,0.2,1.3,0.5,1.8,0.9l4-4h2.4
	c0.3-0.2,0.6-0.3,1-0.4H36.5z"/>
<linearGradient id="SVGID_20_" gradientUnits="userSpaceOnUse" x1="15.5605" y1="24.5495" x2="50.197" y2="24.5495">
	<stop  offset="0" style="stop-color:#FCC778"/>
	<stop  offset="1" style="stop-color:#F08244"/>
</linearGradient>
<path class="st22" d="M36.5,22.4c-0.4,0.5-0.8,1.1-1,1.7c-0.3-0.2-0.6-0.3-0.9-0.5l-2.3,2.3c0.7,0.2,1.3,0.5,1.8,0.9l4-4h2.4
	c0.3-0.2,0.6-0.3,1-0.4H36.5z"/>
<path class="st23" d="M47.7,20.5c-0.8,1-1.9,1.6-3.2,1.8c0.4,0.1,0.8,0.3,1.2,0.5h1c1,0,1.9-0.4,2.5-1.1
	C48.8,21.2,48.3,20.8,47.7,20.5z"/>
<linearGradient id="SVGID_21_" gradientUnits="userSpaceOnUse" x1="15.5605" y1="21.6173" x2="50.197" y2="21.6173">
	<stop  offset="0" style="stop-color:#FCC778"/>
	<stop  offset="1" style="stop-color:#F08244"/>
</linearGradient>
<path class="st24" d="M47.7,20.5c-0.8,1-1.9,1.6-3.2,1.8c0.4,0.1,0.8,0.3,1.2,0.5h1c1,0,1.9-0.4,2.5-1.1
	C48.8,21.2,48.3,20.8,47.7,20.5z"/>
<path class="st23" d="M41,19.4h2.8c0.2,0,0.5-0.1,0.7-0.1c-0.5-0.1-0.9-0.1-1.4-0.1C42.4,19.1,41.7,19.2,41,19.4z"/>
<linearGradient id="SVGID_22_" gradientUnits="userSpaceOnUse" x1="15.5605" y1="19.2169" x2="50.197" y2="19.2169">
	<stop  offset="0" style="stop-color:#FCC778"/>
	<stop  offset="1" style="stop-color:#F08244"/>
</linearGradient>
<path class="st25" d="M41,19.4h2.8c0.2,0,0.5-0.1,0.7-0.1c-0.5-0.1-0.9-0.1-1.4-0.1C42.4,19.1,41.7,19.2,41,19.4z"/>
<path class="st31" d="M31.5,26.6l0.8,0.8c0.3,0,0.6,0.1,0.9,0.2l0.8-0.8c-0.6-0.4-1.2-0.7-1.8-0.9L31.5,26.6z"/>
<linearGradient id="SVGID_23_" gradientUnits="userSpaceOnUse" x1="15.5605" y1="26.7398" x2="50.197" y2="26.7398">
	<stop  offset="0" style="stop-color:#FCC778"/>
	<stop  offset="1" style="stop-color:#F08244"/>
</linearGradient>
<path class="st26" d="M31.5,26.6l0.8,0.8c0.3,0,0.6,0.1,0.9,0.2l0.8-0.8c-0.6-0.4-1.2-0.7-1.8-0.9L31.5,26.6z"/>
<path class="st31" d="M33.3,27.6c-0.3-0.1-0.6-0.1-0.9-0.2l0.5,0.5L33.3,27.6z"/>
<linearGradient id="SVGID_24_" gradientUnits="userSpaceOnUse" x1="23.0835" y1="27.7073" x2="39.7843" y2="27.7073">
	<stop  offset="0" style="stop-color:#DADADA"/>
	<stop  offset="1" style="stop-color:#B2B2B2"/>
</linearGradient>
<path class="st27" d="M33.3,27.6c-0.3-0.1-0.6-0.1-0.9-0.2l0.5,0.5L33.3,27.6z"/>
<linearGradient id="SVGID_25_" gradientUnits="userSpaceOnUse" x1="15.5605" y1="27.7073" x2="50.197" y2="27.7073">
	<stop  offset="0" style="stop-color:#FCC778"/>
	<stop  offset="1" style="stop-color:#F08244"/>
</linearGradient>
<path class="st28" d="M33.3,27.6c-0.3-0.1-0.6-0.1-0.9-0.2l0.5,0.5L33.3,27.6z"/>
<path class="st23" d="M28.7,22.6l1.3,1.3l1.3-1.3c-0.5-0.1-0.9-0.1-1.4-0.1C29.5,22.5,29.1,22.5,28.7,22.6z"/>
<linearGradient id="SVGID_26_" gradientUnits="userSpaceOnUse" x1="15.5605" y1="23.2213" x2="50.197" y2="23.2213">
	<stop  offset="0" style="stop-color:#FCC778"/>
	<stop  offset="1" style="stop-color:#F08244"/>
</linearGradient>
<path class="st29" d="M28.7,22.6l1.3,1.3l1.3-1.3c-0.5-0.1-0.9-0.1-1.4-0.1C29.5,22.5,29.1,22.5,28.7,22.6z"/>
<path class="st23" d="M19.3,10.5h21.1c0.6,0,1-0.4,1-1s-0.4-1-1-1H19.3c-0.6,0-1,0.4-1,1S18.7,10.5,19.3,10.5z"/>
<path class="st23" d="M38.2,13.9h-2.6c-0.6,0-1,0.4-1,1s0.4,1,1,1h2.6c0.6,0,1-0.4,1-1S38.8,13.9,38.2,13.9z"/>
<path class="st23" d="M19.3,15.9h12.5c0.6,0,1-0.4,1-1s-0.4-1-1-1H19.3c-0.6,0-1,0.4-1,1S18.7,15.9,19.3,15.9z"/>
</svg>
