<?xml version="1.0" encoding="utf-8"?>
<!-- Generator: Adobe Illustrator 19.0.1, SVG Export Plug-In . SVG Version: 6.00 Build 0)  -->
<svg version="1.1" id="Layer_1" xmlns="http://www.w3.org/2000/svg" xmlns:xlink="http://www.w3.org/1999/xlink" x="0px" y="0px"
	 viewBox="0 0 40 40" style="enable-background:new 0 0 40 40;" xml:space="preserve">
<style type="text/css">
	.st0{fill:none;}
	.st1{fill:#804754;}
	.st2{fill:#D1BF99;}
	.st3{fill:url(#SVGID_1_);}
	.st4{fill:url(#SVGID_2_);}
	.st5{fill:url(#SVGID_3_);}
	.st6{fill:url(#SVGID_4_);}
	.st7{fill:url(#SVGID_5_);}
	.st8{fill:url(#SVGID_6_);}
	.st9{fill:url(#SVGID_7_);}
	.st10{fill:url(#SVGID_8_);}
	.st11{fill:url(#SVGID_9_);}
	.st12{fill:url(#SVGID_10_);}
	.st13{fill:url(#SVGID_11_);}
	.st14{fill:url(#SVGID_12_);}
	.st15{fill:url(#SVGID_13_);}
	.st16{fill:url(#SVGID_14_);}
	.st17{fill:url(#SVGID_15_);}
	.st18{fill:url(#SVGID_16_);}
	.st19{fill:url(#SVGID_17_);}
	.st20{fill:url(#SVGID_18_);}
	.st21{fill:url(#SVGID_19_);}
	.st22{fill:url(#SVGID_20_);}
	.st23{fill:#562636;}
	.st24{fill:url(#SVGID_21_);}
	.st25{fill:url(#SVGID_22_);}
	.st26{fill:url(#SVGID_23_);}
	.st27{fill:url(#SVGID_24_);}
	.st28{fill:url(#SVGID_25_);}
	.st29{fill:url(#SVGID_26_);}
	.st30{fill:url(#SVGID_27_);}
	.st31{fill:#FFFFFF;}
	.st32{fill:url(#SVGID_28_);}
	.st33{fill:url(#SVGID_29_);}
	.st34{fill:url(#SVGID_30_);}
	.st35{fill:url(#SVGID_31_);}
	.st36{fill:url(#SVGID_32_);}
	.st37{fill:url(#SVGID_33_);}
	.st38{fill:url(#SVGID_34_);}
	.st39{fill:url(#SVGID_35_);}
	.st40{fill:url(#SVGID_36_);}
	.st41{fill:url(#SVGID_37_);}
	.st42{fill:url(#SVGID_38_);}
	.st43{fill:url(#SVGID_39_);}
	.st44{fill:url(#SVGID_40_);}
	.st45{fill:url(#SVGID_41_);}
	.st46{fill:url(#SVGID_42_);}
	.st47{fill:url(#SVGID_43_);}
	.st48{fill:url(#SVGID_44_);}
	.st49{fill:url(#SVGID_45_);}
	.st50{fill:url(#SVGID_46_);}
	.st51{fill:url(#SVGID_47_);}
	.st52{fill:url(#SVGID_48_);}
	.st53{fill:url(#SVGID_49_);}
	.st54{fill:url(#SVGID_50_);}
	.st55{fill:url(#SVGID_51_);}
	.st56{fill:url(#SVGID_52_);}
	.st57{fill:url(#SVGID_53_);}
	.st58{fill:url(#SVGID_54_);}
	.st59{fill:url(#SVGID_55_);}
	.st60{fill:url(#SVGID_56_);}
	.st61{fill:url(#SVGID_57_);}
	.st62{fill:url(#SVGID_58_);}
	.st63{fill:url(#SVGID_59_);}
	.st64{fill:url(#SVGID_60_);}
	.st65{fill:url(#SVGID_61_);}
	.st66{fill:url(#SVGID_62_);}
	.st67{fill:url(#SVGID_63_);}
	.st68{fill:#19A95A;}
	.st69{fill:url(#SVGID_64_);}
	.st70{fill:url(#SVGID_65_);}
	.st71{fill:url(#SVGID_66_);}
	.st72{fill:url(#SVGID_67_);}
	.st73{fill:url(#SVGID_68_);}
	.st74{fill:url(#SVGID_69_);}
	.st75{fill:url(#SVGID_70_);}
	.st76{fill:url(#SVGID_71_);}
	.st77{fill:url(#SVGID_72_);}
	.st78{fill:url(#SVGID_73_);}
	.st79{fill:url(#SVGID_74_);}
	.st80{fill:url(#SVGID_75_);}
	.st81{fill:url(#SVGID_76_);}
	.st82{fill:url(#SVGID_77_);}
	.st83{fill:url(#SVGID_78_);}
	.st84{fill:url(#SVGID_79_);}
	.st85{fill:#D9C198;}
</style>
<g>
	<path class="st1" d="M20.9,22.2c2.3-0.6,4-2.7,4-5.3c0-2.9-2.4-5.4-5.4-5.4c-2.9,0-5.4,2.4-5.4,5.4c0,0.8,0.6,1.4,1.4,1.4
		c0.8,0,1.4-0.6,1.4-1.4c0-1.4,1.2-2.7,2.7-2.7c1.4,0,2.7,1.2,2.7,2.7c0,1.4-1.2,2.7-2.7,2.7c-0.8,0-1.4,0.6-1.4,1.4v2
		c0,0.8,0.6,1.4,1.4,1.4c0.8,0,1.4-0.6,1.4-1.4V22.2z"/>
	<path class="st1" d="M18.6,25.8c-0.3,0.3-0.4,0.6-0.4,1c0,0.3,0.1,0.7,0.4,1s0.6,0.4,1,0.4c0.3,0,0.7-0.1,1-0.4s0.4-0.6,0.4-1
		c0-0.3-0.1-0.7-0.4-1C20,25.3,19,25.3,18.6,25.8z"/>
	<path class="st1" d="M4,21.5C4,21.5,4,21.5,4,21.5c0.8,0,1.5-0.7,1.5-1.5c0-0.7,0-1.4,0.1-2.1c0.8-6.4,6.1-11.6,12.5-12.4
		c4.5-0.6,9,0.9,12.1,4.1c3.2,3.2,4.7,7.6,4.1,12.1c-0.8,6.4-6.1,11.7-12.5,12.5c-3.4,0.4-6.6-0.3-9.5-2c-0.7-0.5-1.6-0.6-5.6,1.5
		c1.6-4.9,1.1-5.9,0.8-6.4c-0.5-0.8-0.9-1.6-1.2-2.4c-0.3-0.8-1.2-1.2-1.9-0.9c-0.8,0.3-1.2,1.2-0.9,1.9c0.4,1,0.8,1.9,1.3,2.8
		c0,0.3-0.1,1.7-1.7,6.1c-0.3,0.8-0.1,1.8,0.6,2.4c0.4,0.3,0.9,0.5,1.4,0.5c0.4,0,0.7-0.1,1-0.3c2.8-1.6,4.3-2.2,4.9-2.4
		c3.3,1.9,7.1,2.7,11,2.2c7.8-1,14.1-7.3,15.1-15.1c0.7-5.5-1.1-10.8-5-14.6c-3.9-3.9-9.2-5.7-14.6-5c-7.7,1-14.1,7.3-15.1,15
		c-0.1,0.8-0.2,1.7-0.2,2.5C2.5,20.8,3.2,21.5,4,21.5z"/>
</g>
</svg>
