<?xml version="1.0" encoding="utf-8"?>
<!-- Generator: Adobe Illustrator 19.0.1, SVG Export Plug-In . SVG Version: 6.00 Build 0)  -->
<svg version="1.1" id="Layer_1" xmlns="http://www.w3.org/2000/svg" xmlns:xlink="http://www.w3.org/1999/xlink" x="0px" y="0px"
	 viewBox="0 0 100 100" style="enable-background:new 0 0 100 100;" xml:space="preserve">
<style type="text/css">
	.st0{fill:none;}
	.st1{fill:#804754;}
	.st2{fill:#D1BF99;}
	.st3{fill:url(#SVGID_1_);}
	.st4{fill:url(#SVGID_2_);}
	.st5{fill:url(#SVGID_3_);}
	.st6{fill:url(#SVGID_4_);}
	.st7{fill:url(#SVGID_5_);}
	.st8{fill:url(#SVGID_6_);}
	.st9{fill:url(#SVGID_7_);}
	.st10{fill:url(#SVGID_8_);}
	.st11{fill:url(#SVGID_9_);}
	.st12{fill:url(#SVGID_10_);}
	.st13{fill:url(#SVGID_11_);}
	.st14{fill:url(#SVGID_12_);}
	.st15{fill:url(#SVGID_13_);}
	.st16{fill:url(#SVGID_14_);}
	.st17{fill:url(#SVGID_15_);}
	.st18{fill:url(#SVGID_16_);}
	.st19{fill:url(#SVGID_17_);}
	.st20{fill:url(#SVGID_18_);}
	.st21{fill:url(#SVGID_19_);}
	.st22{fill:url(#SVGID_20_);}
	.st23{fill:#562636;}
	.st24{fill:url(#SVGID_21_);}
	.st25{fill:url(#SVGID_22_);}
	.st26{fill:url(#SVGID_23_);}
	.st27{fill:url(#SVGID_24_);}
	.st28{fill:url(#SVGID_25_);}
	.st29{fill:url(#SVGID_26_);}
	.st30{fill:url(#SVGID_27_);}
	.st31{fill:#FFFFFF;}
	.st32{fill:url(#SVGID_28_);}
	.st33{fill:url(#SVGID_29_);}
	.st34{fill:url(#SVGID_30_);}
	.st35{fill:url(#SVGID_31_);}
	.st36{fill:url(#SVGID_32_);}
	.st37{fill:url(#SVGID_33_);}
	.st38{fill:url(#SVGID_34_);}
	.st39{fill:url(#SVGID_35_);}
	.st40{fill:url(#SVGID_36_);}
	.st41{fill:url(#SVGID_37_);}
	.st42{fill:url(#SVGID_38_);}
	.st43{fill:url(#SVGID_39_);}
	.st44{fill:url(#SVGID_40_);}
	.st45{fill:url(#SVGID_41_);}
	.st46{fill:url(#SVGID_42_);}
	.st47{fill:url(#SVGID_43_);}
	.st48{fill:url(#SVGID_44_);}
	.st49{fill:url(#SVGID_45_);}
	.st50{fill:url(#SVGID_46_);}
	.st51{fill:url(#SVGID_47_);}
	.st52{fill:url(#SVGID_48_);}
	.st53{fill:url(#SVGID_49_);}
	.st54{fill:url(#SVGID_50_);}
	.st55{fill:url(#SVGID_51_);}
	.st56{fill:url(#SVGID_52_);}
	.st57{fill:url(#SVGID_53_);}
	.st58{fill:url(#SVGID_54_);}
	.st59{fill:url(#SVGID_55_);}
	.st60{fill:url(#SVGID_56_);}
	.st61{fill:url(#SVGID_57_);}
	.st62{fill:url(#SVGID_58_);}
	.st63{fill:url(#SVGID_59_);}
	.st64{fill:url(#SVGID_60_);}
	.st65{fill:url(#SVGID_61_);}
	.st66{fill:url(#SVGID_62_);}
	.st67{fill:url(#SVGID_63_);}
	.st68{fill:#19A95A;}
	.st69{fill:url(#SVGID_64_);}
	.st70{fill:url(#SVGID_65_);}
	.st71{fill:url(#SVGID_66_);}
	.st72{fill:url(#SVGID_67_);}
	.st73{fill:url(#SVGID_68_);}
	.st74{fill:url(#SVGID_69_);}
	.st75{fill:url(#SVGID_70_);}
	.st76{fill:url(#SVGID_71_);}
	.st77{fill:url(#SVGID_72_);}
	.st78{fill:url(#SVGID_73_);}
	.st79{fill:url(#SVGID_74_);}
	.st80{fill:url(#SVGID_75_);}
	.st81{fill:url(#SVGID_76_);}
	.st82{fill:url(#SVGID_77_);}
	.st83{fill:url(#SVGID_78_);}
	.st84{fill:url(#SVGID_79_);}
	.st85{fill:#D9C198;}
	.st86{opacity:0.85;fill:url(#SVGID_80_);}
	.st87{fill:url(#SVGID_81_);}
	.st88{fill:url(#SVGID_82_);}
	.st89{opacity:0.85;fill:url(#SVGID_83_);}
	.st90{fill:url(#SVGID_84_);}
	.st91{opacity:0.85;fill:url(#SVGID_85_);}
	.st92{fill:url(#SVGID_86_);}
	.st93{opacity:0.85;fill:url(#SVGID_87_);}
	.st94{fill:url(#SVGID_88_);}
	.st95{fill:url(#SVGID_89_);}
	.st96{fill:url(#SVGID_90_);}
	.st97{fill:url(#SVGID_91_);}
	.st98{opacity:0.85;fill:url(#SVGID_92_);}
	.st99{fill:url(#SVGID_93_);}
	.st100{opacity:0.85;fill:url(#SVGID_94_);}
	.st101{fill:url(#SVGID_95_);}
	.st102{fill:url(#SVGID_96_);}
	.st103{opacity:0.85;fill:url(#SVGID_97_);}
	.st104{fill:url(#SVGID_98_);}
	.st105{fill:url(#SVGID_99_);}
	.st106{fill:url(#SVGID_100_);}
	.st107{fill:url(#SVGID_101_);}
	.st108{opacity:0.85;}
	.st109{fill:url(#SVGID_102_);}
	.st110{fill:url(#SVGID_103_);}
	.st111{fill:url(#SVGID_104_);}
	.st112{opacity:0.85;fill:url(#SVGID_105_);}
	.st113{fill:url(#SVGID_106_);}
	.st114{opacity:0.85;fill:url(#SVGID_107_);}
	.st115{fill:none;stroke:url(#SVGID_108_);stroke-width:6;stroke-linecap:round;stroke-linejoin:round;stroke-miterlimit:10;}
</style>
<g>
	<linearGradient id="SVGID_1_" gradientUnits="userSpaceOnUse" x1="19.6201" y1="54.1282" x2="87.9503" y2="54.1282">
		<stop  offset="5.076142e-003" style="stop-color:#E2D2B4"/>
		<stop  offset="1" style="stop-color:#D0BE98"/>
	</linearGradient>
	<circle style="opacity:0.85;fill:url(#SVGID_1_);" cx="53.8" cy="54.1" r="34.2"/>
	<g>
		<g>
			<g>
				<linearGradient id="SVGID_2_" gradientUnits="userSpaceOnUse" x1="35.7241" y1="42.6874" x2="57.6855" y2="42.6874">
					<stop  offset="4.568528e-002" style="stop-color:#8D4254"/>
					<stop  offset="1" style="stop-color:#AE565A"/>
				</linearGradient>
				<path class="st4" d="M46.7,55.7c-1.5,0-2.8-1.3-2.8-2.8v-4c0-1.5,1.3-2.8,2.8-2.8c3.1,0,5.4-2.5,5.4-5.4c0-3.1-2.5-5.4-5.4-5.4
					c-3.1,0-5.4,2.5-5.4,5.4c0,1.5-1.3,2.8-2.8,2.8s-2.8-1.3-2.8-2.8c0-6.1,5-11,11-11c6.1,0,11,5,11,11c0,5.1-3.5,9.5-8.2,10.7v1.5
					C49.5,54.4,48.2,55.7,46.7,55.7z"/>
				<linearGradient id="SVGID_3_" gradientUnits="userSpaceOnUse" x1="35.4169" y1="42.6882" x2="57.992" y2="42.6882">
					<stop  offset="4.568528e-002" style="stop-color:#8D4254"/>
					<stop  offset="1" style="stop-color:#AE565A"/>
				</linearGradient>
				<path class="st5" d="M46.7,56c-1.7,0-3.1-1.4-3.1-3.1v-4c0-1.7,1.4-3.1,3.1-3.1c2.8,0,5.1-2.3,5.1-5.1s-2.3-5.1-5.1-5.1
					s-5.1,2.3-5.1,5.1c0,1.7-1.4,3.1-3.1,3.1s-3.1-1.4-3.1-3.1c0-6.2,5.1-11.3,11.3-11.3S58,34.4,58,40.7c0,5.1-3.4,9.5-8.2,10.9
					v1.3C49.8,54.6,48.4,56,46.7,56z M46.7,34.9c3.2,0,5.7,2.6,5.7,5.7s-2.6,5.7-5.7,5.7c-1.4,0-2.5,1.1-2.5,2.5v4
					c0,1.4,1.1,2.5,2.5,2.5s2.5-1.1,2.5-2.5v-1.8l0.2-0.1c4.7-1.2,8-5.5,8-10.4c0-5.9-4.8-10.7-10.7-10.7S36,34.8,36,40.7
					c0,1.4,1.1,2.5,2.5,2.5S41,42,41,40.7C41,37.5,43.5,34.9,46.7,34.9z"/>
			</g>
			<g>
				<linearGradient id="SVGID_4_" gradientUnits="userSpaceOnUse" x1="43.3047" y1="62.2563" x2="49.8502" y2="62.2563">
					<stop  offset="4.568528e-002" style="stop-color:#8D4254"/>
					<stop  offset="1" style="stop-color:#AE565A"/>
				</linearGradient>
				<path class="st6" d="M46.6,65.5c-0.8,0-1.6-0.3-2.3-1c-0.7-0.7-1-1.5-1-2.3s0.3-1.6,1-2.3c1.1-1.1,3.4-1.1,4.6,0
					c0.7,0.7,1,1.5,1,2.3s-0.3,1.6-1,2.3C48.2,65.1,47.4,65.5,46.6,65.5z"/>
			</g>
		</g>
		<g>
			<linearGradient id="SVGID_5_" gradientUnits="userSpaceOnUse" x1="12.0497" y1="47.7224" x2="83.3736" y2="47.7224">
				<stop  offset="4.568528e-002" style="stop-color:#8D4254"/>
				<stop  offset="1" style="stop-color:#AE565A"/>
			</linearGradient>
			<path class="st7" d="M17.6,83.7c-1,0-2-0.4-2.8-1.1c-1.4-1.2-1.9-3.1-1.2-4.8C16.9,69,17,66.1,17,65.5c-1.1-1.8-2-3.7-2.7-5.7
				c-0.6-1.6,0.2-3.3,1.8-3.9c1.6-0.6,3.3,0.2,3.9,1.8c0.6,1.7,1.4,3.4,2.4,4.9c0.6,1.1,1.8,3-1.6,13c8.2-4.3,9.9-4,11.4-3.1
				c5.8,3.5,12.4,5,19.3,4.1C64.7,75,75.4,64.3,77,51.2c1.2-9.2-1.9-18.2-8.4-24.8c-6.5-6.5-15.5-9.6-24.8-8.4
				c-13,1.6-23.7,12.3-25.4,25.4c-0.2,1.4-0.3,2.9-0.3,4.3c0,1.7-1.3,3.1-3,3.1c0,0,0,0,0,0c-1.7,0-3-1.3-3.1-3
				c0-1.7,0.1-3.4,0.3-5.1c2-15.8,15-28.6,30.7-30.6c11.1-1.4,22,2.3,29.8,10.1C80.8,30,84.5,40.9,83.1,52
				c-2,15.8-14.9,28.8-30.8,30.8c-7.9,1-15.7-0.6-22.5-4.5c-1.2,0.4-4.3,1.7-10.1,4.9C19.1,83.6,18.4,83.7,17.6,83.7z"/>
		</g>
	</g>
</g>
</svg>
