<?xml version="1.0" encoding="utf-8"?>
<!-- Generator: Adobe Illustrator 19.0.1, SVG Export Plug-In . SVG Version: 6.00 Build 0)  -->
<svg version="1.1" id="Layer_1" xmlns="http://www.w3.org/2000/svg" xmlns:xlink="http://www.w3.org/1999/xlink" x="0px" y="0px"
	 viewBox="0 0 261.9 50" style="enable-background:new 0 0 261.9 50;" xml:space="preserve">
<style type="text/css">
	.st0{fill:none;}
	.st1{fill:#804754;}
	.st2{fill:#D1BF99;}
	.st3{fill:url(#SVGID_1_);}
	.st4{fill:url(#SVGID_2_);}
	.st5{fill:url(#SVGID_3_);}
	.st6{fill:url(#SVGID_4_);}
	.st7{fill:url(#SVGID_5_);}
	.st8{fill:url(#SVGID_6_);}
	.st9{fill:url(#SVGID_7_);}
	.st10{fill:url(#SVGID_8_);}
	.st11{fill:url(#SVGID_9_);}
	.st12{fill:url(#SVGID_10_);}
	.st13{fill:url(#SVGID_11_);}
	.st14{fill:url(#SVGID_12_);}
	.st15{fill:url(#SVGID_13_);}
	.st16{fill:url(#SVGID_14_);}
	.st17{fill:url(#SVGID_15_);}
	.st18{fill:url(#SVGID_16_);}
	.st19{fill:url(#SVGID_17_);}
	.st20{fill:url(#SVGID_18_);}
	.st21{fill:url(#SVGID_19_);}
	.st22{fill:url(#SVGID_20_);}
	.st23{fill:#562636;}
	.st24{fill:url(#SVGID_21_);}
	.st25{fill:url(#SVGID_22_);}
	.st26{fill:url(#SVGID_23_);}
	.st27{fill:url(#SVGID_24_);}
	.st28{fill:url(#SVGID_25_);}
	.st29{fill:url(#SVGID_26_);}
	.st30{fill:url(#SVGID_27_);}
	.st31{fill:#FFFFFF;}
	.st32{fill:url(#SVGID_28_);}
	.st33{fill:url(#SVGID_29_);}
	.st34{fill:url(#SVGID_30_);}
	.st35{fill:url(#SVGID_31_);}
	.st36{fill:url(#SVGID_32_);}
	.st37{fill:url(#SVGID_33_);}
	.st38{fill:url(#SVGID_34_);}
	.st39{fill:url(#SVGID_35_);}
	.st40{fill:url(#SVGID_36_);}
	.st41{fill:url(#SVGID_37_);}
	.st42{fill:url(#SVGID_38_);}
	.st43{fill:url(#SVGID_39_);}
	.st44{fill:url(#SVGID_40_);}
	.st45{fill:url(#SVGID_41_);}
	.st46{fill:url(#SVGID_42_);}
	.st47{fill:url(#SVGID_43_);}
	.st48{fill:url(#SVGID_44_);}
	.st49{fill:url(#SVGID_45_);}
	.st50{fill:url(#SVGID_46_);}
	.st51{fill:url(#SVGID_47_);}
	.st52{fill:url(#SVGID_48_);}
	.st53{fill:url(#SVGID_49_);}
	.st54{fill:url(#SVGID_50_);}
	.st55{fill:url(#SVGID_51_);}
	.st56{fill:url(#SVGID_52_);}
	.st57{fill:url(#SVGID_53_);}
	.st58{fill:url(#SVGID_54_);}
	.st59{fill:url(#SVGID_55_);}
	.st60{fill:url(#SVGID_56_);}
	.st61{fill:url(#SVGID_57_);}
	.st62{fill:url(#SVGID_58_);}
	.st63{fill:url(#SVGID_59_);}
	.st64{fill:url(#SVGID_60_);}
	.st65{fill:url(#SVGID_61_);}
	.st66{fill:url(#SVGID_62_);}
	.st67{fill:url(#SVGID_63_);}
	.st68{fill:#19A95A;}
	.st69{fill:url(#SVGID_64_);}
	.st70{fill:url(#SVGID_65_);}
	.st71{fill:url(#SVGID_66_);}
	.st72{fill:url(#SVGID_67_);}
	.st73{fill:url(#SVGID_68_);}
	.st74{fill:url(#SVGID_69_);}
	.st75{fill:url(#SVGID_70_);}
	.st76{fill:url(#SVGID_71_);}
	.st77{fill:url(#SVGID_72_);}
	.st78{fill:url(#SVGID_73_);}
	.st79{fill:url(#SVGID_74_);}
	.st80{fill:url(#SVGID_75_);}
	.st81{fill:url(#SVGID_76_);}
	.st82{fill:url(#SVGID_77_);}
	.st83{fill:url(#SVGID_78_);}
	.st84{fill:url(#SVGID_79_);}
	.st85{fill:#D9C198;}
</style>
<g>
	<g>
		<path class="st31" d="M74.7,25.6c-0.5,4.9-0.4,8.1-0.3,10c0,0.7,0.1,1.2,0,1.6c-0.1,1.5-0.8,1.8-1.2,1.8c-0.7,0-1.1-0.8-1.3-1
			c-0.7-1.1-1.8-6.9-1.8-10.5c-0.2,0-0.5,0-0.8,0c-0.9,0-1.7,0-2.5-0.1c0,0.7,0,1.4,0.1,2.1c0,2,0.1,3.9,0,5.4
			c-0.1,1.2-0.1,2-0.3,2.5c-0.2,0.9-0.8,1.1-1.2,1.1c-0.3,0-0.6-0.1-0.9-0.3c-1.4-0.6-1.2-2.6-1.2-4.6v-0.1c0-2.2,0-4.5-0.2-7
			c-0.2-2.9,0.4-12.3,0.5-12.7l0-0.4l0.4-0.2c0.3-0.1,0.5-0.2,0.8-0.2c0.3,0,0.7,0.1,1.1,0.4c1.1-0.6,2.7-1.3,4.1-1.3
			c0.8,0,1.4,0.2,1.9,0.6C74.2,14.7,75.3,19.4,74.7,25.6z M70.4,15c-0.2-0.3-0.5-0.4-0.8-0.4c-0.5,0-1.3,0.2-2.6,1.2
			c0.4,2.5,0.2,6,0.1,7.1c-0.1,0.6-0.1,1.3-0.1,2.2c1-0.1,2.3-0.3,3.6-0.3c0.2-1.3,0.5-3.2,0.6-5.1C71.3,16.7,70.8,15.5,70.4,15z"/>
		<path class="st31" d="M91.6,32.1c-1.2,2.5-2.8,4.9-3.8,5.8c-0.8,0.7-1.8,1-2.9,1c-1.4,0-3-0.6-4.9-1.5c-1.4-0.7-2.2-2.1-2.7-3.1
			c-0.5-1.2-0.8-2.6-0.7-3.8c0.1-0.7,0.3-2,1.3-2.3c0.2-0.1,0.4-0.1,0.6-0.1c0.5,0,1.1,0.2,1.5,1.3c0.2,0.6,0.3,1.3,0.4,2
			c0.1,0.5,0.2,1.1,0.3,1.7c0.3,1.3,1.7,2.4,3.2,2.4c0.7,0,1.3-0.2,1.9-0.6c1-0.7,1.8-2.2,2.2-4.4c0.5-2.4,0.4-4.9,0.3-5.8
			c-0.1-1.8-1.4-2-4.7-2.1c-0.8,0-1.5,0-2.3-0.1c-1.4-0.1-2.3-0.6-2.7-1.5c-0.3-0.9-0.2-2.4,2.2-5.2c1.5-1.6,5.1-3.7,7.1-3.7
			c0.4,0,0.8,0.1,1.1,0.3c0.6,0.4,1.1,1.2,0.8,2.1c-0.2,0.8-1,1.3-1.8,1.3c-0.1,0-0.1,0-0.1,0c0,0,0,0-0.1,0c-0.6,0-1.8,0.5-2.4,0.8
			c-0.2,0.1-1.4,0.9-3.6,2.8c-0.2,0.2-0.4,0-0.5,0.6c0.1,0,0.3,0,0.5,0c0.7,0,1.5-0.1,2.7-0.2c0.4-0.1,0.7-0.1,1.1-0.1
			c4.2,0,7.3,2,7.9,5.2C93.8,26.9,92.5,30.3,91.6,32.1z"/>
		<path class="st31" d="M112.6,38.2c-0.3,0.4-0.8,0.7-1.4,0.7c-0.3,0-0.6-0.1-0.8-0.2c-0.6-0.4-1.7-2.4-3.9-6.4l0-0.1
			c-1-1.8-4.9-7.4-6.7-10c-0.3,0.4-0.5,0.6-0.7,0.8c-0.6,0.5-0.9,0.9-1.1,1.2c0,0.1,0,0.1-0.1,0.1c-0.1,2.1-0.2,4-0.2,5.1
			c0,0.3,0,0.6,0,0.9c0,1.5-0.1,3.3-0.2,4.7c0,0.8-0.1,1.4-0.2,1.8c-0.1,0.5-0.1,1.2-0.7,1.3c-0.1,0-0.1,0-0.2,0
			c-0.3,0-1.2-0.2-1.5-1.6c-0.2-0.9-0.3-3.9,0-6.5c0.1-1.2,0.3-5.9,0.4-10.1c0.1-1.8,0.1-3.5,0.2-4.8c0-0.7,0-1.2,0.1-1.5
			c0-0.6,0.1-0.8,0.3-1c0.4-0.3,0.7-0.5,1-0.5c0.4,0,0.7,0.2,0.8,0.5c0.1,0.2,0.2,0.4,0.2,0.8c0.1,0.5,0.1,1.2,0.1,2
			c0,0.1,0,0.3,0,0.5c0,0.6,0,1.6-0.1,3.1c1-1.2,2.1-2.7,2.7-3.5c1.5-2.3,2.2-3.3,2.9-3.5c0.1,0,0.3-0.1,0.4-0.1
			c0.5,0,1,0.3,1.2,0.7c0.2,0.4,0.2,0.9-0.1,1.3l-0.1,0.1c-1.8,2.9-3,4.8-3.8,5.9c0.1,0.2,0.3,0.4,0.4,0.7c0.7,1,2.8,4,4.5,6
			c1.7,2,6.2,9.3,6.6,10.3C113,37.5,112.9,37.9,112.6,38.2z"/>
	</g>
	<g>
		<path class="st31" d="M132.6,15.7c-0.7,0.3-1.7,0.4-3.3,0.4c-0.5,0-1.2,0-1.9-0.1c0,0.2,0,0.5-0.1,0.7c-0.4,2.5-0.2,18.3,0,19.5
			c0.1,0.6-0.1,1.3-0.5,1.8c-0.4,0.5-1,0.8-1.6,0.8c-0.7,0-1.3-0.3-1.7-1c-0.7-1.1-0.7-3.1-0.5-5.9c0.1-1.4,0.1-3,0.1-4.6
			c-0.1-3.5,0.3-8.8,0.5-11.6l-0.6-0.1c-3.6-0.3-4.1-1.7-4.2-2.2c-0.1-0.3,0-0.6,0.1-0.7c0.2-0.3,0.5-0.4,0.9-0.4
			c0.2,0,0.4,0.2,0.7,0.2c0.5,0.1,1.2,0.3,2.1,0.3c0.2,0,0.3,0,0.5,0c0.9,0,2.1-0.3,3.4-0.4c1.6-0.2,3.2-0.4,4.5-0.4
			c0.5,0,1,0,1.3,0c1.5,0.3,1.9,0.9,2,1.5C134.5,14.4,133.9,15.2,132.6,15.7z"/>
		<path class="st31" d="M149.7,19.6c0,0.9,0,1.8,0,2.5c0,1,0,2.4-0.1,4c0,3-0.1,6.3,0,8c0.1,1.4,0.1,2.3,0,2.9
			c-0.2,0.9-0.5,1.5-1.2,1.6c-0.1,0-0.2,0-0.3,0c-1,0-1.7-1-1.7-2.6c0-0.4-0.1-1.5-0.2-2.7c-0.1-1.5-0.3-3.3-0.4-4.7
			c0-0.4,0-1.1,0-2c-0.4,0-0.8,0-1.3,0c-0.9,0-1.8,0.1-2.7,0.1c-1,0-1.7,0-2.2-0.1c-0.2,0-0.4-0.1-0.6-0.1c-0.3,0-0.6-0.1-0.8-0.1
			c0.1,0.5,0.1,0.8,0.1,1.1c0,0.3-0.1,0.6-0.1,1c-0.1,0.8-0.2,1.8-0.1,2.7c0.1,0.7,0.1,1.5,0.1,2.2c0,0.7,0,1.4,0.1,2
			c0,0.3,0.1,0.6,0.1,0.9c0.1,0.8,0.2,1.5-0.3,2.1c-0.2,0.2-0.5,0.4-0.8,0.4c-1.3,0-1.9-2.4-1.9-4.7c0-1.1,0-2.7,0-4.3
			c0-2.6,0-5.5-0.1-7.5c0-0.5-0.1-1.2-0.1-1.8c-0.1-1.5-0.1-3.2-0.2-4.5c-0.1-2.2,0-2.6,0.2-2.8c0.2-0.3,0.6-0.6,1.1-0.6
			c0.1,0,0.2,0,0.3,0c0.9,0.2,0.9,1,0.9,1.5c0,0.1,0,0.1,0,0.2c0,0.6,0.1,5.3,0.2,7.3c0,0.7,0.1,1.7,0.2,2.6
			c1.4-0.3,3.4-0.6,4.9-0.6c0.4,0,0.8,0,1,0c0.2,0,0.3,0,0.4,0c0.1,0,0.2,0,0.4,0c0.4,0,0.8-0.1,1.3,0c0.2-3.7,0.5-8,0.5-9
			c0.1-1.7,0.5-2.2,0.7-2.4l0.1,0l0.1,0c0.1-0.1,0.2-0.1,0.4-0.1c0.5,0,0.9,0.3,1.4,0.9C149.8,13.6,149.8,15.5,149.7,19.6z"/>
		<path class="st31" d="M165.2,14.1c-1.2,0.7-4.4,1-6.3,1c-0.3,0-0.6-0.1-0.9-0.1h-0.1c-0.7,0-1.6,0-2.3-0.1c0,0.1,0,0.3,0,0.5
			c0,1.1-0.1,3.2-0.1,6.3c1.1-0.2,2.3-0.4,3.2-0.4c0.6,0,1,0.1,1.3,0.2c0.8,0.5,1.2,1.1,1.1,1.7c-0.2,0.9-1.6,1.1-2.5,1.2
			c-1.3,0.1-2.2,0.1-2.9,0.1c0,0.9,0.1,1.8,0.1,2.7c0.4,7.5,1.2,7.7,2.1,8c0.1,0,0.2,0.1,0.4,0c1.3,0,3.7-1,4.5-1.4
			c0.1-0.1,0.2-0.1,0.3-0.1c0.3,0,0.7,0.2,0.8,0.7c0.2,0.8-0.4,2.4-3.5,3.7c-0.8,0.4-1.7,0.6-2.4,0.6c-2.7,0-4.2-2.3-4.6-3.1
			c-0.3-0.5-0.7-1.6-0.9-5.7c-0.1-2.5-0.2-5.2-0.2-6.9l0-0.1c0-2.8,0.5-7.2,0.9-9.1c-0.1-0.3-0.1-0.5,0.1-0.8l0.2-0.3l0.1,0
			c0,0,0.1-0.1,0.1-0.1c0.2-0.2,0.4-0.4,0.7-0.4c0.2,0,0.5,0.1,0.7,0.3c1.9-0.2,5.9-0.7,7.9-0.8c0.3,0,0.5,0,0.8,0
			c1.3,0,2.3,0,2.5,0.8C166.2,13.4,165.5,13.9,165.2,14.1z"/>
	</g>
	<g>
		<path class="st31" d="M195.7,15.2c-0.1,0.9-0.3,3.1-0.6,5.6c-0.4,4.3-0.9,9.6-1.2,11.4c-0.1,0.6-0.1,1.3-0.2,1.9
			c-0.1,1.1-0.1,2.2-0.4,3c-0.5,1.5-1.4,1.8-2.2,1.8c-0.1,0-0.2,0-0.4,0c-1.2-0.1-2.2-1.5-3.3-4.6c-0.8-2.3-1.4-5-2-7.2
			c-0.2,2.3-0.4,4.2-0.6,5.1c-0.1,0.6-0.1,1.3-0.2,1.9c-0.1,1.1-0.1,2.2-0.4,3c-0.5,1.5-1.4,1.8-2.2,1.8c-0.1,0-0.2,0-0.4,0
			c-1.2-0.1-2.2-1.5-3.3-4.6c-0.8-2.3-1.5-5.1-2-7.3c-0.2-1-0.4-1.8-0.6-2.4c-0.3-1.1-0.7-2.4-1.1-3.7c-0.5-1.4-1-3-1.3-4.1
			c-0.3-1.2-0.4-2.1-0.1-2.6c0-0.1,0-0.3,0-0.4c0.2-1,0.7-1.3,1.1-1.3c0.4,0,0.6,0.2,0.9,0.5c0.4,0.5,1,2.1,2.3,5.6
			c0.6,1.7,1.3,3.4,1.8,4.7c0.7,1.7,1.2,3.3,1.7,4.6c0.1,0.2,0.1,0.3,0.1,0.5c0-0.2,0.1-0.4,0.1-0.6c0.2-1.4,0.4-3.1,0.8-5.1
			c0.2-1.2,0.4-2.4,0.6-3.5c0-0.2,0.1-0.5,0.1-0.7c-0.7-2.3-1-3.7-0.6-4.4c0-0.1,0-0.3,0.1-0.4c0.1-1,0.7-1.3,1.1-1.3
			c0.3,0,0.6,0.2,0.8,0.5c0.1-0.1,0.2-0.2,0.3-0.3c0.3-0.2,0.7-0.5,1.1-0.5c0.3,0,0.6,0.1,0.8,0.4c0.4,0.4,0.5,1.2,0.3,2.8
			c-0.1,0.5-0.2,1.3-0.3,2.7l0.2,0.6c0.6,1.7,1.3,3.4,1.8,4.8c0.7,1.7,1.2,3.3,1.7,4.6c0.1,0.2,0.1,0.3,0.2,0.5
			c0-0.2,0.1-0.4,0.1-0.6c0.2-1.4,0.4-3.1,0.8-5.1c0.2-1.2,0.4-2.4,0.6-3.5c0.7-4.5,1-6.1,1.8-6.6c0.3-0.2,0.6-0.5,1.1-0.5
			c0.3,0,0.6,0.1,0.8,0.4C195.8,12.8,195.9,13.6,195.7,15.2z"/>
		<path class="st31" d="M208.6,34.1c-0.3,3.5-3.3,4.8-5.1,4.8c-1.1,0-2.5-0.8-3.7-2c-1.1-1.1-2.4-3.1-3.2-6.3
			c-0.4-1.7-0.5-4.8,0.7-10.2c0.7-3.3,1.7-6.1,2-6.8c0.7-1.6,1.7-1.7,3.2-1.7c0.1,0,0.2,0,0.3,0c2,0,3.3,1.7,3.6,1.9
			c0.8,1,1.6,4.6,1.9,5.6c0.4,1.7,0.5,5.2,0.5,7.2C208.8,29.5,208.7,32.5,208.6,34.1z M202.9,15.5c-0.2,0.3-0.4,0.6-0.6,1.1
			c-0.5,1.1-1.1,3.1-1.4,6.3c-0.6,6.6-0.4,8.8,1.5,10.8c1,1,1.4,1.5,1.9,1.7c0-0.1,0-0.2,0-0.3c0-0.4-0.1-1.1-0.1-2
			c-0.1-3.2-0.2-9.1-0.5-12.2C203.4,17.8,203.1,16.2,202.9,15.5z"/>
		<path class="st31" d="M227.5,37.9c-0.5,0.8-1.2,1-1.7,1c-0.8,0-1.7-0.5-2.8-1.4c-0.3-0.3-1.3-1.1-3.3-6.1
			c-0.8-2.1-1.6-4.2-2.1-5.6c-1.2,0.5-2.2,0.8-2.9,1c0,0.1,0,0.2,0,0.3c0,0.8,0.1,1.6,0.1,2.3c0.1,3.5,0.2,5.7-0.1,6.7
			c-0.3,1-1,2-1.9,2c-0.3,0-1-0.1-1.3-1.2c-0.3-0.9-0.4-3.9-0.5-7.7c-0.1-1.1-0.1-2-0.1-2.7c-0.1-1.7-0.3-10.7,0.1-12.8
			c-0.1-0.5,0-1.2,0.7-1.6c0.2-0.2,0.5-0.3,0.8-0.3c0.4,0,0.8,0.2,1.2,0.5c0.6-0.3,1.5-0.4,2.5-0.4c0.3,0,0.6,0,1,0
			c2.4,0.2,4.2,0.7,5.5,1.6c1.6,1.2,2.4,3,2.3,5.3c-0.1,1.9-1.3,3.6-3.8,5.2c0.2,0.4,0.4,1,0.6,1.6c0.3,0.8,0.7,1.8,1.1,2.8
			c0.5,1.2,1.6,2.9,2.6,4.5C227.5,36.4,227.9,37.2,227.5,37.9z M219.2,15.9c-0.5-0.1-1.6-0.2-2.6-0.2c-0.8,0-1.5-0.1-2.1-0.1
			c0,1.3,0.1,3.4,0.1,5.6c0,0.8,0.1,1.6,0.1,2.4c2.8-1.1,4.8-2.3,5.7-3.2c0.8-0.9,0.7-1.9,0.4-2.6C220.4,16.7,219.6,15.9,219.2,15.9
			z"/>
		<path class="st31" d="M241.8,36.8c-0.1,0.7-0.8,1.2-2.2,1.5c-1.7,0.4-3.4,0.5-5.2,0.5c-0.4,0-0.7,0-1.1,0c-0.6,0-1.3,0.1-1.9,0.1
			c-0.9,0-2.5,0-2.5-0.9c0,0,0-0.1,0-0.1c0-0.1,0.1-0.2,0-0.3c-0.1-0.3-0.2-1.1-0.1-5.8c0-2.9,0.1-5.8,0.2-6.7
			c0-0.4,0.1-1.2,0.1-2.1c0.1-1.7,0.1-4.1,0.3-6.1c0.2-2.8,0.4-3.7,0.6-4c0.2-0.4,0.5-0.8,1-0.8c0.2,0,0.4,0.1,0.7,0.3
			c0.4,0.4,0.5,1.3,0.5,7.3c0,0.6,0,1.2,0,1.7c0,1,0,2.2,0.1,3.4c0,2.6,0.1,5.5,0,7.5c-0.1,1.4,0.1,2.4,0.1,3.1
			c0,0.2,0.1,0.3,0.1,0.4c0.8-0.1,1.9-0.2,3.1-0.3c0.6,0,1.1-0.1,1.6-0.1c0.9-0.1,1.6-0.1,2.1-0.1c0.7,0,1.3,0.1,1.7,0.3
			C241.8,35.9,241.9,36.6,241.8,36.8z"/>
		<path class="st31" d="M257.4,28c-0.2,0.9-0.3,1.6-0.5,2.3c-0.2,1.3-0.4,2.4-0.8,3.9c-0.3,1.2-1.3,2.3-3,3.2
			c-1.6,0.8-3.4,1.2-4.1,1.3c-0.4,0.1-0.7,0.1-1.1,0.1c-0.8,0-1.5-0.2-2-0.4c-0.8-0.1-1.9-0.8-2.4-1.6c-0.3-0.5-0.6-1.8-0.3-7.2
			c0.1-1.1,0-4,0-6.5c-0.1-1.7-0.1-3.4-0.1-4.3c0-2.2,0.2-5.7,0.2-5.7v-0.1V13c0.5-0.8,0.8-0.9,1.1-0.9c0.4,0,0.7,0.2,0.9,0.4
			c0.5-0.2,1.2-0.3,1.9-0.3c2.1,0,5.3,0.9,7.7,3.3c1.7,1.8,2.8,4.1,3,6.9C258,24.5,257.7,26.5,257.4,28z M249.3,15.2
			c-0.9-0.5-1.7-0.8-2.5-0.8c-0.2,0-0.3,0-0.5,0c0.2,0.7,0.3,1.4,0.4,2.1c0.3,2.8,0.5,10.3,0.5,13.4c0,1.1,0,2.3,0.1,3.5
			c0,0.8,0.1,1.5,0.1,2.1c0.4-0.1,0.8-0.2,1.3-0.4c1.6-0.7,2.9-1.8,3.5-3c0.5-1,0.9-4.6,1.3-7.9c0.1-0.6,0.1-1.2,0.2-1.7
			c0.2-1.9-0.1-3.3-0.9-4.5C252,17,250.8,16.1,249.3,15.2z"/>
	</g>
</g>
<g>
	<path class="st85" d="M16.8,15.3C16.8,15.3,16.8,15.3,16.8,15.3C16.8,15.3,16.8,15.3,16.8,15.3C16.7,15.3,16.7,15.3,16.8,15.3
		C16.7,15.4,16.8,15.3,16.8,15.3z"/>
	<path class="st85" d="M15,11.8C15,11.8,15,11.8,15,11.8C15,11.8,15,11.8,15,11.8c0-0.1,0-0.1,0-0.1c0,0,0,0,0,0c0,0,0,0,0,0
		C15,11.8,15,11.8,15,11.8C15,11.8,15,11.8,15,11.8z"/>
	<polygon class="st85" points="24.5,11.1 24.5,11.1 24.5,11.1 	"/>
	<path class="st85" d="M29.2,2.4c-0.5-0.1-1.1-0.1-1.6-0.2C16.1,1.3,5.8,9.5,4.1,20.8C3.4,25.4,4.2,30,6.3,34.1
		c0.4,1,0.5,1.9,0.4,2.3l-0.9,3c-0.5,1.5-0.9,3-1.4,4.6c-0.2,0.6,0,1,0.1,1.3c0.2,0.3,0.5,0.5,0.9,0.5c0.2,0,0.3,0,0.5,0
		c0.2,0,0.3-0.1,0.5-0.1l0.1,0c2.5-0.9,5-1.6,7.5-2.2l0.7-0.2c2.4,1.4,5,2.5,7.8,2.9c0.5,0.1,1.1,0.3,1.6,0.3h0
		c11.4,0.5,21.7-7.5,23.4-18.8C49.4,15.6,41.2,4.2,29.2,2.4z M32.8,8.5C32.8,8.5,32.8,8.5,32.8,8.5c0.2-0.1,0.3-0.1,0.5-0.1
		c0.5,0.1,1.1,0.1,1.6,0.2l0.1,0c0,0,0.1,0,0.1,0c0,0,0.1,0,0.1,0c0,0,0,0,0,0c0,0,0,0,0,0c-0.3,0.2-0.6,0.2-0.9,0.2l0.4,0.3
		c0,0,0,0,0,0c0,0,0,0,0,0c-0.2,0-0.4,0-0.5-0.1c-0.1,0-0.3,0-0.4,0c-0.2,0-0.4-0.1-0.6-0.2c0,0-0.1,0-0.2-0.1c0,0-0.1,0-0.1,0
		c-0.1,0-0.2-0.1-0.2-0.2C32.6,8.6,32.7,8.5,32.8,8.5z M29.1,14.7C29.1,14.7,29.1,14.6,29.1,14.7c0.1-0.1,0.1-0.1,0.1-0.2
		c0-0.1,0-0.2,0-0.3c0,0,0.1,0,0.1,0c0,0,0.1,0,0.1,0.1c0.1,0,0.1,0,0.2,0c0,0,0,0,0,0c0.1,0,0.1-0.1,0.2-0.1c0,0,0,0,0,0
		c0.1,0,0.1,0,0.1,0c0,0,0,0.1,0,0.2c-0.1,0.2-0.1,0.3-0.3,0.5C29.7,15,29.6,15,29.4,15c0,0-0.1,0-0.1,0l0,0l0,0
		c-0.1,0-0.2-0.1-0.3-0.2C29,14.7,29.1,14.7,29.1,14.7z M13.8,10.5C13.8,10.5,13.8,10.5,13.8,10.5c0.1-0.1,0.3-0.1,0.3-0.1l0,0
		c0,0,0,0,0,0c0,0,0.1,0,0.1,0c0,0,0,0.1,0,0.1c0,0.1-0.1,0.2-0.2,0.2c0,0,0,0,0,0c0,0-0.1,0-0.1,0C13.9,10.7,13.8,10.7,13.8,10.5z
		 M14.4,11C14.4,11,14.5,11.1,14.4,11c0.1,0.1,0.1,0.1,0.1,0.1c0,0.1-0.1,0.2-0.2,0.2c-0.1,0-0.1,0-0.2,0.1L14,11.5l0-0.1
		C14.1,11.2,14.2,11.1,14.4,11z M13.5,11.2c0,0,0.1,0,0.1-0.1c0.1,0,0.1-0.1,0.2-0.1c0,0,0.1,0,0.1,0c0,0,0,0,0.1,0
		c0.1,0,0,0.1,0,0.1c0,0,0,0,0,0l0,0l0,0c0,0.2-0.2,0.3-0.4,0.3c0,0,0,0,0,0c-0.1,0-0.1-0.1-0.1-0.1C13.4,11.3,13.5,11.2,13.5,11.2z
		 M13.3,11.7C13.3,11.7,13.3,11.7,13.3,11.7c0.1-0.1,0.1-0.1,0.2-0.1c0.1-0.1,0.2,0,0.3,0c0,0,0,0.1,0,0.1c0,0-0.1,0.1-0.1,0.1
		c0,0,0,0,0,0c0,0,0,0,0,0c0.1,0,0.1-0.1,0.2-0.2c0.1-0.1,0.2-0.3,0.5-0.3c0,0,0.1,0,0.2,0l0,0l0,0c0,0.1-0.1,0.2-0.2,0.2
		c0,0,0,0,0,0c-0.2,0.1-0.3,0.3-0.4,0.5c0,0.2-0.2,0.3-0.4,0.4c0,0,0,0-0.1,0c-0.1,0-0.1-0.1-0.1-0.2c0,0,0-0.1,0.1-0.1c0,0,0,0,0,0
		c0,0,0,0,0,0c0,0,0,0,0,0c0,0,0,0,0,0c0,0,0,0,0,0c0,0,0,0,0,0c0,0-0.1,0.1-0.1,0.1c0,0,0,0-0.1,0c-0.1-0.1-0.2-0.1-0.2-0.2
		c0,0,0-0.1,0-0.1c0,0,0.1-0.1,0.2-0.1c0,0,0.1,0,0.1-0.1C13.1,11.8,13.2,11.7,13.3,11.7z M11.5,11.6L11.5,11.6l0.1-0.2l0,0
		c0,0,0.1,0,0.1,0c0.1,0,0.1,0,0.2,0l0,0c0.1,0,0.1,0,0.2,0c0.1,0,0.1,0.1,0.2,0.1c0,0,0.1,0.1,0.1,0.1c0.1,0,0.1,0,0.1,0
		c0.1-0.1,0.2-0.1,0.4-0.1c0,0,0.1,0,0.1,0l0,0l0,0c-0.2,0.2-0.6,0.4-0.9,0.4c-0.1,0-0.1,0.1-0.2,0.1c0,0-0.1,0.1-0.1,0.1l0,0l0-0.1
		c0-0.1-0.1-0.2-0.1-0.2c0,0-0.1,0-0.1,0c-0.1,0-0.1,0.1-0.2,0l0,0C11.4,11.8,11.5,11.7,11.5,11.6C11.5,11.6,11.6,11.6,11.5,11.6z
		 M7.5,22.8c0,0-0.1,0-0.1,0c0,0-0.1,0-0.1-0.1c0,0-0.1-0.1-0.1-0.1c-0.1-0.1-0.3-0.2-0.3-0.5c0,0,0,0,0,0c0,0,0,0,0,0l0,0l0,0
		c0-0.1,0-0.2,0.1-0.3l0,0l0,0c0.1,0.1,0.2,0.3,0.3,0.5c0,0.1,0.1,0.2,0.2,0.2c0.1,0,0.1,0.1,0.1,0.1C7.6,22.8,7.6,22.8,7.5,22.8z
		 M22.3,28.2c0,0.3-0.1,0.7-0.2,1c0,0.1-0.1,0.2-0.2,0.3c-0.1,0.1-0.2,0.2-0.2,0.4c0.1,0.3,0.1,0.6,0.1,0.9c0,0.1,0,0.2,0,0.3
		c0,0.2,0,0.3,0,0.5c0,0.1,0,0.1,0,0.2c0,0.1-0.1,0.1-0.2,0.2c0,0,0,0,0,0c-0.1,0-0.2,0.1-0.3,0.1c-0.2,0.1-0.5,0.1-0.7,0.3
		c-0.1,0.1-0.2,0.2-0.3,0.3c0,0,0,0-0.1,0.1c-0.1,0.1-0.1,0.3,0,0.4c0,0,0,0,0,0.1c0,0,0,0.1,0,0.1c0,0.1,0.1,0.2,0.1,0.3
		c0,0.1,0,0.2,0,0.2c0,0.1-0.1,0.1-0.2,0.1c-0.1,0-0.2,0.1-0.2,0.2v0c0,0,0,0.1,0,0.1c0,0.1,0,0.2,0,0.4c0,0.2-0.1,0.3-0.2,0.4
		c-0.1,0.1-0.2,0.1-0.4,0c0,0-0.1,0-0.2,0l0,0l0,0c0,0,0,0.1,0.1,0.1c0.1,0.2,0.1,0.4,0,0.6c-0.1,0.2-0.2,0.3-0.5,0.3
		c0,0-0.1,0-0.1,0c0,0,0,0,0,0.1c0.1,0.3-0.1,0.5-0.4,0.7c0.2,0.4,0.3,0.8,0.3,1.1c0,0.1,0,0.2,0,0.2l0,0c0.1,0.3,0.1,0.6,0.2,0.9
		c0.2,0.5,0.5,0.8,0.9,0.9c0.1,0,0.2,0,0.2,0.1c0,0,0.1,0,0.2,0l0.1,0l-0.1,0c-0.2,0.1-0.4,0.1-0.5,0.2c0,0-0.1,0-0.1,0
		c-0.2,0-0.4,0-0.6,0.1c0,0-0.1,0-0.1,0c0,0-0.1,0-0.1,0c-0.2,0-0.3-0.1-0.4-0.2l0,0c0,0-0.1-0.1-0.1-0.1c-0.3-0.2-0.5-0.4-0.7-0.8
		c0-0.1-0.1-0.2-0.2-0.3c0,0-0.1-0.1-0.1-0.1c-0.1-0.1-0.1-0.2,0-0.4c0-0.1,0.1-0.2,0.1-0.2c0,0-0.1,0-0.2-0.1
		c-0.1,0-0.2-0.1-0.2-0.1c0-0.1,0-0.1,0-0.2c0.2-0.3,0.1-0.6-0.1-0.9l0-0.1l0,0c0,0,0,0,0,0.1l0,0c0,0,0,0,0,0.1
		c0,0.1,0.1,0.1,0,0.2l-0.1,0.1l0-0.1c0-0.1,0-0.2,0-0.2c0,0,0,0,0,0c-0.1-0.3-0.2-0.6-0.4-1c-0.1-0.3-0.3-0.6-0.4-0.9
		c-0.1-0.4-0.2-0.9-0.3-1.3c-0.1-0.3-0.1-0.6-0.2-0.9c-0.1-0.4-0.2-0.8-0.3-1.2c-0.1-0.2-0.1-0.3-0.2-0.5C15,31.2,15,30.9,15,30.6
		c0-0.1,0-0.2-0.1-0.2c-0.1-0.1-0.2-0.1-0.3-0.2c-0.3-0.2-0.6-0.4-0.9-0.7c-0.6-0.6-1-1.1-1.2-1.7c-0.1-0.2-0.1-0.3,0-0.5
		c0-0.1,0-0.3,0-0.4c0-0.1,0-0.1,0-0.2c0-0.1,0-0.3,0-0.4c0-0.4,0-0.8,0-1.2c0-0.1,0-0.2-0.1-0.2c0,0-0.1,0-0.2,0.1c0,0-0.1,0-0.2,0
		c-0.3,0-0.7-0.3-0.7-0.5c-0.1-0.3-0.3-0.4-0.5-0.5c-0.2-0.1-0.4-0.1-0.6-0.2c-0.1,0-0.2,0-0.3,0c-0.1,0-0.1,0-0.2,0
		c0,0-0.1,0-0.1,0c-0.4-0.1-0.8-0.1-1.1-0.4c-0.3-0.2-0.5-0.5-0.6-0.8c0-0.1-0.1-0.1-0.1-0.2c0-0.1-0.1-0.1-0.1-0.2
		c-0.2-0.3-0.3-0.7-0.6-1l0,0l0,0c0.1-0.9,0.3-1.8,0.6-2.6C7.8,17.9,8,17,8.4,16.2c0.3-0.6,0.6-1.3,1-2c0.1-0.1,0.2-0.2,0.2-0.4
		c0.1-0.1,0.2-0.2,0.2-0.3c0.1-0.1,0.1-0.2,0.2-0.3l0,0l0,0c0,0,0.1,0,0.1,0c0.1,0,0.1,0,0.2,0c0,0,0,0,0.1,0c0,0,0,0,0.1,0
		c0,0,0,0,0,0c0,0,0,0,0,0c0,0-0.1,0-0.1-0.1c0,0,0-0.1,0-0.1c0,0,0.1-0.1,0.1-0.1c0.1,0,0.1,0,0.1-0.1c0-0.1,0-0.2,0.1-0.2
		c0.1,0,0.2-0.1,0.3-0.2c0,0,0,0,0,0c0,0-0.1,0-0.1,0c0,0,0,0,0,0l0,0l0,0c0-0.1,0.1-0.2,0.2-0.3c0,0,0.1-0.1,0.1-0.1l0,0l0,0
		c0.1,0,0.1,0,0.2,0c0.1,0,0.1,0.1,0.1,0.1c0,0.1,0,0.1-0.1,0.2c0,0,0,0,0,0l0.1,0c0.1,0,0.2-0.1,0.4-0.1c0,0,0.1,0,0.1,0
		c0,0,0,0,0,0c0,0,0,0,0,0c0.1-0.1,0.2-0.2,0.3-0.1c0,0,0,0,0.1,0c0,0,0,0,0,0c0-0.2,0.1-0.2,0.2-0.2c0,0,0.1,0,0.1,0l0.1,0L12.7,12
		c-0.1,0.1-0.2,0.2-0.2,0.3c0,0.2,0,0.3,0.1,0.4c0,0,0,0.1,0,0.1c0,0-0.1,0.1-0.2,0.1c-0.2,0.1-0.5,0.2-0.8,0.2
		c-0.2,0-0.3,0-0.5,0.1c-0.1,0.1-0.3,0.1-0.4,0.1c0,0,0,0,0,0c0,0,0,0.1,0,0.1c0,0,0.2,0.1,0.4,0.1c0.1,0,0.1,0,0.1,0
		c0.5-0.2,1.1-0.3,1.6-0.3c0.1,0,0.2,0,0.2-0.1c0,0,0.1-0.1,0.1-0.1c0.1-0.1,0.3-0.3,0.4-0.4c0.2-0.1,0.3-0.2,0.5-0.1
		c0.1,0,0.2,0.1,0.2,0.2c0,0.1,0,0.1,0,0.1c0,0,0.1-0.1,0.1-0.1c0,0,0,0,0.1-0.1c0,0,0.1-0.1,0.1-0.1c0.1-0.1,0.2-0.2,0.3-0.3
		c0,0,0.1,0,0.1,0c0,0-0.1,0-0.1,0c-0.1,0-0.3,0-0.4,0.1c-0.1,0-0.1,0-0.1,0c0,0,0-0.1,0-0.1c0,0,0-0.1,0-0.1l0,0
		c0-0.1,0.1-0.3,0.2-0.3c0.1-0.1,0.3-0.2,0.4-0.2l0,0c0.1,0,0.1,0,0.1,0c0-0.1,0.1-0.2,0.3-0.3c0.1,0,0.1,0,0.2,0c0,0,0.1,0,0.1,0
		c0.1,0,0.1,0,0.1,0c0.1,0,0.1,0.1,0.1,0.2c0,0,0,0,0,0c0,0,0,0,0,0c0,0,0.1,0,0.1,0c0.1,0,0.1,0,0.1-0.1c0-0.1,0-0.2,0.1-0.2
		c0,0,0.1,0,0.2,0.1c0.3,0.2,0.5,0.3,0.7,0.5c0.1,0.1,0.1,0.1,0.1,0.2c0,0.1-0.1,0.1-0.2,0.1C17,12,17,12,17,12.1c0,0,0,0.1,0,0.1
		l0.3,0c0.2,0,0.3-0.1,0.4,0c0,0,0.1-0.1,0.1,0c0,0.1,0,0.1-0.1,0.2c-0.2,0.1-0.3,0.2-0.5,0.2c0,0-0.1,0-0.1,0l-0.1,0
		c-0.2,0-0.3,0-0.3,0.2c0,0,0,0,0,0.1c0,0.1,0,0.2-0.1,0.2c-0.2,0.1-0.2,0.3-0.1,0.4c0,0,0,0.1,0,0.1c0,0.1-0.1,0.1-0.2,0.1
		c-0.1,0-0.3,0-0.4,0c-0.2,0-0.5-0.1-0.7-0.3c-0.1,0-0.1-0.1-0.1-0.1c0,0,0-0.1,0.1-0.1l0,0c0,0,0,0,0,0c0.5-0.2,0.7-0.5,0.7-1
		c0-0.1,0-0.1-0.1-0.2c-0.1,0-0.1,0-0.2,0c-0.2,0.2-0.4,0.3-0.7,0.3c0,0,0,0,0.1,0c0.1,0.1,0.1,0.2,0.1,0.2c0,0,0,0,0,0
		c0,0.1-0.1,0.2-0.2,0.3c-0.3,0.2-0.6,0.4-0.9,0.5c-0.1,0-0.2,0.1-0.4,0.1c0,0-0.1,0-0.1,0c0,0,0.1,0,0.1,0c0,0,0.1,0,0.1,0l0,0l0,0
		c0,0.1-0.1,0.1-0.1,0.2l0,0c-0.1,0.1-0.1,0.1-0.2,0.2c-0.3,0.2-0.6,0.5-0.9,0.7c-0.2,0.1-0.3,0.3-0.5,0.5c-0.1,0.1,0,0.1,0,0.2
		c0,0.1,0,0.1,0,0.2c0,0,0.1-0.1,0.1-0.1c0,0,0.1-0.1,0.1-0.1c0.1,0,0.2-0.2,0.2-0.2l0,0c0.2,0,0.3,0.3,0.4,0.4c0,0,0.1,0.2,0.1,0.2
		c0,0,0,0,0.1,0c0.1,0,0.1,0,0.1,0c0,0,0,0.1,0,0.1c-0.1,0.2-0.1,0.3-0.1,0.5c0,0.1,0,0.1,0,0.1c0,0,0.1,0,0.2,0
		c0,0,0.1-0.1,0.1-0.2c0-0.6,0.3-1,0.7-1.3c0.1-0.1,0.1-0.1,0.1-0.2c0.3-0.3,0.6-0.7,1-1c0.1,0,0.2-0.1,0.3-0.1c0,0,0.1,0,0.1,0
		C16,13.8,16,13.9,16,14c0,0,0,0,0,0.1c0,0.1-0.1,0.2-0.1,0.2c0,0,0,0-0.1,0.1c0,0,0,0,0,0c0,0-0.1,0.1,0,0.1c0,0,0,0,0.1,0
		c0,0,0,0,0,0c0.2,0,0.3-0.1,0.7-0.4l0,0l0,0c0.1,0.1,0.1,0.2,0.1,0.3c0,0,0,0.1,0,0.1c0,0.2,0.1,0.4,0.2,0.5l0-0.3h0
		c0,0,0,0.4,0.1,0.4c0.1,0,0.1,0.4,0.2,0.4l0,0l0,0c-0.5,0.5-0.9,0.8-1.4,1c-0.3,0.1-0.6,0.2-0.9,0.4c0.1,0,0.2-0.1,0.3-0.1
		c0.2-0.1,0.4-0.2,0.6-0.2l0,0l0,0c0,0.1-0.1,0.2-0.1,0.3c0,0-0.1,0.1-0.1,0.1c0,0,0,0,0,0.1c0,0.1,0,0.1,0,0.1c0,0,0.1,0,0.1,0
		c0.2-0.1,0.3-0.2,0.5-0.3l0.1-0.1l0,0.1c0,0.1-0.1,0.2-0.2,0.3c0,0,0,0-0.1,0.1c-0.2,0.2-0.4,0.4-0.7,0.5l0,0c0,0-0.1,0.1-0.1,0
		c-0.1,0-0.1-0.1-0.1-0.1c0,0,0,0,0,0c0,0,0,0-0.1,0c-0.1,0.1-0.1,0.1-0.2,0.2c-0.1,0.1-0.3,0.2-0.4,0.4c-0.1,0.1-0.3,0.2-0.4,0.3
		c-0.1,0.1-0.2,0.1-0.2,0.2c0,0-0.1,0-0.1,0.1c-0.1,0.1-0.3,0.2-0.3,0.4c0,0-0.1,0.1-0.1,0.1c0,0-0.1,0-0.1,0c0,0-0.1,0-0.1,0
		c0,0-0.1,0.1-0.1,0.1v0c0,0.2,0.2,0.4,0,0.6c-0.4,0.4-0.6,0.8-0.8,1.4c0,0.1,0,0.1-0.1,0.2c0,0,0,0.1,0,0.1l0,0.1l0,0
		c-0.1-0.1-0.2-0.3-0.2-0.4c0,0,0-0.1,0-0.1c0-0.1-0.1-0.2-0.3-0.2c0,0-0.1,0-0.2,0c-0.1,0.1-0.3,0.1-0.5,0.1
		c-0.2,0.1-0.5,0.1-0.7,0.3c-0.3,0.1-0.4,0.4-0.5,0.6c0,0.3,0,0.7,0.1,1c0,0.1,0.1,0.1,0.2,0.1c0.1,0,0.3,0,0.4,0c0,0,0.1,0,0.1-0.1
		c0,0,0,0,0,0c0.2-0.2,0.4-0.4,0.6-0.5c0.1,0,0.1-0.1,0.2,0c0,0,0,0,0.1,0c0.1,0.1,0.1,0.1,0,0.2c0,0,0,0,0,0
		c-0.1,0.2-0.1,0.5-0.2,0.7c0,0.1,0,0.1,0,0.1c0,0,0,0,0.1,0c0.1,0,0.1,0,0.2,0c0.1,0,0.1,0,0.2,0c0,0,0.1,0,0.1,0
		c0.2,0,0.3,0.2,0.2,0.4c0,0.1,0,0.1,0,0.1c0,0.1,0,0.2-0.1,0.3c0,0,0,0,0,0c0.3,0.1,0.5,0.3,0.8,0.5c0,0,0.1,0,0.1,0c0,0,0,0,0.1,0
		c0-0.1,0.1-0.1,0.1-0.1c0,0,0.1-0.1,0.1-0.1c0.1-0.3,0.3-0.4,0.4-0.5c0.1-0.1,0.2-0.1,0.3-0.2l0,0l0,0.1c0,0.1,0,0.2,0,0.3
		c0,0,0,0.1,0,0.1c0,0,0,0,0,0c0,0,0,0,0,0c0.1,0,0.1-0.1,0.2-0.1c0,0,0,0,0.1,0c0.1,0,0.1-0.1,0.2-0.1c0,0,0.1,0,0.1,0
		c0.2,0,0.3,0,0.5,0c0.1,0,0.3,0,0.4,0c0.1,0,0.3,0.1,0.3,0.2c0,0.1,0.1,0.2,0.3,0.3c0,0,0.1,0,0.1,0c0.1,0,0.2,0.1,0.3,0.2
		c0.1,0.1,0.2,0.2,0.4,0.2c0.1,0,0.3,0,0.4,0c0.1,0,0.2,0,0.3,0.1c0.4,0.2,0.7,0.4,0.8,0.9c0,0.2,0.1,0.3,0.3,0.3
		c0.1,0,0.2,0,0.3,0.1c0,0,0.1,0,0.1,0c0,0,0.1,0,0.1,0c0.1,0,0.2,0,0.2,0c0.2,0.1,0.4,0.1,0.4,0.3l0,0c0,0,0,0.1,0,0.1
		c0,0,0,0,0.1,0c0.2-0.1,0.4-0.1,0.6-0.1c0.2,0,0.3,0.1,0.5,0.1c0.4,0.2,0.8,0.3,1.2,0.6c0,0,0.1,0.1,0.1,0.1
		C22.1,27.7,22.4,27.9,22.3,28.2z M17.1,16c0,0.1,0.1,0.1,0.1,0.1c0,0,0,0,0,0c0,0,0.1,0,0.1,0c0,0,0.1,0,0.1,0.1c0,0,0,0.1,0,0.1
		c0,0.1,0,0.3-0.1,0.4c-0.1,0.1-0.2,0.1-0.3-0.1c0-0.1-0.1,0-0.2,0l-0.1,0c-0.1,0-0.2,0.1-0.3,0.1c0,0-0.1,0-0.1,0
		c0,0-0.1,0-0.1-0.1c0-0.1,0-0.1,0-0.2l0,0c0.2-0.3,0.4-0.6,0.7-0.8c0.1-0.1,0.1-0.1,0.3,0l0.1,0l0,0c0,0,0,0,0,0
		C17.2,15.8,17.2,15.8,17.1,16C17.2,15.9,17.2,15.9,17.1,16C17.2,15.9,17.1,15.9,17.1,16C17.1,15.9,17.1,15.9,17.1,16z M13.2,22.6
		L13.2,22.6c-0.1,0.1-0.3,0.1-0.4,0.1c-0.1,0-0.2-0.1-0.3-0.2c-0.1-0.1-0.1-0.1-0.2-0.1c-0.1,0-0.2,0-0.2,0c-0.1,0-0.2,0-0.3,0
		c0,0-0.1,0-0.2,0l-0.1,0l0.1-0.1c0.3-0.3,0.7-0.3,1-0.2c0.1,0,0.1,0.1,0.2,0.1C12.8,22.4,13,22.4,13.2,22.6L13.2,22.6z M21.6,11.5
		c-0.4,0.3-0.8,0.7-1.1,1.3c-0.2,0.4-0.5,0.6-0.8,0.5l0,0c-0.3,0-0.5-0.3-0.5-0.6c0-0.3,0-0.8,0.1-1.1c0-0.1,0-0.1,0-0.2
		c0-0.1,0.1-0.1,0.1-0.2c0,0,0,0,0,0c0.1-0.1,0.1-0.1,0.2-0.2c0,0,0,0,0.1-0.1c0,0-0.1,0-0.1,0c0,0,0,0-0.1,0
		c-0.1,0-0.1-0.1-0.1-0.1c0-0.1,0.2-0.1,0.3-0.1c0,0,0.1,0,0.1,0c0,0,0,0,0,0c-0.1-0.1-0.1-0.1-0.3-0.1c0,0-0.1,0-0.2,0
		c0,0-0.1,0-0.1-0.1c0-0.1,0-0.1,0-0.2c0,0,0,0,0,0c0,0,0.1-0.1,0.1-0.1c0.1-0.1,0.1-0.2,0.1-0.3c0-0.1-0.1-0.1-0.2-0.1
		c-0.1,0-0.1,0-0.2,0c0,0,0,0-0.1,0c-0.2,0-0.4,0-0.7,0c-0.1,0-0.2,0-0.3,0l-0.1,0l0,0c0-0.1,0.1-0.2,0.2-0.3c0,0,0,0,0.1,0
		c0,0-0.1,0-0.1,0c-0.1,0-0.2,0-0.4,0l-0.1,0l0,0c0.4-0.4,0.9-0.7,1.4-1c0,0-0.1,0-0.1,0l-0.1,0.1c-0.5,0.2-1,0.4-1.4,0.7
		c0,0-0.1,0-0.1,0c-0.1,0.1-0.2,0.1-0.1,0.2c0,0,0,0.1,0,0.1c-0.2,0.1-0.3,0.2-0.4,0.3c-0.2,0.2-0.4,0.3-0.7,0.4
		c-0.1,0-0.3,0.1-0.5,0.2c-0.1,0-0.2,0.1-0.3,0.1l1-0.2l-0.2,0.1c-0.4,0.2-0.9,0.3-1.4,0.4c-0.1,0-0.2,0-0.3,0.1l-0.1,0l0-0.1
		c0-0.1,0-0.2,0-0.2c0,0-0.1,0-0.2,0l-0.1,0l0.1-0.1c0.2-0.2,0.5-0.2,0.7-0.3c0.2-0.1,0.3-0.1,0.5-0.2c-0.1,0-0.2,0-0.4,0.1
		c-0.1,0-0.1,0-0.2,0c-0.1,0-0.1,0-0.1-0.1c-0.1-0.2,0-0.3,0.1-0.4c0.3-0.2,0.5-0.3,0.7-0.2c0,0,0,0,0.1,0c0.1,0,0.1,0,0.1,0
		c0,0,0-0.1,0-0.1c0-0.2,0.1-0.3,0.3-0.4c0.3-0.2,0.7-0.3,0.9-0.3c0.7-0.2,1.5-0.3,2.3-0.4l0.3,0c0.2,0,0.4-0.1,0.5-0.1
		c0.3-0.1,0.5-0.1,0.8-0.1c0.1,0,0.1-0.1,0.2-0.1c0.1-0.1,0.1-0.1,0.2-0.1c0.1,0,0.3-0.1,0.4-0.2c0.1-0.1,0.3-0.1,0.5-0.2
		c0.1,0,0.1-0.1,0.2-0.1c0.1,0,0.2-0.1,0.3-0.1c0.1,0,0.2-0.1,0.4-0.1c0.1,0,0.2-0.1,0.4-0.1l0.1,0c0.3,0,0.6-0.1,0.9-0.1
		c0.1,0,0.2,0,0.3,0c0.1,0,0.3,0.1,0.4,0.2c0.1,0.1,0.2,0.1,0.3,0l0,0c0.1,0,0.1,0,0.2,0c0.2,0,0.5-0.1,0.7-0.1l0.1,0l-0.1,0
		c-0.2,0.1-0.3,0.2-0.5,0.3C26,7.6,25.7,7.7,25.4,8c0,0,0,0,0.1,0c0,0,0.1,0,0.1,0.1l0,0l-0.4,0.2c0,0,0,0,0,0c0,0,0.1,0,0.1,0
		c0,0,0.1,0,0.1,0c0,0,0.1,0,0.1,0.1c0,0.2-0.1,0.3-0.2,0.4c-0.2,0.1-0.5,0.2-0.7,0.3l0,0c-0.1,0-0.1,0-0.2,0.1c0.1,0,0.1,0,0.2,0.1
		c0.1,0,0.2,0.1,0.3,0.2c0,0,0,0,0,0c0,0,0.1,0.1,0.1,0.1c0,0.1-0.1,0.1-0.1,0.1c0,0,0,0,0,0c-0.1,0.1-0.3,0-0.4,0l0,0
		c-0.1,0-0.2,0-0.2,0.1c0,0,0.1,0,0.2,0c0.1,0,0.2,0,0.2,0l0.1,0l-0.2,0.1c-0.3,0.1-0.6,0.3-0.8,0.4C23,10.6,22.2,11,21.6,11.5z
		 M24.5,11.1L24.5,11.1c-0.1,0-0.2,0-0.2,0c0,0-0.1,0-0.1,0l-0.1,0l0-0.1c0,0,0-0.1,0-0.1c0,0,0-0.1,0-0.1c0,0,0-0.1,0.1-0.1
		c0.3-0.1,0.6-0.2,0.8-0.3c0.1,0,0.3-0.1,0.4-0.1c0.1,0,0.2,0,0.3,0c0,0,0.1,0,0.1,0c0.1,0,0.2,0.1,0.2,0.2c0,0.1-0.1,0.3-0.2,0.4
		C25.4,11,25,11.1,24.5,11.1C24.6,11.1,24.6,11.1,24.5,11.1z M39.7,33.1c-0.3,0.4-0.5,0.9-0.8,1.4c-0.1,0.2-0.3,0.5-0.4,0.7
		c-0.1,0.2-0.3,0.2-0.5,0.2c-0.1,0-0.2-0.1-0.3-0.2c-0.1-0.1-0.1-0.2-0.1-0.3c0-0.4,0.2-0.6,0.4-0.9c0.1-0.1,0.2-0.3,0.2-0.4
		c0-0.1,0.1-0.2,0.1-0.3c0.2-0.3,0.3-0.6,0.6-0.7c0.2-0.1,0.4-0.3,0.5-0.6l0,0l0,0C39.9,32.3,40,32.7,39.7,33.1z M45,24.8
		c0,0.2-0.1,0.3-0.2,0.3c-0.1,0-0.1,0-0.2-0.1c-0.1-0.1-0.3-0.2-0.4-0.3c-0.1-0.1-0.2-0.1-0.3-0.2c-0.1-0.1-0.2-0.1-0.4-0.2
		c-0.7-0.1-1.3-0.5-1.8-0.8l-0.2-0.1c0,0-0.1,0-0.1-0.1c-0.1-0.1-0.2-0.1-0.3-0.2c0,0.1,0,0.3,0,0.4c0,0,0,0.1,0,0.1
		c0,0.3,0.2,0.5,0.5,0.4c0.2,0,0.4-0.1,0.5-0.2c0.1-0.1,0.2-0.1,0.3,0c0.1,0.2,0.3,0.4,0.3,0.7c0.1,0.4-0.1,0.8-0.5,0.9
		c-0.3,0.1-0.6,0.2-0.9,0.3c-0.2,0.1-0.4,0.2-0.7,0.3c0,0,0,0,0,0c0,0,0-0.1,0-0.1c0,0,0,0,0,0c0,0,0,0,0,0l0,0c0,0,0,0,0,0l0,0
		l-0.1,0l0,0c0,0,0,0,0,0l0,0c0,0,0,0,0,0l0,0h0l0,0c0,0,0,0,0,0l0,0c0,0,0,0,0,0l-0.1,0c0,0,0,0,0,0l0,0l0,0l-0.1,0c0,0,0,0,0,0
		l-0.1,0l0,0l0,0c0,0,0,0,0,0l0,0c0,0,0,0,0,0l0,0c0,0,0,0,0,0l0,0c0,0,0,0,0,0l-0.1,0c0,0,0,0,0,0l0,0h0c0,0,0,0,0,0l0,0
		c-0.1,0-0.1-0.1-0.2-0.1c-0.1-0.1-0.1-0.1-0.2-0.2l0-0.1c0,0,0,0,0,0l0,0c0,0,0,0,0,0l0-0.1l0,0l0,0l0.1,0c0,0,0,0,0,0l0,0
		c0,0,0,0,0,0l0-0.1l0-0.1c0,0,0,0,0,0l0,0l0-0.1c0,0,0,0,0,0l0,0L39.3,25l0,0c0,0,0,0,0,0l0,0l0-0.2c0,0,0,0,0,0v0l-0.1,0
		c0,0,0,0-0.1,0c0,0,0,0,0,0l0,0c0,0,0,0,0,0l0-0.1c0,0,0,0,0,0l0,0c0,0,0,0,0,0l0,0l0,0L39,24.3l0,0c0,0,0,0,0,0l0,0l0-0.1l0-0.1
		l0,0c0,0,0,0,0,0l0-0.1c0,0,0,0,0,0l0,0l0-0.1c0,0,0,0,0,0l0,0v-0.1c0,0-0.1,0-0.1,0l-0.1,0l0,0c0,0,0,0,0,0l0,0c0,0,0,0,0,0l0-0.1
		c0,0,0,0,0,0l-0.1,0l0,0c0,0,0,0,0,0l0,0l0,0c0,0,0,0,0,0l0,0l0-0.1c0,0,0,0,0,0l0,0l0,0l-0.1,0c0,0,0,0,0,0l0,0l0,0l0,0
		c0,0,0,0,0,0l0-0.1c0,0,0,0,0,0l0,0l0,0l0,0c0,0,0,0,0,0l0,0.1l0,0l0,0.1l0,0l0,0l0,0l-0.1,0l-0.1-0.1l0,0l-0.1,0l0,0.1
		c0,0,0,0,0,0l0,0l0,0c0,0,0,0,0,0l0,0l0,0c0,0.1,0,0.2,0.1,0.3c0,0,0.1,0.1,0.1,0.1c0,0,0,0,0,0c0,0,0,0,0,0l0,0c0,0,0,0,0,0l0,0
		l0,0l0,0c0,0,0,0,0,0l0,0.1c0,0,0,0,0,0l0.1,0.1c0,0,0,0,0,0l0,0c0,0,0,0,0,0l0,0c0,0,0,0,0,0l0,0c0,0.1,0,0.1,0,0.2
		c0,0,0,0.1,0,0.1l0,0l0,0.2l0,0.1l0,0.1c0,0,0,0,0,0l0,0.1l0,0.1c0,0,0,0,0,0l0,0l0,0c0,0.2,0.1,0.3,0.2,0.5c0,0,0,0,0,0l0,0.1
		c0,0,0,0,0,0l0,0l0,0l0,0.1c0,0,0,0,0,0l0,0c0,0,0,0,0,0c0,0,0,0,0,0l0,0c0,0,0,0,0,0l0,0l0,0l0,0c0,0,0,0,0,0l0,0l0,0.1
		c0,0,0,0,0,0l0,0l0.1,0.1l0,0.1l0,0.1l0,0.1c0,0,0,0,0,0l0,0c0,0,0,0,0,0h0l0,0.1c0,0,0,0.1,0,0.1l0,0l0,0l0,0c0,0,0,0,0,0l0,0.1
		l-0.1,0c0,0,0,0,0,0l0,0l0,0c0,0,0,0,0,0l0,0l0,0c0,0,0,0,0,0l0,0l0,0c0,0,0,0,0,0l0,0c0,0,0,0,0,0l0.1,0c0,0,0,0,0,0l0,0l0,0
		c0,0,0,0,0,0l0,0.1l0,0.1c0,0,0,0,0,0l0,0l0,0c0,0,0,0,0,0l0,0.1c0,0,0,0,0,0l0.1,0l0,0c0,0,0,0,0,0l0.6,0.3c0,0,0,0,0,0l0,0
		c0,0,0,0,0,0c0,0,0,0,0,0c0.3-0.1,0.5-0.3,0.6-0.6c0,0,0.1,0,0.1,0l0,0c0,0,0.1,0,0.1,0c0.1,0,0.1,0,0.2,0c0,0,0.1,0,0.1,0
		c0.1,0.1,0,0.2-0.1,0.3c0,0,0,0,0,0.1c-0.4,0.8-0.9,1.5-1.5,2c-0.2,0.2-0.5,0.3-0.8,0.4c-0.3,0.1-0.5,0.4-0.6,0.6
		c-0.1,0.4-0.2,0.8-0.1,1.3c0,0.6-0.2,1.1-0.8,1.5c-0.7,0.4-1.1,1.2-1.4,1.9c0,0,0,0,0,0c0,0,0,0.1-0.1,0.1
		c-0.2,0.1-0.4,0.2-0.5,0.4c-0.2,0.2-0.4,0.4-0.5,0.6c-0.2,0.2-0.3,0.4-0.5,0.6c-0.5,0.5-1.1,0.8-1.8,0.6c-0.1,0-0.2,0-0.3-0.1
		c-0.3-0.1-0.5-0.3-0.5-0.7c0-0.6,0-1.1-0.1-1.9c0-0.1,0-0.2,0-0.3l0,0c0-0.1,0-0.3-0.1-0.4c-0.1-0.1,0-0.3,0-0.4c0-0.1,0-0.1,0-0.2
		c0-0.5,0.2-1,0.3-1.5c0-0.1,0.1-0.2,0.2-0.4c0-0.1,0.1-0.1,0.1-0.2c0.2-0.4,0.1-0.9-0.1-1.3l0-0.1c-0.1-0.3-0.2-0.5-0.3-0.7
		c-0.1-0.2-0.1-0.3-0.2-0.5c-0.1-0.2,0-0.4,0.1-0.5c0,0,0,0,0.1-0.1c0.2-0.2,0.2-0.5,0.1-0.7c0-0.1-0.1-0.2-0.2-0.2
		c-0.2,0-0.4-0.1-0.5-0.2c-0.2-0.1-0.4-0.2-0.6-0.3c-0.1,0-0.2,0-0.3,0c-0.3,0-0.6,0-0.9,0.2c-0.1,0-0.1,0-0.2,0
		c-0.1,0-0.2,0-0.2-0.1l-0.1,0c-0.4-0.1-0.7-0.1-1.1,0c-0.1,0-0.3,0-0.4-0.1c-0.5-0.3-0.9-0.7-1.2-1.3c-0.1-0.3-0.3-0.5-0.5-0.7l0,0
		c0,0-0.1,0-0.1-0.1c-0.1,0-0.1,0-0.1-0.1c-0.2-0.2-0.2-0.5-0.1-0.8l0-0.1c0-0.1,0.1-0.2,0.1-0.3c0-0.3,0.1-0.7,0.2-0.9l0,0
		c0.1-0.3,0.2-0.5,0.4-0.7c0.1-0.1,0.2-0.2,0.2-0.3c0.2-0.2,0.3-0.4,0.5-0.6c0.2-0.2,0.5-0.3,0.9-0.3c0.3,0,0.4-0.1,0.4-0.3
		c0.1-0.4,0.4-0.6,0.7-0.7l0.1,0c0.2-0.1,0.3-0.2,0.5-0.3c0.1-0.1,0.1-0.1,0.2-0.1c0.1,0,0.1,0,0.2,0.1c0.1,0.1,0.2,0.2,0.4,0.2
		c0,0,0.1,0,0.1,0l0,0c0.3,0,0.6,0,0.9,0c0.4-0.1,0.8,0,1.2,0c0.1,0,0.1,0,0.2,0c0.1,0,0.2,0,0.3,0c0,0,0.1,0,0.1,0
		c0.1,0,0.2,0,0.3,0c0.1,0,0.2,0.1,0.2,0.1c0,0,0.1,0.1,0.1,0.1c0,0,0,0,0.1,0c0,0,0,0.1,0,0.2c-0.1,0.2-0.2,0.4-0.1,0.5
		c0,0.1,0.2,0.2,0.5,0.4l0,0c0.2,0.1,0.5,0.2,0.7,0.4c0.1,0.1,0.2,0.2,0.4,0.2c0.2,0,0.4,0,0.5-0.1c0.3-0.1,0.5-0.1,0.8,0
		c0.3,0.1,0.6,0.2,0.8,0.2c0.1,0,0.1,0,0.2,0c0,0,0,0,0,0c0.2,0,0.3,0.1,0.5,0.3l0.2,0l0.2,0l0.1,0l0,0c0-0.2,0.2-0.3,0.3-0.4
		c0,0,0,0,0.1,0c0.1,0,0.1-0.1,0.2-0.1c0,0,0.1-0.1,0.1-0.2c0,0,0-0.1-0.1-0.1c-0.3-0.2-0.5-0.3-0.8-0.4c-0.1,0-0.3,0-0.4,0
		c-0.1,0-0.1,0-0.2,0c-0.1,0-0.2-0.1-0.3-0.2c-0.1-0.1-0.2-0.3-0.3-0.4c0,0-0.1-0.1-0.1-0.1c0-0.1-0.1-0.2-0.1-0.3
		c0-0.1,0-0.2-0.1-0.2c-0.1,0-0.1,0-0.2,0c-0.1,0-0.2,0-0.3,0.1c0,0,0,0,0,0c0,0,0,0,0,0.1c0,0,0,0.1,0.1,0.1C36,19.8,36,19.9,36,20
		c0,0.1-0.1,0.1-0.2,0.2c-0.1,0.1-0.3,0-0.4-0.1c-0.2-0.4-0.4-0.7-0.4-1.1c0-0.1,0-0.2-0.1-0.2c-0.3-0.3-0.5-0.5-0.7-0.7
		c-0.1-0.1-0.2-0.2-0.3-0.2c-0.1,0-0.1,0-0.2,0.1c0,0,0,0,0,0.1c0,0,0,0,0,0.1c0.2,0.3,0.4,0.5,0.6,0.7c0.1,0.1,0.2,0.2,0.3,0.3l0,0
		c0.1,0.1,0.2,0.2,0.2,0.3l0,0.1l-0.1,0c-0.1,0-0.1-0.1-0.2-0.1c-0.1,0-0.1,0-0.2,0.1c0,0-0.1,0.1-0.1,0.1c0,0,0,0-0.1,0
		c-0.2,0.2-0.3,0.3-0.4,0.3c-0.1,0-0.2-0.1-0.4-0.3l0-0.1l0.1,0c0.1,0,0.1,0,0.2,0c0.2,0,0.3,0,0.5,0c-0.1-0.2-0.2-0.3-0.4-0.4
		c0,0-0.1-0.1-0.1-0.1c-0.3-0.2-0.5-0.4-0.6-0.7c-0.1-0.2-0.3-0.3-0.5-0.3c-0.1,0-0.3,0-0.5,0c-0.1,0-0.2,0-0.3,0.1c0,0-0.1,0-0.1,0
		c-0.1,0-0.2,0-0.2,0.2c0,0.1-0.1,0.2-0.2,0.2c-0.3,0.1-0.6,0.3-0.8,0.6c-0.2,0.2-0.3,0.3-0.5,0.3c-0.1,0-0.1,0-0.2-0.1
		c-0.2-0.1-0.3-0.1-0.5-0.2c-0.1,0-0.2-0.1-0.2-0.1c0,0,0,0,0,0c0,0-0.1,0-0.1,0c-0.1,0-0.1,0-0.2,0c-0.2,0-0.3-0.1-0.2-0.4
		c0-0.2,0.1-0.5,0.1-0.7c0-0.1,0.1-0.3,0.1-0.4c0,0,0-0.1,0.1-0.1c0.1-0.1,0.3-0.1,0.5-0.1l0.2,0.1c0.2,0.1,0.5,0.2,0.7,0.2
		c0.2,0.1,0.3,0,0.4-0.1c0.1-0.1,0.1-0.2,0-0.3c-0.1-0.1-0.2-0.3-0.4-0.4l0,0c-0.1-0.1-0.1-0.3-0.1-0.4c0-0.1,0.1-0.1,0.1-0.1
		c0,0,0.1,0,0.1,0c0,0,0,0,0.1,0l0,0c0,0,0.1,0,0.1,0c0,0,0.1,0,0.1,0c0.1-0.1,0.3-0.1,0.4-0.1c0.1,0,0.2,0,0.2,0c0,0,0,0,0,0
		c0,0,0.1-0.1,0-0.1c0,0,0,0,0,0c0,0,0,0,0,0c0,0,0,0,0,0c-0.2,0-0.5-0.1-0.7-0.1l-0.4-0.1c-0.1,0-0.1,0-0.2-0.1
		c0-0.1,0-0.1,0.1-0.2c0.1-0.1,0.1-0.1,0-0.2c0,0,0,0,0-0.1c0,0,0-0.1,0.1-0.1l0,0c0,0,0.1,0,0.1-0.1c0.1-0.1,0.2-0.1,0.2-0.2
		c0.1,0,0.1-0.1,0.1-0.1c0,0,0-0.1-0.1-0.1c0,0-0.1,0-0.1,0c0,0-0.1,0-0.1,0c-0.1,0-0.1-0.1-0.1-0.1c0-0.1,0-0.1,0.1-0.1
		c0,0,0-0.1,0-0.2c-0.1-0.1-0.2-0.2-0.1-0.4c0.1-0.1,0.2-0.2,0.4-0.2c0,0,0.1,0,0.1,0c0,0,0,0,0.1,0l0.1,0l-0.1,0
		c-0.1,0.1-0.1,0.2-0.1,0.2c0,0,0,0,0.1,0c0,0,0,0,0.1,0c0.1,0,0.2,0.1,0.2,0.2c0,0.1-0.1,0.1-0.1,0.2c0,0,0,0-0.1,0
		c0.1,0.1,0.1,0.2,0.2,0.3c0.1,0.1,0.1,0.3,0.2,0.4c0,0,0,0,0,0c0,0,0,0,0,0c0.2,0.2,0.3,0.4,0.2,0.6c0,0.1,0,0.1,0,0.1
		c0,0,0.1,0,0.2,0c0.4-0.1,0.8-0.3,1.2-0.4c0.1,0,0.1-0.1,0.2-0.1c0,0,0,0,0.1,0c0,0,0-0.1,0-0.1c0,0,0,0,0,0l0,0
		c0-0.1-0.1-0.2,0-0.3l0,0c0.1-0.1,0.3-0.2,0.4-0.2c0,0,0.1,0,0.1,0c0,0,0,0.1,0,0.1c0,0,0,0,0,0.1c0,0.1,0,0.2,0,0.2
		c0,0.2,0,0.4,0.3,0.4c0.2,0.1,0.3,0.1,0.5,0.1c0.1,0,0.2,0,0.4,0l0,0c0.1,0,0.2,0,0.2,0c0.1,0,0.1,0,0.2,0.1c0,0,0,0,0,0
		c0.1,0,0.3-0.1,0.3-0.2c0,0,0-0.1,0-0.1c0,0,0-0.1,0-0.1c0-0.2,0-0.2,0.1-0.3c0.1-0.1,0.2,0,0.3,0.1l0,0c0,0,0.1,0,0.1,0
		c0,0,0,0,0-0.1c0.1-0.2,0.3-0.4,0.6-0.3c0.1,0,0.2,0,0.3-0.1c-0.1-0.1-0.2-0.1-0.3,0c-0.2,0.1-0.4,0-0.7,0
		c-0.3-0.1-0.5-0.4-0.4-0.8c0-0.1,0.1-0.2,0.2-0.2c0.2-0.1,0.3-0.2,0.4-0.3c-0.1,0-0.2,0-0.3,0.1c-0.2,0-0.5,0.1-0.7,0.3
		c-0.1,0.1-0.1,0.2-0.2,0.4c0,0,0,0.1,0,0.1c0,0.1,0,0.1,0,0.2c0,0.2,0,0.4-0.2,0.5c0,0,0,0.1-0.1,0.2c0,0.1,0,0.1,0,0.2
		c-0.1,0.2-0.2,0.2-0.2,0.2c-0.1,0-0.1,0-0.2-0.1c-0.1-0.1-0.2-0.3-0.3-0.4l0-0.1c-0.2-0.4-0.6-0.6-1-0.5c-0.2,0-0.3,0-0.3-0.1
		c0-0.1,0-0.1,0-0.2c0,0,0,0,0,0c-0.1,0-0.1-0.1-0.2-0.1c0-0.1,0-0.2,0.1-0.2c0,0,0,0,0-0.1c0,0,0.1-0.1,0.1-0.1c0,0,0,0,0.1-0.1
		c0.1-0.1,0.2-0.3,0.4-0.2c0,0,0.1,0,0.1,0c0.3,0.1,0.6-0.1,0.7-0.4c0.1-0.3,0.3-0.5,0.6-0.5c0.1,0,0.2,0,0.2-0.1
		c0.1-0.2,0.3-0.2,0.5-0.2c0.1,0,0.3,0,0.4,0c0.1,0,0.2,0,0.3,0c0.1,0,0.1,0,0.2,0.1c0,0,0.1,0,0.2,0c0,0,0.1,0,0.1,0
		c0.1,0,0.1,0,0.2,0.1c0,0,0,0,0.1,0c0.1,0,0.1,0.1,0.1,0.1c0,0.1,0.1,0.2,0.1,0.2c0,0,0,0,0.1,0c0,0,0,0,0.1,0
		c0.4,0,0.7,0.2,1.1,0.4c0.1,0,0.1,0.1,0.2,0.1c0,0,0.1,0.1,0.1,0.1c0.1,0.1,0.3,0.3,0.2,0.5c-0.1,0.1-0.1,0.1-0.3,0.1
		c-0.1,0-0.1,0-0.2,0c0,0,0,0-0.1,0c-0.1,0-0.2-0.1-0.3-0.1c-0.1,0-0.2-0.1-0.3-0.1c0.1,0.1,0.2,0.3,0.2,0.4c0,0,0,0.1,0,0.1
		c0,0,0.1,0.1,0.2,0.1c0,0,0.1,0,0.1,0c0,0,0-0.1,0-0.1c0,0,0-0.1,0-0.2l0,0l0,0c0.1,0,0.1,0,0.2,0c0,0,0,0,0,0c0,0,0.1,0,0.1,0.1
		c0.1,0,0.1,0.1,0.2,0.1c0.1,0,0.3-0.1,0.4-0.2c0,0,0.1,0,0.1-0.1c0,0,0,0,0-0.1c0,0,0,0,0,0c0-0.1,0-0.2,0-0.2c0,0,0,0,0-0.1
		c0,0,0-0.1,0-0.1c0,0,0.1,0,0.1-0.1c0.1,0,0.1,0,0.1,0c0.1,0,0.2,0.1,0.2,0.2c0,0.1,0,0.1,0.1,0.2c0,0,0,0,0,0.1
		c0,0.1,0.1,0.2,0.1,0.2c0,0,0.1,0,0.1-0.1c0,0,0-0.1,0-0.1c0.1-0.2,0.6-0.3,0.7-0.3c0.1,0,0.1,0.1,0.1,0.1c0,0,0,0.1,0,0.1
		c0,0,0,0,0.1,0c0.1-0.1,0.2-0.1,0.3,0c0.1,0,0.1,0,0.2,0c0,0,0,0,0,0l0,0l0,0c0.6,0.8,1.2,1.6,1.7,2.7c0.6,1.3,1,2.3,1.3,3.3
		c0.2,0.8,0.4,1.6,0.5,2.5l0,0.1c0.1,0.7,0.2,1.3,0.2,2c0,0.1,0,0.1,0,0.2c0,0.2,0,0.5,0,0.7l0,0C45,24.7,45,24.7,45,24.8L45,24.8z
		 M32.9,18.1c-0.1,0-0.1,0-0.1-0.1C32.7,17.9,32.7,18,32.9,18.1C32.8,18,32.8,18,32.9,18.1c0.1,0,0.1,0,0.1,0.2c0,0,0,0.1,0,0.1
		c0,0-0.1,0-0.1,0c0,0,0.1,0,0.1,0c0,0,0.1,0.1,0.1,0.1c0,0,0-0.1,0-0.1h0l0,0.1c0,0,0,0,0,0c0,0,0,0,0,0c0,0,0,0,0,0c0,0,0,0,0,0
		c0,0,0,0,0,0c0,0.1,0,0.1,0,0.1c-0.1,0.1-0.1-0.1-0.2-0.1l0,0c-0.1,0-0.1,0.1-0.1,0c0,0,0,0.2,0,0.2c0,0,0,0,0-0.1c0,0,0-0.1,0-0.1
		c0-0.1,0-0.3,0.1-0.3C32.8,18.2,32.8,18.1,32.9,18.1L32.9,18.1z M32.7,18.9L32.7,18.9L32.7,18.9L32.7,18.9z"/>
</g>
</svg>
