<?xml version="1.0" encoding="utf-8"?>
<!-- Generator: Adobe Illustrator 19.0.1, SVG Export Plug-In . SVG Version: 6.00 Build 0)  -->
<svg version="1.1" id="Layer_1" xmlns="http://www.w3.org/2000/svg" xmlns:xlink="http://www.w3.org/1999/xlink" x="0px" y="0px"
	 viewBox="0 0 100 100" style="enable-background:new 0 0 100 100;" xml:space="preserve">
<style type="text/css">
	.st0{fill:none;}
	.st1{fill:#804754;}
	.st2{fill:#D1BF99;}
	.st3{fill:url(#SVGID_1_);}
	.st4{fill:url(#SVGID_2_);}
	.st5{fill:url(#SVGID_3_);}
	.st6{fill:url(#SVGID_4_);}
	.st7{fill:url(#SVGID_5_);}
	.st8{fill:url(#SVGID_6_);}
	.st9{fill:url(#SVGID_7_);}
	.st10{fill:url(#SVGID_8_);}
	.st11{fill:url(#SVGID_9_);}
	.st12{fill:url(#SVGID_10_);}
	.st13{fill:url(#SVGID_11_);}
	.st14{fill:url(#SVGID_12_);}
	.st15{fill:url(#SVGID_13_);}
	.st16{fill:url(#SVGID_14_);}
	.st17{fill:url(#SVGID_15_);}
	.st18{fill:url(#SVGID_16_);}
	.st19{fill:url(#SVGID_17_);}
	.st20{fill:url(#SVGID_18_);}
	.st21{fill:url(#SVGID_19_);}
	.st22{fill:url(#SVGID_20_);}
	.st23{fill:#562636;}
	.st24{fill:url(#SVGID_21_);}
	.st25{fill:url(#SVGID_22_);}
	.st26{fill:url(#SVGID_23_);}
	.st27{fill:url(#SVGID_24_);}
	.st28{fill:url(#SVGID_25_);}
	.st29{fill:url(#SVGID_26_);}
	.st30{fill:url(#SVGID_27_);}
	.st31{fill:#FFFFFF;}
	.st32{fill:url(#SVGID_28_);}
	.st33{fill:url(#SVGID_29_);}
	.st34{fill:url(#SVGID_30_);}
	.st35{fill:url(#SVGID_31_);}
	.st36{fill:url(#SVGID_32_);}
	.st37{fill:url(#SVGID_33_);}
	.st38{fill:url(#SVGID_34_);}
	.st39{fill:url(#SVGID_35_);}
	.st40{fill:url(#SVGID_36_);}
	.st41{fill:url(#SVGID_37_);}
	.st42{fill:url(#SVGID_38_);}
	.st43{fill:url(#SVGID_39_);}
	.st44{fill:url(#SVGID_40_);}
	.st45{fill:url(#SVGID_41_);}
	.st46{fill:url(#SVGID_42_);}
	.st47{fill:url(#SVGID_43_);}
	.st48{fill:url(#SVGID_44_);}
	.st49{fill:url(#SVGID_45_);}
	.st50{fill:url(#SVGID_46_);}
	.st51{fill:url(#SVGID_47_);}
	.st52{fill:url(#SVGID_48_);}
	.st53{fill:url(#SVGID_49_);}
	.st54{fill:url(#SVGID_50_);}
	.st55{fill:url(#SVGID_51_);}
	.st56{fill:url(#SVGID_52_);}
	.st57{fill:url(#SVGID_53_);}
	.st58{fill:url(#SVGID_54_);}
	.st59{fill:url(#SVGID_55_);}
	.st60{fill:url(#SVGID_56_);}
	.st61{fill:url(#SVGID_57_);}
	.st62{fill:url(#SVGID_58_);}
	.st63{fill:url(#SVGID_59_);}
	.st64{fill:url(#SVGID_60_);}
	.st65{fill:url(#SVGID_61_);}
	.st66{fill:url(#SVGID_62_);}
	.st67{fill:url(#SVGID_63_);}
	.st68{fill:#19A95A;}
	.st69{fill:url(#SVGID_64_);}
	.st70{fill:url(#SVGID_65_);}
	.st71{fill:url(#SVGID_66_);}
	.st72{fill:url(#SVGID_67_);}
	.st73{fill:url(#SVGID_68_);}
	.st74{fill:url(#SVGID_69_);}
	.st75{fill:url(#SVGID_70_);}
	.st76{fill:url(#SVGID_71_);}
	.st77{fill:url(#SVGID_72_);}
	.st78{fill:url(#SVGID_73_);}
	.st79{fill:url(#SVGID_74_);}
	.st80{fill:url(#SVGID_75_);}
	.st81{fill:url(#SVGID_76_);}
	.st82{fill:url(#SVGID_77_);}
	.st83{fill:url(#SVGID_78_);}
	.st84{fill:url(#SVGID_79_);}
	.st85{fill:#D9C198;}
	.st86{opacity:0.85;fill:url(#SVGID_80_);}
	.st87{fill:url(#SVGID_81_);}
	.st88{fill:url(#SVGID_82_);}
	.st89{opacity:0.85;fill:url(#SVGID_83_);}
	.st90{fill:url(#SVGID_84_);}
	.st91{opacity:0.85;fill:url(#SVGID_85_);}
	.st92{fill:url(#SVGID_86_);}
	.st93{opacity:0.85;fill:url(#SVGID_87_);}
	.st94{fill:url(#SVGID_88_);}
	.st95{fill:url(#SVGID_89_);}
	.st96{fill:url(#SVGID_90_);}
	.st97{fill:url(#SVGID_91_);}
	.st98{opacity:0.85;fill:url(#SVGID_92_);}
	.st99{fill:url(#SVGID_93_);}
	.st100{opacity:0.85;fill:url(#SVGID_94_);}
	.st101{fill:url(#SVGID_95_);}
	.st102{fill:url(#SVGID_96_);}
	.st103{opacity:0.85;fill:url(#SVGID_97_);}
	.st104{fill:url(#SVGID_98_);}
	.st105{fill:url(#SVGID_99_);}
	.st106{fill:url(#SVGID_100_);}
	.st107{fill:url(#SVGID_101_);}
	.st108{opacity:0.85;}
	.st109{fill:url(#SVGID_102_);}
	.st110{fill:url(#SVGID_103_);}
	.st111{fill:url(#SVGID_104_);}
	.st112{opacity:0.85;fill:url(#SVGID_105_);}
	.st113{fill:url(#SVGID_106_);}
	.st114{opacity:0.85;fill:url(#SVGID_107_);}
	.st115{fill:none;stroke:url(#SVGID_108_);stroke-width:6;stroke-linecap:round;stroke-linejoin:round;stroke-miterlimit:10;}
</style>
<g>
	<linearGradient id="SVGID_1_" gradientUnits="userSpaceOnUse" x1="54.7502" y1="85.7693" x2="54.7502" y2="20.898">
		<stop  offset="5.076142e-003" style="stop-color:#E2D2B4"/>
		<stop  offset="1" style="stop-color:#D0BE98"/>
	</linearGradient>
	<path style="opacity:0.85;fill:url(#SVGID_1_);" d="M85.4,51.9h-8V41.8c1.8-2,3-4.7,3-7.7v-11c0-1.3-1-2.3-2.3-2.3H31.5
		c-1.3,0-2.3,1-2.3,2.3v11c0,2.9,1.1,5.6,3,7.7v10.2h-8c-1.3,0-2.3,1-2.3,2.3v13.7c0,4.3-0.9,8.6,3.4,8.6l1.8,3.2
		c0.6,0,1.1,0.2,1.1,0.9l0.4,1.7c0,4.8,6.1,3.3,10.9,3.3h30.6c4.8,0,8.7-3.9,8.7-8.7v-1.2h1.1c4.3,0,7.8-3.5,7.8-7.8V54.2
		C87.7,53,86.6,51.9,85.4,51.9z"/>
	<linearGradient id="SVGID_2_" gradientUnits="userSpaceOnUse" x1="48.3333" y1="85.0403" x2="48.3333" y2="14.2307">
		<stop  offset="4.568528e-002" style="stop-color:#8D4254"/>
		<stop  offset="1" style="stop-color:#AE565A"/>
	</linearGradient>
	<path class="st4" d="M81.8,48.2h-8.8V37.1c2-2.2,3.3-5.2,3.3-8.4v-12c0-1.4-1.1-2.5-2.5-2.5h-51c-1.4,0-2.5,1.1-2.5,2.5v12
		c0,3.2,1.2,6.2,3.3,8.4v11.1h-8.8c-1.4,0-2.5,1.1-2.5,2.5v15c0,4.7,3.8,8.5,8.5,8.5h1.3v1.3c0,5.2,4.3,9.5,9.5,9.5h33.5
		c5.2,0,9.5-4.3,9.5-9.5v-1.3h1.3c4.7,0,8.5-3.8,8.5-8.5v-15C84.3,49.3,83.2,48.2,81.8,48.2z M65.1,54.4H31.6c-1,0-2.1,0.2-3,0.5
		V40.5c1.3,0.5,2.8,0.8,4.3,0.8h4v6.5c0,1.4,1.1,2.5,2.5,2.5s2.5-1.1,2.5-2.5v-6.5h13v6.5c0,1.4,1.1,2.5,2.5,2.5s2.5-1.1,2.5-2.5
		v-6.5h4c1.5,0,2.9-0.3,4.3-0.8v14.4C67.1,54.6,66.1,54.4,65.1,54.4z M25.3,19.2h46v9.5c0,4.1-3.4,7.5-7.5,7.5h-4v-4.5
		c0-1.4-1.1-2.5-2.5-2.5s-2.5,1.1-2.5,2.5v4.5h-13v-4.5c0-1.4-1.1-2.5-2.5-2.5s-2.5,1.1-2.5,2.5v4.5h-4c-4.1,0-7.5-3.4-7.5-7.5V19.2
		z M20.8,69.2c-1.9,0-3.5-1.6-3.5-3.5V53.2h6.3v5.6c-0.9,1.5-1.5,3.2-1.5,5.1v5.3H20.8z M69.6,75.5c0,2.5-2,4.5-4.5,4.5H31.6
		c-2.5,0-4.5-2-4.5-4.5V63.9c0-2.5,2-4.5,4.5-4.5h33.5c2.5,0,4.5,2,4.5,4.5V75.5z M79.3,65.7c0,1.9-1.6,3.5-3.5,3.5h-1.3v-5.3
		c0-1.9-0.6-3.6-1.5-5.1v-5.6h6.3V65.7z"/>
</g>
</svg>
