<?xml version="1.0" encoding="utf-8"?>
<!-- Generator: Adobe Illustrator 19.0.1, SVG Export Plug-In . SVG Version: 6.00 Build 0)  -->
<svg version="1.1" id="Layer_1" xmlns="http://www.w3.org/2000/svg" xmlns:xlink="http://www.w3.org/1999/xlink" x="0px" y="0px"
	 viewBox="0 0 60 60" style="enable-background:new 0 0 60 60;" xml:space="preserve">
<style type="text/css">
	.st0{fill:none;}
	.st1{fill:#804754;}
	.st2{fill:#D1BF99;}
	.st3{fill:url(#SVGID_1_);}
	.st4{fill:url(#SVGID_2_);}
	.st5{fill:url(#SVGID_3_);}
	.st6{fill:url(#SVGID_4_);}
	.st7{fill:url(#SVGID_5_);}
	.st8{fill:url(#SVGID_6_);}
	.st9{fill:url(#SVGID_7_);}
	.st10{fill:url(#SVGID_8_);}
	.st11{fill:url(#SVGID_9_);}
	.st12{fill:url(#SVGID_10_);}
	.st13{fill:url(#SVGID_11_);}
	.st14{fill:url(#SVGID_12_);}
	.st15{fill:url(#SVGID_13_);}
	.st16{fill:url(#SVGID_14_);}
	.st17{fill:url(#SVGID_15_);}
	.st18{fill:url(#SVGID_16_);}
	.st19{fill:url(#SVGID_17_);}
	.st20{fill:url(#SVGID_18_);}
	.st21{fill:url(#SVGID_19_);}
	.st22{fill:url(#SVGID_20_);}
	.st23{fill:#562636;}
	.st24{fill:url(#SVGID_21_);}
	.st25{fill:url(#SVGID_22_);}
	.st26{fill:url(#SVGID_23_);}
	.st27{fill:url(#SVGID_24_);}
	.st28{fill:url(#SVGID_25_);}
	.st29{fill:url(#SVGID_26_);}
	.st30{fill:url(#SVGID_27_);}
	.st31{fill:#FFFFFF;}
	.st32{fill:url(#SVGID_28_);}
	.st33{fill:url(#SVGID_29_);}
	.st34{fill:url(#SVGID_30_);}
	.st35{fill:url(#SVGID_31_);}
	.st36{fill:url(#SVGID_32_);}
	.st37{fill:url(#SVGID_33_);}
	.st38{fill:url(#SVGID_34_);}
	.st39{fill:url(#SVGID_35_);}
	.st40{fill:url(#SVGID_36_);}
	.st41{fill:url(#SVGID_37_);}
	.st42{fill:url(#SVGID_38_);}
	.st43{fill:url(#SVGID_39_);}
	.st44{fill:url(#SVGID_40_);}
	.st45{fill:url(#SVGID_41_);}
	.st46{fill:url(#SVGID_42_);}
	.st47{fill:url(#SVGID_43_);}
	.st48{fill:url(#SVGID_44_);}
	.st49{fill:url(#SVGID_45_);}
	.st50{fill:url(#SVGID_46_);}
	.st51{fill:url(#SVGID_47_);}
	.st52{fill:url(#SVGID_48_);}
	.st53{fill:url(#SVGID_49_);}
	.st54{fill:url(#SVGID_50_);}
	.st55{fill:url(#SVGID_51_);}
	.st56{fill:url(#SVGID_52_);}
	.st57{fill:url(#SVGID_53_);}
	.st58{fill:url(#SVGID_54_);}
	.st59{fill:url(#SVGID_55_);}
	.st60{fill:url(#SVGID_56_);}
	.st61{fill:url(#SVGID_57_);}
	.st62{fill:url(#SVGID_58_);}
	.st63{fill:url(#SVGID_59_);}
	.st64{fill:url(#SVGID_60_);}
	.st65{fill:url(#SVGID_61_);}
	.st66{fill:url(#SVGID_62_);}
	.st67{fill:url(#SVGID_63_);}
	.st68{fill:#19A95A;}
	.st69{fill:url(#SVGID_64_);}
	.st70{fill:url(#SVGID_65_);}
	.st71{fill:url(#SVGID_66_);}
	.st72{fill:url(#SVGID_67_);}
	.st73{fill:url(#SVGID_68_);}
	.st74{fill:url(#SVGID_69_);}
	.st75{fill:url(#SVGID_70_);}
	.st76{fill:url(#SVGID_71_);}
	.st77{fill:url(#SVGID_72_);}
	.st78{fill:url(#SVGID_73_);}
	.st79{fill:url(#SVGID_74_);}
	.st80{fill:url(#SVGID_75_);}
	.st81{fill:url(#SVGID_76_);}
	.st82{fill:url(#SVGID_77_);}
	.st83{fill:url(#SVGID_78_);}
	.st84{fill:url(#SVGID_79_);}
	.st85{fill:#D9C198;}
	.st86{opacity:0.85;fill:url(#SVGID_80_);}
	.st87{fill:url(#SVGID_81_);}
	.st88{fill:url(#SVGID_82_);}
	.st89{opacity:0.85;fill:url(#SVGID_83_);}
	.st90{fill:url(#SVGID_84_);}
	.st91{opacity:0.85;fill:url(#SVGID_85_);}
	.st92{fill:url(#SVGID_86_);}
	.st93{fill:url(#SVGID_87_);}
	.st94{fill:url(#SVGID_88_);}
	.st95{fill:url(#SVGID_89_);}
	.st96{opacity:0.85;fill:url(#SVGID_90_);}
	.st97{fill:url(#SVGID_91_);}
	.st98{opacity:0.85;fill:url(#SVGID_92_);}
	.st99{fill:url(#SVGID_93_);}
	.st100{fill:url(#SVGID_94_);}
	.st101{opacity:0.85;fill:url(#SVGID_95_);}
	.st102{fill:url(#SVGID_96_);}
	.st103{fill:url(#SVGID_97_);}
	.st104{fill:url(#SVGID_98_);}
	.st105{fill:url(#SVGID_99_);}
	.st106{opacity:0.85;}
	.st107{fill:url(#SVGID_100_);}
	.st108{fill:url(#SVGID_101_);}
	.st109{fill:url(#SVGID_102_);}
	.st110{opacity:0.85;fill:url(#SVGID_103_);}
	.st111{fill:url(#SVGID_104_);}
	.st112{opacity:0.85;fill:url(#SVGID_105_);}
	.st113{fill:none;stroke:url(#SVGID_106_);stroke-width:6;stroke-linecap:round;stroke-linejoin:round;stroke-miterlimit:10;}
	.st114{fill:#010202;}
	.st115{fill:url(#SVGID_107_);}
	.st116{fill:#3175BB;}
	.st117{fill:url(#SVGID_108_);}
	.st118{fill:#F0C9A5;}
	.st119{fill:#E3B692;}
	.st120{fill:#7C4454;}
	.st121{fill:#5A3F50;}
	.st122{fill:#262421;}
	.st123{fill:#909090;}
	.st124{fill:url(#SVGID_109_);}
	.st125{fill:url(#SVGID_110_);}
	.st126{fill:none;stroke:#562636;stroke-width:3;stroke-linecap:round;stroke-miterlimit:10;}
	.st127{fill:none;stroke:#562636;stroke-width:3;stroke-linecap:round;stroke-miterlimit:1;}
	.st128{fill:url(#SVGID_111_);}
	.st129{fill:url(#SVGID_112_);}
	.st130{fill:url(#SVGID_113_);}
	.st131{fill:url(#SVGID_114_);}
	.st132{fill:url(#SVGID_115_);}
	.st133{fill:url(#SVGID_116_);}
	.st134{fill:url(#SVGID_117_);}
	.st135{fill:url(#SVGID_118_);}
	.st136{fill:url(#SVGID_119_);}
	.st137{fill:url(#SVGID_120_);}
	.st138{fill:url(#SVGID_121_);}
	.st139{fill:url(#SVGID_122_);}
	.st140{fill:url(#SVGID_123_);}
	.st141{fill:url(#SVGID_124_);}
	.st142{fill:url(#SVGID_125_);}
	.st143{fill:url(#SVGID_126_);}
	.st144{fill:url(#SVGID_127_);}
	.st145{fill:none;stroke:#562636;stroke-width:3;stroke-linecap:round;stroke-linejoin:round;stroke-miterlimit:1;}
	.st146{fill:url(#SVGID_128_);}
	.st147{fill:url(#SVGID_129_);}
	.st148{fill:url(#SVGID_130_);}
	.st149{fill:url(#SVGID_131_);}
	.st150{fill:url(#SVGID_132_);}
	.st151{fill:url(#SVGID_133_);}
	.st152{fill:url(#SVGID_134_);}
	.st153{fill:url(#SVGID_135_);}
	.st154{fill:url(#SVGID_136_);}
	.st155{fill:url(#SVGID_137_);}
	.st156{fill:url(#SVGID_138_);}
	.st157{fill:url(#SVGID_139_);}
	.st158{fill:url(#SVGID_140_);}
	.st159{fill:url(#SVGID_141_);}
	.st160{fill:url(#SVGID_142_);}
	.st161{fill:url(#SVGID_143_);}
	.st162{fill:url(#SVGID_144_);}
	.st163{fill:url(#SVGID_145_);}
	.st164{fill:url(#SVGID_146_);}
	.st165{fill:url(#SVGID_147_);}
	.st166{fill:url(#SVGID_148_);}
	.st167{fill:url(#SVGID_149_);}
	.st168{fill:url(#SVGID_150_);}
	.st169{fill:url(#SVGID_151_);}
	.st170{fill:url(#SVGID_152_);}
	.st171{fill:url(#SVGID_153_);}
	.st172{fill:url(#SVGID_154_);}
	.st173{fill:url(#SVGID_155_);}
	.st174{fill:url(#SVGID_156_);}
	.st175{fill:url(#SVGID_157_);}
	.st176{fill:url(#SVGID_158_);}
	.st177{fill:url(#SVGID_159_);}
	.st178{fill:url(#SVGID_160_);}
	.st179{fill:url(#SVGID_161_);}
	.st180{fill:url(#SVGID_162_);}
	.st181{fill:url(#SVGID_163_);}
	.st182{fill:url(#SVGID_164_);}
	.st183{fill:url(#SVGID_165_);}
	.st184{fill:url(#SVGID_166_);}
	.st185{fill:url(#SVGID_167_);}
	.st186{fill:url(#SVGID_168_);}
	.st187{fill:url(#SVGID_169_);}
	.st188{fill:url(#SVGID_170_);}
</style>
<g>
	<path class="st0" d="M29.1,6.7c-0.1,0-0.4,0-0.6,0.3l-6.1,12.3c-0.5,1.1-1.5,1.8-2.7,2l-13.5,2c-0.3,0-0.5,0.3-0.5,0.4
		s-0.1,0.4,0.2,0.6L7.6,26c-0.6-1.2,0.1-2.8,1.6-3l13.5-2c0.7-0.1,1.3-0.5,1.6-1.2l5.8-11.8l-0.5-1C29.5,6.7,29.3,6.7,29.1,6.7z"/>
	<path class="st0" d="M16.7,37.1l-2.3,13.5c-0.1,0.3,0.1,0.5,0.2,0.6c0.1,0.1,0.4,0.2,0.7,0l1-0.5l2.2-12.7c0.1-0.7-0.1-1.4-0.6-1.9
		l-1.6-1.5C16.7,35.4,16.9,36.2,16.7,37.1z"/>
	<linearGradient id="SVGID_1_" gradientUnits="userSpaceOnUse" x1="7.4104" y1="31.0644" x2="57.26" y2="31.0644">
		<stop  offset="0" style="stop-color:#FCC778"/>
		<stop  offset="1" style="stop-color:#F08244"/>
	</linearGradient>
	<path class="st3" d="M56.6,26.6c1.3-1.2,0.6-3.4-1.2-3.6l0,0c0.3,1.2,0,2.6-1,3.5L44.6,36c-0.1,0.1-0.2,0.4-0.2,0.6l0.5,2.7
		c0.1,0.8-0.4,1.6-1.2,1.7c-0.8,0.1-1.6-0.4-1.7-1.2l-0.5-2.7c-0.2-1.2,0.2-2.4,1-3.2l9.8-9.6c0.2-0.2,0.2-0.5,0.2-0.6
		s-0.2-0.4-0.5-0.4l-13.5-2c-1.2-0.2-2.2-0.9-2.7-2L30.2,8.1l-5.8,11.8c-0.3,0.6-0.9,1.1-1.6,1.2L9.2,23c-1.5,0.2-2.2,1.8-1.6,3
		l8.1,7.9c0.2,0.2,0.4,0.5,0.6,0.8l1.6,1.5c0.5,0.5,0.7,1.2,0.6,1.9l-2.2,12.7l11.1-5.9c1.1-0.6,2.3-0.6,3.4,0l12.1,6.4
		c0.3,0.2,0.5,0,0.7,0c0.1-0.1,0.3-0.3,0.2-0.6l-0.9-5.5c-0.1-0.8,0.4-1.6,1.2-1.7c0.8-0.1,1.6,0.4,1.7,1.2l0.9,5.5
		c0.2,1.4-0.3,2.7-1.4,3.5c0,0-0.1,0-0.1,0.1l0.2,0.1c1.6,0.8,3.4-0.5,3.1-2.2l-2.3-13.5c-0.1-0.7,0.1-1.4,0.6-1.9L56.6,26.6z"/>
	<linearGradient id="SVGID_2_" gradientUnits="userSpaceOnUse" x1="7.3987" y1="12.4476" x2="57.2599" y2="12.4476">
		<stop  offset="0" style="stop-color:#FCC778"/>
		<stop  offset="1" style="stop-color:#F08244"/>
	</linearGradient>
	<path class="st4" d="M38.9,18.3l0.7,0.1L34.2,7.6c-0.3-0.6-0.9-1-1.5-1.1L38.4,18C38.5,18.2,38.7,18.3,38.9,18.3z"/>
	<linearGradient id="SVGID_3_" gradientUnits="userSpaceOnUse" x1="7.3987" y1="50.7481" x2="57.2599" y2="50.7481">
		<stop  offset="0" style="stop-color:#FCC778"/>
		<stop  offset="1" style="stop-color:#F08244"/>
	</linearGradient>
	<path class="st5" d="M28.8,47.5l-11.7,6.2c0.6,0.4,1.4,0.5,2.1,0.1L30.3,48l-0.9-0.5C29.2,47.4,29,47.4,28.8,47.5z"/>
	<path class="st23" d="M46.8,50.1l-0.9-5.5c-0.1-0.8-0.9-1.4-1.7-1.2c-0.8,0.1-1.4,0.9-1.2,1.7l0.9,5.5c0.1,0.3-0.1,0.5-0.2,0.6
		c-0.1,0.1-0.4,0.2-0.7,0l-12.1-6.4c-1.1-0.6-2.3-0.6-3.4,0l-11.1,5.9l-1,0.5c-0.3,0.2-0.5,0-0.7,0c-0.1-0.1-0.3-0.3-0.2-0.6
		l2.3-13.5c0.1-0.9,0-1.7-0.5-2.4c-0.2-0.3-0.4-0.5-0.6-0.8L7.6,26l-1.7-1.7c-0.2-0.2-0.2-0.5-0.2-0.6s0.2-0.4,0.5-0.4l13.5-2
		c1.2-0.2,2.2-0.9,2.7-2L28.6,7c0.1-0.3,0.4-0.3,0.6-0.3c0.1,0,0.4,0,0.6,0.3l0.5,1l5.5,11.2c0.5,1.1,1.5,1.8,2.7,2l13.5,2
		c0.3,0,0.5,0.3,0.5,0.4s0.1,0.4-0.2,0.6l-9.8,9.6c-0.9,0.8-1.2,2-1,3.2l0.5,2.7c0.1,0.8,0.9,1.4,1.7,1.2c0.8-0.1,1.4-0.9,1.2-1.7
		l-0.5-2.7c0-0.2,0-0.4,0.2-0.6l9.8-9.6c0.9-0.9,1.3-2.2,1-3.5c0-0.1,0-0.2-0.1-0.3c-0.4-1.3-1.6-2.3-2.9-2.5l-12.9-1.9l-0.7-0.1
		c-0.2,0-0.4-0.2-0.5-0.3L32.7,6.5l-0.4-0.8c-0.6-1.2-1.9-2-3.2-2c-1.4,0-2.6,0.8-3.3,2L19.8,18c-0.1,0.2-0.3,0.3-0.5,0.3l-13.5,2
		c-1.4,0.2-2.5,1.1-2.9,2.5c-0.4,1.3-0.1,2.7,0.9,3.7l9.8,9.6c0.1,0.1,0.2,0.4,0.2,0.6l-2.3,13.5c-0.2,1.4,0.3,2.7,1.4,3.5
		c1.1,0.8,2.6,0.9,3.8,0.3l0.4-0.2l11.7-6.2c0.2-0.1,0.4-0.1,0.6,0l0.9,0.5l11.2,5.9c0.5,0.3,1.1,0.4,1.7,0.4c0.7,0,1.4-0.2,2-0.6
		c0,0,0.1,0,0.1-0.1C46.5,52.8,47,51.4,46.8,50.1z"/>
</g>
</svg>
