<?xml version="1.0" encoding="utf-8"?>
<!-- Generator: Adobe Illustrator 19.0.1, SVG Export Plug-In . SVG Version: 6.00 Build 0)  -->
<svg version="1.1" id="Layer_1" xmlns="http://www.w3.org/2000/svg" xmlns:xlink="http://www.w3.org/1999/xlink" x="0px" y="0px"
	 viewBox="0 0 60 60" style="enable-background:new 0 0 60 60;" xml:space="preserve">
<style type="text/css">
	.st0{fill:none;}
	.st1{fill:#804754;}
	.st2{fill:#D1BF99;}
	.st3{fill:url(#SVGID_1_);}
	.st4{fill:url(#SVGID_2_);}
	.st5{fill:url(#SVGID_3_);}
	.st6{fill:url(#SVGID_4_);}
	.st7{fill:url(#SVGID_5_);}
	.st8{fill:url(#SVGID_6_);}
	.st9{fill:url(#SVGID_7_);}
	.st10{fill:url(#SVGID_8_);}
	.st11{fill:url(#SVGID_9_);}
	.st12{fill:url(#SVGID_10_);}
	.st13{fill:url(#SVGID_11_);}
	.st14{fill:url(#SVGID_12_);}
	.st15{fill:url(#SVGID_13_);}
	.st16{fill:url(#SVGID_14_);}
	.st17{fill:url(#SVGID_15_);}
	.st18{fill:url(#SVGID_16_);}
	.st19{fill:url(#SVGID_17_);}
	.st20{fill:url(#SVGID_18_);}
	.st21{fill:url(#SVGID_19_);}
	.st22{fill:url(#SVGID_20_);}
	.st23{fill:#562636;}
	.st24{fill:url(#SVGID_21_);}
	.st25{fill:url(#SVGID_22_);}
	.st26{fill:url(#SVGID_23_);}
	.st27{fill:url(#SVGID_24_);}
	.st28{fill:url(#SVGID_25_);}
	.st29{fill:url(#SVGID_26_);}
	.st30{fill:url(#SVGID_27_);}
	.st31{fill:#FFFFFF;}
	.st32{fill:url(#SVGID_28_);}
	.st33{fill:url(#SVGID_29_);}
	.st34{fill:url(#SVGID_30_);}
	.st35{fill:url(#SVGID_31_);}
	.st36{fill:url(#SVGID_32_);}
	.st37{fill:url(#SVGID_33_);}
	.st38{fill:url(#SVGID_34_);}
	.st39{fill:url(#SVGID_35_);}
	.st40{fill:url(#SVGID_36_);}
	.st41{fill:url(#SVGID_37_);}
	.st42{fill:url(#SVGID_38_);}
	.st43{fill:url(#SVGID_39_);}
	.st44{fill:url(#SVGID_40_);}
	.st45{fill:url(#SVGID_41_);}
	.st46{fill:url(#SVGID_42_);}
	.st47{fill:url(#SVGID_43_);}
	.st48{fill:url(#SVGID_44_);}
	.st49{fill:url(#SVGID_45_);}
	.st50{fill:url(#SVGID_46_);}
	.st51{fill:url(#SVGID_47_);}
	.st52{fill:url(#SVGID_48_);}
	.st53{fill:url(#SVGID_49_);}
	.st54{fill:url(#SVGID_50_);}
	.st55{fill:url(#SVGID_51_);}
	.st56{fill:url(#SVGID_52_);}
	.st57{fill:url(#SVGID_53_);}
	.st58{fill:url(#SVGID_54_);}
	.st59{fill:url(#SVGID_55_);}
	.st60{fill:url(#SVGID_56_);}
	.st61{fill:url(#SVGID_57_);}
	.st62{fill:url(#SVGID_58_);}
	.st63{fill:url(#SVGID_59_);}
	.st64{fill:url(#SVGID_60_);}
	.st65{fill:url(#SVGID_61_);}
	.st66{fill:url(#SVGID_62_);}
	.st67{fill:url(#SVGID_63_);}
	.st68{fill:#19A95A;}
	.st69{fill:url(#SVGID_64_);}
	.st70{fill:url(#SVGID_65_);}
	.st71{fill:url(#SVGID_66_);}
	.st72{fill:url(#SVGID_67_);}
	.st73{fill:url(#SVGID_68_);}
	.st74{fill:url(#SVGID_69_);}
	.st75{fill:url(#SVGID_70_);}
	.st76{fill:url(#SVGID_71_);}
	.st77{fill:url(#SVGID_72_);}
	.st78{fill:url(#SVGID_73_);}
	.st79{fill:url(#SVGID_74_);}
	.st80{fill:url(#SVGID_75_);}
	.st81{fill:url(#SVGID_76_);}
	.st82{fill:url(#SVGID_77_);}
	.st83{fill:url(#SVGID_78_);}
	.st84{fill:url(#SVGID_79_);}
	.st85{fill:#D9C198;}
</style>
<polygon class="st0" points="44.2,30.6 46.1,30.6 45.4,29.2 42.9,29.2 42.9,30.9 "/>
<polygon class="st0" points="9.8,38.5 8.5,38.5 8.5,48.4 9.3,48.4 9.3,39.7 "/>
<polygon class="st0" points="14.9,30.6 14.9,29.2 12,29.2 9.3,35.5 11.1,35.5 13.3,30.6 "/>
<linearGradient id="SVGID_1_" gradientUnits="userSpaceOnUse" x1="9.2732" y1="45.5156" x2="52.9818" y2="45.5156">
	<stop  offset="0" style="stop-color:#19A95A"/>
	<stop  offset="1" style="stop-color:#49B590"/>
</linearGradient>
<path class="st3" d="M50.7,51.4H9.3v1.4H53V39.7l-0.8-1.6v11.8C52.2,50.8,51.6,51.4,50.7,51.4z"/>
<linearGradient id="SVGID_2_" gradientUnits="userSpaceOnUse" x1="9.2732" y1="33.0452" x2="52.9818" y2="33.0452">
	<stop  offset="0" style="stop-color:#19A95A"/>
	<stop  offset="1" style="stop-color:#49B590"/>
</linearGradient>
<path class="st4" d="M42.9,30.9v0.7h0.8c0.6,0,1,0.4,1,1s-0.4,1-1,1H14c-0.6,0-1-0.4-1-1s0.4-1,1-1h0.8v-1h-1.6l-2.1,4.8h37.3
	l-2.3-4.8h-1.8L42.9,30.9z"/>
<linearGradient id="SVGID_3_" gradientUnits="userSpaceOnUse" x1="9.2732" y1="43.4512" x2="52.9818" y2="43.4512">
	<stop  offset="0" style="stop-color:#19A95A"/>
	<stop  offset="1" style="stop-color:#49B590"/>
</linearGradient>
<polygon class="st5" points="9.8,38.5 9.3,39.7 9.3,48.4 49.2,48.4 49.2,38.5 "/>
<path class="st23" d="M17.9,24c0-0.8-0.7-1.5-1.5-1.5c-0.8,0-1.5,0.7-1.5,1.5v2.2H11c-0.6,0-1.1,0.4-1.4,0.9l-4,9.1
	c-0.1,0.2-0.1,0.4-0.1,0.6v13.1c0,0.8,0.7,1.5,1.5,1.5h2.3h41.5c0.8,0,1.5-0.7,1.5-1.5V38.2v-1.4c0-0.2-0.1-0.5-0.2-0.7l-4.4-9.1
	c-0.3-0.5-0.8-0.8-1.3-0.8h-3.4V7.1c0-0.8-0.7-1.5-1.5-1.5h-25c-0.8,0-1.5,0.7-1.5,1.5v11.4c0,0.8,0.7,1.5,1.5,1.5
	c0.8,0,1.5-0.7,1.5-1.5V8.6h22v23h-22V24z M9.3,48.4H8.5v-10h1.3h39.4v10H9.3z M45.4,29.2l0.7,1.4l2.3,4.8H11.1H9.3l2.7-6.2h2.9v1.4
	v1H14c-0.6,0-1,0.4-1,1s0.4,1,1,1h29.7c0.6,0,1-0.4,1-1s-0.4-1-1-1h-0.8v-0.7v-1.7H45.4z"/>
<path class="st68" d="M26.3,26L26.3,26c0.3,0,0.4-0.1,0.5-0.3l9.2-11.8c0.2-0.3,0.2-0.7-0.1-0.9c-0.2-0.2-0.7-0.2-0.9,0l-0.9,0.8
	l-1.1,1l-6.9,5.7l-3.7-1.8c-0.3-0.1-0.6,0-0.8,0.2c-0.2,0.2-0.2,0.6,0,0.8l4.1,6C25.9,25.9,26.1,26,26.3,26z"/>
</svg>
