<?xml version="1.0" encoding="utf-8"?>
<!-- Generator: Adobe Illustrator 19.0.1, SVG Export Plug-In . SVG Version: 6.00 Build 0)  -->
<svg version="1.1" id="Layer_1" xmlns="http://www.w3.org/2000/svg" xmlns:xlink="http://www.w3.org/1999/xlink" x="0px" y="0px"
	 viewBox="0 0 100 100" style="enable-background:new 0 0 100 100;" xml:space="preserve">
<style type="text/css">
	.st0{fill:none;}
	.st1{fill:#804754;}
	.st2{fill:#D1BF99;}
	.st3{fill:url(#SVGID_1_);}
	.st4{fill:url(#SVGID_2_);}
	.st5{fill:url(#SVGID_3_);}
	.st6{fill:url(#SVGID_4_);}
	.st7{fill:url(#SVGID_5_);}
	.st8{fill:url(#SVGID_6_);}
	.st9{fill:url(#SVGID_7_);}
	.st10{fill:url(#SVGID_8_);}
	.st11{fill:url(#SVGID_9_);}
	.st12{fill:url(#SVGID_10_);}
	.st13{fill:url(#SVGID_11_);}
	.st14{fill:url(#SVGID_12_);}
	.st15{fill:url(#SVGID_13_);}
	.st16{fill:url(#SVGID_14_);}
	.st17{fill:url(#SVGID_15_);}
	.st18{fill:url(#SVGID_16_);}
	.st19{fill:url(#SVGID_17_);}
	.st20{fill:url(#SVGID_18_);}
	.st21{fill:url(#SVGID_19_);}
	.st22{fill:url(#SVGID_20_);}
	.st23{fill:#562636;}
	.st24{fill:url(#SVGID_21_);}
	.st25{fill:url(#SVGID_22_);}
	.st26{fill:url(#SVGID_23_);}
	.st27{fill:url(#SVGID_24_);}
	.st28{fill:url(#SVGID_25_);}
	.st29{fill:url(#SVGID_26_);}
	.st30{fill:url(#SVGID_27_);}
	.st31{fill:#FFFFFF;}
	.st32{fill:url(#SVGID_28_);}
	.st33{fill:url(#SVGID_29_);}
	.st34{fill:url(#SVGID_30_);}
	.st35{fill:url(#SVGID_31_);}
	.st36{fill:url(#SVGID_32_);}
	.st37{fill:url(#SVGID_33_);}
	.st38{fill:url(#SVGID_34_);}
	.st39{fill:url(#SVGID_35_);}
	.st40{fill:url(#SVGID_36_);}
	.st41{fill:url(#SVGID_37_);}
	.st42{fill:url(#SVGID_38_);}
	.st43{fill:url(#SVGID_39_);}
	.st44{fill:url(#SVGID_40_);}
	.st45{fill:url(#SVGID_41_);}
	.st46{fill:url(#SVGID_42_);}
	.st47{fill:url(#SVGID_43_);}
	.st48{fill:url(#SVGID_44_);}
	.st49{fill:url(#SVGID_45_);}
	.st50{fill:url(#SVGID_46_);}
	.st51{fill:url(#SVGID_47_);}
	.st52{fill:url(#SVGID_48_);}
	.st53{fill:url(#SVGID_49_);}
	.st54{fill:url(#SVGID_50_);}
	.st55{fill:url(#SVGID_51_);}
	.st56{fill:url(#SVGID_52_);}
	.st57{fill:url(#SVGID_53_);}
	.st58{fill:url(#SVGID_54_);}
	.st59{fill:url(#SVGID_55_);}
	.st60{fill:url(#SVGID_56_);}
	.st61{fill:url(#SVGID_57_);}
	.st62{fill:url(#SVGID_58_);}
	.st63{fill:url(#SVGID_59_);}
	.st64{fill:url(#SVGID_60_);}
	.st65{fill:url(#SVGID_61_);}
	.st66{fill:url(#SVGID_62_);}
	.st67{fill:url(#SVGID_63_);}
	.st68{fill:#19A95A;}
	.st69{fill:url(#SVGID_64_);}
	.st70{fill:url(#SVGID_65_);}
	.st71{fill:url(#SVGID_66_);}
	.st72{fill:url(#SVGID_67_);}
	.st73{fill:url(#SVGID_68_);}
	.st74{fill:url(#SVGID_69_);}
	.st75{fill:url(#SVGID_70_);}
	.st76{fill:url(#SVGID_71_);}
	.st77{fill:url(#SVGID_72_);}
	.st78{fill:url(#SVGID_73_);}
	.st79{fill:url(#SVGID_74_);}
	.st80{fill:url(#SVGID_75_);}
	.st81{fill:url(#SVGID_76_);}
	.st82{fill:url(#SVGID_77_);}
	.st83{fill:url(#SVGID_78_);}
	.st84{fill:url(#SVGID_79_);}
	.st85{fill:#D9C198;}
	.st86{opacity:0.85;fill:url(#SVGID_80_);}
	.st87{fill:url(#SVGID_81_);}
	.st88{fill:url(#SVGID_82_);}
	.st89{opacity:0.85;fill:url(#SVGID_83_);}
	.st90{fill:url(#SVGID_84_);}
	.st91{opacity:0.85;fill:url(#SVGID_85_);}
	.st92{fill:url(#SVGID_86_);}
	.st93{fill:url(#SVGID_87_);}
	.st94{fill:url(#SVGID_88_);}
	.st95{fill:url(#SVGID_89_);}
	.st96{opacity:0.85;fill:url(#SVGID_90_);}
	.st97{fill:url(#SVGID_91_);}
	.st98{opacity:0.85;fill:url(#SVGID_92_);}
	.st99{fill:url(#SVGID_93_);}
	.st100{fill:url(#SVGID_94_);}
	.st101{opacity:0.85;fill:url(#SVGID_95_);}
	.st102{fill:url(#SVGID_96_);}
	.st103{fill:url(#SVGID_97_);}
	.st104{fill:url(#SVGID_98_);}
	.st105{fill:url(#SVGID_99_);}
	.st106{opacity:0.85;}
	.st107{fill:url(#SVGID_100_);}
	.st108{fill:url(#SVGID_101_);}
	.st109{fill:url(#SVGID_102_);}
	.st110{opacity:0.85;fill:url(#SVGID_103_);}
	.st111{fill:url(#SVGID_104_);}
	.st112{opacity:0.85;fill:url(#SVGID_105_);}
	.st113{fill:none;stroke:url(#SVGID_106_);stroke-width:6;stroke-linecap:round;stroke-linejoin:round;stroke-miterlimit:10;}
</style>
<g>
	<linearGradient id="SVGID_1_" gradientUnits="userSpaceOnUse" x1="27.3904" y1="60.7731" x2="79.8135" y2="60.7731">
		<stop  offset="5.076142e-003" style="stop-color:#E2D2B4"/>
		<stop  offset="1" style="stop-color:#D0BE98"/>
	</linearGradient>
	<circle style="opacity:0.85;fill:url(#SVGID_1_);" cx="53.6" cy="60.8" r="26.2"/>
	<g>
		<linearGradient id="SVGID_2_" gradientUnits="userSpaceOnUse" x1="20.1865" y1="49.0153" x2="78.0683" y2="49.0153">
			<stop  offset="4.568528e-002" style="stop-color:#8D4254"/>
			<stop  offset="1" style="stop-color:#AE565A"/>
		</linearGradient>
		<path class="st4" d="M51.6,27.2v-2.4h4.5c1.4,0,2.5-1.1,2.5-2.5v-6.8c0-1.4-1.1-2.5-2.5-2.5H42.2c-1.4,0-2.5,1.1-2.5,2.5v6.8
			c0,1.4,1.1,2.5,2.5,2.5h4.5v2.4C31.8,28.5,20.2,41,20.2,56.1c0,0,0,0,0,0c0,0,0,0,0,0c0,16,13,28.9,28.9,28.9
			c16,0,28.9-13,28.9-28.9C78.1,41,66.4,28.5,51.6,27.2z M44.7,18h8.9v1.8h-8.9V18z M51.6,79.9v-2.7c0-1.4-1.1-2.5-2.5-2.5
			c-1.4,0-2.5,1.1-2.5,2.5v2.7c-11.2-1.2-20.2-10.1-21.4-21.4H28c1.4,0,2.5-1.1,2.5-2.5c0-1.4-1.1-2.5-2.5-2.5h-2.7
			c1.2-11.2,10.1-20.2,21.4-21.4V35c0,1.4,1.1,2.5,2.5,2.5c1.4,0,2.5-1.1,2.5-2.5v-2.7C62.8,33.4,71.8,42.4,73,53.6h-2.7
			c-1.4,0-2.5,1.1-2.5,2.5c0,1.4,1.1,2.5,2.5,2.5H73C71.8,69.8,62.8,78.8,51.6,79.9z"/>
		<linearGradient id="SVGID_3_" gradientUnits="userSpaceOnUse" x1="34.6739" y1="56.0752" x2="63.5812" y2="56.0752">
			<stop  offset="4.568528e-002" style="stop-color:#8D4254"/>
			<stop  offset="1" style="stop-color:#AE565A"/>
		</linearGradient>
		<path class="st5" d="M59.9,41.9l-15.4,8.3c-0.4,0.2-0.8,0.6-1,1L35,66.8c-0.5,1-0.4,2.2,0.4,3c0.5,0.5,1.1,0.7,1.8,0.7
			c0.4,0,0.8-0.1,1.2-0.3L54,61.7c0.4-0.2,0.8-0.6,1-1l8.3-15.4c0.5-1,0.4-2.2-0.4-2.9C62.1,41.6,60.9,41.4,59.9,41.9z M50.9,57.6
			l-7.5,4.1l4.1-7.5l7.4-4L50.9,57.6z"/>
	</g>
</g>
</svg>
