<?xml version="1.0" encoding="utf-8"?>
<!-- Generator: Adobe Illustrator 19.0.1, SVG Export Plug-In . SVG Version: 6.00 Build 0)  -->
<svg version="1.1" id="Layer_1" xmlns="http://www.w3.org/2000/svg" xmlns:xlink="http://www.w3.org/1999/xlink" x="0px" y="0px"
	 viewBox="0 0 40 40" style="enable-background:new 0 0 40 40;" xml:space="preserve">
<style type="text/css">
	.st0{fill:none;}
	.st1{fill:#804754;}
	.st2{fill:#D1BF99;}
	.st3{fill:url(#SVGID_1_);}
	.st4{fill:url(#SVGID_2_);}
	.st5{fill:url(#SVGID_3_);}
	.st6{fill:url(#SVGID_4_);}
	.st7{fill:url(#SVGID_5_);}
	.st8{fill:url(#SVGID_6_);}
	.st9{fill:url(#SVGID_7_);}
	.st10{fill:url(#SVGID_8_);}
	.st11{fill:url(#SVGID_9_);}
	.st12{fill:url(#SVGID_10_);}
	.st13{fill:url(#SVGID_11_);}
	.st14{fill:url(#SVGID_12_);}
	.st15{fill:url(#SVGID_13_);}
	.st16{fill:url(#SVGID_14_);}
	.st17{fill:url(#SVGID_15_);}
	.st18{fill:url(#SVGID_16_);}
	.st19{fill:url(#SVGID_17_);}
	.st20{fill:url(#SVGID_18_);}
	.st21{fill:url(#SVGID_19_);}
	.st22{fill:url(#SVGID_20_);}
	.st23{fill:#562636;}
	.st24{fill:url(#SVGID_21_);}
	.st25{fill:url(#SVGID_22_);}
	.st26{fill:url(#SVGID_23_);}
	.st27{fill:url(#SVGID_24_);}
	.st28{fill:url(#SVGID_25_);}
	.st29{fill:url(#SVGID_26_);}
	.st30{fill:url(#SVGID_27_);}
	.st31{fill:#FFFFFF;}
	.st32{fill:url(#SVGID_28_);}
	.st33{fill:url(#SVGID_29_);}
	.st34{fill:url(#SVGID_30_);}
	.st35{fill:url(#SVGID_31_);}
	.st36{fill:url(#SVGID_32_);}
	.st37{fill:url(#SVGID_33_);}
	.st38{fill:url(#SVGID_34_);}
	.st39{fill:url(#SVGID_35_);}
	.st40{fill:url(#SVGID_36_);}
	.st41{fill:url(#SVGID_37_);}
	.st42{fill:url(#SVGID_38_);}
	.st43{fill:url(#SVGID_39_);}
	.st44{fill:url(#SVGID_40_);}
	.st45{fill:url(#SVGID_41_);}
	.st46{fill:url(#SVGID_42_);}
	.st47{fill:url(#SVGID_43_);}
	.st48{fill:url(#SVGID_44_);}
	.st49{fill:url(#SVGID_45_);}
	.st50{fill:url(#SVGID_46_);}
	.st51{fill:url(#SVGID_47_);}
	.st52{fill:url(#SVGID_48_);}
	.st53{fill:url(#SVGID_49_);}
	.st54{fill:url(#SVGID_50_);}
	.st55{fill:url(#SVGID_51_);}
	.st56{fill:url(#SVGID_52_);}
	.st57{fill:url(#SVGID_53_);}
	.st58{fill:url(#SVGID_54_);}
	.st59{fill:url(#SVGID_55_);}
	.st60{fill:url(#SVGID_56_);}
	.st61{fill:url(#SVGID_57_);}
	.st62{fill:url(#SVGID_58_);}
	.st63{fill:url(#SVGID_59_);}
	.st64{fill:url(#SVGID_60_);}
	.st65{fill:url(#SVGID_61_);}
	.st66{fill:url(#SVGID_62_);}
	.st67{fill:url(#SVGID_63_);}
	.st68{fill:#19A95A;}
	.st69{fill:url(#SVGID_64_);}
	.st70{fill:url(#SVGID_65_);}
	.st71{fill:url(#SVGID_66_);}
	.st72{fill:url(#SVGID_67_);}
	.st73{fill:url(#SVGID_68_);}
	.st74{fill:url(#SVGID_69_);}
	.st75{fill:url(#SVGID_70_);}
	.st76{fill:url(#SVGID_71_);}
	.st77{fill:url(#SVGID_72_);}
	.st78{fill:url(#SVGID_73_);}
	.st79{fill:url(#SVGID_74_);}
	.st80{fill:url(#SVGID_75_);}
	.st81{fill:url(#SVGID_76_);}
	.st82{fill:url(#SVGID_77_);}
	.st83{fill:url(#SVGID_78_);}
	.st84{fill:url(#SVGID_79_);}
	.st85{fill:#D9C198;}
</style>
<g>
	<path class="st0" d="M10.1,19.9c-1.5-2.1-2.6-4.2-3.2-6.1c-0.9,1.9-1.4,3.9-1.4,6.1c0,2.2,0.5,4.3,1.4,6.1
		C7.5,24.1,8.6,22,10.1,19.9z"/>
	<path class="st0" d="M20,29.8c-2.1,1.5-4.2,2.6-6.1,3.2c1.9,0.9,3.9,1.4,6.1,1.4c2.2,0,4.3-0.5,6.1-1.4
		C24.2,32.4,22.1,31.3,20,29.8z"/>
	<path class="st0" d="M29.9,19.9c1,1.5,1.9,2.9,2.5,4.3c0.3,0.6,0.5,1.2,0.7,1.8c0.9-1.9,1.4-4,1.4-6.2c0-2.2-0.5-4.3-1.4-6.1
		C32.5,15.6,31.5,17.7,29.9,19.9z"/>
	<path class="st0" d="M14.6,14.5c0.9-0.9,1.9-1.8,2.9-2.6c-1-0.7-2.1-1.3-3.1-1.7c-1.5-0.7-2.7-0.9-3.5-0.9c-0.6,0-1,0.1-1.2,0.3
		c0,0-0.1,0.1-0.1,0.1c-0.9,0.9-0.2,3.9,2.3,7.7C12.8,16.4,13.7,15.4,14.6,14.5z"/>
	<path class="st0" d="M14.6,25.3c-0.9-0.9-1.8-1.9-2.6-2.9c-2.5,3.8-3.1,6.8-2.3,7.7c0,0,0,0,0.1,0.1c0.9,0.9,3.9,0.2,7.7-2.3
		C16.5,27.1,15.5,26.2,14.6,25.3z"/>
	<path class="st0" d="M25.6,10.2c-1,0.4-2,1-3.1,1.7c1,0.8,1.9,1.7,2.9,2.6c0.9,0.9,1.8,1.9,2.6,2.9c2.5-3.8,3.1-6.6,2.3-7.6
		c-0.1-0.1-0.2-0.2-0.3-0.3C29.4,9.1,28,9.1,25.6,10.2z"/>
	<path class="st0" d="M15.7,7.5C17.1,8.1,18.5,9,20,10c1.5-1,2.9-1.9,4.3-2.5C25,7.2,25.6,7,26.2,6.8c-1.5-0.7-3.2-1.2-5-1.3
		c-0.4,0-0.8,0-1.2,0c-2.2,0-4.3,0.5-6.2,1.4C14.4,7,15,7.2,15.7,7.5z"/>
	<path class="st0" d="M23.3,16.6c-1.1-1.1-2.2-2-3.3-2.9c-1.1,0.9-2.2,1.9-3.3,2.9c-1.1,1.1-2.1,2.2-2.9,3.3
		c0.8,1.1,1.8,2.2,2.9,3.3c1.1,1.1,2.2,2.1,3.3,2.9c1.1-0.8,2.2-1.8,3.3-2.9c0.4-0.4,0.7-0.7,1-1.1c0.6-0.6,1.5-0.6,2.1-0.1
		c0.6,0.6,0.6,1.5,0.1,2.1c-0.4,0.4-0.7,0.8-1.1,1.1c-0.9,0.9-1.9,1.8-2.9,2.6c3.8,2.5,6.8,3.1,7.7,2.3c0,0,0,0,0.1-0.1
		c0.5-0.5,0.6-2-0.6-4.6C28.4,22.7,26.2,19.5,23.3,16.6z"/>
	<path class="st1" d="M32.4,7.5C32.2,7.3,32,7.2,31.8,7C29,4.5,25.4,2.9,21.5,2.9h0c-0.5,0-1-0.3-1.5-0.3c-4.4,0-8.5,1.6-11.6,4.3
		C8.1,7.1,7.9,7.3,7.6,7.5C7.4,7.8,7.2,8,7,8.3c-2.8,3.1-4.5,7.1-4.5,11.6c0,4.8,1.9,9.1,5,12.3c0,0,0,0.1,0.1,0.1
		c0,0,0.1,0,0.1,0.1c3.2,3.1,7.5,5,12.3,5c9.6,0,17.5-7.6,17.5-17.3c0-4.5-1.8-8.8-4.6-12C32.7,7.9,32.6,7.7,32.4,7.5z M28,17.4
		c-0.8-1-1.7-1.9-2.6-2.9c-0.9-0.9-1.9-1.8-2.9-2.6c1-0.7,2.1-1.3,3.1-1.7c2.4-1.1,3.9-1.1,4.5-0.7c0.1,0.1,0.2,0.2,0.3,0.3
		C31,10.7,30.4,13.6,28,17.4z M30.3,30.1C30.3,30.1,30.2,30.1,30.3,30.1c-1,0.9-4,0.2-7.8-2.2c1-0.8,2-1.7,2.9-2.6
		c0.4-0.4,0.7-0.8,1.1-1.1c0.6-0.6,0.5-1.6-0.1-2.1c-0.6-0.6-1.6-0.5-2.1,0.1c-0.3,0.4-0.7,0.7-1,1.1c-1.1,1.1-2.2,2.1-3.3,2.9
		c-1.1-0.8-2.2-1.8-3.3-2.9c-1.1-1.1-2.1-2.2-2.9-3.3c0.8-1.1,1.8-2.2,2.9-3.3c1.1-1.1,2.2-2,3.3-2.9c1.1,0.9,2.2,1.9,3.3,2.9
		c2.9,2.9,5.2,6,6.4,8.8C30.9,28.1,30.7,29.6,30.3,30.1z M9.8,30.2C9.8,30.1,9.7,30.1,9.8,30.2c-0.9-1-0.2-4,2.2-7.8
		c0.8,1,1.7,2,2.6,2.9c0.9,0.9,1.9,1.8,2.9,2.6C13.7,30.3,10.7,31,9.8,30.2z M9.7,9.7C9.7,9.7,9.8,9.6,9.7,9.7
		C10,9.4,10.4,9.3,11,9.3c0.8,0,1.9,0.2,3.5,0.9c1,0.4,2,1,3.1,1.7c-1,0.8-1.9,1.7-2.9,2.6c-0.9,0.9-1.8,1.9-2.6,2.9
		C9.5,13.6,8.9,10.6,9.7,9.7z M21.2,5.4c1.8,0.1,3.4,0.6,5,1.3C25.6,7,25,7.2,24.3,7.5C22.9,8.1,21.5,9,20,10
		c-1.5-1-2.9-1.9-4.3-2.5C15,7.2,14.4,7,13.8,6.8c1.9-0.9,4-1.4,6.2-1.4C20.4,5.4,20.8,5.4,21.2,5.4z M6.9,13.8
		c0.6,1.9,1.7,4,3.2,6.1C8.6,22,7.5,24.1,6.9,26c-0.9-1.9-1.4-3.9-1.4-6.1C5.5,17.7,6,15.6,6.9,13.8z M13.9,33
		c1.9-0.6,4-1.7,6.1-3.2c2.1,1.5,4.2,2.6,6.1,3.2c-1.9,0.9-3.9,1.4-6.1,1.4C17.8,34.4,15.7,33.9,13.9,33z M33.1,26.1
		c-0.2-0.6-0.4-1.2-0.7-1.8c-0.6-1.4-1.5-2.9-2.5-4.3c1.6-2.2,2.6-4.3,3.2-6.1c0.9,1.9,1.4,4,1.4,6.1C34.5,22.1,34,24.2,33.1,26.1z"
		/>
</g>
</svg>
