<?xml version="1.0" encoding="utf-8"?>
<!-- Generator: Adobe Illustrator 19.0.1, SVG Export Plug-In . SVG Version: 6.00 Build 0)  -->
<svg version="1.1" id="Layer_1" xmlns="http://www.w3.org/2000/svg" xmlns:xlink="http://www.w3.org/1999/xlink" x="0px" y="0px"
	 viewBox="0 0 60 60" style="enable-background:new 0 0 60 60;" xml:space="preserve">
<style type="text/css">
	.st0{fill:none;}
	.st1{fill:#804754;}
	.st2{fill:#D1BF99;}
	.st3{fill:url(#SVGID_1_);}
	.st4{fill:url(#SVGID_2_);}
	.st5{fill:url(#SVGID_3_);}
	.st6{fill:url(#SVGID_4_);}
	.st7{fill:url(#SVGID_5_);}
	.st8{fill:url(#SVGID_6_);}
	.st9{fill:url(#SVGID_7_);}
	.st10{fill:url(#SVGID_8_);}
	.st11{fill:url(#SVGID_9_);}
	.st12{fill:url(#SVGID_10_);}
	.st13{fill:url(#SVGID_11_);}
	.st14{fill:url(#SVGID_12_);}
	.st15{fill:url(#SVGID_13_);}
	.st16{fill:url(#SVGID_14_);}
	.st17{fill:url(#SVGID_15_);}
	.st18{fill:url(#SVGID_16_);}
	.st19{fill:url(#SVGID_17_);}
	.st20{fill:url(#SVGID_18_);}
	.st21{fill:url(#SVGID_19_);}
	.st22{fill:url(#SVGID_20_);}
	.st23{fill:#562636;}
	.st24{fill:url(#SVGID_21_);}
	.st25{fill:url(#SVGID_22_);}
	.st26{fill:url(#SVGID_23_);}
	.st27{fill:url(#SVGID_24_);}
	.st28{fill:url(#SVGID_25_);}
	.st29{fill:url(#SVGID_26_);}
	.st30{fill:url(#SVGID_27_);}
	.st31{fill:#FFFFFF;}
	.st32{fill:url(#SVGID_28_);}
	.st33{fill:url(#SVGID_29_);}
	.st34{fill:url(#SVGID_30_);}
	.st35{fill:url(#SVGID_31_);}
	.st36{fill:url(#SVGID_32_);}
	.st37{fill:url(#SVGID_33_);}
	.st38{fill:url(#SVGID_34_);}
	.st39{fill:url(#SVGID_35_);}
	.st40{fill:url(#SVGID_36_);}
	.st41{fill:url(#SVGID_37_);}
	.st42{fill:url(#SVGID_38_);}
	.st43{fill:url(#SVGID_39_);}
	.st44{fill:url(#SVGID_40_);}
	.st45{fill:url(#SVGID_41_);}
	.st46{fill:url(#SVGID_42_);}
	.st47{fill:url(#SVGID_43_);}
	.st48{fill:url(#SVGID_44_);}
	.st49{fill:url(#SVGID_45_);}
	.st50{fill:url(#SVGID_46_);}
	.st51{fill:url(#SVGID_47_);}
	.st52{fill:url(#SVGID_48_);}
	.st53{fill:url(#SVGID_49_);}
	.st54{fill:url(#SVGID_50_);}
	.st55{fill:url(#SVGID_51_);}
	.st56{fill:url(#SVGID_52_);}
	.st57{fill:url(#SVGID_53_);}
	.st58{fill:url(#SVGID_54_);}
	.st59{fill:url(#SVGID_55_);}
	.st60{fill:url(#SVGID_56_);}
	.st61{fill:url(#SVGID_57_);}
	.st62{fill:url(#SVGID_58_);}
	.st63{fill:url(#SVGID_59_);}
	.st64{fill:url(#SVGID_60_);}
	.st65{fill:url(#SVGID_61_);}
	.st66{fill:url(#SVGID_62_);}
	.st67{fill:url(#SVGID_63_);}
	.st68{fill:#19A95A;}
	.st69{fill:url(#SVGID_64_);}
	.st70{fill:url(#SVGID_65_);}
	.st71{fill:url(#SVGID_66_);}
	.st72{fill:url(#SVGID_67_);}
	.st73{fill:url(#SVGID_68_);}
	.st74{fill:url(#SVGID_69_);}
	.st75{fill:url(#SVGID_70_);}
	.st76{fill:url(#SVGID_71_);}
	.st77{fill:url(#SVGID_72_);}
	.st78{fill:url(#SVGID_73_);}
	.st79{fill:url(#SVGID_74_);}
	.st80{fill:url(#SVGID_75_);}
	.st81{fill:url(#SVGID_76_);}
	.st82{fill:url(#SVGID_77_);}
	.st83{fill:url(#SVGID_78_);}
	.st84{fill:url(#SVGID_79_);}
	.st85{fill:#D9C198;}
	.st86{opacity:0.85;fill:url(#SVGID_80_);}
	.st87{fill:url(#SVGID_81_);}
	.st88{fill:url(#SVGID_82_);}
	.st89{opacity:0.85;fill:url(#SVGID_83_);}
	.st90{fill:url(#SVGID_84_);}
	.st91{opacity:0.85;fill:url(#SVGID_85_);}
	.st92{fill:url(#SVGID_86_);}
	.st93{fill:url(#SVGID_87_);}
	.st94{fill:url(#SVGID_88_);}
	.st95{fill:url(#SVGID_89_);}
	.st96{opacity:0.85;fill:url(#SVGID_90_);}
	.st97{fill:url(#SVGID_91_);}
	.st98{opacity:0.85;fill:url(#SVGID_92_);}
	.st99{fill:url(#SVGID_93_);}
	.st100{fill:url(#SVGID_94_);}
	.st101{opacity:0.85;fill:url(#SVGID_95_);}
	.st102{fill:url(#SVGID_96_);}
	.st103{fill:url(#SVGID_97_);}
	.st104{fill:url(#SVGID_98_);}
	.st105{fill:url(#SVGID_99_);}
	.st106{opacity:0.85;}
	.st107{fill:url(#SVGID_100_);}
	.st108{fill:url(#SVGID_101_);}
	.st109{fill:url(#SVGID_102_);}
	.st110{opacity:0.85;fill:url(#SVGID_103_);}
	.st111{fill:url(#SVGID_104_);}
	.st112{opacity:0.85;fill:url(#SVGID_105_);}
	.st113{fill:none;stroke:url(#SVGID_106_);stroke-width:6;stroke-linecap:round;stroke-linejoin:round;stroke-miterlimit:10;}
	.st114{fill:#010202;}
	.st115{fill:url(#SVGID_107_);}
	.st116{fill:#3175BB;}
	.st117{fill:url(#SVGID_108_);}
	.st118{fill:#F0C9A5;}
	.st119{fill:#E3B692;}
	.st120{fill:#7C4454;}
	.st121{fill:#5A3F50;}
	.st122{fill:#262421;}
	.st123{fill:#909090;}
	.st124{fill:url(#SVGID_109_);}
	.st125{fill:url(#SVGID_110_);}
	.st126{fill:none;stroke:#562636;stroke-width:3;stroke-linecap:round;stroke-miterlimit:10;}
	.st127{fill:none;stroke:#562636;stroke-width:3;stroke-linecap:round;stroke-miterlimit:1;}
	.st128{fill:url(#SVGID_111_);}
	.st129{fill:url(#SVGID_112_);}
	.st130{fill:url(#SVGID_113_);}
	.st131{fill:url(#SVGID_114_);}
	.st132{fill:url(#SVGID_115_);}
	.st133{fill:url(#SVGID_116_);}
	.st134{fill:url(#SVGID_117_);}
	.st135{fill:url(#SVGID_118_);}
	.st136{fill:url(#SVGID_119_);}
	.st137{fill:url(#SVGID_120_);}
	.st138{fill:url(#SVGID_121_);}
	.st139{fill:url(#SVGID_122_);}
	.st140{fill:url(#SVGID_123_);}
	.st141{fill:url(#SVGID_124_);}
	.st142{fill:url(#SVGID_125_);}
	.st143{fill:url(#SVGID_126_);}
	.st144{fill:url(#SVGID_127_);}
	.st145{fill:none;stroke:#562636;stroke-width:3;stroke-linecap:round;stroke-linejoin:round;stroke-miterlimit:1;}
	.st146{fill:url(#SVGID_128_);}
	.st147{fill:url(#SVGID_129_);}
	.st148{fill:url(#SVGID_130_);}
	.st149{fill:url(#SVGID_131_);}
	.st150{fill:url(#SVGID_132_);}
	.st151{fill:url(#SVGID_133_);}
	.st152{fill:url(#SVGID_134_);}
	.st153{fill:url(#SVGID_135_);}
	.st154{fill:url(#SVGID_136_);}
	.st155{fill:url(#SVGID_137_);}
	.st156{fill:url(#SVGID_138_);}
	.st157{fill:url(#SVGID_139_);}
	.st158{fill:url(#SVGID_140_);}
	.st159{fill:url(#SVGID_141_);}
	.st160{fill:url(#SVGID_142_);}
	.st161{fill:url(#SVGID_143_);}
	.st162{fill:url(#SVGID_144_);}
	.st163{fill:url(#SVGID_145_);}
	.st164{fill:url(#SVGID_146_);}
	.st165{fill:url(#SVGID_147_);}
	.st166{fill:url(#SVGID_148_);}
	.st167{fill:url(#SVGID_149_);}
	.st168{fill:url(#SVGID_150_);}
	.st169{fill:url(#SVGID_151_);}
	.st170{fill:url(#SVGID_152_);}
	.st171{fill:url(#SVGID_153_);}
	.st172{fill:url(#SVGID_154_);}
	.st173{fill:url(#SVGID_155_);}
	.st174{fill:url(#SVGID_156_);}
	.st175{fill:url(#SVGID_157_);}
	.st176{fill:url(#SVGID_158_);}
	.st177{fill:url(#SVGID_159_);}
	.st178{fill:url(#SVGID_160_);}
	.st179{fill:url(#SVGID_161_);}
	.st180{fill:url(#SVGID_162_);}
	.st181{fill:url(#SVGID_163_);}
	.st182{fill:url(#SVGID_164_);}
	.st183{fill:url(#SVGID_165_);}
	.st184{fill:url(#SVGID_166_);}
	.st185{fill:url(#SVGID_167_);}
	.st186{fill:url(#SVGID_168_);}
	.st187{fill:url(#SVGID_169_);}
	.st188{fill:url(#SVGID_170_);}
</style>
<g>
	<path class="st0" d="M14.8,11.9c5.6-3.2,13-5.2,19.8-5.2c5.4,0,11.6,1.3,16.7,3.4C46,7.2,38.6,5.4,32.2,5.4
		c-6.3,0-13.1,1.8-18.7,4.8l1,2C14.6,12,14.7,11.9,14.8,11.9z"/>
	<linearGradient id="SVGID_1_" gradientUnits="userSpaceOnUse" x1="14.3579" y1="20.718" x2="55.6868" y2="20.718">
		<stop  offset="0" style="stop-color:#FCC778"/>
		<stop  offset="1" style="stop-color:#F08244"/>
	</linearGradient>
	<path class="st3" d="M24,20c0.5,0,1,0.1,1.5,0.3c-0.8-0.8-1.9-1.2-3-1.3c-1.5,0-2.8,0.5-3.8,1.6l0.8,1.7C20.4,20.9,22.1,20,24,20z"
		/>
	<linearGradient id="SVGID_2_" gradientUnits="userSpaceOnUse" x1="14.3579" y1="29.8354" x2="55.6868" y2="29.8354">
		<stop  offset="0" style="stop-color:#FCC778"/>
		<stop  offset="1" style="stop-color:#F08244"/>
	</linearGradient>
	<path class="st4" d="M29.8,43.8l2.4,5l3.5-7c-3.4-1.2-5.8-4.3-5.8-8c0-4.7,3.8-8.5,8.5-8.5c1.7,0,3.4,0.5,4.8,1.5l5.6-11.2
		c-0.2,0-0.4-0.1-0.7-0.2c-0.5-0.3-1-0.6-1.5-0.8c-0.3,4-3.6,7.2-7.7,7.2c-4.3,0-7.8-3.5-7.8-7.8c0-1.1,0.2-2.1,0.6-3
		c-5.5,0.1-11,1.6-15.7,4.4c0,0-0.1,0-0.1,0.1l1.2,2.5c1.5-1.2,3.3-1.9,5.3-1.8c4.3,0.2,7.6,3.8,7.4,8.1c-0.1,2.1-1,4-2.5,5.4
		c-1,0.9-2.3,1.6-3.6,1.8l4.1,8.5c0.2,0.4,0.2,0.9,0,1.2l0.9,1.9C29.3,43.1,29.6,43.4,29.8,43.8z"/>
	<linearGradient id="SVGID_3_" gradientUnits="userSpaceOnUse" x1="14.3579" y1="12.7392" x2="55.6868" y2="12.7392">
		<stop  offset="0" style="stop-color:#FCC778"/>
		<stop  offset="1" style="stop-color:#F08244"/>
	</linearGradient>
	<path class="st5" d="M37.2,11.3c-0.6-0.1-1.3-0.2-1.9-0.2c0,0,0,0.1-0.1,0.1c-0.6,0.8-0.9,1.8-0.9,2.8c0,0.2,0,0.3,0.1,0.5
		C34.8,13,35.8,11.9,37.2,11.3z"/>
	<linearGradient id="SVGID_4_" gradientUnits="userSpaceOnUse" x1="14.3579" y1="9.8445" x2="55.6868" y2="9.8445">
		<stop  offset="0" style="stop-color:#FCC778"/>
		<stop  offset="1" style="stop-color:#F08244"/>
	</linearGradient>
	<path class="st6" d="M51.4,10.1c-5.2-2.1-11.3-3.4-16.7-3.4c-6.9,0-14.2,2-19.8,5.2c-0.1,0.1-0.2,0.2-0.3,0.3l0.3,0.5
		c5.3-3.1,11.3-4.8,17.4-4.8c6.2,0,12.3,1.7,17.5,4.9c0.1,0.1,0.2,0.2,0.3,0.3l1.4-2.9C51.5,10.1,51.5,10.1,51.4,10.1z"/>
	<linearGradient id="SVGID_5_" gradientUnits="userSpaceOnUse" x1="14.3579" y1="32.5616" x2="55.6868" y2="32.5616">
		<stop  offset="0" style="stop-color:#FCC778"/>
		<stop  offset="1" style="stop-color:#F08244"/>
	</linearGradient>
	<path class="st7" d="M55.2,11.9c-0.3-0.2-0.6-0.3-0.9-0.5L44.5,31c0,0,0,0,0,0l-0.3,0.4L33.6,52.8l0.2,0.4c0.3,0.7,1.4,0.7,1.7,0
		l20-40C55.8,12.7,55.7,12.1,55.2,11.9z"/>
	<linearGradient id="SVGID_6_" gradientUnits="userSpaceOnUse" x1="14.3579" y1="32.2214" x2="55.6868" y2="32.2214">
		<stop  offset="0" style="stop-color:#FCC778"/>
		<stop  offset="1" style="stop-color:#F08244"/>
	</linearGradient>
	<path class="st8" d="M33.5,35.2c0-3.5,2.8-6.3,6.3-6.3c0.6,0,1.2,0.1,1.8,0.3c-0.9-0.6-2-1-3.1-1c-3,0-5.5,2.5-5.5,5.5
		c0,0.9,0.2,1.8,0.6,2.5C33.5,35.9,33.5,35.5,33.5,35.2z"/>
	<linearGradient id="SVGID_7_" gradientUnits="userSpaceOnUse" x1="14.3579" y1="13.4157" x2="55.6868" y2="13.4157">
		<stop  offset="0" style="stop-color:#FCC778"/>
		<stop  offset="1" style="stop-color:#F08244"/>
	</linearGradient>
	<path class="st9" d="M43.8,14C43.8,14,43.8,13.9,43.8,14c0-0.3,0.1-0.6,0.2-0.8c-0.3-0.1-0.6-0.2-0.9-0.3
		C43.4,13.2,43.6,13.6,43.8,14z"/>
	<linearGradient id="SVGID_8_" gradientUnits="userSpaceOnUse" x1="14.3579" y1="14.9936" x2="55.6868" y2="14.9936">
		<stop  offset="0" style="stop-color:#FCC778"/>
		<stop  offset="1" style="stop-color:#F08244"/>
	</linearGradient>
	<path class="st10" d="M37.2,11.3c-1.4,0.6-2.4,1.7-2.9,3.1c0.3,2.4,2.3,4.3,4.7,4.3c2.6,0,4.7-2.1,4.8-4.7
		c-0.2-0.4-0.4-0.8-0.7-1.1C41.2,12.1,39.2,11.6,37.2,11.3z"/>
	<linearGradient id="SVGID_9_" gradientUnits="userSpaceOnUse" x1="34.0522" y1="14.9936" x2="44.1911" y2="14.9936">
		<stop  offset="0" style="stop-color:#EC6348"/>
		<stop  offset="0.9695" style="stop-color:#E8414E"/>
	</linearGradient>
	<path class="st11" d="M37.2,11.3c-1.4,0.6-2.4,1.7-2.9,3.1c0.3,2.4,2.3,4.3,4.7,4.3c2.6,0,4.7-2.1,4.8-4.7
		c-0.2-0.4-0.4-0.8-0.7-1.1C41.2,12.1,39.2,11.6,37.2,11.3z"/>
	<linearGradient id="SVGID_10_" gradientUnits="userSpaceOnUse" x1="14.3579" y1="33.8224" x2="55.6868" y2="33.8224">
		<stop  offset="0" style="stop-color:#FCC778"/>
		<stop  offset="1" style="stop-color:#F08244"/>
	</linearGradient>
	<path class="st12" d="M33.5,35.2c0,0.4,0,0.7,0.1,1c0.6,1.1,1.5,2,2.6,2.5l5.6-9.4c-0.1-0.1-0.2-0.1-0.3-0.2
		c-0.6-0.2-1.2-0.3-1.8-0.3C36.3,28.9,33.5,31.7,33.5,35.2z"/>
	
		<linearGradient id="SVGID_11_" gradientUnits="userSpaceOnUse" x1="34.378" y1="33.1889" x2="44.3615" y2="33.1889" gradientTransform="matrix(1.1015 1.790778e-005 0 1.1015 -4.3541 -2.7346)">
		<stop  offset="0" style="stop-color:#EC6348"/>
		<stop  offset="0.9695" style="stop-color:#E8414E"/>
	</linearGradient>
	<path class="st13" d="M33.5,35.2c0,0.4,0,0.7,0.1,1c0.6,1.1,1.5,2,2.6,2.5l5.6-9.4c-0.1-0.1-0.2-0.1-0.3-0.2
		c-0.6-0.2-1.2-0.3-1.8-0.3C36.3,28.9,33.5,31.7,33.5,35.2z"/>
	<linearGradient id="SVGID_12_" gradientUnits="userSpaceOnUse" x1="14.3579" y1="31.2754" x2="55.6868" y2="31.2754">
		<stop  offset="0" style="stop-color:#FCC778"/>
		<stop  offset="1" style="stop-color:#F08244"/>
	</linearGradient>
	<path class="st14" d="M44.5,31.1C44.5,31.1,44.5,31,44.5,31.1l-0.3,0.4L44.5,31.1z"/>
	
		<linearGradient id="SVGID_13_" gradientUnits="userSpaceOnUse" x1="34.378" y1="30.8765" x2="44.3615" y2="30.8765" gradientTransform="matrix(1.1015 1.790778e-005 0 1.1015 -4.3541 -2.7346)">
		<stop  offset="0" style="stop-color:#EC6348"/>
		<stop  offset="0.9695" style="stop-color:#E8414E"/>
	</linearGradient>
	<path class="st15" d="M44.5,31.1C44.5,31.1,44.5,31,44.5,31.1l-0.3,0.4L44.5,31.1z"/>
	<linearGradient id="SVGID_14_" gradientUnits="userSpaceOnUse" x1="14.3579" y1="24.3113" x2="55.6868" y2="24.3113">
		<stop  offset="0" style="stop-color:#FCC778"/>
		<stop  offset="1" style="stop-color:#F08244"/>
	</linearGradient>
	<path class="st16" d="M19.5,22.4l0.4,0.9l2.9,5.3c1-0.1,1.9-0.5,2.6-1.2c0.9-0.9,1.5-2,1.6-3.3c0.1-1.3-0.4-2.5-1.2-3.4
		c-0.1-0.1-0.2-0.2-0.3-0.3c-0.5-0.2-1-0.3-1.5-0.3C22.1,20,20.4,20.9,19.5,22.4z"/>
	
		<linearGradient id="SVGID_15_" gradientUnits="userSpaceOnUse" x1="19.2938" y1="24.3627" x2="28.8502" y2="24.3627" gradientTransform="matrix(0.9989 4.719328e-002 -4.719813e-002 0.9989 1.1643 -1.1251)">
		<stop  offset="0" style="stop-color:#EC6348"/>
		<stop  offset="0.9695" style="stop-color:#E8414E"/>
	</linearGradient>
	<path class="st17" d="M19.5,22.4l0.4,0.9l2.9,5.3c1-0.1,1.9-0.5,2.6-1.2c0.9-0.9,1.5-2,1.6-3.3c0.1-1.3-0.4-2.5-1.2-3.4
		c-0.1-0.1-0.2-0.2-0.3-0.3c-0.5-0.2-1-0.3-1.5-0.3C22.1,20,20.4,20.9,19.5,22.4z"/>
	<path class="st23" d="M44.5,31l9.8-19.6l0.6-1.2c0.4-0.7,0.1-1.6-0.6-2c-5.9-3.6-14.6-5.9-22.1-5.9C25,2.4,17,4.6,10.8,8.3
		c-0.7,0.4-0.9,1.2-0.6,1.9l5.1,10.4c0,0.2,0.1,0.5,0.2,0.7l1.7,3.2l8,16.6c0.4,0.7,1.3,1.1,2,0.7c0.3-0.2,0.6-0.4,0.7-0.8
		c0.2-0.4,0.2-0.8,0-1.2l-4.1-8.5c1.3-0.3,2.5-0.9,3.6-1.8c1.5-1.4,2.4-3.3,2.5-5.4c0.2-4.3-3.1-7.9-7.4-8.1c-2-0.1-3.8,0.6-5.3,1.8
		l-1.2-2.5c0,0,0.1,0,0.1-0.1c4.7-2.8,10.1-4.4,15.7-4.4c-0.4,1-0.6,2-0.6,3c0,4.3,3.5,7.8,7.8,7.8c4.1,0,7.4-3.2,7.7-7.2
		c0.5,0.3,1,0.5,1.5,0.8c0.2,0.1,0.4,0.2,0.7,0.2l-5.6,11.2c-1.4-1-3.1-1.5-4.8-1.5c-4.7,0-8.5,3.8-8.5,8.5c0,3.7,2.3,6.9,5.8,8
		l-3.5,7l-2.4-5c-0.2-0.4-0.5-0.7-0.9-0.8c-0.3-0.1-0.7-0.1-1.1,0.1c-0.7,0.4-1.1,1.3-0.7,2l3.8,7.8c0.2,0.5,0.8,0.8,1.3,0.8
		c0,0,0,0,0,0c0.6,0,1.1-0.3,1.3-0.8l0-0.1l10.6-21.2L44.5,31z M22.4,19.1c1.1,0.1,2.2,0.5,3,1.3c0.1,0.1,0.2,0.2,0.3,0.3
		c0.9,0.9,1.3,2.2,1.2,3.4c-0.1,1.3-0.6,2.4-1.6,3.3c-0.8,0.7-1.7,1.1-2.6,1.2l-2.9-5.3l-0.4-0.9l-0.8-1.7
		C19.6,19.6,21,19,22.4,19.1z M43.8,13.9C43.8,13.9,43.8,14,43.8,13.9c0,2.6-2.2,4.8-4.8,4.8c-2.5,0-4.5-1.9-4.7-4.3
		c0-0.2-0.1-0.3-0.1-0.5c0-1,0.3-2,0.9-2.8c0,0,0-0.1,0.1-0.1c0.7,0.1,1.3,0.1,1.9,0.2c2,0.3,4,0.8,5.9,1.6c0.3,0.1,0.6,0.2,0.9,0.3
		C43.9,13.4,43.8,13.7,43.8,13.9z M49.8,12.7c-5.3-3.2-11.4-4.9-17.5-4.9c-6.1,0-12.2,1.7-17.4,4.8l-0.3-0.5l-1-2
		c5.5-3,12.4-4.8,18.7-4.8c6.4,0,13.7,1.8,19.2,4.7c0.1,0,0.1,0.1,0.2,0.1L50.1,13C50,12.9,49.9,12.8,49.8,12.7z M38.5,28.2
		c1.1,0,2.2,0.4,3.1,1c0.1,0.1,0.2,0.1,0.3,0.2l-5.6,9.4c-1.2-0.5-2.1-1.4-2.6-2.5c-0.4-0.8-0.6-1.6-0.6-2.5
		C33,30.7,35.4,28.2,38.5,28.2z"/>
</g>
</svg>
