<?xml version="1.0" encoding="utf-8"?>
<!-- Generator: Adobe Illustrator 19.0.1, SVG Export Plug-In . SVG Version: 6.00 Build 0)  -->
<svg version="1.1" id="Layer_1" xmlns="http://www.w3.org/2000/svg" xmlns:xlink="http://www.w3.org/1999/xlink" x="0px" y="0px"
	 viewBox="0 0 100 100" style="enable-background:new 0 0 100 100;" xml:space="preserve">
<style type="text/css">
	.st0{fill:none;}
	.st1{fill:#804754;}
	.st2{fill:#D1BF99;}
	.st3{fill:url(#SVGID_1_);}
	.st4{fill:url(#SVGID_2_);}
	.st5{fill:url(#SVGID_3_);}
	.st6{fill:url(#SVGID_4_);}
	.st7{fill:url(#SVGID_5_);}
	.st8{fill:url(#SVGID_6_);}
	.st9{fill:url(#SVGID_7_);}
	.st10{fill:url(#SVGID_8_);}
	.st11{fill:url(#SVGID_9_);}
	.st12{fill:url(#SVGID_10_);}
	.st13{fill:url(#SVGID_11_);}
	.st14{fill:url(#SVGID_12_);}
	.st15{fill:url(#SVGID_13_);}
	.st16{fill:url(#SVGID_14_);}
	.st17{fill:url(#SVGID_15_);}
	.st18{fill:url(#SVGID_16_);}
	.st19{fill:url(#SVGID_17_);}
	.st20{fill:url(#SVGID_18_);}
	.st21{fill:url(#SVGID_19_);}
	.st22{fill:url(#SVGID_20_);}
	.st23{fill:#562636;}
	.st24{fill:url(#SVGID_21_);}
	.st25{fill:url(#SVGID_22_);}
	.st26{fill:url(#SVGID_23_);}
	.st27{fill:url(#SVGID_24_);}
	.st28{fill:url(#SVGID_25_);}
	.st29{fill:url(#SVGID_26_);}
	.st30{fill:url(#SVGID_27_);}
	.st31{fill:#FFFFFF;}
	.st32{fill:url(#SVGID_28_);}
	.st33{fill:url(#SVGID_29_);}
	.st34{fill:url(#SVGID_30_);}
	.st35{fill:url(#SVGID_31_);}
	.st36{fill:url(#SVGID_32_);}
	.st37{fill:url(#SVGID_33_);}
	.st38{fill:url(#SVGID_34_);}
	.st39{fill:url(#SVGID_35_);}
	.st40{fill:url(#SVGID_36_);}
	.st41{fill:url(#SVGID_37_);}
	.st42{fill:url(#SVGID_38_);}
	.st43{fill:url(#SVGID_39_);}
	.st44{fill:url(#SVGID_40_);}
	.st45{fill:url(#SVGID_41_);}
	.st46{fill:url(#SVGID_42_);}
	.st47{fill:url(#SVGID_43_);}
	.st48{fill:url(#SVGID_44_);}
	.st49{fill:url(#SVGID_45_);}
	.st50{fill:url(#SVGID_46_);}
	.st51{fill:url(#SVGID_47_);}
	.st52{fill:url(#SVGID_48_);}
	.st53{fill:url(#SVGID_49_);}
	.st54{fill:url(#SVGID_50_);}
	.st55{fill:url(#SVGID_51_);}
	.st56{fill:url(#SVGID_52_);}
	.st57{fill:url(#SVGID_53_);}
	.st58{fill:url(#SVGID_54_);}
	.st59{fill:url(#SVGID_55_);}
	.st60{fill:url(#SVGID_56_);}
	.st61{fill:url(#SVGID_57_);}
	.st62{fill:url(#SVGID_58_);}
	.st63{fill:url(#SVGID_59_);}
	.st64{fill:url(#SVGID_60_);}
	.st65{fill:url(#SVGID_61_);}
	.st66{fill:url(#SVGID_62_);}
	.st67{fill:url(#SVGID_63_);}
	.st68{fill:#19A95A;}
	.st69{fill:url(#SVGID_64_);}
	.st70{fill:url(#SVGID_65_);}
	.st71{fill:url(#SVGID_66_);}
	.st72{fill:url(#SVGID_67_);}
	.st73{fill:url(#SVGID_68_);}
	.st74{fill:url(#SVGID_69_);}
	.st75{fill:url(#SVGID_70_);}
	.st76{fill:url(#SVGID_71_);}
	.st77{fill:url(#SVGID_72_);}
	.st78{fill:url(#SVGID_73_);}
	.st79{fill:url(#SVGID_74_);}
	.st80{fill:url(#SVGID_75_);}
	.st81{fill:url(#SVGID_76_);}
	.st82{fill:url(#SVGID_77_);}
	.st83{fill:url(#SVGID_78_);}
	.st84{fill:url(#SVGID_79_);}
	.st85{fill:#D9C198;}
	.st86{opacity:0.85;fill:url(#SVGID_80_);}
	.st87{fill:url(#SVGID_81_);}
	.st88{fill:url(#SVGID_82_);}
	.st89{opacity:0.85;fill:url(#SVGID_83_);}
	.st90{fill:url(#SVGID_84_);}
	.st91{opacity:0.85;fill:url(#SVGID_85_);}
	.st92{fill:url(#SVGID_86_);}
	.st93{opacity:0.85;fill:url(#SVGID_87_);}
	.st94{fill:url(#SVGID_88_);}
	.st95{fill:url(#SVGID_89_);}
	.st96{fill:url(#SVGID_90_);}
	.st97{fill:url(#SVGID_91_);}
	.st98{opacity:0.85;fill:url(#SVGID_92_);}
	.st99{fill:url(#SVGID_93_);}
	.st100{opacity:0.85;fill:url(#SVGID_94_);}
	.st101{fill:url(#SVGID_95_);}
	.st102{fill:url(#SVGID_96_);}
	.st103{opacity:0.85;fill:url(#SVGID_97_);}
	.st104{fill:url(#SVGID_98_);}
	.st105{fill:url(#SVGID_99_);}
	.st106{fill:url(#SVGID_100_);}
	.st107{fill:url(#SVGID_101_);}
	.st108{opacity:0.85;}
	.st109{fill:url(#SVGID_102_);}
	.st110{fill:url(#SVGID_103_);}
	.st111{fill:url(#SVGID_104_);}
	.st112{opacity:0.85;fill:url(#SVGID_105_);}
	.st113{fill:url(#SVGID_106_);}
	.st114{opacity:0.85;fill:url(#SVGID_107_);}
	.st115{fill:none;stroke:url(#SVGID_108_);stroke-width:6;stroke-linecap:round;stroke-linejoin:round;stroke-miterlimit:10;}
</style>
<g>
	<linearGradient id="SVGID_1_" gradientUnits="userSpaceOnUse" x1="52.6198" y1="87.074" x2="52.6198" y2="19.926">
		<stop  offset="5.076142e-003" style="stop-color:#E2D2B4"/>
		<stop  offset="1" style="stop-color:#D0BE98"/>
	</linearGradient>
	<path style="opacity:0.85;fill:url(#SVGID_1_);" d="M77.4,37.6c1.4,0,2.5-1,2.5-2.3v-4.7c0-1.3-1.1-2.3-2.5-2.3h-4.5v-0.5
		c0-3.7-3.6-7.9-8.5-7.9h-24c-3.9,0-7,2.7-8.1,5.7c0,0,0.1,0,0.1,0c2.9-0.6,6.6,1.4,6.3,4.8c0,0.7-0.1,1.3-0.2,2
		c-0.1,0.6-0.1,0.8-0.1,0.4c0,0.1,0,0.1,0,0.2h2.9v5.5C34.4,42.2,30,49.2,30,56.6c0,5.6,2.3,10.8,6.5,14.7c0.7,0.6,1.4,1.2,2.1,1.7
		H27.9c-1.4,0-2.5,1-2.5,2.3v9.3c0,1.3,1.1,2.3,2.5,2.3h49c1.4,0,2.5-1,2.5-2.3v-9.3c0-1.3-1.1-2.3-2.5-2.3H66.1
		c5.3-3.8,8.7-9.8,8.7-16.5c0-7.5-4.4-14.4-11.3-18.1V33h11.5v2.3C74.9,36.6,76,37.6,77.4,37.6z"/>
	<linearGradient id="SVGID_2_" gradientUnits="userSpaceOnUse" x1="47.6302" y1="84.9265" x2="47.6302" y2="12.926">
		<stop  offset="4.568528e-002" style="stop-color:#8D4254"/>
		<stop  offset="1" style="stop-color:#AE565A"/>
	</linearGradient>
	<path class="st4" d="M72.6,31.9c1.4,0,2.5-1.1,2.5-2.5v-5c0-1.4-1.1-2.5-2.5-2.5h-4.5v-0.5c0-4-3.6-8.5-8.5-8.5h-24
		c-4.9,0-8.5,4.5-8.5,8.5v0.5h-4.5c-1.4,0-2.5,1.1-2.5,2.5v5c0,1.4,1.1,2.5,2.5,2.5s2.5-1.1,2.5-2.5v-2.5h11.5v5.9
		c-6.9,3.9-11.3,11.4-11.3,19.4c0,6,2.3,11.6,6.5,15.8c0.7,0.7,1.4,1.3,2.1,1.8H23.1c-1.4,0-2.5,1.1-2.5,2.5v10
		c0,1.4,1.1,2.5,2.5,2.5h49c1.4,0,2.5-1.1,2.5-2.5v-10c0-1.4-1.1-2.5-2.5-2.5H61.3c5.3-4.1,8.7-10.5,8.7-17.6
		c0-8-4.4-15.5-11.3-19.4v-5.9h11.5v2.5C70.1,30.8,71.2,31.9,72.6,31.9z M44.9,49.7c0-0.8,1.1-3.3,2.7-6.1c1.6,2.7,2.7,5.2,2.7,6.1
		c0,1.6-1.2,2.9-2.7,2.9C46.1,52.6,44.9,51.3,44.9,49.7z M51.6,67.9h-8v-6h8V67.9z M69.6,79.9h-44v-5h44V79.9z M65,52.3
		c0,6.3-3.3,11.7-8.3,14.8v-7.7c0-1.4-1.1-2.5-2.5-2.5h-3.4c2.8-1.2,4.7-4,4.7-7.3c0-3.5-4.3-10.2-5.7-12.2
		c-0.5-0.7-1.2-1.1-2.1-1.1s-1.6,0.4-2.1,1.1c-1.3,2-5.7,8.7-5.7,12.2c0,3.2,1.9,6,4.7,7.3h-3.4c-1.4,0-2.5,1.1-2.5,2.5v7.7
		c-1.2-0.7-2.3-1.6-3.3-2.5c-3.3-3.3-5.1-7.6-5.1-12.3c0-6.6,3.9-12.8,9.9-15.6c0.9-0.4,1.4-1.3,1.4-2.3v-7.2l12,0v7.2
		c0,1,0.6,1.8,1.4,2.3C61.1,39.5,65,45.6,65,52.3z M32.1,21.4c0-1.4,1.6-3.5,3.5-3.5h24c1.9,0,3.5,2.2,3.5,3.5v0.5h-31V21.4z"/>
</g>
</svg>
