<?xml version="1.0" encoding="utf-8"?>
<!-- Generator: Adobe Illustrator 19.0.1, SVG Export Plug-In . SVG Version: 6.00 Build 0)  -->
<svg version="1.1" id="Layer_1" xmlns="http://www.w3.org/2000/svg" xmlns:xlink="http://www.w3.org/1999/xlink" x="0px" y="0px"
	 viewBox="0 0 60 60" style="enable-background:new 0 0 60 60;" xml:space="preserve">
<style type="text/css">
	.st0{fill:none;}
	.st1{fill:#804754;}
	.st2{fill:#D1BF99;}
	.st3{fill:url(#SVGID_1_);}
	.st4{fill:url(#SVGID_2_);}
	.st5{fill:url(#SVGID_3_);}
	.st6{fill:url(#SVGID_4_);}
	.st7{fill:url(#SVGID_5_);}
	.st8{fill:url(#SVGID_6_);}
	.st9{fill:url(#SVGID_7_);}
	.st10{fill:url(#SVGID_8_);}
	.st11{fill:url(#SVGID_9_);}
	.st12{fill:url(#SVGID_10_);}
	.st13{fill:url(#SVGID_11_);}
	.st14{fill:url(#SVGID_12_);}
	.st15{fill:url(#SVGID_13_);}
	.st16{fill:url(#SVGID_14_);}
	.st17{fill:url(#SVGID_15_);}
	.st18{fill:url(#SVGID_16_);}
	.st19{fill:url(#SVGID_17_);}
	.st20{fill:url(#SVGID_18_);}
	.st21{fill:url(#SVGID_19_);}
	.st22{fill:url(#SVGID_20_);}
	.st23{fill:#562636;}
	.st24{fill:url(#SVGID_21_);}
	.st25{fill:url(#SVGID_22_);}
	.st26{fill:url(#SVGID_23_);}
	.st27{fill:url(#SVGID_24_);}
	.st28{fill:url(#SVGID_25_);}
	.st29{fill:url(#SVGID_26_);}
	.st30{fill:url(#SVGID_27_);}
	.st31{fill:#FFFFFF;}
	.st32{fill:url(#SVGID_28_);}
	.st33{fill:url(#SVGID_29_);}
	.st34{fill:url(#SVGID_30_);}
	.st35{fill:url(#SVGID_31_);}
	.st36{fill:url(#SVGID_32_);}
	.st37{fill:url(#SVGID_33_);}
	.st38{fill:url(#SVGID_34_);}
	.st39{fill:url(#SVGID_35_);}
	.st40{fill:url(#SVGID_36_);}
	.st41{fill:url(#SVGID_37_);}
	.st42{fill:url(#SVGID_38_);}
	.st43{fill:url(#SVGID_39_);}
	.st44{fill:url(#SVGID_40_);}
	.st45{fill:url(#SVGID_41_);}
	.st46{fill:url(#SVGID_42_);}
	.st47{fill:url(#SVGID_43_);}
	.st48{fill:url(#SVGID_44_);}
	.st49{fill:url(#SVGID_45_);}
	.st50{fill:url(#SVGID_46_);}
	.st51{fill:url(#SVGID_47_);}
	.st52{fill:url(#SVGID_48_);}
	.st53{fill:url(#SVGID_49_);}
	.st54{fill:url(#SVGID_50_);}
	.st55{fill:url(#SVGID_51_);}
	.st56{fill:url(#SVGID_52_);}
	.st57{fill:url(#SVGID_53_);}
	.st58{fill:url(#SVGID_54_);}
	.st59{fill:url(#SVGID_55_);}
	.st60{fill:url(#SVGID_56_);}
	.st61{fill:url(#SVGID_57_);}
	.st62{fill:url(#SVGID_58_);}
	.st63{fill:url(#SVGID_59_);}
	.st64{fill:url(#SVGID_60_);}
	.st65{fill:url(#SVGID_61_);}
	.st66{fill:url(#SVGID_62_);}
	.st67{fill:url(#SVGID_63_);}
	.st68{fill:#19A95A;}
	.st69{fill:url(#SVGID_64_);}
	.st70{fill:url(#SVGID_65_);}
	.st71{fill:url(#SVGID_66_);}
	.st72{fill:url(#SVGID_67_);}
	.st73{fill:url(#SVGID_68_);}
	.st74{fill:url(#SVGID_69_);}
	.st75{fill:url(#SVGID_70_);}
	.st76{fill:url(#SVGID_71_);}
	.st77{fill:url(#SVGID_72_);}
	.st78{fill:url(#SVGID_73_);}
	.st79{fill:url(#SVGID_74_);}
	.st80{fill:url(#SVGID_75_);}
	.st81{fill:url(#SVGID_76_);}
	.st82{fill:url(#SVGID_77_);}
	.st83{fill:url(#SVGID_78_);}
	.st84{fill:url(#SVGID_79_);}
	.st85{fill:#D9C198;}
</style>
<path class="st0" d="M45.2,7.5c0-1,0.8-1.8,1.8-1.8h1.8c-0.1,0-0.2-0.1-0.3-0.1h-5.3c-0.4,0-0.6,0.3-0.6,0.6v3.6c0,0.1,0,0.1,0,0.2
	l2.6,1.7V7.5z"/>
<path class="st0" d="M34.8,50.5V31.8c0-0.6-0.5-1.1-1.1-1.1h-7.4c-0.6,0-1.1,0.5-1.1,1.1v18.7H34.8z"/>
<linearGradient id="SVGID_1_" gradientUnits="userSpaceOnUse" x1="12.0728" y1="38.6951" x2="54.4532" y2="38.6951">
	<stop  offset="3.045685e-002" style="stop-color:#14AA79"/>
	<stop  offset="1" style="stop-color:#028D87"/>
</linearGradient>
<path class="st3" d="M48.7,53.5H12.3c0.5,1.4,1.8,2.4,3.3,2.4H51c1.9,0,3.5-1.6,3.5-3.5V24.4c0-0.5-0.2-1.5-0.7-1.8l-1.6-1.1V50
	C52.2,51.9,50.6,53.5,48.7,53.5z"/>
<linearGradient id="SVGID_2_" gradientUnits="userSpaceOnUse" x1="12.0728" y1="29.3922" x2="54.4532" y2="29.3922">
	<stop  offset="3.045685e-002" style="stop-color:#14AA79"/>
	<stop  offset="1" style="stop-color:#028D87"/>
</linearGradient>
<path class="st4" d="M22.2,31.8c0-2.3,1.9-4.1,4.1-4.1h7.4c2.3,0,4.1,1.9,4.1,4.1v18.7h10.9c0.3,0,0.5-0.2,0.5-0.5V19.5L33.4,8.6
	c-0.4-0.3-1-0.3-1.5-0.1c-3.7,1.8-16.3,11.1-19.2,13.3c-0.4,0.3-0.6,0.7-0.6,1.2v27.6h10.1V31.8z"/>
<linearGradient id="SVGID_3_" gradientUnits="userSpaceOnUse" x1="45.1765" y1="10.0866" x2="52.6607" y2="10.0866">
	<stop  offset="3.045685e-002" style="stop-color:#14AA79"/>
	<stop  offset="1" style="stop-color:#028D87"/>
</linearGradient>
<path class="st5" d="M45.2,7.5v4.3l4,2.7V6.3c0-0.3-0.2-0.5-0.4-0.6H47C46,5.7,45.2,6.5,45.2,7.5z"/>
<linearGradient id="SVGID_4_" gradientUnits="userSpaceOnUse" x1="45.1765" y1="11.5289" x2="52.6607" y2="11.5289">
	<stop  offset="3.045685e-002" style="stop-color:#14AA79"/>
	<stop  offset="1" style="stop-color:#028D87"/>
</linearGradient>
<path class="st6" d="M52.6,16.7c0-0.1,0-0.1,0-0.2v-9c0-0.5-0.2-0.9-0.5-1.2v10.1L52.6,16.7z"/>
<path class="st23" d="M58.2,20.4l-5.6-3.7l-0.4-0.3V6.3v0c0-2-1.6-3.6-3.6-3.6h-5.3c-2,0-3.6,1.6-3.6,3.6v1.9l-6.9-4.5
	c-1.7-1.1-3.9-1.1-5.6,0L1.8,20.4c-0.7,0.5-0.9,1.4-0.4,2.1c0.3,0.4,0.8,0.7,1.3,0.7c0.3,0,0.6-0.1,0.8-0.2L7.8,20v19.7
	c0,0.8,0.7,1.5,1.5,1.5s1.5-0.7,1.5-1.5V18.3c0-0.1,0-0.2,0-0.3l18.1-12c0.7-0.5,1.6-0.5,2.2,0l18.1,11.9v0.3v1.2V50
	c0,0.3-0.2,0.5-0.5,0.5H37.8V31.8c0-2.3-1.9-4.1-4.1-4.1h-7.4c-2.3,0-4.1,1.9-4.1,4.1v18.7H12.1h-0.8c-0.3,0-0.5-0.2-0.5-0.5v-5.2
	c0-0.8-0.7-1.5-1.5-1.5S7.8,44,7.8,44.8V50c0,1.9,1.6,3.5,3.5,3.5h1h36.4c1.9,0,3.5-1.6,3.5-3.5V21.5V20l4.4,2.9
	c0.7,0.5,1.6,0.3,2.1-0.4C59.1,21.8,58.9,20.9,58.2,20.4z M26.3,30.7h7.4c0.6,0,1.1,0.5,1.1,1.1v18.7h-9.7V31.8
	C25.2,31.2,25.7,30.7,26.3,30.7z M42.6,9.9V6.3c0-0.4,0.3-0.6,0.6-0.6h5.3c0.1,0,0.2,0,0.3,0.1C49,5.8,49.2,6,49.2,6.3v8.2l-4-2.7
	l-2.6-1.7C42.6,10,42.6,10,42.6,9.9z"/>
</svg>
