<?xml version="1.0" encoding="utf-8"?>
<!-- Generator: Adobe Illustrator 19.0.1, SVG Export Plug-In . SVG Version: 6.00 Build 0)  -->
<svg version="1.1" id="Layer_1" xmlns="http://www.w3.org/2000/svg" xmlns:xlink="http://www.w3.org/1999/xlink" x="0px" y="0px"
	 viewBox="0 0 100 100" style="enable-background:new 0 0 100 100;" xml:space="preserve">
<style type="text/css">
	.st0{fill:none;}
	.st1{fill:#804754;}
	.st2{fill:#D1BF99;}
	.st3{fill:url(#SVGID_1_);}
	.st4{fill:url(#SVGID_2_);}
	.st5{fill:url(#SVGID_3_);}
	.st6{fill:url(#SVGID_4_);}
	.st7{fill:url(#SVGID_5_);}
	.st8{fill:url(#SVGID_6_);}
	.st9{fill:url(#SVGID_7_);}
	.st10{fill:url(#SVGID_8_);}
	.st11{fill:url(#SVGID_9_);}
	.st12{fill:url(#SVGID_10_);}
	.st13{fill:url(#SVGID_11_);}
	.st14{fill:url(#SVGID_12_);}
	.st15{fill:url(#SVGID_13_);}
	.st16{fill:url(#SVGID_14_);}
	.st17{fill:url(#SVGID_15_);}
	.st18{fill:url(#SVGID_16_);}
	.st19{fill:url(#SVGID_17_);}
	.st20{fill:url(#SVGID_18_);}
	.st21{fill:url(#SVGID_19_);}
	.st22{fill:url(#SVGID_20_);}
	.st23{fill:#562636;}
	.st24{fill:url(#SVGID_21_);}
	.st25{fill:url(#SVGID_22_);}
	.st26{fill:url(#SVGID_23_);}
	.st27{fill:url(#SVGID_24_);}
	.st28{fill:url(#SVGID_25_);}
	.st29{fill:url(#SVGID_26_);}
	.st30{fill:url(#SVGID_27_);}
	.st31{fill:#FFFFFF;}
	.st32{fill:url(#SVGID_28_);}
	.st33{fill:url(#SVGID_29_);}
	.st34{fill:url(#SVGID_30_);}
	.st35{fill:url(#SVGID_31_);}
	.st36{fill:url(#SVGID_32_);}
	.st37{fill:url(#SVGID_33_);}
	.st38{fill:url(#SVGID_34_);}
	.st39{fill:url(#SVGID_35_);}
	.st40{fill:url(#SVGID_36_);}
	.st41{fill:url(#SVGID_37_);}
	.st42{fill:url(#SVGID_38_);}
	.st43{fill:url(#SVGID_39_);}
	.st44{fill:url(#SVGID_40_);}
	.st45{fill:url(#SVGID_41_);}
	.st46{fill:url(#SVGID_42_);}
	.st47{fill:url(#SVGID_43_);}
	.st48{fill:url(#SVGID_44_);}
	.st49{fill:url(#SVGID_45_);}
	.st50{fill:url(#SVGID_46_);}
	.st51{fill:url(#SVGID_47_);}
	.st52{fill:url(#SVGID_48_);}
	.st53{fill:url(#SVGID_49_);}
	.st54{fill:url(#SVGID_50_);}
	.st55{fill:url(#SVGID_51_);}
	.st56{fill:url(#SVGID_52_);}
	.st57{fill:url(#SVGID_53_);}
	.st58{fill:url(#SVGID_54_);}
	.st59{fill:url(#SVGID_55_);}
	.st60{fill:url(#SVGID_56_);}
	.st61{fill:url(#SVGID_57_);}
	.st62{fill:url(#SVGID_58_);}
	.st63{fill:url(#SVGID_59_);}
	.st64{fill:url(#SVGID_60_);}
	.st65{fill:url(#SVGID_61_);}
	.st66{fill:url(#SVGID_62_);}
	.st67{fill:url(#SVGID_63_);}
	.st68{fill:#19A95A;}
	.st69{fill:url(#SVGID_64_);}
	.st70{fill:url(#SVGID_65_);}
	.st71{fill:url(#SVGID_66_);}
	.st72{fill:url(#SVGID_67_);}
	.st73{fill:url(#SVGID_68_);}
	.st74{fill:url(#SVGID_69_);}
	.st75{fill:url(#SVGID_70_);}
	.st76{fill:url(#SVGID_71_);}
	.st77{fill:url(#SVGID_72_);}
	.st78{fill:url(#SVGID_73_);}
	.st79{fill:url(#SVGID_74_);}
	.st80{fill:url(#SVGID_75_);}
	.st81{fill:url(#SVGID_76_);}
	.st82{fill:url(#SVGID_77_);}
	.st83{fill:url(#SVGID_78_);}
	.st84{fill:url(#SVGID_79_);}
	.st85{fill:#D9C198;}
	.st86{opacity:0.85;fill:url(#SVGID_80_);}
	.st87{fill:url(#SVGID_81_);}
	.st88{fill:url(#SVGID_82_);}
	.st89{opacity:0.85;fill:url(#SVGID_83_);}
	.st90{fill:url(#SVGID_84_);}
	.st91{opacity:0.85;fill:url(#SVGID_85_);}
	.st92{fill:url(#SVGID_86_);}
	.st93{opacity:0.85;fill:url(#SVGID_87_);}
	.st94{fill:url(#SVGID_88_);}
	.st95{fill:url(#SVGID_89_);}
	.st96{fill:url(#SVGID_90_);}
	.st97{fill:url(#SVGID_91_);}
	.st98{opacity:0.85;fill:url(#SVGID_92_);}
	.st99{fill:url(#SVGID_93_);}
	.st100{opacity:0.85;fill:url(#SVGID_94_);}
	.st101{fill:url(#SVGID_95_);}
	.st102{fill:url(#SVGID_96_);}
	.st103{opacity:0.85;fill:url(#SVGID_97_);}
	.st104{fill:url(#SVGID_98_);}
	.st105{fill:url(#SVGID_99_);}
	.st106{fill:url(#SVGID_100_);}
	.st107{fill:url(#SVGID_101_);}
	.st108{opacity:0.85;}
	.st109{fill:url(#SVGID_102_);}
	.st110{fill:url(#SVGID_103_);}
	.st111{fill:url(#SVGID_104_);}
	.st112{opacity:0.85;fill:url(#SVGID_105_);}
	.st113{fill:url(#SVGID_106_);}
	.st114{opacity:0.85;fill:url(#SVGID_107_);}
	.st115{fill:none;stroke:url(#SVGID_108_);stroke-width:6;stroke-linecap:round;stroke-linejoin:round;stroke-miterlimit:10;}
</style>
<g>
	<linearGradient id="SVGID_1_" gradientUnits="userSpaceOnUse" x1="23.4486" y1="52.9509" x2="84.4058" y2="52.9509">
		<stop  offset="5.076142e-003" style="stop-color:#E2D2B4"/>
		<stop  offset="1" style="stop-color:#D0BE98"/>
	</linearGradient>
	<path style="opacity:0.85;fill:url(#SVGID_1_);" d="M82.7,64.1c1.2-1.6,1.7-3.4,1.7-5.2c-0.1-1.9-0.8-3.4-1.6-4.5
		c0.6-1.6,1.3-5.4-2-8.3c-4.8-4.4-15.2-2.3-17.2-1.8c-0.3,0.1-0.7,0.1-1,0.2c0.1-1.1,0.5-2.9,1.5-6.1c1.9-5.7,1.7-10.1-0.4-13.1
		c-2.3-3.2-6.1-3.5-7.2-3.5c-1.2,0-2.3,0.5-3.1,1.4c-1.5,1.8-1.5,4.8-1.3,6.5c-1.9,5.2-6.4,15.3-10.1,18.1c-0.1,0.1-0.2,0.2-0.3,0.3
		c-0.9,0.9-1.7,2-2.3,3.2c-0.7-0.3-1.4-0.4-2.1-0.4h-7.8c-3.4,0-6.1,2.8-6.1,6.1v20.7c0,3.4,2.8,6.1,6.1,6.1h7.8
		c1.2,0,2.4-0.4,3.4-1l2.6,0.4c0.4,0,8.7,1.1,17.1,0.9c1.5,0.1,3,0.2,4.3,0.2c2.3,0,4.4-0.2,6.1-0.5c4.1-0.9,7-2.7,8.5-5.3
		c1-1.8,1.1-3.6,1-5C84,69.8,83.3,65.8,82.7,64.1z"/>
	<linearGradient id="SVGID_2_" gradientUnits="userSpaceOnUse" x1="15.5942" y1="49.0772" x2="80.497" y2="49.0772">
		<stop  offset="4.568528e-002" style="stop-color:#8D4254"/>
		<stop  offset="1" style="stop-color:#AE565A"/>
	</linearGradient>
	<path class="st4" d="M78.7,60.9c1.3-1.8,1.9-3.6,1.8-5.6c-0.1-2-0.9-3.6-1.7-4.8c0.6-1.7,1.4-5.7-2.1-8.9c-5.1-4.6-16.2-2.4-18.3-2
		c-0.4,0.1-0.7,0.1-1.1,0.2c0.1-1.1,0.5-3.1,1.6-6.5c2-6.1,1.8-10.8-0.5-14c-2.5-3.5-6.5-3.7-7.6-3.7c-1.3,0-2.4,0.5-3.3,1.5
		c-1.6,1.9-1.6,5.1-1.4,6.9c-2.1,5.5-6.8,16.3-10.7,19.3c-0.1,0.1-0.2,0.2-0.3,0.3c-1,1-1.8,2.2-2.4,3.5c-0.7-0.3-1.5-0.4-2.3-0.4
		h-8.3c-3.6,0-6.5,2.9-6.5,6.5v22.1c0,3.6,2.9,6.5,6.5,6.5h8.3c1.3,0,2.5-0.4,3.6-1.1l2.7,0.4c0.4,0,9.3,1.2,18.2,1
		c1.6,0.1,3.2,0.2,4.6,0.2c2.5,0,4.7-0.2,6.5-0.6c4.4-0.9,7.4-2.8,9-5.7c1.1-1.9,1.2-3.9,1.1-5.3C80,67.1,79.3,62.8,78.7,60.9z
		 M73.2,61.8c0.3,0.5,1.7,3.3-1.7,5.8c-1,0.7-1.3,1.9-0.9,3c0,0,0.5,1.5-0.3,2.8c-0.8,1.4-2.6,2.4-5.4,3c-2.4,0.5-5.6,0.6-9.7,0.3
		c-0.1,0-0.1,0-0.2,0c0,0,0,0-0.1,0c-8.3,0.2-16.6-0.8-17.5-1l-0.5-0.1c0-0.1,0-0.3,0-0.4V53.3c0-0.6-0.1-1.1-0.2-1.7
		c0.3-0.9,0.9-2.6,2.2-4c6.3-5,12.3-21.5,12.5-22.2c0.2-0.4,0.2-0.9,0.1-1.3c-0.2-1.1-0.1-2.2-0.1-2.9c0.7,0.1,1.8,0.5,2.5,1.4
		c1.2,1.7,1.1,4.9-0.3,9.1c-2.4,7.4-2.6,11.2-0.4,13.1c1.2,1.1,2.7,1.1,3.8,0.7c0.8-0.2,1.6-0.3,2.3-0.5c0.1,0,0.2,0,0.2,0
		c3.3-0.7,11-1.5,13.5,0.7c1.6,1.5,0.5,3.5,0.3,3.8c-0.7,1.1-0.5,2.6,0.4,3.5c0,0,1.2,1.2,1.2,2.6c0,1-0.5,2-1.5,3l0,0
		C72.8,59.5,72.6,60.8,73.2,61.8z M31.5,53.3C31.5,53.3,31.5,53.3,31.5,53.3v22.1c0,0.6-0.5,1.1-1.1,1.1h-8.3
		c-0.6,0-1.1-0.5-1.1-1.1V53.3c0-0.6,0.5-1.1,1.1-1.1h8.3c0.3,0,0.6,0.1,0.8,0.4C31.3,52.8,31.4,53.1,31.5,53.3z"/>
</g>
</svg>
