<?xml version="1.0" encoding="utf-8"?>
<!-- Generator: Adobe Illustrator 19.0.1, SVG Export Plug-In . SVG Version: 6.00 Build 0)  -->
<svg version="1.1" id="Layer_1" xmlns="http://www.w3.org/2000/svg" xmlns:xlink="http://www.w3.org/1999/xlink" x="0px" y="0px"
	 viewBox="0 0 100 100" style="enable-background:new 0 0 100 100;" xml:space="preserve">
<style type="text/css">
	.st0{fill:none;}
	.st1{fill:#804754;}
	.st2{fill:#D1BF99;}
	.st3{fill:url(#SVGID_1_);}
	.st4{fill:url(#SVGID_2_);}
	.st5{fill:url(#SVGID_3_);}
	.st6{fill:url(#SVGID_4_);}
	.st7{fill:url(#SVGID_5_);}
	.st8{fill:url(#SVGID_6_);}
	.st9{fill:url(#SVGID_7_);}
	.st10{fill:url(#SVGID_8_);}
	.st11{fill:url(#SVGID_9_);}
	.st12{fill:url(#SVGID_10_);}
	.st13{fill:url(#SVGID_11_);}
	.st14{fill:url(#SVGID_12_);}
	.st15{fill:url(#SVGID_13_);}
	.st16{fill:url(#SVGID_14_);}
	.st17{fill:url(#SVGID_15_);}
	.st18{fill:url(#SVGID_16_);}
	.st19{fill:url(#SVGID_17_);}
	.st20{fill:url(#SVGID_18_);}
	.st21{fill:url(#SVGID_19_);}
	.st22{fill:url(#SVGID_20_);}
	.st23{fill:#562636;}
	.st24{fill:url(#SVGID_21_);}
	.st25{fill:url(#SVGID_22_);}
	.st26{fill:url(#SVGID_23_);}
	.st27{fill:url(#SVGID_24_);}
	.st28{fill:url(#SVGID_25_);}
	.st29{fill:url(#SVGID_26_);}
	.st30{fill:url(#SVGID_27_);}
	.st31{fill:#FFFFFF;}
	.st32{fill:url(#SVGID_28_);}
	.st33{fill:url(#SVGID_29_);}
	.st34{fill:url(#SVGID_30_);}
	.st35{fill:url(#SVGID_31_);}
	.st36{fill:url(#SVGID_32_);}
	.st37{fill:url(#SVGID_33_);}
	.st38{fill:url(#SVGID_34_);}
	.st39{fill:url(#SVGID_35_);}
	.st40{fill:url(#SVGID_36_);}
	.st41{fill:url(#SVGID_37_);}
	.st42{fill:url(#SVGID_38_);}
	.st43{fill:url(#SVGID_39_);}
	.st44{fill:url(#SVGID_40_);}
	.st45{fill:url(#SVGID_41_);}
	.st46{fill:url(#SVGID_42_);}
	.st47{fill:url(#SVGID_43_);}
	.st48{fill:url(#SVGID_44_);}
	.st49{fill:url(#SVGID_45_);}
	.st50{fill:url(#SVGID_46_);}
	.st51{fill:url(#SVGID_47_);}
	.st52{fill:url(#SVGID_48_);}
	.st53{fill:url(#SVGID_49_);}
	.st54{fill:url(#SVGID_50_);}
	.st55{fill:url(#SVGID_51_);}
	.st56{fill:url(#SVGID_52_);}
	.st57{fill:url(#SVGID_53_);}
	.st58{fill:url(#SVGID_54_);}
	.st59{fill:url(#SVGID_55_);}
	.st60{fill:url(#SVGID_56_);}
	.st61{fill:url(#SVGID_57_);}
	.st62{fill:url(#SVGID_58_);}
	.st63{fill:url(#SVGID_59_);}
	.st64{fill:url(#SVGID_60_);}
	.st65{fill:url(#SVGID_61_);}
	.st66{fill:url(#SVGID_62_);}
	.st67{fill:url(#SVGID_63_);}
	.st68{fill:#19A95A;}
	.st69{fill:url(#SVGID_64_);}
	.st70{fill:url(#SVGID_65_);}
	.st71{fill:url(#SVGID_66_);}
	.st72{fill:url(#SVGID_67_);}
	.st73{fill:url(#SVGID_68_);}
	.st74{fill:url(#SVGID_69_);}
	.st75{fill:url(#SVGID_70_);}
	.st76{fill:url(#SVGID_71_);}
	.st77{fill:url(#SVGID_72_);}
	.st78{fill:url(#SVGID_73_);}
	.st79{fill:url(#SVGID_74_);}
	.st80{fill:url(#SVGID_75_);}
	.st81{fill:url(#SVGID_76_);}
	.st82{fill:url(#SVGID_77_);}
	.st83{fill:url(#SVGID_78_);}
	.st84{fill:url(#SVGID_79_);}
	.st85{fill:#D9C198;}
	.st86{opacity:0.85;fill:url(#SVGID_80_);}
	.st87{fill:url(#SVGID_81_);}
	.st88{fill:url(#SVGID_82_);}
	.st89{opacity:0.85;fill:url(#SVGID_83_);}
	.st90{fill:url(#SVGID_84_);}
	.st91{opacity:0.85;fill:url(#SVGID_85_);}
	.st92{fill:url(#SVGID_86_);}
	.st93{opacity:0.85;fill:url(#SVGID_87_);}
	.st94{fill:url(#SVGID_88_);}
	.st95{fill:url(#SVGID_89_);}
	.st96{fill:url(#SVGID_90_);}
	.st97{fill:url(#SVGID_91_);}
	.st98{opacity:0.85;fill:url(#SVGID_92_);}
	.st99{fill:url(#SVGID_93_);}
	.st100{opacity:0.85;fill:url(#SVGID_94_);}
	.st101{fill:url(#SVGID_95_);}
	.st102{fill:url(#SVGID_96_);}
	.st103{opacity:0.85;fill:url(#SVGID_97_);}
	.st104{fill:url(#SVGID_98_);}
	.st105{fill:url(#SVGID_99_);}
	.st106{fill:url(#SVGID_100_);}
	.st107{fill:url(#SVGID_101_);}
	.st108{opacity:0.85;}
	.st109{fill:url(#SVGID_102_);}
	.st110{fill:url(#SVGID_103_);}
	.st111{fill:url(#SVGID_104_);}
	.st112{opacity:0.85;fill:url(#SVGID_105_);}
	.st113{fill:url(#SVGID_106_);}
	.st114{opacity:0.85;fill:url(#SVGID_107_);}
	.st115{fill:none;stroke:url(#SVGID_108_);stroke-width:6;stroke-linecap:round;stroke-linejoin:round;stroke-miterlimit:10;}
</style>
<g>
	<linearGradient id="SVGID_1_" gradientUnits="userSpaceOnUse" x1="16.0684" y1="54.0321" x2="88.0684" y2="54.0321">
		<stop  offset="5.076142e-003" style="stop-color:#E2D2B4"/>
		<stop  offset="1" style="stop-color:#D0BE98"/>
	</linearGradient>
	<path style="opacity:0.85;fill:url(#SVGID_1_);" d="M86.9,25.1c-0.7-0.4-1.6-0.5-2.4-0.1l-21.3,9.3L42,25c-0.7-0.3-1.4-0.3-2.1,0
		l-22.3,9.7c-0.9,0.4-1.4,1.2-1.4,2.1V81c0,0.8,0.4,1.5,1.2,2c0.4,0.2,0.9,0.4,1.3,0.4c0.4,0,0.7-0.1,1.1-0.2l21.3-9.3l21.3,9.3
		c0.3,0.1,0.7,0.2,1.1,0.2c0.4,0,0.7-0.1,1.1-0.2l22.3-9.7c0.9-0.4,1.4-1.2,1.4-2.1V27.1C88.1,26.3,87.6,25.5,86.9,25.1z"/>
	<linearGradient id="SVGID_2_" gradientUnits="userSpaceOnUse" x1="11.9316" y1="48.4916" x2="83.9316" y2="48.4916">
		<stop  offset="4.568528e-002" style="stop-color:#8D4254"/>
		<stop  offset="1" style="stop-color:#AE565A"/>
	</linearGradient>
	<path class="st4" d="M82.8,17.1c-0.7-0.5-1.6-0.5-2.4-0.1L59.1,27L37.8,16.9c-0.7-0.4-1.4-0.4-2.1,0L13.4,27.5
		c-0.9,0.4-1.4,1.3-1.4,2.3v48c0,0.9,0.4,1.7,1.2,2.1c0.4,0.3,0.9,0.4,1.3,0.4c0.4,0,0.7-0.1,1.1-0.2L36.8,70L58,80.1
		c0.3,0.2,0.7,0.2,1.1,0.2c0.4,0,0.7-0.1,1.1-0.2l22.3-10.6c0.9-0.4,1.4-1.3,1.4-2.3v-48C83.9,18.3,83.5,17.5,82.8,17.1z M34.3,65.7
		L17,73.8V31.4l17.3-8.2V65.7z M39.3,23.2l17.3,8.2v42.5l-17.3-8.2V23.2z M78.9,65.7l-17.3,8.2V31.4l17.3-8.2V65.7z"/>
	<g>
		<g>
			<linearGradient id="SVGID_3_" gradientUnits="userSpaceOnUse" x1="69.4893" y1="36.5043" x2="74.5107" y2="36.5043">
				<stop  offset="4.568528e-002" style="stop-color:#8D4254"/>
				<stop  offset="1" style="stop-color:#AE565A"/>
			</linearGradient>
			<path class="st5" d="M72,39c-0.7,0-1.3-0.3-1.8-0.7c-0.5-0.5-0.7-1.1-0.7-1.8c0-0.7,0.3-1.3,0.7-1.8c0.9-0.9,2.6-0.9,3.6,0
				c0.5,0.5,0.7,1.1,0.7,1.8c0,0.7-0.3,1.3-0.7,1.8C73.3,38.7,72.7,39,72,39z"/>
		</g>
		<g>
			<linearGradient id="SVGID_4_" gradientUnits="userSpaceOnUse" x1="26.313" y1="49.3189" x2="69.875" y2="49.3189">
				<stop  offset="4.568528e-002" style="stop-color:#8D4254"/>
				<stop  offset="1" style="stop-color:#AE565A"/>
			</linearGradient>
			<path class="st6" d="M26.6,57c-0.6-1.2,0-2.7,1.2-3.3l0,0c1.2-0.6,2.7-0.1,3.3,1.2l0,0c0.6,1.3,0.1,2.8-1.2,3.3l0,0
				c-0.3,0.2-0.7,0.2-1.1,0.2l0,0C27.9,58.4,27,57.9,26.6,57z M42,51c-0.4-1.3,0.4-2.7,1.7-3.1l0,0c1.3-0.4,2.7,0.4,3.1,1.7l0,0
				c0.4,1.3-0.4,2.7-1.7,3.1l0,0c-0.2,0.1-0.5,0.1-0.7,0.1l0,0C43.3,52.8,42.3,52.1,42,51z M49.6,49c0-1.4,1.1-2.5,2.5-2.5l0,0
				c1.4,0,2.5,1.1,2.5,2.5l0,0c0,1.4-1.1,2.5-2.5,2.5l0,0h0l0,0C50.7,51.5,49.6,50.4,49.6,49z M65.5,44.4c-0.9-1-0.9-2.6,0.2-3.6
				l0,0c1-0.9,2.6-0.9,3.5,0.2l0,0c0.9,1,0.9,2.6-0.2,3.6l0,0l0,0l0,0c-0.5,0.4-1.1,0.7-1.7,0.7l0,0C66.7,45.2,66,44.9,65.5,44.4z"
				/>
		</g>
		<g>
			<linearGradient id="SVGID_5_" gradientUnits="userSpaceOnUse" x1="19.3515" y1="59.4789" x2="24.374" y2="59.4789">
				<stop  offset="4.568528e-002" style="stop-color:#8D4254"/>
				<stop  offset="1" style="stop-color:#AE565A"/>
			</linearGradient>
			<path class="st7" d="M21.9,62c-0.7,0-1.3-0.3-1.8-0.7c-0.5-0.5-0.7-1.1-0.7-1.8c0-0.7,0.3-1.3,0.7-1.8c0.9-0.9,2.6-0.9,3.5,0
				c0.5,0.5,0.7,1.1,0.7,1.8c0,0.7-0.3,1.3-0.7,1.8C23.2,61.7,22.5,62,21.9,62z"/>
		</g>
	</g>
</g>
</svg>
