<?xml version="1.0" encoding="utf-8"?>
<!-- Generator: Adobe Illustrator 19.0.1, SVG Export Plug-In . SVG Version: 6.00 Build 0)  -->
<svg version="1.1" id="Layer_1" xmlns="http://www.w3.org/2000/svg" xmlns:xlink="http://www.w3.org/1999/xlink" x="0px" y="0px"
	 viewBox="0 0 60 60" style="enable-background:new 0 0 60 60;" xml:space="preserve">
<style type="text/css">
	.st0{fill:none;}
	.st1{fill:#804754;}
	.st2{fill:#D1BF99;}
	.st3{fill:url(#SVGID_1_);}
	.st4{fill:url(#SVGID_2_);}
	.st5{fill:url(#SVGID_3_);}
	.st6{fill:url(#SVGID_4_);}
	.st7{fill:url(#SVGID_5_);}
	.st8{fill:url(#SVGID_6_);}
	.st9{fill:url(#SVGID_7_);}
	.st10{fill:url(#SVGID_8_);}
	.st11{fill:url(#SVGID_9_);}
	.st12{fill:url(#SVGID_10_);}
	.st13{fill:url(#SVGID_11_);}
	.st14{fill:url(#SVGID_12_);}
	.st15{fill:url(#SVGID_13_);}
	.st16{fill:url(#SVGID_14_);}
	.st17{fill:url(#SVGID_15_);}
	.st18{fill:url(#SVGID_16_);}
	.st19{fill:url(#SVGID_17_);}
	.st20{fill:url(#SVGID_18_);}
	.st21{fill:url(#SVGID_19_);}
	.st22{fill:url(#SVGID_20_);}
	.st23{fill:#562636;}
	.st24{fill:url(#SVGID_21_);}
	.st25{fill:url(#SVGID_22_);}
	.st26{fill:url(#SVGID_23_);}
	.st27{fill:url(#SVGID_24_);}
	.st28{fill:url(#SVGID_25_);}
	.st29{fill:url(#SVGID_26_);}
	.st30{fill:url(#SVGID_27_);}
	.st31{fill:#FFFFFF;}
	.st32{fill:url(#SVGID_28_);}
	.st33{fill:url(#SVGID_29_);}
	.st34{fill:url(#SVGID_30_);}
	.st35{fill:url(#SVGID_31_);}
	.st36{fill:url(#SVGID_32_);}
	.st37{fill:url(#SVGID_33_);}
	.st38{fill:url(#SVGID_34_);}
	.st39{fill:url(#SVGID_35_);}
	.st40{fill:url(#SVGID_36_);}
	.st41{fill:url(#SVGID_37_);}
	.st42{fill:url(#SVGID_38_);}
	.st43{fill:url(#SVGID_39_);}
	.st44{fill:url(#SVGID_40_);}
	.st45{fill:url(#SVGID_41_);}
	.st46{fill:url(#SVGID_42_);}
	.st47{fill:url(#SVGID_43_);}
	.st48{fill:url(#SVGID_44_);}
	.st49{fill:url(#SVGID_45_);}
	.st50{fill:url(#SVGID_46_);}
	.st51{fill:url(#SVGID_47_);}
	.st52{fill:url(#SVGID_48_);}
	.st53{fill:url(#SVGID_49_);}
	.st54{fill:url(#SVGID_50_);}
	.st55{fill:url(#SVGID_51_);}
	.st56{fill:url(#SVGID_52_);}
	.st57{fill:url(#SVGID_53_);}
	.st58{fill:url(#SVGID_54_);}
	.st59{fill:url(#SVGID_55_);}
	.st60{fill:url(#SVGID_56_);}
	.st61{fill:url(#SVGID_57_);}
	.st62{fill:url(#SVGID_58_);}
	.st63{fill:url(#SVGID_59_);}
	.st64{fill:url(#SVGID_60_);}
	.st65{fill:url(#SVGID_61_);}
	.st66{fill:url(#SVGID_62_);}
	.st67{fill:url(#SVGID_63_);}
	.st68{fill:#19A95A;}
	.st69{fill:url(#SVGID_64_);}
	.st70{fill:url(#SVGID_65_);}
	.st71{fill:url(#SVGID_66_);}
	.st72{fill:url(#SVGID_67_);}
	.st73{fill:url(#SVGID_68_);}
	.st74{fill:url(#SVGID_69_);}
	.st75{fill:url(#SVGID_70_);}
	.st76{fill:url(#SVGID_71_);}
	.st77{fill:url(#SVGID_72_);}
	.st78{fill:url(#SVGID_73_);}
	.st79{fill:url(#SVGID_74_);}
	.st80{fill:url(#SVGID_75_);}
	.st81{fill:url(#SVGID_76_);}
	.st82{fill:url(#SVGID_77_);}
	.st83{fill:url(#SVGID_78_);}
	.st84{fill:url(#SVGID_79_);}
	.st85{fill:#D9C198;}
	.st86{opacity:0.85;fill:url(#SVGID_80_);}
	.st87{fill:url(#SVGID_81_);}
	.st88{fill:url(#SVGID_82_);}
	.st89{opacity:0.85;fill:url(#SVGID_83_);}
	.st90{fill:url(#SVGID_84_);}
	.st91{opacity:0.85;fill:url(#SVGID_85_);}
	.st92{fill:url(#SVGID_86_);}
	.st93{fill:url(#SVGID_87_);}
	.st94{fill:url(#SVGID_88_);}
	.st95{fill:url(#SVGID_89_);}
	.st96{opacity:0.85;fill:url(#SVGID_90_);}
	.st97{fill:url(#SVGID_91_);}
	.st98{opacity:0.85;fill:url(#SVGID_92_);}
	.st99{fill:url(#SVGID_93_);}
	.st100{fill:url(#SVGID_94_);}
	.st101{opacity:0.85;fill:url(#SVGID_95_);}
	.st102{fill:url(#SVGID_96_);}
	.st103{fill:url(#SVGID_97_);}
	.st104{fill:url(#SVGID_98_);}
	.st105{fill:url(#SVGID_99_);}
	.st106{opacity:0.85;}
	.st107{fill:url(#SVGID_100_);}
	.st108{fill:url(#SVGID_101_);}
	.st109{fill:url(#SVGID_102_);}
	.st110{opacity:0.85;fill:url(#SVGID_103_);}
	.st111{fill:url(#SVGID_104_);}
	.st112{opacity:0.85;fill:url(#SVGID_105_);}
	.st113{fill:none;stroke:url(#SVGID_106_);stroke-width:6;stroke-linecap:round;stroke-linejoin:round;stroke-miterlimit:10;}
	.st114{fill:#010202;}
	.st115{fill:url(#SVGID_107_);}
	.st116{fill:#3175BB;}
	.st117{fill:url(#SVGID_108_);}
	.st118{fill:#F0C9A5;}
	.st119{fill:#E3B692;}
	.st120{fill:#7C4454;}
	.st121{fill:#5A3F50;}
	.st122{fill:#262421;}
	.st123{fill:#909090;}
	.st124{fill:url(#SVGID_109_);}
	.st125{fill:url(#SVGID_110_);}
	.st126{fill:none;stroke:#562636;stroke-width:3;stroke-linecap:round;stroke-miterlimit:10;}
	.st127{fill:none;stroke:#562636;stroke-width:3;stroke-linecap:round;stroke-miterlimit:1;}
	.st128{fill:url(#SVGID_111_);}
	.st129{fill:url(#SVGID_112_);}
	.st130{fill:url(#SVGID_113_);}
	.st131{fill:url(#SVGID_114_);}
	.st132{fill:url(#SVGID_115_);}
	.st133{fill:url(#SVGID_116_);}
	.st134{fill:url(#SVGID_117_);}
	.st135{fill:url(#SVGID_118_);}
	.st136{fill:url(#SVGID_119_);}
	.st137{fill:url(#SVGID_120_);}
	.st138{fill:url(#SVGID_121_);}
	.st139{fill:url(#SVGID_122_);}
	.st140{fill:url(#SVGID_123_);}
	.st141{fill:url(#SVGID_124_);}
	.st142{fill:url(#SVGID_125_);}
	.st143{fill:url(#SVGID_126_);}
	.st144{fill:url(#SVGID_127_);}
	.st145{fill:none;stroke:#562636;stroke-width:3;stroke-linecap:round;stroke-linejoin:round;stroke-miterlimit:1;}
	.st146{fill:url(#SVGID_128_);}
	.st147{fill:url(#SVGID_129_);}
	.st148{fill:url(#SVGID_130_);}
	.st149{fill:url(#SVGID_131_);}
	.st150{fill:url(#SVGID_132_);}
	.st151{fill:url(#SVGID_133_);}
	.st152{fill:url(#SVGID_134_);}
	.st153{fill:url(#SVGID_135_);}
	.st154{fill:url(#SVGID_136_);}
	.st155{fill:url(#SVGID_137_);}
	.st156{fill:url(#SVGID_138_);}
	.st157{fill:url(#SVGID_139_);}
	.st158{fill:url(#SVGID_140_);}
	.st159{fill:url(#SVGID_141_);}
	.st160{fill:url(#SVGID_142_);}
	.st161{fill:url(#SVGID_143_);}
	.st162{fill:url(#SVGID_144_);}
	.st163{fill:url(#SVGID_145_);}
	.st164{fill:url(#SVGID_146_);}
	.st165{fill:url(#SVGID_147_);}
	.st166{fill:url(#SVGID_148_);}
	.st167{fill:url(#SVGID_149_);}
	.st168{fill:url(#SVGID_150_);}
	.st169{fill:url(#SVGID_151_);}
	.st170{fill:url(#SVGID_152_);}
	.st171{fill:url(#SVGID_153_);}
	.st172{fill:url(#SVGID_154_);}
	.st173{fill:url(#SVGID_155_);}
	.st174{fill:url(#SVGID_156_);}
	.st175{fill:url(#SVGID_157_);}
	.st176{fill:url(#SVGID_158_);}
	.st177{fill:url(#SVGID_159_);}
	.st178{fill:url(#SVGID_160_);}
	.st179{fill:url(#SVGID_161_);}
	.st180{fill:url(#SVGID_162_);}
	.st181{fill:url(#SVGID_163_);}
	.st182{fill:url(#SVGID_164_);}
	.st183{fill:url(#SVGID_165_);}
	.st184{fill:url(#SVGID_166_);}
	.st185{fill:url(#SVGID_167_);}
	.st186{fill:url(#SVGID_168_);}
	.st187{fill:url(#SVGID_169_);}
	.st188{fill:url(#SVGID_170_);}
</style>
<g>
	<path class="st0" d="M28.1,11.5c0-2.9,1.8-5.3,4.3-6.3c-2.8,0.2-5,2.4-5,5.2c0,1.1,0.3,2.1,0.9,3C28.2,12.8,28.1,12.1,28.1,11.5z"
		/>
	<rect x="42.2" y="22" class="st0" width="1" height="0.6"/>
	<path class="st0" d="M22.7,16.6h4.6c-1.1-1-1.9-2.2-2.4-3.6C24.6,14.4,23.8,15.7,22.7,16.6z"/>
	<path class="st0" d="M20.4,42.7v0.8H21C20.9,43.2,20.7,42.9,20.4,42.7z"/>
	<path class="st0" d="M11.5,11.5c0-2.9,1.8-5.3,4.4-6.3c-1.8,0.1-3.5,1.1-4.3,2.7c-0.4,0.8-0.6,1.6-0.6,2.5c0,1.1,0.3,2.1,0.9,2.9
		C11.6,12.8,11.5,12.1,11.5,11.5z"/>
	<polygon class="st0" points="53.6,24 53.6,23 47.3,28.6 47.8,29.1 	"/>
	<linearGradient id="SVGID_1_" gradientUnits="userSpaceOnUse" x1="11.535" y1="10.4154" x2="25.0684" y2="10.4154">
		<stop  offset="4.568528e-002" style="stop-color:#9E67A8"/>
		<stop  offset="1" style="stop-color:#AE565A"/>
	</linearGradient>
	<path class="st3" d="M11.5,11.5c0,0.7,0.1,1.3,0.3,1.9c0.9,1.4,2.5,2.3,4.4,2.3c2.9,0,5.3-2.4,5.3-5.3s-2.4-5.3-5.3-5.3
		c-0.1,0-0.2,0-0.3,0C13.3,6.1,11.5,8.6,11.5,11.5z"/>
	<linearGradient id="SVGID_2_" gradientUnits="userSpaceOnUse" x1="11.5349" y1="12.2638" x2="25.0684" y2="12.2638">
		<stop  offset="4.568528e-002" style="stop-color:#9E67A8"/>
		<stop  offset="1" style="stop-color:#AE565A"/>
	</linearGradient>
	<path class="st4" d="M21.6,16.6h1.1c1.1-0.9,1.9-2.2,2.2-3.6c-0.3-0.8-0.4-1.7-0.4-2.6c0-0.5,0-0.9,0.1-1.4
		c-0.2-0.4-0.3-0.8-0.6-1.1c0.3,0.8,0.4,1.6,0.4,2.5C24.4,12.9,23.3,15.1,21.6,16.6z"/>
	<linearGradient id="SVGID_3_" gradientUnits="userSpaceOnUse" x1="28.1109" y1="12.2642" x2="41.6443" y2="12.2642">
		<stop  offset="4.568528e-002" style="stop-color:#9E67A8"/>
		<stop  offset="1" style="stop-color:#AE565A"/>
	</linearGradient>
	<path class="st5" d="M38.2,16.6h1.1c1.4-1.2,2.4-3.1,2.4-5.1c0-1.3-0.4-2.5-1-3.6c0.3,0.8,0.4,1.6,0.4,2.5
		C41,12.9,39.9,15.1,38.2,16.6z"/>
	<linearGradient id="SVGID_4_" gradientUnits="userSpaceOnUse" x1="28.1109" y1="10.4154" x2="41.6443" y2="10.4154">
		<stop  offset="4.568528e-002" style="stop-color:#9E67A8"/>
		<stop  offset="1" style="stop-color:#AE565A"/>
	</linearGradient>
	<path class="st6" d="M28.1,11.5c0,0.7,0.1,1.3,0.3,1.9c0.9,1.4,2.5,2.3,4.4,2.3c2.9,0,5.3-2.4,5.3-5.3s-2.4-5.3-5.3-5.3
		c-0.1,0-0.2,0-0.3,0C29.9,6.2,28.1,8.6,28.1,11.5z"/>
	<linearGradient id="SVGID_5_" gradientUnits="userSpaceOnUse" x1="47.1573" y1="29.1271" x2="57.2255" y2="29.1271">
		<stop  offset="4.568528e-002" style="stop-color:#9E67A8"/>
		<stop  offset="1" style="stop-color:#AE565A"/>
	</linearGradient>
	<polygon class="st7" points="53.6,34.3 53.6,24 47.8,29.1 	"/>
	<linearGradient id="SVGID_6_" gradientUnits="userSpaceOnUse" x1="47.1573" y1="29.7122" x2="57.2255" y2="29.7122">
		<stop  offset="4.568528e-002" style="stop-color:#9E67A8"/>
		<stop  offset="1" style="stop-color:#AE565A"/>
	</linearGradient>
	<path class="st8" d="M57.2,20.7l-0.6,0.6v16.4c0,0.2,0,0.3-0.1,0.4l0.7,0.6L57.2,20.7z"/>
	<linearGradient id="SVGID_7_" gradientUnits="userSpaceOnUse" x1="10.2358" y1="28.7494" x2="46.8511" y2="28.7494">
		<stop  offset="4.568528e-002" style="stop-color:#9E67A8"/>
		<stop  offset="1" style="stop-color:#AE565A"/>
	</linearGradient>
	<polygon class="st9" points="42.2,22.7 42.2,22 41.2,22 41.2,35.5 43.2,35.5 43.2,22.7 	"/>
	<linearGradient id="SVGID_8_" gradientUnits="userSpaceOnUse" x1="10.2358" y1="39.4487" x2="46.8511" y2="39.4487">
		<stop  offset="4.568528e-002" style="stop-color:#9E67A8"/>
		<stop  offset="1" style="stop-color:#AE565A"/>
	</linearGradient>
	<path class="st10" d="M46.2,37c0,0.8-0.7,1.5-1.5,1.5h-3.5v0.9c0,0.8-0.7,1.5-1.5,1.5h-7.9h-0.9V45c0,0.8-0.7,1.5-1.5,1.5h-1.2
		l0.6,0.6h1.4c0.7,0,1.3-0.6,1.3-1.3v-2c0-0.7,0.6-1.3,1.3-1.3h8.1c0.7,0,1.3-0.6,1.3-1.3v-0.8c0-0.7,0.6-1.3,1.3-1.3h2
		c0.7,0,1.3-0.6,1.3-1.3v-5.5l-0.6-0.6V37z"/>
	<linearGradient id="SVGID_9_" gradientUnits="userSpaceOnUse" x1="10.2358" y1="41.6885" x2="46.8511" y2="41.6885">
		<stop  offset="4.568528e-002" style="stop-color:#9E67A8"/>
		<stop  offset="1" style="stop-color:#AE565A"/>
	</linearGradient>
	<path class="st11" d="M10.2,40.9v0.3c0,0.7,0.6,1.3,1.3,1.3h5.8v-1.6H10.2z"/>
	<linearGradient id="SVGID_10_" gradientUnits="userSpaceOnUse" x1="10.2358" y1="24.2288" x2="46.8511" y2="24.2288">
		<stop  offset="4.568528e-002" style="stop-color:#9E67A8"/>
		<stop  offset="1" style="stop-color:#AE565A"/>
	</linearGradient>
	<path class="st12" d="M46.9,25v-1c0-0.5-0.3-0.9-0.6-1.1v2.7L46.9,25z"/>
	<linearGradient id="SVGID_11_" gradientUnits="userSpaceOnUse" x1="10.2358" y1="42.2137" x2="46.8511" y2="42.2137">
		<stop  offset="4.568528e-002" style="stop-color:#9E67A8"/>
		<stop  offset="1" style="stop-color:#AE565A"/>
	</linearGradient>
	<rect x="20.4" y="40.9" class="st13" width="7.5" height="2.6"/>
	<linearGradient id="SVGID_12_" gradientUnits="userSpaceOnUse" x1="10.2358" y1="29.5485" x2="46.8511" y2="29.5485">
		<stop  offset="4.568528e-002" style="stop-color:#9E67A8"/>
		<stop  offset="1" style="stop-color:#AE565A"/>
	</linearGradient>
	<path class="st14" d="M29.4,37.9h2.4h6.4V37V21.2H11.6c-0.7,0-1.3,0.6-1.3,1.3v15.4h8.7H29.4z"/>
	<path class="st23" d="M56.6,21.3v-1.6c0-0.6-0.3-1.1-0.9-1.4c-0.5-0.2-1.2-0.1-1.6,0.3L46.9,25l-0.6,0.6v-2.7v-2.4
		c0-0.8-0.7-1.5-1.5-1.5h-3.5v-0.9c0-0.8-0.7-1.5-1.5-1.5h-0.4h-1.1c1.7-1.5,2.8-3.7,2.8-6.2c0-0.9-0.1-1.7-0.4-2.5
		c-1.1-3.3-4.2-5.8-7.9-5.8c-4.1,0-7.5,3-8.1,6.9c-0.1,0.5-0.1,0.9-0.1,1.4c0,0.9,0.2,1.8,0.4,2.6c0.5,1.4,1.3,2.7,2.4,3.6h-4.6
		h-1.1c1.7-1.5,2.8-3.7,2.8-6.2c0-0.9-0.1-1.7-0.4-2.5c-1.1-3.3-4.2-5.8-7.9-5.8c-3,0-5.8,1.6-7.2,4.3c0,0,0,0,0,0
		c-0.7,1.2-1,2.6-1,4c0,2.5,1.1,4.7,2.8,6.2h-3c-0.8,0-1.5,0.7-1.5,1.5v11.6c0,0.8,0.7,1.5,1.5,1.5s1.5-0.7,1.5-1.5V19.6h20.2h8.8
		v0.9v0.7V37v0.9h-6.4h-2.4H18.9h-8.7H9.2v-3.7c0-0.8-0.7-1.5-1.5-1.5s-1.5,0.7-1.5,1.5v5.2c0,0.8,0.7,1.5,1.5,1.5h2.6h7.2v1.6V45
		c0,0.8,0.7,1.5,1.5,1.5h1l-7.1,7.1c-0.6,0.6-0.6,1.5,0,2.1c0.3,0.3,0.7,0.4,1.1,0.4s0.8-0.1,1.1-0.4l8.1-8.1v7.5
		c0,0.8,0.7,1.5,1.5,1.5s1.5-0.7,1.5-1.5v-6.5l7.1,7.1c0.3,0.3,0.7,0.4,1.1,0.4s0.8-0.1,1.1-0.4c0.6-0.6,0.6-1.5,0-2.1l-6.4-6.4
		l-0.6-0.6h1.2c0.8,0,1.5-0.7,1.5-1.5v-4.1h0.9h7.9c0.8,0,1.5-0.7,1.5-1.5v-0.9h3.5c0.8,0,1.5-0.7,1.5-1.5v-5.2l0.6,0.6l7.2,6.5
		c0.3,0.3,0.6,0.4,1,0.4c0.2,0,0.4,0,0.6-0.1c0.4-0.2,0.7-0.5,0.8-0.9c0-0.1,0.1-0.3,0.1-0.4V21.3z M27.9,43.5H21h-0.6v-0.8v-1.8
		h7.5V43.5z M32.4,5.2c0.1,0,0.2,0,0.3,0c2.9,0,5.3,2.4,5.3,5.3s-2.4,5.3-5.3,5.3c-1.8,0-3.4-0.9-4.4-2.3c-0.6-0.8-0.9-1.9-0.9-3
		C27.5,7.6,29.7,5.3,32.4,5.2z M11.5,7.9c0.9-1.6,2.5-2.6,4.3-2.7c0.1,0,0.2,0,0.3,0c2.9,0,5.3,2.4,5.3,5.3s-2.4,5.3-5.3,5.3
		c-1.8,0-3.4-0.9-4.4-2.3c-0.6-0.8-0.9-1.9-0.9-2.9C10.9,9.5,11.1,8.7,11.5,7.9z M41.2,35.5V22h1.1h1v0.6v12.8H41.2z M53.6,23v1
		v10.3l-5.8-5.2l-0.5-0.5L53.6,23z"/>
</g>
</svg>
