<?xml version="1.0" encoding="utf-8"?>
<!-- Generator: Adobe Illustrator 19.0.1, SVG Export Plug-In . SVG Version: 6.00 Build 0)  -->
<svg version="1.1" id="Layer_1" xmlns="http://www.w3.org/2000/svg" xmlns:xlink="http://www.w3.org/1999/xlink" x="0px" y="0px"
	 viewBox="0 0 40 40" style="enable-background:new 0 0 40 40;" xml:space="preserve">
<style type="text/css">
	.st0{fill:none;}
	.st1{fill:#804754;}
	.st2{fill:#D1BF99;}
	.st3{fill:url(#SVGID_1_);}
	.st4{fill:url(#SVGID_2_);}
	.st5{fill:url(#SVGID_3_);}
	.st6{fill:url(#SVGID_4_);}
	.st7{fill:url(#SVGID_5_);}
	.st8{fill:url(#SVGID_6_);}
	.st9{fill:url(#SVGID_7_);}
	.st10{fill:url(#SVGID_8_);}
	.st11{fill:url(#SVGID_9_);}
	.st12{fill:url(#SVGID_10_);}
	.st13{fill:url(#SVGID_11_);}
	.st14{fill:url(#SVGID_12_);}
	.st15{fill:url(#SVGID_13_);}
	.st16{fill:url(#SVGID_14_);}
	.st17{fill:url(#SVGID_15_);}
	.st18{fill:url(#SVGID_16_);}
	.st19{fill:url(#SVGID_17_);}
	.st20{fill:url(#SVGID_18_);}
	.st21{fill:url(#SVGID_19_);}
	.st22{fill:url(#SVGID_20_);}
	.st23{fill:#562636;}
	.st24{fill:url(#SVGID_21_);}
	.st25{fill:url(#SVGID_22_);}
	.st26{fill:url(#SVGID_23_);}
	.st27{fill:url(#SVGID_24_);}
	.st28{fill:url(#SVGID_25_);}
	.st29{fill:url(#SVGID_26_);}
	.st30{fill:url(#SVGID_27_);}
	.st31{fill:#FFFFFF;}
	.st32{fill:url(#SVGID_28_);}
	.st33{fill:url(#SVGID_29_);}
	.st34{fill:url(#SVGID_30_);}
	.st35{fill:url(#SVGID_31_);}
	.st36{fill:url(#SVGID_32_);}
	.st37{fill:url(#SVGID_33_);}
	.st38{fill:url(#SVGID_34_);}
	.st39{fill:url(#SVGID_35_);}
	.st40{fill:url(#SVGID_36_);}
	.st41{fill:url(#SVGID_37_);}
	.st42{fill:url(#SVGID_38_);}
	.st43{fill:url(#SVGID_39_);}
	.st44{fill:url(#SVGID_40_);}
	.st45{fill:url(#SVGID_41_);}
	.st46{fill:url(#SVGID_42_);}
	.st47{fill:url(#SVGID_43_);}
	.st48{fill:url(#SVGID_44_);}
	.st49{fill:url(#SVGID_45_);}
	.st50{fill:url(#SVGID_46_);}
	.st51{fill:url(#SVGID_47_);}
	.st52{fill:url(#SVGID_48_);}
	.st53{fill:url(#SVGID_49_);}
	.st54{fill:url(#SVGID_50_);}
	.st55{fill:url(#SVGID_51_);}
	.st56{fill:url(#SVGID_52_);}
	.st57{fill:url(#SVGID_53_);}
	.st58{fill:url(#SVGID_54_);}
	.st59{fill:url(#SVGID_55_);}
	.st60{fill:url(#SVGID_56_);}
	.st61{fill:url(#SVGID_57_);}
	.st62{fill:url(#SVGID_58_);}
	.st63{fill:url(#SVGID_59_);}
	.st64{fill:url(#SVGID_60_);}
	.st65{fill:url(#SVGID_61_);}
	.st66{fill:url(#SVGID_62_);}
	.st67{fill:url(#SVGID_63_);}
	.st68{fill:#19A95A;}
	.st69{fill:url(#SVGID_64_);}
	.st70{fill:url(#SVGID_65_);}
	.st71{fill:url(#SVGID_66_);}
	.st72{fill:url(#SVGID_67_);}
	.st73{fill:url(#SVGID_68_);}
	.st74{fill:url(#SVGID_69_);}
	.st75{fill:url(#SVGID_70_);}
	.st76{fill:url(#SVGID_71_);}
	.st77{fill:url(#SVGID_72_);}
	.st78{fill:url(#SVGID_73_);}
	.st79{fill:url(#SVGID_74_);}
	.st80{fill:url(#SVGID_75_);}
	.st81{fill:url(#SVGID_76_);}
	.st82{fill:url(#SVGID_77_);}
	.st83{fill:url(#SVGID_78_);}
	.st84{fill:url(#SVGID_79_);}
	.st85{fill:#D9C198;}
	.st86{opacity:0.85;fill:url(#SVGID_80_);}
	.st87{fill:url(#SVGID_81_);}
	.st88{fill:url(#SVGID_82_);}
	.st89{opacity:0.85;fill:url(#SVGID_83_);}
	.st90{fill:url(#SVGID_84_);}
	.st91{opacity:0.85;fill:url(#SVGID_85_);}
	.st92{fill:url(#SVGID_86_);}
	.st93{fill:url(#SVGID_87_);}
	.st94{fill:url(#SVGID_88_);}
	.st95{fill:url(#SVGID_89_);}
	.st96{opacity:0.85;fill:url(#SVGID_90_);}
	.st97{fill:url(#SVGID_91_);}
	.st98{opacity:0.85;fill:url(#SVGID_92_);}
	.st99{fill:url(#SVGID_93_);}
	.st100{fill:url(#SVGID_94_);}
	.st101{opacity:0.85;fill:url(#SVGID_95_);}
	.st102{fill:url(#SVGID_96_);}
	.st103{fill:url(#SVGID_97_);}
	.st104{fill:url(#SVGID_98_);}
	.st105{fill:url(#SVGID_99_);}
	.st106{opacity:0.85;}
	.st107{fill:url(#SVGID_100_);}
	.st108{fill:url(#SVGID_101_);}
	.st109{fill:url(#SVGID_102_);}
	.st110{opacity:0.85;fill:url(#SVGID_103_);}
	.st111{fill:url(#SVGID_104_);}
	.st112{opacity:0.85;fill:url(#SVGID_105_);}
	.st113{fill:none;stroke:url(#SVGID_106_);stroke-width:6;stroke-linecap:round;stroke-linejoin:round;stroke-miterlimit:10;}
	.st114{fill:#010202;}
	.st115{fill:url(#SVGID_107_);}
	.st116{fill:#3175BB;}
	.st117{fill:url(#SVGID_108_);}
	.st118{fill:#B1DEEC;}
	.st119{clip-path:url(#SVGID_110_);}
	.st120{fill:#F0C9A5;}
	.st121{fill:#E3B692;}
	.st122{opacity:0.1;fill:#DEAD8D;}
	.st123{fill:#7C4454;}
	.st124{fill:#5A3F50;}
	.st125{fill:#262421;}
	.st126{fill:#909090;}
</style>
<g>
	<g>
		<g>
			<path class="st0" d="M31.6,13.8h-3.5c-1,0-1.9-0.7-2.1-1.6l-0.9-2.7c0,0-0.1-0.1-0.1-0.1h-9.9c0,0-0.1,0.1-0.1,0.1l-0.9,2.8
				c-0.3,0.9-1.2,1.6-2.1,1.6l-3.8,0c-0.9,0.1-1.6,0.9-1.6,1.8v13.1c0,1,0.9,1.9,1.9,1.9h23.2c1,0,1.9-0.9,1.9-1.9V15.6
				C33.5,14.6,32.6,13.8,31.6,13.8z"/>
			<path d="M31.6,11.7h-3.5c0,0-0.1-0.1-0.1-0.1L27,8.9c-0.3-0.9-1.2-1.6-2.1-1.6h-9.9c-0.9,0-1.8,0.7-2.1,1.5L12,11.6
				c0,0-0.1,0.1-0.1,0.1H8.4c-2.2,0-3.9,1.8-3.9,3.9v13.1c0,2.2,1.8,3.9,3.9,3.9h23.2c1.1,0,2.1-0.4,2.8-1.2
				c0.7-0.7,1.1-1.7,1.1-2.7V15.6C35.5,13.5,33.7,11.7,31.6,11.7z M31.6,30.6H8.4c-1,0-1.9-0.9-1.9-1.9V15.6c0-0.9,0.7-1.7,1.6-1.8
				l3.8,0c0.9,0,1.8-0.7,2.1-1.6L15,9.5c0,0,0.1-0.1,0.1-0.1H25c0,0,0.1,0.1,0.1,0.1l0.9,2.7c0.3,0.9,1.2,1.6,2.1,1.6h3.5
				c1,0,1.9,0.9,1.9,1.9v13.1C33.5,29.7,32.6,30.6,31.6,30.6z"/>
		</g>
		<circle cx="30.3" cy="17" r="1.2"/>
	</g>
	<g>
		<path class="st0" d="M20,17.9c-2,0-3.6,1.6-3.6,3.6c0,2,1.6,3.6,3.6,3.6c2,0,3.6-1.6,3.6-3.6C23.6,19.5,22,17.9,20,17.9z"/>
		<path d="M20,15.6c-3.2,0-5.8,2.6-5.8,5.8s2.6,5.8,5.8,5.8s5.8-2.6,5.8-5.8S23.3,15.6,20,15.6z M20,25.1c-2,0-3.6-1.6-3.6-3.6
			c0-2,1.6-3.6,3.6-3.6c2,0,3.6,1.6,3.6,3.6C23.7,23.5,22,25.1,20,25.1z"/>
	</g>
</g>
</svg>
