<?xml version="1.0" encoding="utf-8"?>
<!-- Generator: Adobe Illustrator 19.0.1, SVG Export Plug-In . SVG Version: 6.00 Build 0)  -->
<svg version="1.1" id="Layer_1" xmlns="http://www.w3.org/2000/svg" xmlns:xlink="http://www.w3.org/1999/xlink" x="0px" y="0px"
	 viewBox="0 0 60 60" style="enable-background:new 0 0 60 60;" xml:space="preserve">
<style type="text/css">
	.st0{fill:none;}
	.st1{fill:#804754;}
	.st2{fill:#D1BF99;}
	.st3{fill:url(#SVGID_1_);}
	.st4{fill:url(#SVGID_2_);}
	.st5{fill:url(#SVGID_3_);}
	.st6{fill:url(#SVGID_4_);}
	.st7{fill:url(#SVGID_5_);}
	.st8{fill:url(#SVGID_6_);}
	.st9{fill:url(#SVGID_7_);}
	.st10{fill:url(#SVGID_8_);}
	.st11{fill:url(#SVGID_9_);}
	.st12{fill:url(#SVGID_10_);}
	.st13{fill:url(#SVGID_11_);}
	.st14{fill:url(#SVGID_12_);}
	.st15{fill:url(#SVGID_13_);}
	.st16{fill:url(#SVGID_14_);}
	.st17{fill:url(#SVGID_15_);}
	.st18{fill:url(#SVGID_16_);}
	.st19{fill:url(#SVGID_17_);}
	.st20{fill:url(#SVGID_18_);}
	.st21{fill:url(#SVGID_19_);}
	.st22{fill:url(#SVGID_20_);}
	.st23{fill:#562636;}
	.st24{fill:url(#SVGID_21_);}
	.st25{fill:url(#SVGID_22_);}
	.st26{fill:url(#SVGID_23_);}
	.st27{fill:url(#SVGID_24_);}
	.st28{fill:url(#SVGID_25_);}
	.st29{fill:url(#SVGID_26_);}
	.st30{fill:url(#SVGID_27_);}
	.st31{fill:#FFFFFF;}
	.st32{fill:url(#SVGID_28_);}
	.st33{fill:url(#SVGID_29_);}
	.st34{fill:url(#SVGID_30_);}
	.st35{fill:url(#SVGID_31_);}
	.st36{fill:url(#SVGID_32_);}
	.st37{fill:url(#SVGID_33_);}
	.st38{fill:url(#SVGID_34_);}
	.st39{fill:url(#SVGID_35_);}
	.st40{fill:url(#SVGID_36_);}
	.st41{fill:url(#SVGID_37_);}
	.st42{fill:url(#SVGID_38_);}
	.st43{fill:url(#SVGID_39_);}
	.st44{fill:url(#SVGID_40_);}
	.st45{fill:url(#SVGID_41_);}
	.st46{fill:url(#SVGID_42_);}
	.st47{fill:url(#SVGID_43_);}
	.st48{fill:url(#SVGID_44_);}
	.st49{fill:url(#SVGID_45_);}
	.st50{fill:url(#SVGID_46_);}
	.st51{fill:url(#SVGID_47_);}
	.st52{fill:url(#SVGID_48_);}
	.st53{fill:url(#SVGID_49_);}
	.st54{fill:url(#SVGID_50_);}
	.st55{fill:url(#SVGID_51_);}
	.st56{fill:url(#SVGID_52_);}
	.st57{fill:url(#SVGID_53_);}
	.st58{fill:url(#SVGID_54_);}
	.st59{fill:url(#SVGID_55_);}
	.st60{fill:url(#SVGID_56_);}
	.st61{fill:url(#SVGID_57_);}
	.st62{fill:url(#SVGID_58_);}
	.st63{fill:url(#SVGID_59_);}
	.st64{fill:url(#SVGID_60_);}
	.st65{fill:url(#SVGID_61_);}
	.st66{fill:url(#SVGID_62_);}
	.st67{fill:url(#SVGID_63_);}
	.st68{fill:#19A95A;}
	.st69{fill:url(#SVGID_64_);}
	.st70{fill:url(#SVGID_65_);}
	.st71{fill:url(#SVGID_66_);}
	.st72{fill:url(#SVGID_67_);}
	.st73{fill:url(#SVGID_68_);}
	.st74{fill:url(#SVGID_69_);}
	.st75{fill:url(#SVGID_70_);}
	.st76{fill:url(#SVGID_71_);}
	.st77{fill:url(#SVGID_72_);}
	.st78{fill:url(#SVGID_73_);}
	.st79{fill:url(#SVGID_74_);}
	.st80{fill:url(#SVGID_75_);}
	.st81{fill:url(#SVGID_76_);}
	.st82{fill:url(#SVGID_77_);}
	.st83{fill:url(#SVGID_78_);}
	.st84{fill:url(#SVGID_79_);}
	.st85{fill:#D9C198;}
</style>
<linearGradient id="SVGID_1_" gradientUnits="userSpaceOnUse" x1="8.2237" y1="29.2502" x2="55.0731" y2="29.2502">
	<stop  offset="0" style="stop-color:#FCC778"/>
	<stop  offset="1" style="stop-color:#F08244"/>
</linearGradient>
<path class="st3" d="M16.8,47c3.4,2.1,7.3,3.2,11.5,3.2c4.3,0,8.1-1.1,11.5-3.2c1.4-0.9,2.8-2,4-3.2c0,0,0,0,0,0l0,0c0,0,0,0,0,0
	c4.3-4.3,6.4-9.4,6.4-15.5c0-6.1-2.1-11.2-6.4-15.5c-0.8-0.8-2.1-1.8-3.9-3c-2.6-1-5.3-1.5-8.3-1.5c-6.5,0-12,2.3-16.6,6.8
	c-2,2-3.6,4.3-4.7,6.7c-0.4,1-0.8,1.9-1.1,3c-0.6,2.2-1,4.5-1,6.9c0,2.8,0.5,5.4,1.3,7.9c0.9,1.5,2,2.8,3.3,4.1
	C14.1,45,15.4,46.1,16.8,47z M32.7,21c0.4-0.4,0.9-0.7,1.5-0.7c0.6,0,1.1,0.2,1.5,0.7c0.4,0.5,0.6,1,0.6,1.6c0,0.6-0.2,1.2-0.6,1.6
	c-0.4,0.4-0.9,0.7-1.5,0.7c-0.6,0-1.1-0.2-1.5-0.7c-0.4-0.4-0.6-1-0.6-1.6C32.1,22.1,32.3,21.5,32.7,21z M19.9,21
	c0.4-0.4,0.9-0.7,1.5-0.7c0.6,0,1.1,0.2,1.5,0.7c0.4,0.5,0.6,1,0.6,1.6c0,0.6-0.2,1.2-0.6,1.6C22.5,24.8,22,25,21.4,25
	c-0.6,0-1.1-0.2-1.5-0.7c-0.4-0.4-0.6-1-0.6-1.6C19.3,22.1,19.5,21.5,19.9,21z M14.7,30c0.9-0.7,2-0.4,2.4-0.3l3.6,0.7
	c2.3,0.6,4.9,1,7.6,1c2.7,0,5.2-0.3,7.5-0.9l3.8-0.8c0.3-0.1,1.5-0.4,2.4,0.3c0.3,0.2,0.7,0.7,0.7,1.6c-0.4,4.6-2.7,8.3-6.9,11.1
	c-2.5,1.5-5,2.2-7.5,2.2c-0.1,0-0.2,0-0.3,0c-2.4,0-4.8-0.7-7.1-2.2c-0.4-0.3-0.8-0.6-1.1-0.8c-0.5-0.2-0.8-0.5-0.9-0.7
	c-2.9-2.6-4.5-5.7-4.9-9.5l0-0.1C14,30.7,14.4,30.2,14.7,30z"/>
<linearGradient id="SVGID_2_" gradientUnits="userSpaceOnUse" x1="8.2237" y1="37.5104" x2="55.0731" y2="37.5104">
	<stop  offset="0" style="stop-color:#FCC778"/>
	<stop  offset="1" style="stop-color:#F08244"/>
</linearGradient>
<path class="st4" d="M53.3,28.3c0,6.9-2.5,12.8-7.3,17.6c-1.4,1.4-2.9,2.6-4.5,3.6c-3.8,2.4-8.2,3.7-13.1,3.7
	c-3.4,0-6.6-0.6-9.6-1.8c0.2,0.1,0.3,0.2,0.5,0.4c3.6,2.3,7.7,3.4,12.3,3.4c4.6,0,8.7-1.1,12.3-3.4c1.5-0.9,2.9-2.1,4.3-3.4
	c4.6-4.6,6.9-10.1,6.9-16.6c0-4.4-1.1-8.3-3.2-11.9C52.8,22.5,53.3,25.3,53.3,28.3z"/>
<path class="st23" d="M41.4,49.5c1.6-1,3.1-2.2,4.5-3.6c4.9-4.8,7.3-10.8,7.3-17.6c0-3-0.5-5.8-1.4-8.4c-1.2-3.4-3.2-6.5-5.9-9.2
	c-1-1-2.5-2.2-4.7-3.6c-0.7-0.5-1.6-0.3-2.1,0.4c-0.5,0.7-0.3,1.6,0.4,2.1c0.1,0.1,0.2,0.1,0.3,0.2c1.8,1.2,3.2,2.2,3.9,3
	c4.3,4.3,6.4,9.4,6.4,15.5c0,6.1-2.1,11.2-6.4,15.5c0,0,0,0,0,0l0,0c0,0,0,0,0,0c-1.3,1.3-2.6,2.3-4,3.2c-3.4,2.1-7.2,3.2-11.5,3.2
	c-4.3,0-8.2-1.1-11.5-3.2c-1.4-0.9-2.7-2-4-3.2c-1.3-1.3-2.4-2.7-3.3-4.1c-2.1-3.3-3.1-7.1-3.1-11.3c0-2.3,0.3-4.5,0.9-6.5
	C7.6,20.8,8,19.9,8.4,19c1-2.2,2.5-4.3,4.4-6.2c4.3-4.3,9.4-6.4,15.5-6.4c1.9,0,3.7,0.2,5.5,0.6c0.8,0.2,1.6-0.3,1.8-1.1
	s-0.3-1.6-1.1-1.8c-2-0.5-4-0.7-6.2-0.7c-6.9,0-12.8,2.5-17.6,7.3c-2.1,2.1-3.8,4.5-5,7.1c-0.5,1-0.9,2.1-1.2,3.2
	c-0.7,2.3-1,4.8-1,7.4c0,6.9,2.5,12.8,7.3,17.6c1.4,1.4,2.9,2.6,4.5,3.6c1.1,0.7,2.3,1.3,3.6,1.8c2.9,1.2,6.1,1.8,9.6,1.8
	C33.2,53.2,37.6,52,41.4,49.5z"/>
<path class="st23" d="M34.2,25c0.6,0,1.1-0.2,1.5-0.7c0.4-0.4,0.6-1,0.6-1.6c0-0.6-0.2-1.2-0.6-1.6c-0.4-0.4-0.9-0.7-1.5-0.7
	c-0.6,0-1.1,0.2-1.5,0.7c-0.4,0.5-0.6,1-0.6,1.6c0,0.6,0.2,1.2,0.6,1.6C33.1,24.8,33.6,25,34.2,25z"/>
<path class="st23" d="M21.4,25c0.6,0,1.1-0.2,1.5-0.7c0.4-0.4,0.6-1,0.6-1.6c0-0.6-0.2-1.2-0.6-1.6c-0.4-0.4-0.9-0.7-1.5-0.7
	c-0.6,0-1.1,0.2-1.5,0.7c-0.4,0.5-0.6,1-0.6,1.6c0,0.6,0.2,1.2,0.6,1.6C20.4,24.8,20.8,25,21.4,25z"/>
<path class="st31" d="M36.4,32.8c-2.4,0.7-5.1,1-8.1,1c-3,0-5.7-0.3-8.2-1l-3.6-0.7c0.4,3.1,1.9,5.6,4.5,7.6
	c1.3-0.3,3.3-0.5,5.7-0.5c3.4,0,6.5,0.4,8.4,0.9c2.9-2.1,4.6-4.8,5.1-8L36.4,32.8z"/>
<linearGradient id="SVGID_3_" gradientUnits="userSpaceOnUse" x1="8.2237" y1="41.5248" x2="55.0731" y2="41.5248">
	<stop  offset="0" style="stop-color:#FCC778"/>
	<stop  offset="1" style="stop-color:#F08244"/>
</linearGradient>
<path class="st5" d="M19.8,41.9c-0.3-0.2-0.6-0.5-0.9-0.7C19,41.4,19.3,41.7,19.8,41.9z"/>
<linearGradient id="SVGID_4_" gradientUnits="userSpaceOnUse" x1="19.2812" y1="41.2971" x2="37.2482" y2="41.2971" gradientTransform="matrix(1 0 0.2687 0.7603 -11.3513 10.1266)">
	<stop  offset="0" style="stop-color:#EC6348"/>
	<stop  offset="0.9695" style="stop-color:#E8414E"/>
</linearGradient>
<path class="st6" d="M19.8,41.9c-0.3-0.2-0.6-0.5-0.9-0.7C19,41.4,19.3,41.7,19.8,41.9z"/>
<path class="st31" d="M21,39.7c0.4,0.3,0.8,0.6,1.2,0.9c2,1.2,4,1.8,6,1.8c2.1,0.1,4.1-0.6,6.1-1.8c0.2-0.1,0.4-0.3,0.6-0.5
	c-1.9-0.5-5-0.9-8.4-0.9C24.3,39.3,22.4,39.4,21,39.7z"/>
<linearGradient id="SVGID_5_" gradientUnits="userSpaceOnUse" x1="19.2812" y1="40.3889" x2="37.2482" y2="40.3889" gradientTransform="matrix(1 0 0.2687 0.7603 -11.3513 10.1266)">
	<stop  offset="0" style="stop-color:#EC6348"/>
	<stop  offset="0.9695" style="stop-color:#E8414E"/>
</linearGradient>
<path class="st7" d="M21,39.7c0.4,0.3,0.8,0.6,1.2,0.9c2,1.2,4,1.8,6,1.8c2.1,0.1,4.1-0.6,6.1-1.8c0.2-0.1,0.4-0.3,0.6-0.5
	c-1.9-0.5-5-0.9-8.4-0.9C24.3,39.3,22.4,39.4,21,39.7z"/>
<path class="st23" d="M18.9,41.2c0.3,0.3,0.6,0.5,0.9,0.7c0.4,0.3,0.7,0.6,1.1,0.8c2.3,1.4,4.8,2.2,7.1,2.2c0.1,0,0.2,0,0.3,0
	c2.5,0.1,5-0.7,7.5-2.2c4.2-2.8,6.5-6.5,6.9-11.1c0-0.9-0.4-1.4-0.7-1.6c-0.8-0.7-2-0.4-2.4-0.3l-3.8,0.8c-2.3,0.6-4.8,0.9-7.5,0.9
	c-2.7,0-5.3-0.3-7.6-1l-3.6-0.7c-0.4-0.1-1.6-0.4-2.4,0.3c-0.3,0.2-0.7,0.7-0.7,1.6l0,0.1C14.4,35.4,16,38.6,18.9,41.2z M35.1,40.2
	c-0.2,0.2-0.4,0.3-0.6,0.5c-2,1.2-4,1.8-6.1,1.8c-2,0-4.1-0.6-6-1.8c-0.4-0.3-0.8-0.6-1.2-0.9c-2.5-2.1-4-4.6-4.5-7.6l3.6,0.7
	c2.5,0.7,5.2,1,8.2,1c2.9,0,5.7-0.3,8.1-1l3.7-0.7C39.7,35.4,38,38,35.1,40.2z"/>
</svg>
