<?xml version="1.0" encoding="utf-8"?>
<!-- Generator: Adobe Illustrator 19.0.1, SVG Export Plug-In . SVG Version: 6.00 Build 0)  -->
<svg version="1.1" id="Layer_1" xmlns="http://www.w3.org/2000/svg" xmlns:xlink="http://www.w3.org/1999/xlink" x="0px" y="0px"
	 viewBox="0 0 60 60" style="enable-background:new 0 0 60 60;" xml:space="preserve">
<style type="text/css">
	.st0{fill:none;}
	.st1{fill:#804754;}
	.st2{fill:#D1BF99;}
	.st3{fill:url(#SVGID_1_);}
	.st4{fill:url(#SVGID_2_);}
	.st5{fill:url(#SVGID_3_);}
	.st6{fill:url(#SVGID_4_);}
	.st7{fill:url(#SVGID_5_);}
	.st8{fill:url(#SVGID_6_);}
	.st9{fill:url(#SVGID_7_);}
	.st10{fill:url(#SVGID_8_);}
	.st11{fill:url(#SVGID_9_);}
	.st12{fill:url(#SVGID_10_);}
	.st13{fill:url(#SVGID_11_);}
	.st14{fill:url(#SVGID_12_);}
	.st15{fill:url(#SVGID_13_);}
	.st16{fill:url(#SVGID_14_);}
	.st17{fill:url(#SVGID_15_);}
	.st18{fill:url(#SVGID_16_);}
	.st19{fill:url(#SVGID_17_);}
	.st20{fill:url(#SVGID_18_);}
	.st21{fill:url(#SVGID_19_);}
	.st22{fill:url(#SVGID_20_);}
	.st23{fill:#562636;}
	.st24{fill:url(#SVGID_21_);}
	.st25{fill:url(#SVGID_22_);}
	.st26{fill:url(#SVGID_23_);}
	.st27{fill:url(#SVGID_24_);}
	.st28{fill:url(#SVGID_25_);}
	.st29{fill:url(#SVGID_26_);}
	.st30{fill:url(#SVGID_27_);}
	.st31{fill:#FFFFFF;}
	.st32{fill:url(#SVGID_28_);}
	.st33{fill:url(#SVGID_29_);}
	.st34{fill:url(#SVGID_30_);}
	.st35{fill:url(#SVGID_31_);}
	.st36{fill:url(#SVGID_32_);}
	.st37{fill:url(#SVGID_33_);}
	.st38{fill:url(#SVGID_34_);}
	.st39{fill:url(#SVGID_35_);}
	.st40{fill:url(#SVGID_36_);}
	.st41{fill:url(#SVGID_37_);}
	.st42{fill:url(#SVGID_38_);}
	.st43{fill:url(#SVGID_39_);}
	.st44{fill:url(#SVGID_40_);}
	.st45{fill:url(#SVGID_41_);}
	.st46{fill:url(#SVGID_42_);}
	.st47{fill:url(#SVGID_43_);}
	.st48{fill:url(#SVGID_44_);}
	.st49{fill:url(#SVGID_45_);}
	.st50{fill:url(#SVGID_46_);}
	.st51{fill:url(#SVGID_47_);}
	.st52{fill:url(#SVGID_48_);}
	.st53{fill:url(#SVGID_49_);}
	.st54{fill:url(#SVGID_50_);}
	.st55{fill:url(#SVGID_51_);}
	.st56{fill:url(#SVGID_52_);}
	.st57{fill:url(#SVGID_53_);}
	.st58{fill:url(#SVGID_54_);}
	.st59{fill:url(#SVGID_55_);}
	.st60{fill:url(#SVGID_56_);}
	.st61{fill:url(#SVGID_57_);}
	.st62{fill:url(#SVGID_58_);}
	.st63{fill:url(#SVGID_59_);}
	.st64{fill:url(#SVGID_60_);}
	.st65{fill:url(#SVGID_61_);}
	.st66{fill:url(#SVGID_62_);}
	.st67{fill:url(#SVGID_63_);}
	.st68{fill:#19A95A;}
	.st69{fill:url(#SVGID_64_);}
	.st70{fill:url(#SVGID_65_);}
	.st71{fill:url(#SVGID_66_);}
	.st72{fill:url(#SVGID_67_);}
	.st73{fill:url(#SVGID_68_);}
	.st74{fill:url(#SVGID_69_);}
	.st75{fill:url(#SVGID_70_);}
	.st76{fill:url(#SVGID_71_);}
	.st77{fill:url(#SVGID_72_);}
	.st78{fill:url(#SVGID_73_);}
	.st79{fill:url(#SVGID_74_);}
	.st80{fill:url(#SVGID_75_);}
	.st81{fill:url(#SVGID_76_);}
	.st82{fill:url(#SVGID_77_);}
	.st83{fill:url(#SVGID_78_);}
	.st84{fill:url(#SVGID_79_);}
	.st85{fill:#D9C198;}
</style>
<path class="st0" d="M5.3,26.8h2c0.7-3.3,2-6.3,3.9-8.9c-0.9-0.6-1.7-1.2-2.5-1.8C6.7,19.3,5.6,23,5.3,26.8z"/>
<path class="st0" d="M44.5,10.9c-3.9-3.6-9-5.7-14.3-6.1v2.4c0.4,0,0.8,0,1.3,0C36.3,7.2,40.8,8.6,44.5,10.9z"/>
<path class="st0" d="M6.9,29.8H5.3c0.2,3.2,1,6.3,2.5,9.2c-0.7-2.2-1-4.6-1-7C6.8,31.2,6.8,30.5,6.9,29.8z"/>
<linearGradient id="SVGID_1_" gradientUnits="userSpaceOnUse" x1="6.7992" y1="13.6589" x2="56.2423" y2="13.6589">
	<stop  offset="0" style="stop-color:#F08244"/>
	<stop  offset="1" style="stop-color:#EB5B3E"/>
</linearGradient>
<path class="st3" d="M27.3,7.6c-5.6,1-10.6,3.8-14.2,7.9c3.9,2.5,8.9,4,14.2,4.2V7.6z"/>
<linearGradient id="SVGID_2_" gradientUnits="userSpaceOnUse" x1="6.7992" y1="44.3564" x2="56.2423" y2="44.3564">
	<stop  offset="0" style="stop-color:#F08244"/>
	<stop  offset="1" style="stop-color:#EB5B3E"/>
</linearGradient>
<path class="st4" d="M27.3,36.9c-6.6,0.3-12.7,2.5-16.8,6.1c4.1,5.1,10.3,8.3,16.8,8.7V36.9z"/>
<linearGradient id="SVGID_3_" gradientUnits="userSpaceOnUse" x1="6.7992" y1="40.2376" x2="56.2423" y2="40.2376">
	<stop  offset="0" style="stop-color:#F08244"/>
	<stop  offset="1" style="stop-color:#EB5B3E"/>
</linearGradient>
<path class="st5" d="M51,42.7L51,42.7l-0.7,1.1c-5,6.9-13,11.1-21.5,11.1c-4,0-7.8-0.9-11.3-2.6c4,2.8,8.9,4.4,14.1,4.4
	c13.7,0,24.7-11.1,24.7-24.7c0-2.9-0.5-5.6-1.4-8.2c0.3,1.5,0.4,3,0.4,4.5C55.3,33.5,53.8,38.4,51,42.7z"/>
<linearGradient id="SVGID_4_" gradientUnits="userSpaceOnUse" x1="6.7992" y1="35.2097" x2="56.2423" y2="35.2097">
	<stop  offset="0" style="stop-color:#F08244"/>
	<stop  offset="1" style="stop-color:#EB5B3E"/>
</linearGradient>
<path class="st6" d="M6.8,32c0,2.4,0.4,4.8,1,7c0.3,0.5,0.6,1.1,0.9,1.6c4.7-4,11.4-6.4,18.5-6.7v-4.1H6.9C6.8,30.5,6.8,31.2,6.8,32
	z"/>
<linearGradient id="SVGID_5_" gradientUnits="userSpaceOnUse" x1="6.7992" y1="35.2097" x2="56.2423" y2="35.2097">
	<stop  offset="0" style="stop-color:#F08244"/>
	<stop  offset="1" style="stop-color:#EB5B3E"/>
</linearGradient>
<path class="st7" d="M52.2,29.8H30.3v4.1c7.1,0.3,13.9,2.7,18.5,6.7C50.8,37.3,52,33.7,52.2,29.8z"/>
<linearGradient id="SVGID_6_" gradientUnits="userSpaceOnUse" x1="6.7992" y1="21.443" x2="56.2423" y2="21.443">
	<stop  offset="0" style="stop-color:#F08244"/>
	<stop  offset="1" style="stop-color:#EB5B3E"/>
</linearGradient>
<path class="st8" d="M48.8,16.1c-4.7,4-11.4,6.4-18.5,6.7v4.1h21.9C52,23,50.8,19.3,48.8,16.1z"/>
<linearGradient id="SVGID_7_" gradientUnits="userSpaceOnUse" x1="6.7992" y1="44.3564" x2="56.2423" y2="44.3564">
	<stop  offset="0" style="stop-color:#F08244"/>
	<stop  offset="1" style="stop-color:#EB5B3E"/>
</linearGradient>
<path class="st9" d="M30.3,51.8c6.6-0.4,12.7-3.6,16.8-8.7c-4.1-3.6-10.3-5.8-16.8-6.1V51.8z"/>
<linearGradient id="SVGID_8_" gradientUnits="userSpaceOnUse" x1="6.7992" y1="13.4719" x2="56.2423" y2="13.4719">
	<stop  offset="0" style="stop-color:#F08244"/>
	<stop  offset="1" style="stop-color:#EB5B3E"/>
</linearGradient>
<path class="st10" d="M47.1,13.6c-0.8-1-1.6-1.8-2.5-2.7c-3.8-2.4-8.2-3.7-13-3.7c-0.4,0-0.8,0-1.3,0v12.5
	C36.8,19.4,42.9,17.2,47.1,13.6z"/>
<linearGradient id="SVGID_9_" gradientUnits="userSpaceOnUse" x1="6.7992" y1="22.3567" x2="56.2423" y2="22.3567">
	<stop  offset="0" style="stop-color:#F08244"/>
	<stop  offset="1" style="stop-color:#EB5B3E"/>
</linearGradient>
<path class="st11" d="M27.3,26.8v-4.1c-6-0.3-11.6-2-16.1-4.9c-1.8,2.7-3.2,5.7-3.9,8.9H27.3z"/>
<path class="st23" d="M6.5,42.7L6.5,42.7l0.7,1.1c2.7,3.7,6.2,6.6,10.2,8.5c3.5,1.7,7.4,2.6,11.3,2.6c8.5,0,16.6-4.1,21.5-11.1
	l0.7-1l0,0c2.8-4.3,4.3-9.2,4.3-14.4c0-1.5-0.1-3-0.4-4.5C54.3,20.3,53,17,51,14l0,0l-0.7-1c-5-6.9-13-11.1-21.5-11.1
	c-2.5,0-5,0.3-7.4,1c-0.8,0.2-1.3,1.1-1,1.9c0.2,0.8,1.1,1.3,1.9,1c1.6-0.5,3.3-0.8,5-0.9v2.7v12.1C22,19.5,17,18,13.1,15.5
	c-0.9-0.6-1.8-1.2-2.6-1.9c1.6-2,3.5-3.7,5.7-5.1c0.7-0.4,0.9-1.4,0.5-2.1c-0.4-0.7-1.4-0.9-2.1-0.5c-2.9,1.8-5.3,4.2-7.3,6.9
	c0,0,0,0,0,0c0,0,0,0,0,0l-0.7,1l0,0c-2.8,4.3-4.3,9.2-4.3,14.4C2.3,33.5,3.7,38.4,6.5,42.7z M10.5,43.1c4.1-3.6,10.3-5.8,16.8-6.1
	v14.8C20.7,51.4,14.6,48.2,10.5,43.1z M27.3,33.9c-7.1,0.3-13.9,2.7-18.5,6.7c-0.3-0.5-0.6-1.1-0.9-1.6c-1.5-2.8-2.3-5.9-2.5-9.2
	h1.6h20.4V33.9z M30.3,51.8V36.9c6.6,0.3,12.7,2.5,16.8,6.1C42.9,48.2,36.8,51.4,30.3,51.8z M30.3,33.9v-4.1h21.9
	c-0.2,3.8-1.4,7.5-3.4,10.8C44.1,36.6,37.4,34.2,30.3,33.9z M30.3,22.7c7.1-0.3,13.9-2.7,18.5-6.7c2,3.3,3.2,6.9,3.4,10.8H30.3V22.7
	z M30.3,4.9c5.3,0.3,10.4,2.5,14.3,6.1c0.9,0.8,1.7,1.7,2.5,2.7c-4.1,3.6-10.3,5.8-16.8,6.1V7.3V4.9z M11.2,17.9
	c4.4,2.9,10.1,4.6,16.1,4.9v4.1H7.3h-2c0.2-3.8,1.4-7.5,3.4-10.8C9.5,16.7,10.3,17.3,11.2,17.9z"/>
</svg>
