<?xml version="1.0" encoding="utf-8"?>
<!-- Generator: Adobe Illustrator 19.0.1, SVG Export Plug-In . SVG Version: 6.00 Build 0)  -->
<svg version="1.1" id="Layer_1" xmlns="http://www.w3.org/2000/svg" xmlns:xlink="http://www.w3.org/1999/xlink" x="0px" y="0px"
	 viewBox="0 0 60 60" style="enable-background:new 0 0 60 60;" xml:space="preserve">
<style type="text/css">
	.st0{fill:none;}
	.st1{fill:#804754;}
	.st2{fill:#D1BF99;}
	.st3{fill:url(#SVGID_1_);}
	.st4{fill:url(#SVGID_2_);}
	.st5{fill:url(#SVGID_3_);}
	.st6{fill:url(#SVGID_4_);}
	.st7{fill:url(#SVGID_5_);}
	.st8{fill:url(#SVGID_6_);}
	.st9{fill:url(#SVGID_7_);}
	.st10{fill:url(#SVGID_8_);}
	.st11{fill:url(#SVGID_9_);}
	.st12{fill:url(#SVGID_10_);}
	.st13{fill:url(#SVGID_11_);}
	.st14{fill:url(#SVGID_12_);}
	.st15{fill:url(#SVGID_13_);}
	.st16{fill:url(#SVGID_14_);}
	.st17{fill:url(#SVGID_15_);}
	.st18{fill:url(#SVGID_16_);}
	.st19{fill:url(#SVGID_17_);}
	.st20{fill:url(#SVGID_18_);}
	.st21{fill:url(#SVGID_19_);}
	.st22{fill:url(#SVGID_20_);}
	.st23{fill:#562636;}
	.st24{fill:url(#SVGID_21_);}
	.st25{fill:url(#SVGID_22_);}
	.st26{fill:url(#SVGID_23_);}
	.st27{fill:url(#SVGID_24_);}
	.st28{fill:url(#SVGID_25_);}
	.st29{fill:url(#SVGID_26_);}
	.st30{fill:url(#SVGID_27_);}
	.st31{fill:#FFFFFF;}
	.st32{fill:url(#SVGID_28_);}
	.st33{fill:url(#SVGID_29_);}
	.st34{fill:url(#SVGID_30_);}
	.st35{fill:url(#SVGID_31_);}
	.st36{fill:url(#SVGID_32_);}
	.st37{fill:url(#SVGID_33_);}
	.st38{fill:url(#SVGID_34_);}
	.st39{fill:url(#SVGID_35_);}
	.st40{fill:url(#SVGID_36_);}
	.st41{fill:url(#SVGID_37_);}
	.st42{fill:url(#SVGID_38_);}
	.st43{fill:url(#SVGID_39_);}
	.st44{fill:url(#SVGID_40_);}
	.st45{fill:url(#SVGID_41_);}
	.st46{fill:url(#SVGID_42_);}
	.st47{fill:url(#SVGID_43_);}
	.st48{fill:url(#SVGID_44_);}
	.st49{fill:url(#SVGID_45_);}
	.st50{fill:url(#SVGID_46_);}
	.st51{fill:url(#SVGID_47_);}
	.st52{fill:url(#SVGID_48_);}
	.st53{fill:url(#SVGID_49_);}
	.st54{fill:url(#SVGID_50_);}
	.st55{fill:url(#SVGID_51_);}
	.st56{fill:url(#SVGID_52_);}
	.st57{fill:url(#SVGID_53_);}
	.st58{fill:url(#SVGID_54_);}
	.st59{fill:url(#SVGID_55_);}
	.st60{fill:url(#SVGID_56_);}
	.st61{fill:url(#SVGID_57_);}
	.st62{fill:url(#SVGID_58_);}
	.st63{fill:url(#SVGID_59_);}
	.st64{fill:url(#SVGID_60_);}
	.st65{fill:url(#SVGID_61_);}
	.st66{fill:url(#SVGID_62_);}
	.st67{fill:url(#SVGID_63_);}
	.st68{fill:#19A95A;}
	.st69{fill:url(#SVGID_64_);}
	.st70{fill:url(#SVGID_65_);}
	.st71{fill:url(#SVGID_66_);}
	.st72{fill:url(#SVGID_67_);}
	.st73{fill:url(#SVGID_68_);}
	.st74{fill:url(#SVGID_69_);}
	.st75{fill:url(#SVGID_70_);}
	.st76{fill:url(#SVGID_71_);}
	.st77{fill:url(#SVGID_72_);}
	.st78{fill:url(#SVGID_73_);}
	.st79{fill:url(#SVGID_74_);}
	.st80{fill:url(#SVGID_75_);}
	.st81{fill:url(#SVGID_76_);}
	.st82{fill:url(#SVGID_77_);}
	.st83{fill:url(#SVGID_78_);}
	.st84{fill:url(#SVGID_79_);}
	.st85{fill:#D9C198;}
</style>
<path class="st0" d="M10.1,53.5c0,0.2-0.1,0.4-0.1,0.6h0.5c0-0.2,0-0.4,0.1-0.6H10.1z"/>
<path class="st0" d="M34.1,21.2c0,0.7-0.2,1.4-0.5,2c0.5,0.6,0.9,1.3,1.2,2c0.9-1.1,1.9-2.1,3.2-2.8l0.5-0.3c1.4-0.8,2.3-2,2.3-3.2
	c0-1.1-0.6-2.1-1.4-2.7c-0.2,0-0.3-0.1-0.5-0.1C36.3,16.1,34.1,18.4,34.1,21.2z"/>
<path class="st31" d="M12.8,47.7c-1.4,1.7-2.4,3.6-2.7,5.8h0.5C10.8,51.4,11.6,49.4,12.8,47.7z"/>
<path class="st31" d="M24.7,23.8c1.1,0,2.1,0.2,3.1,0.6c-0.1-0.1-0.2-0.2-0.4-0.3c-1.4-0.3-2.6-1.2-3.3-2.4
	c-4.6,0.2-8.2,3.9-8.2,8.5c0,0.2,0,0.4,0,0.6C16.8,26.8,20.4,23.8,24.7,23.8z"/>
<path class="st31" d="M29.4,25.1c1.5,0.9,2.7,2.3,3.5,3.8c0,0,0,0,0-0.1c-0.2-1.4-0.8-2.8-1.6-3.9c-0.3,0.1-0.7,0.2-1.1,0.2
	C29.9,25.2,29.6,25.2,29.4,25.1z"/>
<linearGradient id="SVGID_1_" gradientUnits="userSpaceOnUse" x1="23.5111" y1="54.2753" x2="52.7126" y2="54.2753" gradientTransform="matrix(-1 0 0 1 63.1855 0)">
	<stop  offset="0" style="stop-color:#DADADA"/>
	<stop  offset="1" style="stop-color:#B2B2B2"/>
</linearGradient>
<path class="st3" d="M35.3,54.1h3.4c0-0.2-0.1-0.4-0.1-0.6l-28,0c0,0.2,0,0.4-0.1,0.6h19.8c0.6,0,1.2,0.4,1.4,1h2.2
	C34.1,54.5,34.6,54.1,35.3,54.1z"/>
<path class="st31" d="M38.6,53.5c-0.3-1.4-0.8-2.8-1.5-4c-1.3-0.1-2.6-0.7-3.6-1.7c-0.9-0.9-1.4-2-1.6-3.3c-2.3-1.3-4.8-1.9-7.6-1.9
	c-4.7,0-8.9,2-11.5,5.2c-1.2,1.7-2,3.6-2.3,5.8L38.6,53.5z"/>
<linearGradient id="SVGID_2_" gradientUnits="userSpaceOnUse" x1="23.5111" y1="48.0423" x2="52.7126" y2="48.0423" gradientTransform="matrix(-1 0 0 1 63.1855 0)">
	<stop  offset="0" style="stop-color:#DADADA"/>
	<stop  offset="1" style="stop-color:#B2B2B2"/>
</linearGradient>
<path class="st4" d="M38.6,53.5c-0.3-1.4-0.8-2.8-1.5-4c-1.3-0.1-2.6-0.7-3.6-1.7c-0.9-0.9-1.4-2-1.6-3.3c-2.3-1.3-4.8-1.9-7.6-1.9
	c-4.7,0-8.9,2-11.5,5.2c-1.2,1.7-2,3.6-2.3,5.8L38.6,53.5z"/>
<path class="st31" d="M24.4,38.8c3.7,0,6.8-2.3,8-5.5c-0.1-0.3-0.1-0.6-0.1-1c0-1,0.2-2.2,0.5-3.3c-0.8-1.6-2-2.9-3.5-3.8
	c-0.6-0.1-1.1-0.4-1.6-0.8c-1-0.4-2-0.6-3.1-0.6c-4.3,0-7.9,3-8.8,7C16.2,35.3,19.9,38.8,24.4,38.8z"/>
<linearGradient id="SVGID_3_" gradientUnits="userSpaceOnUse" x1="29.4633" y1="31.2873" x2="47.5226" y2="31.2873" gradientTransform="matrix(-1 0 0 1 63.1855 0)">
	<stop  offset="0" style="stop-color:#DADADA"/>
	<stop  offset="1" style="stop-color:#B2B2B2"/>
</linearGradient>
<path class="st5" d="M24.4,38.8c3.7,0,6.8-2.3,8-5.5c-0.1-0.3-0.1-0.6-0.1-1c0-1,0.2-2.2,0.5-3.3c-0.8-1.6-2-2.9-3.5-3.8
	c-0.6-0.1-1.1-0.4-1.6-0.8c-1-0.4-2-0.6-3.1-0.6c-4.3,0-7.9,3-8.8,7C16.2,35.3,19.9,38.8,24.4,38.8z"/>
<path class="st31" d="M36.8,46.4c-0.4-0.5-0.6-1.2-0.6-1.9c0-1.6,1.3-3,2.8-3.2c-0.4-0.3-0.9-0.4-1.4-0.4c0,0,0,0,0,0
	c-1.5,0-2.8,1.3-2.8,2.8c0,0.7,0.3,1.4,0.8,2C35.9,46,36.3,46.2,36.8,46.4z"/>
<path class="st31" d="M36.2,44.5c0,0.7,0.2,1.3,0.6,1.9c0.3,0.1,0.5,0.1,0.8,0.1c0,0,0,0,0,0h0c1.5,0,2.8-1.2,2.8-2.8
	c0-0.7-0.3-1.4-0.8-2c-0.2-0.2-0.4-0.3-0.6-0.4C37.4,41.5,36.2,42.9,36.2,44.5z"/>
<linearGradient id="SVGID_4_" gradientUnits="userSpaceOnUse" x1="36.1548" y1="43.9303" x2="42.5564" y2="43.9303">
	<stop  offset="0" style="stop-color:#EC6348"/>
	<stop  offset="0.9695" style="stop-color:#E8414E"/>
</linearGradient>
<path class="st6" d="M36.2,44.5c0,0.7,0.2,1.3,0.6,1.9c0.3,0.1,0.5,0.1,0.8,0.1c0,0,0,0,0,0h0c1.5,0,2.8-1.2,2.8-2.8
	c0-0.7-0.3-1.4-0.8-2c-0.2-0.2-0.4-0.3-0.6-0.4C37.4,41.5,36.2,42.9,36.2,44.5z"/>
<path class="st31" d="M37.4,4.7c2.3,0,4.6,0.6,6.6,1.7c0,0,0,0,0,0c1.1,0.6,2.1,1.3,3,2.2c-2.5-2.6-6-4.2-9.8-4.2
	c-7.6,0-14,6.4-14,14c0,0.1,0,0.1,0,0.2C23.5,11,29.9,4.7,37.4,4.7z"/>
<path class="st31" d="M40.3,26.2l0.2-0.1l0.2-0.1c1.9-1.1,3.1-2.9,3.1-4.8c0-0.4-0.1-0.8-0.1-1.2c-0.4,1.9-1.7,3.6-3.7,4.7l-0.4,0.3
	c-2.9,1.6-4.2,4.9-4.2,7.3c0,0.2,0,0.4,0.1,0.6C35.7,30.1,37.4,27.8,40.3,26.2z"/>
<path class="st31" d="M26.4,19.5C27.2,13.1,32.6,8,39,8c0.4,0,0.8,0,1.2,0.1c-0.9-0.2-1.8-0.3-2.7-0.3c-6,0-11.1,5.1-11.1,11.2
	C26.3,19.1,26.3,19.3,26.4,19.5z"/>
<linearGradient id="SVGID_5_" gradientUnits="userSpaceOnUse" x1="26.2949" y1="19.3002" x2="51.6055" y2="19.3002">
	<stop  offset="0" style="stop-color:#EC6348"/>
	<stop  offset="0.9695" style="stop-color:#E8414E"/>
</linearGradient>
<path class="st7" d="M34.1,21.2c0-2.8,2.2-5.1,4.9-5.1c0.2,0,0.3,0,0.5,0.1c-0.6-0.4-1.2-0.7-2-0.7c-1.8,0-3.4,1.5-3.4,3.4
	c0,1.3-0.5,2.5-1.3,3.5c0.3,0.3,0.5,0.6,0.8,0.9C33.9,22.6,34.1,21.9,34.1,21.2z"/>
<linearGradient id="SVGID_6_" gradientUnits="userSpaceOnUse" x1="26.2949" y1="28.9341" x2="51.6055" y2="28.9341">
	<stop  offset="0" style="stop-color:#EC6348"/>
	<stop  offset="0.9695" style="stop-color:#E8414E"/>
</linearGradient>
<path class="st8" d="M44.1,31.2L44,31.4l-0.6,0.4c-0.1,0.2-0.2,0.6-0.3,0.7c0,0.1,0,0.2-0.1,0.2c-0.2,2.8-2.5,4.9-5.3,4.9
	c0.5,0.2,0.9,0.3,1.5,0.3c2.1,0,3.8-1.7,3.9-3.9c0.1-0.1,0.3-0.3,0.9-0.6l0.4-0.2l0.3-0.3l0.1,0c4.2-2.5,6.9-7,6.9-11.7
	c0-0.4,0-0.8-0.1-1.2C51.2,24.5,48.4,28.8,44.1,31.2z"/>
<path class="st31" d="M29.4,25.1c0.3,0.1,0.5,0.1,0.8,0.1c0.4,0,0.7-0.1,1.1-0.2c-0.3-0.4-0.6-0.8-1-1.1c-0.5,0.1-1,0.2-1.6,0.2
	c-0.4,0-0.8-0.1-1.2-0.2c0.1,0.1,0.2,0.2,0.4,0.3C28.4,24.6,28.9,24.8,29.4,25.1z"/>
<linearGradient id="SVGID_7_" gradientUnits="userSpaceOnUse" x1="26.2949" y1="24.587" x2="51.6055" y2="24.587">
	<stop  offset="0" style="stop-color:#EC6348"/>
	<stop  offset="0.9695" style="stop-color:#E8414E"/>
</linearGradient>
<path class="st9" d="M29.4,25.1c0.3,0.1,0.5,0.1,0.8,0.1c0.4,0,0.7-0.1,1.1-0.2c-0.3-0.4-0.6-0.8-1-1.1c-0.5,0.1-1,0.2-1.6,0.2
	c-0.4,0-0.8-0.1-1.2-0.2c0.1,0.1,0.2,0.2,0.4,0.3C28.4,24.6,28.9,24.8,29.4,25.1z"/>
<path class="st31" d="M29.4,25.1c-0.5-0.3-1-0.6-1.6-0.8C28.3,24.7,28.8,25,29.4,25.1z"/>
<linearGradient id="SVGID_8_" gradientUnits="userSpaceOnUse" x1="29.4633" y1="24.7482" x2="47.5226" y2="24.7482" gradientTransform="matrix(-1 0 0 1 63.1855 0)">
	<stop  offset="0" style="stop-color:#DADADA"/>
	<stop  offset="1" style="stop-color:#B2B2B2"/>
</linearGradient>
<path class="st10" d="M29.4,25.1c-0.5-0.3-1-0.6-1.6-0.8C28.3,24.7,28.8,25,29.4,25.1z"/>
<linearGradient id="SVGID_9_" gradientUnits="userSpaceOnUse" x1="26.2949" y1="24.7482" x2="51.6055" y2="24.7482">
	<stop  offset="0" style="stop-color:#EC6348"/>
	<stop  offset="0.9695" style="stop-color:#E8414E"/>
</linearGradient>
<path class="st11" d="M29.4,25.1c-0.5-0.3-1-0.6-1.6-0.8C28.3,24.7,28.8,25,29.4,25.1z"/>
<path class="st23" d="M31.2,25.1c1-0.3,1.8-1,2.3-1.9c-0.2-0.3-0.5-0.6-0.8-0.9c-0.7,0.8-1.5,1.4-2.6,1.7
	C30.6,24.3,30.9,24.7,31.2,25.1z"/>
<linearGradient id="SVGID_10_" gradientUnits="userSpaceOnUse" x1="26.2949" y1="23.6669" x2="51.6055" y2="23.6669">
	<stop  offset="0" style="stop-color:#EC6348"/>
	<stop  offset="0.9695" style="stop-color:#E8414E"/>
</linearGradient>
<path class="st12" d="M31.2,25.1c1-0.3,1.8-1,2.3-1.9c-0.2-0.3-0.5-0.6-0.8-0.9c-0.7,0.8-1.5,1.4-2.6,1.7
	C30.6,24.3,30.9,24.7,31.2,25.1z"/>
<path class="st31" d="M26.4,19.5c0.3,1,1.2,1.7,2.3,1.7c1.4,0,2.4-1,2.4-2.4c0-3.5,2.9-6.4,6.4-6.4c3.5,0,6.4,2.9,6.4,6.4
	c0,0.4-0.1,0.8-0.1,1.2c0.1,0.4,0.1,0.8,0.1,1.2c0,1.9-1.2,3.7-3.1,4.8L40.5,26l-0.2,0.1c-3,1.7-4.6,3.9-4.9,6.7
	c0.2,1.1,1.2,1.8,2.3,1.8c1.3,0,2.3-1,2.4-2.3l0.5-1c-0.2,0.2-0.3,0.4-0.3,0.5l0.1-0.2c0.2-0.7,0.6-1.9,1.5-2.4l0.7-0.5
	c3.8-2.1,6.1-5.9,6.1-9.9c0-2.6-0.9-5.1-2.7-7.1c-0.9-1.1-2-2-3.3-2.7c0,0,0,0,0,0c-0.8-0.4-1.6-0.8-2.5-1C39.7,8,39.3,8,39,8
	C32.6,8,27.2,13.1,26.4,19.5z"/>
<linearGradient id="SVGID_11_" gradientUnits="userSpaceOnUse" x1="26.2949" y1="21.2989" x2="51.6055" y2="21.2989">
	<stop  offset="0" style="stop-color:#EC6348"/>
	<stop  offset="0.9695" style="stop-color:#E8414E"/>
</linearGradient>
<path class="st13" d="M26.4,19.5c0.3,1,1.2,1.7,2.3,1.7c1.4,0,2.4-1,2.4-2.4c0-3.5,2.9-6.4,6.4-6.4c3.5,0,6.4,2.9,6.4,6.4
	c0,0.4-0.1,0.8-0.1,1.2c0.1,0.4,0.1,0.8,0.1,1.2c0,1.9-1.2,3.7-3.1,4.8L40.5,26l-0.2,0.1c-3,1.7-4.6,3.9-4.9,6.7
	c0.2,1.1,1.2,1.8,2.3,1.8c1.3,0,2.3-1,2.4-2.3l0.5-1c-0.2,0.2-0.3,0.4-0.3,0.5l0.1-0.2c0.2-0.7,0.6-1.9,1.5-2.4l0.7-0.5
	c3.8-2.1,6.1-5.9,6.1-9.9c0-2.6-0.9-5.1-2.7-7.1c-0.9-1.1-2-2-3.3-2.7c0,0,0,0,0,0c-0.8-0.4-1.6-0.8-2.5-1C39.7,8,39.3,8,39,8
	C32.6,8,27.2,13.1,26.4,19.5z"/>
<path class="st23" d="M43.1,32.7c0-0.1,0-0.2,0.1-0.2c0-0.2,0.2-0.5,0.3-0.7l0.6-0.4l0.1-0.1c4.3-2.5,7-6.7,7.4-11.3
	c0-0.4,0.1-0.7,0.1-1.1c0-3.3-1.2-6.5-3.4-9.1c-0.4-0.4-0.7-0.8-1.1-1.2c-0.9-0.9-1.9-1.6-3-2.2c0,0,0,0,0,0c-2-1.1-4.3-1.7-6.6-1.7
	c-7.6,0-14,6.3-14.1,13.9c0,0.1,0,0.1,0,0.2c-5.8,0.6-10.4,5.5-10.4,11.5c0,4.4,2.5,8.2,6.1,10.2c-7,2.1-12,8.1-12,15.2v1.5h23.4
	c0.8,0,1.5-0.7,1.5-1.5c0-0.2,0-0.4-0.1-0.5c-0.2-0.6-0.8-1-1.4-1H10.5H10c0-0.2,0.1-0.4,0.1-0.6c0.4-2.1,1.3-4.1,2.7-5.8
	c2.6-3.1,6.8-5.2,11.5-5.2c2.7,0,5.3,0.7,7.6,1.9c0.2,1.2,0.7,2.4,1.6,3.3c1,1,2.2,1.6,3.6,1.7c0.7,1.3,1.2,2.6,1.5,4
	c0,0.2,0.1,0.4,0.1,0.6h-3.4c-0.6,0-1.2,0.4-1.4,1c-0.1,0.2-0.1,0.3-0.1,0.5c0,0.8,0.7,1.5,1.5,1.5h6.5v-1.5c0-2.3-0.6-4.6-1.6-6.7
	c1.9-0.9,3.2-2.9,3.2-5.2c0-1.5-0.6-3-1.7-4.1s-2.5-1.7-4.1-1.7c0,0,0,0,0,0c-2.3,0-4.3,1.4-5.3,3.4c-0.8-0.4-1.6-0.7-2.5-1
	c1.8-1,3.3-2.4,4.4-4.1c0.9,0.8,2.1,1.3,3.5,1.3c0,0,0,0,0,0C40.6,37.6,42.9,35.5,43.1,32.7z M37.4,7.7c0.9,0,1.8,0.1,2.7,0.3
	c0.9,0.2,1.7,0.6,2.5,1c0,0,0,0,0,0c1.3,0.7,2.4,1.6,3.3,2.7c1.7,2,2.7,4.6,2.7,7.1c0,4-2.3,7.8-6.1,9.9l-0.7,0.5
	c-1,0.5-1.3,1.7-1.5,2.4l-0.1,0.2c0,0,0.1-0.3,0.3-0.5l-0.5,1c0,1.3-1.1,2.3-2.4,2.3c-1.2,0-2.1-0.7-2.3-1.8c0-0.2-0.1-0.4-0.1-0.6
	c0-2.4,1.3-5.8,4.2-7.3l0.4-0.3c2-1.1,3.3-2.8,3.7-4.7c0.1-0.4,0.1-0.8,0.1-1.2c0-3.5-2.9-6.4-6.4-6.4c-3.5,0-6.4,2.9-6.4,6.4
	c0,1.4-1,2.4-2.4,2.4c-1.1,0-2-0.7-2.3-1.7c-0.1-0.2-0.1-0.5-0.1-0.7C26.3,12.8,31.4,7.7,37.4,7.7z M34.8,43.7
	c0-1.5,1.3-2.8,2.8-2.8c0,0,0,0,0,0c0.5,0,1,0.1,1.4,0.4c0.2,0.1,0.4,0.3,0.6,0.4c0.5,0.5,0.8,1.2,0.8,2c0,1.5-1.2,2.8-2.8,2.8h0
	c0,0,0,0,0,0c-0.3,0-0.6-0.1-0.8-0.1c-0.4-0.1-0.8-0.4-1.2-0.7C35.1,45.2,34.8,44.5,34.8,43.7z M15.9,30.2c0-4.6,3.7-8.4,8.2-8.5
	c0.7,1.2,1.9,2.1,3.3,2.4c0.4,0.1,0.8,0.2,1.2,0.2c0.5,0,1.1-0.1,1.6-0.2c1-0.3,1.9-0.9,2.6-1.7c0.8-0.9,1.3-2.1,1.3-3.5
	c0-1.8,1.5-3.4,3.4-3.4c0.7,0,1.4,0.3,2,0.7c0.8,0.6,1.4,1.6,1.4,2.7c0,1.2-0.9,2.4-2.3,3.2L38,22.3c-1.3,0.7-2.4,1.7-3.2,2.8
	c-0.3-0.7-0.8-1.4-1.2-2c-0.5,0.9-1.3,1.6-2.3,1.9c0.8,1.1,1.4,2.4,1.6,3.9c0,0,0,0,0,0.1c-0.3,1.1-0.5,2.2-0.5,3.3
	c0,0.3,0,0.7,0.1,1c-1.2,3.2-4.3,5.5-8,5.5c-4.5,0-8.2-3.5-8.5-7.9C15.9,30.6,15.9,30.4,15.9,30.2z"/>
</svg>
