<?xml version="1.0" encoding="utf-8"?>
<!-- Generator: Adobe Illustrator 19.0.1, SVG Export Plug-In . SVG Version: 6.00 Build 0)  -->
<svg version="1.1" id="Layer_1" xmlns="http://www.w3.org/2000/svg" xmlns:xlink="http://www.w3.org/1999/xlink" x="0px" y="0px"
	 viewBox="0 0 60 60" style="enable-background:new 0 0 60 60;" xml:space="preserve">
<style type="text/css">
	.st0{fill:none;}
	.st1{fill:#804754;}
	.st2{fill:#D1BF99;}
	.st3{fill:url(#SVGID_1_);}
	.st4{fill:url(#SVGID_2_);}
	.st5{fill:url(#SVGID_3_);}
	.st6{fill:url(#SVGID_4_);}
	.st7{fill:url(#SVGID_5_);}
	.st8{fill:url(#SVGID_6_);}
	.st9{fill:url(#SVGID_7_);}
	.st10{fill:url(#SVGID_8_);}
	.st11{fill:url(#SVGID_9_);}
	.st12{fill:url(#SVGID_10_);}
	.st13{fill:url(#SVGID_11_);}
	.st14{fill:url(#SVGID_12_);}
	.st15{fill:url(#SVGID_13_);}
	.st16{fill:url(#SVGID_14_);}
	.st17{fill:url(#SVGID_15_);}
	.st18{fill:url(#SVGID_16_);}
	.st19{fill:url(#SVGID_17_);}
	.st20{fill:url(#SVGID_18_);}
	.st21{fill:url(#SVGID_19_);}
	.st22{fill:url(#SVGID_20_);}
	.st23{fill:#562636;}
	.st24{fill:url(#SVGID_21_);}
	.st25{fill:url(#SVGID_22_);}
	.st26{fill:url(#SVGID_23_);}
	.st27{fill:url(#SVGID_24_);}
	.st28{fill:url(#SVGID_25_);}
	.st29{fill:url(#SVGID_26_);}
	.st30{fill:url(#SVGID_27_);}
	.st31{fill:#FFFFFF;}
	.st32{fill:url(#SVGID_28_);}
	.st33{fill:url(#SVGID_29_);}
	.st34{fill:url(#SVGID_30_);}
	.st35{fill:url(#SVGID_31_);}
	.st36{fill:url(#SVGID_32_);}
	.st37{fill:url(#SVGID_33_);}
	.st38{fill:url(#SVGID_34_);}
	.st39{fill:url(#SVGID_35_);}
	.st40{fill:url(#SVGID_36_);}
	.st41{fill:url(#SVGID_37_);}
	.st42{fill:url(#SVGID_38_);}
	.st43{fill:url(#SVGID_39_);}
	.st44{fill:url(#SVGID_40_);}
	.st45{fill:url(#SVGID_41_);}
	.st46{fill:url(#SVGID_42_);}
	.st47{fill:url(#SVGID_43_);}
	.st48{fill:url(#SVGID_44_);}
	.st49{fill:url(#SVGID_45_);}
	.st50{fill:url(#SVGID_46_);}
	.st51{fill:url(#SVGID_47_);}
	.st52{fill:url(#SVGID_48_);}
	.st53{fill:url(#SVGID_49_);}
	.st54{fill:url(#SVGID_50_);}
	.st55{fill:url(#SVGID_51_);}
	.st56{fill:url(#SVGID_52_);}
	.st57{fill:url(#SVGID_53_);}
	.st58{fill:url(#SVGID_54_);}
	.st59{fill:url(#SVGID_55_);}
	.st60{fill:url(#SVGID_56_);}
	.st61{fill:url(#SVGID_57_);}
	.st62{fill:url(#SVGID_58_);}
	.st63{fill:url(#SVGID_59_);}
	.st64{fill:url(#SVGID_60_);}
	.st65{fill:url(#SVGID_61_);}
	.st66{fill:url(#SVGID_62_);}
	.st67{fill:url(#SVGID_63_);}
	.st68{fill:#19A95A;}
	.st69{fill:url(#SVGID_64_);}
	.st70{fill:url(#SVGID_65_);}
	.st71{fill:url(#SVGID_66_);}
	.st72{fill:url(#SVGID_67_);}
	.st73{fill:url(#SVGID_68_);}
	.st74{fill:url(#SVGID_69_);}
	.st75{fill:url(#SVGID_70_);}
	.st76{fill:url(#SVGID_71_);}
	.st77{fill:url(#SVGID_72_);}
	.st78{fill:url(#SVGID_73_);}
	.st79{fill:url(#SVGID_74_);}
	.st80{fill:url(#SVGID_75_);}
	.st81{fill:url(#SVGID_76_);}
	.st82{fill:url(#SVGID_77_);}
	.st83{fill:url(#SVGID_78_);}
	.st84{fill:url(#SVGID_79_);}
	.st85{fill:#D9C198;}
	.st86{opacity:0.85;fill:url(#SVGID_80_);}
	.st87{fill:url(#SVGID_81_);}
	.st88{fill:url(#SVGID_82_);}
	.st89{opacity:0.85;fill:url(#SVGID_83_);}
	.st90{fill:url(#SVGID_84_);}
	.st91{opacity:0.85;fill:url(#SVGID_85_);}
	.st92{fill:url(#SVGID_86_);}
	.st93{fill:url(#SVGID_87_);}
	.st94{fill:url(#SVGID_88_);}
	.st95{fill:url(#SVGID_89_);}
	.st96{opacity:0.85;fill:url(#SVGID_90_);}
	.st97{fill:url(#SVGID_91_);}
	.st98{opacity:0.85;fill:url(#SVGID_92_);}
	.st99{fill:url(#SVGID_93_);}
	.st100{fill:url(#SVGID_94_);}
	.st101{opacity:0.85;fill:url(#SVGID_95_);}
	.st102{fill:url(#SVGID_96_);}
	.st103{fill:url(#SVGID_97_);}
	.st104{fill:url(#SVGID_98_);}
	.st105{fill:url(#SVGID_99_);}
	.st106{opacity:0.85;}
	.st107{fill:url(#SVGID_100_);}
	.st108{fill:url(#SVGID_101_);}
	.st109{fill:url(#SVGID_102_);}
	.st110{opacity:0.85;fill:url(#SVGID_103_);}
	.st111{fill:url(#SVGID_104_);}
	.st112{opacity:0.85;fill:url(#SVGID_105_);}
	.st113{fill:none;stroke:url(#SVGID_106_);stroke-width:6;stroke-linecap:round;stroke-linejoin:round;stroke-miterlimit:10;}
	.st114{fill:#010202;}
	.st115{fill:url(#SVGID_107_);}
	.st116{fill:#3175BB;}
	.st117{fill:url(#SVGID_108_);}
	.st118{fill:#F0C9A5;}
	.st119{fill:#E3B692;}
	.st120{fill:#7C4454;}
	.st121{fill:#5A3F50;}
	.st122{fill:#262421;}
	.st123{fill:#909090;}
	.st124{fill:url(#SVGID_109_);}
	.st125{fill:url(#SVGID_110_);}
	.st126{fill:none;stroke:#562636;stroke-width:3;stroke-linecap:round;stroke-miterlimit:10;}
	.st127{fill:none;stroke:#562636;stroke-width:3;stroke-linecap:round;stroke-miterlimit:1;}
	.st128{fill:url(#SVGID_111_);}
	.st129{fill:url(#SVGID_112_);}
	.st130{fill:url(#SVGID_113_);}
	.st131{fill:url(#SVGID_114_);}
	.st132{fill:url(#SVGID_115_);}
	.st133{fill:url(#SVGID_116_);}
	.st134{fill:url(#SVGID_117_);}
	.st135{fill:url(#SVGID_118_);}
	.st136{fill:url(#SVGID_119_);}
	.st137{fill:url(#SVGID_120_);}
	.st138{fill:url(#SVGID_121_);}
	.st139{fill:url(#SVGID_122_);}
	.st140{fill:url(#SVGID_123_);}
	.st141{fill:url(#SVGID_124_);}
	.st142{fill:url(#SVGID_125_);}
	.st143{fill:url(#SVGID_126_);}
	.st144{fill:url(#SVGID_127_);}
	.st145{fill:none;stroke:#562636;stroke-width:3;stroke-linecap:round;stroke-linejoin:round;stroke-miterlimit:1;}
	.st146{fill:url(#SVGID_128_);}
	.st147{fill:url(#SVGID_129_);}
	.st148{fill:url(#SVGID_130_);}
	.st149{fill:url(#SVGID_131_);}
	.st150{fill:url(#SVGID_132_);}
	.st151{fill:url(#SVGID_133_);}
	.st152{fill:url(#SVGID_134_);}
	.st153{fill:url(#SVGID_135_);}
	.st154{fill:url(#SVGID_136_);}
	.st155{fill:url(#SVGID_137_);}
	.st156{fill:url(#SVGID_138_);}
	.st157{fill:url(#SVGID_139_);}
	.st158{fill:url(#SVGID_140_);}
	.st159{fill:url(#SVGID_141_);}
	.st160{fill:url(#SVGID_142_);}
	.st161{fill:url(#SVGID_143_);}
	.st162{fill:url(#SVGID_144_);}
	.st163{fill:url(#SVGID_145_);}
	.st164{fill:url(#SVGID_146_);}
	.st165{fill:url(#SVGID_147_);}
	.st166{fill:url(#SVGID_148_);}
	.st167{fill:url(#SVGID_149_);}
	.st168{fill:url(#SVGID_150_);}
	.st169{fill:url(#SVGID_151_);}
	.st170{fill:url(#SVGID_152_);}
	.st171{fill:url(#SVGID_153_);}
	.st172{fill:url(#SVGID_154_);}
	.st173{fill:url(#SVGID_155_);}
	.st174{fill:url(#SVGID_156_);}
	.st175{fill:url(#SVGID_157_);}
	.st176{fill:url(#SVGID_158_);}
	.st177{fill:url(#SVGID_159_);}
	.st178{fill:url(#SVGID_160_);}
	.st179{fill:url(#SVGID_161_);}
	.st180{fill:url(#SVGID_162_);}
	.st181{fill:url(#SVGID_163_);}
	.st182{fill:url(#SVGID_164_);}
	.st183{fill:url(#SVGID_165_);}
	.st184{fill:url(#SVGID_166_);}
	.st185{fill:url(#SVGID_167_);}
	.st186{fill:url(#SVGID_168_);}
	.st187{fill:url(#SVGID_169_);}
	.st188{fill:url(#SVGID_170_);}
</style>
<g>
	<linearGradient id="SVGID_1_" gradientUnits="userSpaceOnUse" x1="25.7214" y1="31.3219" x2="39.7352" y2="31.3219">
		<stop  offset="0" style="stop-color:#86CCCD"/>
		<stop  offset="1" style="stop-color:#36A9E1"/>
	</linearGradient>
	<circle class="st3" cx="32.7" cy="31.3" r="7"/>
	<linearGradient id="SVGID_2_" gradientUnits="userSpaceOnUse" x1="7.1576" y1="20.8903" x2="17.0552" y2="20.8903">
		<stop  offset="0" style="stop-color:#86CCCD"/>
		<stop  offset="1" style="stop-color:#36A9E1"/>
	</linearGradient>
	<circle class="st4" cx="12.1" cy="20.9" r="4.9"/>
	<linearGradient id="SVGID_3_" gradientUnits="userSpaceOnUse" x1="26.4119" y1="9.5406" x2="37.1353" y2="9.5406">
		<stop  offset="0" style="stop-color:#86CCCD"/>
		<stop  offset="1" style="stop-color:#36A9E1"/>
	</linearGradient>
	<circle class="st5" cx="31.8" cy="9.5" r="5.4"/>
	<linearGradient id="SVGID_4_" gradientUnits="userSpaceOnUse" x1="26.3716" y1="52.6186" x2="37.0951" y2="52.6186">
		<stop  offset="0" style="stop-color:#86CCCD"/>
		<stop  offset="1" style="stop-color:#36A9E1"/>
	</linearGradient>
	<circle class="st6" cx="31.7" cy="52.6" r="5.4"/>
	<linearGradient id="SVGID_5_" gradientUnits="userSpaceOnUse" x1="45.6662" y1="19.9042" x2="56.3896" y2="19.9042">
		<stop  offset="0" style="stop-color:#86CCCD"/>
		<stop  offset="1" style="stop-color:#36A9E1"/>
	</linearGradient>
	<circle class="st7" cx="51" cy="19.9" r="5.4"/>
	<linearGradient id="SVGID_6_" gradientUnits="userSpaceOnUse" x1="7.1576" y1="42.3102" x2="17.881" y2="42.3102">
		<stop  offset="0" style="stop-color:#86CCCD"/>
		<stop  offset="1" style="stop-color:#36A9E1"/>
	</linearGradient>
	<circle class="st8" cx="12.5" cy="42.3" r="5.4"/>
	<linearGradient id="SVGID_7_" gradientUnits="userSpaceOnUse" x1="45.6662" y1="41.9113" x2="56.3896" y2="41.9113">
		<stop  offset="0" style="stop-color:#86CCCD"/>
		<stop  offset="1" style="stop-color:#36A9E1"/>
	</linearGradient>
	<circle class="st9" cx="51" cy="41.9" r="5.4"/>
	<g>
		<path class="st0" d="M30.1,11.9c2.1,0,3.9-1.7,3.9-3.9s-1.7-3.9-3.9-3.9c-2.1,0-3.9,1.7-3.9,3.9S28,11.9,30.1,11.9z"/>
		<path class="st0" d="M14.7,19.6c0-2.1-1.7-3.9-3.9-3.9S7,17.5,7,19.6s1.7,3.9,3.9,3.9S14.7,21.8,14.7,19.6z"/>
		<path class="st0" d="M49.4,23.1c2.1,0,3.9-1.7,3.9-3.9c0-2.1-1.7-3.9-3.9-3.9c-2.1,0-3.9,1.7-3.9,3.9
			C45.5,21.4,47.3,23.1,49.4,23.1z"/>
		<path class="st0" d="M10.9,37.8c-2.1,0-3.9,1.7-3.9,3.9c0,2.1,1.7,3.9,3.9,3.9s3.9-1.7,3.9-3.9C14.7,39.5,13,37.8,10.9,37.8z"/>
		<path class="st0" d="M30.1,48.1c-2.1,0-3.9,1.7-3.9,3.9s1.7,3.9,3.9,3.9c2.1,0,3.9-1.7,3.9-3.9S32.2,48.1,30.1,48.1z"/>
		<path class="st0" d="M42.5,41.3c0-3.4,2.4-6.2,5.7-6.7V26c-1.5-0.3-2.8-1-3.8-2.1l-5.9,3.3c0.3,0.9,0.5,1.9,0.5,2.9
			c0,4.2-3.1,7.8-7.2,8.4v6.8c1.6,0.4,3,1.4,3.9,2.7l7.3-4.2C42.7,43,42.5,42.1,42.5,41.3z"/>
		<path class="st0" d="M28.8,45.2v-6.8c-3.9-0.8-6.8-4.2-6.8-8.3c0-0.9,0.2-1.8,0.4-2.7l-1.5-0.8c-0.7-0.4-1-1.3-0.6-2
			c0.4-0.7,1.3-1,2-0.6l1.5,0.8c1.6-1.9,3.9-3.2,6.6-3.2c2.6,0,4.9,1.2,6.5,3l5.9-3.3c-0.2-0.7-0.3-1.4-0.3-2.1
			c0-0.8,0.1-1.5,0.4-2.2l-7.7-4.4c-1.3,1.4-3.1,2.3-5.1,2.3c-2,0-3.7-0.8-5-2.1l-7.8,4.5c0.3,0.7,0.4,1.5,0.4,2.4
			c0,0.6-0.1,1.1-0.2,1.6l1,0.5c0.7,0.4,1,1.3,0.6,2c-0.3,0.5-0.8,0.8-1.3,0.8c-0.2,0-0.5-0.1-0.7-0.2l-0.8-0.5
			c-1,1.2-2.3,2-3.8,2.4V35c3.1,0.7,5.4,3.4,5.4,6.7c0,0.7-0.1,1.4-0.3,2l7.2,4.1C25.6,46.5,27.1,45.6,28.8,45.2z"/>
		<path class="st0" d="M49.4,37.4c-2.1,0-3.9,1.7-3.9,3.9c0,2.1,1.7,3.9,3.9,3.9c2.1,0,3.9-1.7,3.9-3.9
			C53.2,39.1,51.5,37.4,49.4,37.4z"/>
		<path class="st0" d="M36,30.1c0-3-2.5-5.5-5.5-5.5S25,27.1,25,30.1s2.5,5.5,5.5,5.5S36,33.1,36,30.1z"/>
		<path class="st23" d="M51.2,34.6v-8.8c2.9-0.8,5.1-3.5,5.1-6.6c0-3.8-3.1-6.9-6.9-6.9c-1.9,0-3.7,0.8-4.9,2.1L36.7,10
			c0.2-0.6,0.3-1.3,0.3-2c0-3.8-3.1-6.9-6.9-6.9c-3.8,0-6.9,3.1-6.9,6.9c0,0.7,0.1,1.5,0.3,2.1l-7.9,4.6c-1.2-1.2-2.9-2-4.8-2
			c-3.8,0-6.9,3.1-6.9,6.9c0,3.3,2.3,6,5.4,6.7V35C6.3,35.6,4,38.4,4,41.6c0,3.8,3.1,6.9,6.9,6.9c2,0,3.8-0.9,5-2.2l7.4,4.3
			c-0.1,0.4-0.1,0.9-0.1,1.4c0,3.8,3.1,6.9,6.9,6.9c3.8,0,6.9-3.1,6.9-6.9c0-0.4,0-0.8-0.1-1.2l7.9-4.5c1.2,1.2,2.9,1.9,4.7,1.9
			c3.8,0,6.9-3.1,6.9-6.9C56.2,38.1,54.1,35.4,51.2,34.6z M49.4,15.4c2.1,0,3.9,1.7,3.9,3.9c0,2.1-1.7,3.9-3.9,3.9
			c-2.1,0-3.9-1.7-3.9-3.9C45.5,17.1,47.3,15.4,49.4,15.4z M30.1,4.2c2.1,0,3.9,1.7,3.9,3.9s-1.7,3.9-3.9,3.9
			c-2.1,0-3.9-1.7-3.9-3.9S28,4.2,30.1,4.2z M7,19.6c0-2.1,1.7-3.9,3.9-3.9s3.9,1.7,3.9,3.9s-1.7,3.9-3.9,3.9S7,21.8,7,19.6z
			 M10.9,45.5c-2.1,0-3.9-1.7-3.9-3.9c0-2.1,1.7-3.9,3.9-3.9s3.9,1.7,3.9,3.9C14.7,43.8,13,45.5,10.9,45.5z M17.4,43.7
			c0.2-0.6,0.3-1.3,0.3-2c0-3.3-2.3-6-5.4-6.7v-8.6c1.5-0.3,2.9-1.2,3.8-2.4l0.8,0.5c0.2,0.1,0.5,0.2,0.7,0.2c0.5,0,1-0.3,1.3-0.8
			c0.4-0.7,0.1-1.6-0.6-2l-1-0.5c0.1-0.5,0.2-1.1,0.2-1.6c0-0.8-0.2-1.6-0.4-2.4l7.8-4.5c1.3,1.3,3,2.1,5,2.1c2,0,3.8-0.9,5.1-2.3
			l7.7,4.4c-0.2,0.7-0.4,1.4-0.4,2.2c0,0.7,0.1,1.4,0.3,2.1L37,24.6c-1.6-1.9-3.9-3-6.5-3c-2.7,0-5.1,1.2-6.6,3.2L22.4,24
			c-0.7-0.4-1.6-0.1-2,0.6c-0.4,0.7-0.1,1.6,0.6,2l1.5,0.8c-0.3,0.8-0.4,1.7-0.4,2.7c0,4.1,2.9,7.6,6.8,8.3v6.8
			c-1.7,0.3-3.2,1.3-4.2,2.6L17.4,43.7z M30.5,35.6c-3,0-5.5-2.5-5.5-5.5s2.5-5.5,5.5-5.5s5.5,2.5,5.5,5.5S33.5,35.6,30.5,35.6z
			 M30.1,55.8c-2.1,0-3.9-1.7-3.9-3.9s1.7-3.9,3.9-3.9c2.1,0,3.9,1.7,3.9,3.9S32.2,55.8,30.1,55.8z M31.8,45.3v-6.8
			c4.1-0.6,7.2-4.2,7.2-8.4c0-1-0.2-2-0.5-2.9l5.9-3.3c1,1.1,2.3,1.8,3.8,2.1v8.5c-3.2,0.6-5.7,3.4-5.7,6.7c0,0.9,0.2,1.7,0.5,2.5
			L35.7,48C34.7,46.7,33.4,45.7,31.8,45.3z M49.4,45.1c-2.1,0-3.9-1.7-3.9-3.9c0-2.1,1.7-3.9,3.9-3.9c2.1,0,3.9,1.7,3.9,3.9
			C53.2,43.4,51.5,45.1,49.4,45.1z"/>
	</g>
</g>
</svg>
