<?xml version="1.0" encoding="utf-8"?>
<!-- Generator: Adobe Illustrator 19.0.1, SVG Export Plug-In . SVG Version: 6.00 Build 0)  -->
<svg version="1.1" id="Layer_1" xmlns="http://www.w3.org/2000/svg" xmlns:xlink="http://www.w3.org/1999/xlink" x="0px" y="0px"
	 viewBox="0 0 100 100" style="enable-background:new 0 0 100 100;" xml:space="preserve">
<style type="text/css">
	.st0{fill:none;}
	.st1{fill:#804754;}
	.st2{fill:#D1BF99;}
	.st3{fill:url(#SVGID_1_);}
	.st4{fill:url(#SVGID_2_);}
	.st5{fill:url(#SVGID_3_);}
	.st6{fill:url(#SVGID_4_);}
	.st7{fill:url(#SVGID_5_);}
	.st8{fill:url(#SVGID_6_);}
	.st9{fill:url(#SVGID_7_);}
	.st10{fill:url(#SVGID_8_);}
	.st11{fill:url(#SVGID_9_);}
	.st12{fill:url(#SVGID_10_);}
	.st13{fill:url(#SVGID_11_);}
	.st14{fill:url(#SVGID_12_);}
	.st15{fill:url(#SVGID_13_);}
	.st16{fill:url(#SVGID_14_);}
	.st17{fill:url(#SVGID_15_);}
	.st18{fill:url(#SVGID_16_);}
	.st19{fill:url(#SVGID_17_);}
	.st20{fill:url(#SVGID_18_);}
	.st21{fill:url(#SVGID_19_);}
	.st22{fill:url(#SVGID_20_);}
	.st23{fill:#562636;}
	.st24{fill:url(#SVGID_21_);}
	.st25{fill:url(#SVGID_22_);}
	.st26{fill:url(#SVGID_23_);}
	.st27{fill:url(#SVGID_24_);}
	.st28{fill:url(#SVGID_25_);}
	.st29{fill:url(#SVGID_26_);}
	.st30{fill:url(#SVGID_27_);}
	.st31{fill:#FFFFFF;}
	.st32{fill:url(#SVGID_28_);}
	.st33{fill:url(#SVGID_29_);}
	.st34{fill:url(#SVGID_30_);}
	.st35{fill:url(#SVGID_31_);}
	.st36{fill:url(#SVGID_32_);}
	.st37{fill:url(#SVGID_33_);}
	.st38{fill:url(#SVGID_34_);}
	.st39{fill:url(#SVGID_35_);}
	.st40{fill:url(#SVGID_36_);}
	.st41{fill:url(#SVGID_37_);}
	.st42{fill:url(#SVGID_38_);}
	.st43{fill:url(#SVGID_39_);}
	.st44{fill:url(#SVGID_40_);}
	.st45{fill:url(#SVGID_41_);}
	.st46{fill:url(#SVGID_42_);}
	.st47{fill:url(#SVGID_43_);}
	.st48{fill:url(#SVGID_44_);}
	.st49{fill:url(#SVGID_45_);}
	.st50{fill:url(#SVGID_46_);}
	.st51{fill:url(#SVGID_47_);}
	.st52{fill:url(#SVGID_48_);}
	.st53{fill:url(#SVGID_49_);}
	.st54{fill:url(#SVGID_50_);}
	.st55{fill:url(#SVGID_51_);}
	.st56{fill:url(#SVGID_52_);}
	.st57{fill:url(#SVGID_53_);}
	.st58{fill:url(#SVGID_54_);}
	.st59{fill:url(#SVGID_55_);}
	.st60{fill:url(#SVGID_56_);}
	.st61{fill:url(#SVGID_57_);}
	.st62{fill:url(#SVGID_58_);}
	.st63{fill:url(#SVGID_59_);}
	.st64{fill:url(#SVGID_60_);}
	.st65{fill:url(#SVGID_61_);}
	.st66{fill:url(#SVGID_62_);}
	.st67{fill:url(#SVGID_63_);}
	.st68{fill:#19A95A;}
	.st69{fill:url(#SVGID_64_);}
	.st70{fill:url(#SVGID_65_);}
	.st71{fill:url(#SVGID_66_);}
	.st72{fill:url(#SVGID_67_);}
	.st73{fill:url(#SVGID_68_);}
	.st74{fill:url(#SVGID_69_);}
	.st75{fill:url(#SVGID_70_);}
	.st76{fill:url(#SVGID_71_);}
	.st77{fill:url(#SVGID_72_);}
	.st78{fill:url(#SVGID_73_);}
	.st79{fill:url(#SVGID_74_);}
	.st80{fill:url(#SVGID_75_);}
	.st81{fill:url(#SVGID_76_);}
	.st82{fill:url(#SVGID_77_);}
	.st83{fill:url(#SVGID_78_);}
	.st84{fill:url(#SVGID_79_);}
	.st85{fill:#D9C198;}
	.st86{opacity:0.85;fill:url(#SVGID_80_);}
	.st87{fill:url(#SVGID_81_);}
	.st88{fill:url(#SVGID_82_);}
	.st89{opacity:0.85;fill:url(#SVGID_83_);}
	.st90{fill:url(#SVGID_84_);}
	.st91{opacity:0.85;fill:url(#SVGID_85_);}
	.st92{fill:url(#SVGID_86_);}
	.st93{opacity:0.85;fill:url(#SVGID_87_);}
	.st94{fill:url(#SVGID_88_);}
	.st95{fill:url(#SVGID_89_);}
	.st96{fill:url(#SVGID_90_);}
	.st97{fill:url(#SVGID_91_);}
	.st98{opacity:0.85;fill:url(#SVGID_92_);}
	.st99{fill:url(#SVGID_93_);}
	.st100{opacity:0.85;fill:url(#SVGID_94_);}
	.st101{fill:url(#SVGID_95_);}
	.st102{fill:url(#SVGID_96_);}
	.st103{opacity:0.85;fill:url(#SVGID_97_);}
	.st104{fill:url(#SVGID_98_);}
	.st105{fill:url(#SVGID_99_);}
	.st106{fill:url(#SVGID_100_);}
	.st107{fill:url(#SVGID_101_);}
	.st108{opacity:0.85;}
	.st109{fill:url(#SVGID_102_);}
	.st110{fill:url(#SVGID_103_);}
	.st111{fill:url(#SVGID_104_);}
	.st112{opacity:0.85;fill:url(#SVGID_105_);}
	.st113{fill:url(#SVGID_106_);}
	.st114{opacity:0.85;fill:url(#SVGID_107_);}
	.st115{fill:none;stroke:url(#SVGID_108_);stroke-width:6;stroke-linecap:round;stroke-linejoin:round;stroke-miterlimit:10;}
</style>
<g>
	<linearGradient id="SVGID_1_" gradientUnits="userSpaceOnUse" x1="54.1667" y1="87.3227" x2="54.1667" y2="20.1722">
		<stop  offset="5.076142e-003" style="stop-color:#E2D2B4"/>
		<stop  offset="1" style="stop-color:#D0BE98"/>
	</linearGradient>
	<path style="opacity:0.85;fill:url(#SVGID_1_);" d="M82.8,76.3l-8-11.3h4c0.9,0,1.7-0.5,2.1-1.3c0.4-0.8,0.3-1.7-0.2-2.4l-8.1-11.5
		h3.9c0.9,0,1.7-0.5,2.1-1.3c0.4-0.8,0.3-1.7-0.2-2.4l-12-16.9c-0.4-0.6-1.1-1-1.9-1c-0.7,0-1.5,0.4-1.9,1l-4.1,5.8l-9.9-14
		c-0.4-0.6-1.1-1-1.9-1c-0.7,0-1.5,0.4-1.9,1l-14,19.8c-0.5,0.7-0.6,1.6-0.2,2.4c0.4,0.8,1.2,1.3,2.1,1.3H38L28,58.7
		c-0.5,0.7-0.6,1.6-0.2,2.4c0.4,0.8,1.2,1.3,2.1,1.3h5.5l-9.9,13.9c-0.5,0.7-0.6,1.6-0.2,2.4c0.4,0.8,1.2,1.3,2.1,1.3l17,0V85
		c0,1.3,1,2.3,2.3,2.3c1.3,0,2.3-1,2.3-2.3v-5.1l13.2,0v4.9c0,1.3,1,2.3,2.3,2.3c1.3,0,2.3-1,2.3-2.3v-4.8h14.1
		c0.9,0,1.7-0.5,2.1-1.3C83.4,77.9,83.3,77,82.8,76.3z"/>
	<linearGradient id="SVGID_2_" gradientUnits="userSpaceOnUse" x1="47.931" y1="84.6773" x2="47.931" y2="12.6773">
		<stop  offset="4.568528e-002" style="stop-color:#8D4254"/>
		<stop  offset="1" style="stop-color:#AE565A"/>
	</linearGradient>
	<path class="st4" d="M78.6,72.8L70,60.7h4.3c0.9,0,1.8-0.5,2.2-1.3c0.4-0.8,0.4-1.8-0.2-2.6l-8.7-12.3h4.2c0.9,0,1.8-0.5,2.2-1.3
		c0.4-0.8,0.4-1.8-0.2-2.6L61,22.5c-0.5-0.7-1.2-1-2-1c-0.8,0-1.6,0.4-2,1l-4.4,6.2l-10.6-15c-0.5-0.7-1.2-1-2-1c-0.8,0-1.6,0.4-2,1
		L22.8,34.9c-0.5,0.8-0.6,1.7-0.2,2.6c0.4,0.8,1.3,1.3,2.2,1.3h5.8L19.9,54c-0.5,0.8-0.6,1.7-0.2,2.6c0.4,0.8,1.3,1.3,2.2,1.3h5.9
		L17.2,72.8c-0.5,0.8-0.6,1.7-0.2,2.6c0.4,0.8,1.3,1.3,2.2,1.3l18.2,0v5.5c0,1.4,1.1,2.5,2.5,2.5c1.4,0,2.5-1.1,2.5-2.5v-5.5l14.1,0
		v5.2c0,1.4,1.1,2.5,2.5,2.5c1.4,0,2.5-1.1,2.5-2.5v-5.2h15.1c0.9,0,1.8-0.5,2.2-1.3C79.2,74.6,79.2,73.6,78.6,72.8z M24.1,71.7
		l10.6-14.9c0.5-0.8,0.6-1.7,0.2-2.6c-0.4-0.8-1.3-1.3-2.2-1.3h-5.9l10.7-15.1c0.5-0.8,0.6-1.7,0.2-2.6c-0.4-0.8-1.3-1.3-2.2-1.3
		h-5.8l10.3-14.5l10.3,14.5h-5.8c-0.9,0-1.8,0.5-2.2,1.3c-0.4,0.8-0.4,1.8,0.2,2.6l10.7,15.1h-5.9c-0.9,0-1.8,0.5-2.2,1.3
		c-0.4,0.8-0.4,1.8,0.2,2.6l10.6,14.9L24.1,71.7z M61.9,71.8L52,57.9h5.9c0,0,0,0,0,0c1.4,0,2.5-1.1,2.5-2.5c0-0.6-0.2-1.2-0.6-1.7
		L49.2,38.8H55c0,0,0,0,0,0c1.4,0,2.5-1.1,2.5-2.5c0-0.6-0.2-1.2-0.6-1.7L55.6,33l3.4-4.8l8,11.3h-4.2c-0.9,0-1.8,0.5-2.2,1.3
		c-0.4,0.8-0.4,1.8,0.2,2.6l8.7,12.3h-4.3c-0.9,0-1.8,0.5-2.2,1.3c-0.4,0.8-0.4,1.8,0.2,2.6l8.6,12.1H61.9z"/>
</g>
</svg>
