<?xml version="1.0" encoding="utf-8"?>
<!-- Generator: Adobe Illustrator 19.0.1, SVG Export Plug-In . SVG Version: 6.00 Build 0)  -->
<svg version="1.1" id="Layer_1" xmlns="http://www.w3.org/2000/svg" xmlns:xlink="http://www.w3.org/1999/xlink" x="0px" y="0px"
	 viewBox="0 0 60 60" style="enable-background:new 0 0 60 60;" xml:space="preserve">
<style type="text/css">
	.st0{fill:none;}
	.st1{fill:#804754;}
	.st2{fill:#D1BF99;}
	.st3{fill:url(#SVGID_1_);}
	.st4{fill:url(#SVGID_2_);}
	.st5{fill:url(#SVGID_3_);}
	.st6{fill:url(#SVGID_4_);}
	.st7{fill:url(#SVGID_5_);}
	.st8{fill:url(#SVGID_6_);}
	.st9{fill:url(#SVGID_7_);}
	.st10{fill:url(#SVGID_8_);}
	.st11{fill:url(#SVGID_9_);}
	.st12{fill:url(#SVGID_10_);}
	.st13{fill:url(#SVGID_11_);}
	.st14{fill:url(#SVGID_12_);}
	.st15{fill:url(#SVGID_13_);}
	.st16{fill:url(#SVGID_14_);}
	.st17{fill:url(#SVGID_15_);}
	.st18{fill:url(#SVGID_16_);}
	.st19{fill:url(#SVGID_17_);}
	.st20{fill:url(#SVGID_18_);}
	.st21{fill:url(#SVGID_19_);}
	.st22{fill:url(#SVGID_20_);}
	.st23{fill:#562636;}
	.st24{fill:url(#SVGID_21_);}
	.st25{fill:url(#SVGID_22_);}
	.st26{fill:url(#SVGID_23_);}
	.st27{fill:url(#SVGID_24_);}
	.st28{fill:url(#SVGID_25_);}
	.st29{fill:url(#SVGID_26_);}
	.st30{fill:url(#SVGID_27_);}
	.st31{fill:#FFFFFF;}
	.st32{fill:url(#SVGID_28_);}
	.st33{fill:url(#SVGID_29_);}
	.st34{fill:url(#SVGID_30_);}
	.st35{fill:url(#SVGID_31_);}
	.st36{fill:url(#SVGID_32_);}
	.st37{fill:url(#SVGID_33_);}
	.st38{fill:url(#SVGID_34_);}
	.st39{fill:url(#SVGID_35_);}
	.st40{fill:url(#SVGID_36_);}
	.st41{fill:url(#SVGID_37_);}
	.st42{fill:url(#SVGID_38_);}
	.st43{fill:url(#SVGID_39_);}
	.st44{fill:url(#SVGID_40_);}
	.st45{fill:url(#SVGID_41_);}
	.st46{fill:url(#SVGID_42_);}
	.st47{fill:url(#SVGID_43_);}
	.st48{fill:url(#SVGID_44_);}
	.st49{fill:url(#SVGID_45_);}
	.st50{fill:url(#SVGID_46_);}
	.st51{fill:url(#SVGID_47_);}
	.st52{fill:url(#SVGID_48_);}
	.st53{fill:url(#SVGID_49_);}
	.st54{fill:url(#SVGID_50_);}
	.st55{fill:url(#SVGID_51_);}
	.st56{fill:url(#SVGID_52_);}
	.st57{fill:url(#SVGID_53_);}
	.st58{fill:url(#SVGID_54_);}
	.st59{fill:url(#SVGID_55_);}
	.st60{fill:url(#SVGID_56_);}
	.st61{fill:url(#SVGID_57_);}
	.st62{fill:url(#SVGID_58_);}
	.st63{fill:url(#SVGID_59_);}
	.st64{fill:url(#SVGID_60_);}
	.st65{fill:url(#SVGID_61_);}
	.st66{fill:url(#SVGID_62_);}
	.st67{fill:url(#SVGID_63_);}
	.st68{fill:#19A95A;}
	.st69{fill:url(#SVGID_64_);}
	.st70{fill:url(#SVGID_65_);}
	.st71{fill:url(#SVGID_66_);}
	.st72{fill:url(#SVGID_67_);}
	.st73{fill:url(#SVGID_68_);}
	.st74{fill:url(#SVGID_69_);}
	.st75{fill:url(#SVGID_70_);}
	.st76{fill:url(#SVGID_71_);}
	.st77{fill:url(#SVGID_72_);}
	.st78{fill:url(#SVGID_73_);}
	.st79{fill:url(#SVGID_74_);}
	.st80{fill:url(#SVGID_75_);}
	.st81{fill:url(#SVGID_76_);}
	.st82{fill:url(#SVGID_77_);}
	.st83{fill:url(#SVGID_78_);}
	.st84{fill:url(#SVGID_79_);}
	.st85{fill:#D9C198;}
	.st86{opacity:0.85;fill:url(#SVGID_80_);}
	.st87{fill:url(#SVGID_81_);}
	.st88{fill:url(#SVGID_82_);}
	.st89{opacity:0.85;fill:url(#SVGID_83_);}
	.st90{fill:url(#SVGID_84_);}
	.st91{opacity:0.85;fill:url(#SVGID_85_);}
	.st92{fill:url(#SVGID_86_);}
	.st93{fill:url(#SVGID_87_);}
	.st94{fill:url(#SVGID_88_);}
	.st95{fill:url(#SVGID_89_);}
	.st96{opacity:0.85;fill:url(#SVGID_90_);}
	.st97{fill:url(#SVGID_91_);}
	.st98{opacity:0.85;fill:url(#SVGID_92_);}
	.st99{fill:url(#SVGID_93_);}
	.st100{fill:url(#SVGID_94_);}
	.st101{opacity:0.85;fill:url(#SVGID_95_);}
	.st102{fill:url(#SVGID_96_);}
	.st103{fill:url(#SVGID_97_);}
	.st104{fill:url(#SVGID_98_);}
	.st105{fill:url(#SVGID_99_);}
	.st106{opacity:0.85;}
	.st107{fill:url(#SVGID_100_);}
	.st108{fill:url(#SVGID_101_);}
	.st109{fill:url(#SVGID_102_);}
	.st110{opacity:0.85;fill:url(#SVGID_103_);}
	.st111{fill:url(#SVGID_104_);}
	.st112{opacity:0.85;fill:url(#SVGID_105_);}
	.st113{fill:none;stroke:url(#SVGID_106_);stroke-width:6;stroke-linecap:round;stroke-linejoin:round;stroke-miterlimit:10;}
	.st114{fill:#010202;}
	.st115{fill:url(#SVGID_107_);}
	.st116{fill:#3175BB;}
	.st117{fill:url(#SVGID_108_);}
	.st118{fill:#F0C9A5;}
	.st119{fill:#E3B692;}
	.st120{fill:#7C4454;}
	.st121{fill:#5A3F50;}
	.st122{fill:#262421;}
	.st123{fill:#909090;}
	.st124{fill:url(#SVGID_109_);}
	.st125{fill:url(#SVGID_110_);}
	.st126{fill:none;stroke:#562636;stroke-width:3;stroke-linecap:round;stroke-miterlimit:10;}
	.st127{fill:none;stroke:#562636;stroke-width:3;stroke-linecap:round;stroke-miterlimit:1;}
	.st128{fill:url(#SVGID_111_);}
	.st129{fill:url(#SVGID_112_);}
	.st130{fill:url(#SVGID_113_);}
	.st131{fill:url(#SVGID_114_);}
	.st132{fill:url(#SVGID_115_);}
	.st133{fill:url(#SVGID_116_);}
	.st134{fill:url(#SVGID_117_);}
	.st135{fill:url(#SVGID_118_);}
	.st136{fill:url(#SVGID_119_);}
	.st137{fill:url(#SVGID_120_);}
	.st138{fill:url(#SVGID_121_);}
	.st139{fill:url(#SVGID_122_);}
	.st140{fill:url(#SVGID_123_);}
	.st141{fill:url(#SVGID_124_);}
	.st142{fill:url(#SVGID_125_);}
	.st143{fill:url(#SVGID_126_);}
	.st144{fill:url(#SVGID_127_);}
	.st145{fill:none;stroke:#562636;stroke-width:3;stroke-linecap:round;stroke-linejoin:round;stroke-miterlimit:1;}
	.st146{fill:url(#SVGID_128_);}
	.st147{fill:url(#SVGID_129_);}
	.st148{fill:url(#SVGID_130_);}
	.st149{fill:url(#SVGID_131_);}
	.st150{fill:url(#SVGID_132_);}
	.st151{fill:url(#SVGID_133_);}
	.st152{fill:url(#SVGID_134_);}
	.st153{fill:url(#SVGID_135_);}
	.st154{fill:url(#SVGID_136_);}
	.st155{fill:url(#SVGID_137_);}
	.st156{fill:url(#SVGID_138_);}
	.st157{fill:url(#SVGID_139_);}
	.st158{fill:url(#SVGID_140_);}
	.st159{fill:url(#SVGID_141_);}
	.st160{fill:url(#SVGID_142_);}
	.st161{fill:url(#SVGID_143_);}
	.st162{fill:url(#SVGID_144_);}
	.st163{fill:url(#SVGID_145_);}
	.st164{fill:url(#SVGID_146_);}
	.st165{fill:url(#SVGID_147_);}
	.st166{fill:url(#SVGID_148_);}
	.st167{fill:url(#SVGID_149_);}
	.st168{fill:url(#SVGID_150_);}
	.st169{fill:url(#SVGID_151_);}
	.st170{fill:url(#SVGID_152_);}
	.st171{fill:url(#SVGID_153_);}
	.st172{fill:url(#SVGID_154_);}
	.st173{fill:url(#SVGID_155_);}
	.st174{fill:url(#SVGID_156_);}
	.st175{fill:url(#SVGID_157_);}
	.st176{fill:url(#SVGID_158_);}
	.st177{fill:url(#SVGID_159_);}
	.st178{fill:url(#SVGID_160_);}
	.st179{fill:url(#SVGID_161_);}
	.st180{fill:url(#SVGID_162_);}
	.st181{fill:url(#SVGID_163_);}
	.st182{fill:url(#SVGID_164_);}
	.st183{fill:url(#SVGID_165_);}
	.st184{fill:url(#SVGID_166_);}
	.st185{fill:url(#SVGID_167_);}
	.st186{fill:url(#SVGID_168_);}
	.st187{fill:url(#SVGID_169_);}
	.st188{fill:url(#SVGID_170_);}
</style>
<g>
	<path class="st0" d="M50.2,15.5H7.9c-0.8,0-1.4,0.6-1.4,1.4v29.8c0,0.8,0.6,1.4,1.3,1.4V20.4c0-1.5,1.3-2.8,2.8-2.8h11.5
		c0.1-0.1,0.1-0.1,0.2-0.2c0.5-0.3,1.1-0.2,1.6,0.1l0,0h27.7v-0.7C51.6,16.1,51,15.5,50.2,15.5z"/>
	<linearGradient id="SVGID_1_" gradientUnits="userSpaceOnUse" x1="7.8061" y1="31.3238" x2="55.9716" y2="31.3238">
		<stop  offset="0" style="stop-color:#DADADA"/>
		<stop  offset="1" style="stop-color:#B2B2B2"/>
	</linearGradient>
	<path class="st3" d="M25.3,40.3l0-14.4c0-0.9,1-1.3,1.7-0.8l9.4,7l1-0.8l-12.8-9.5l0,19.1L25.3,40.3z"/>
	<linearGradient id="SVGID_2_" gradientUnits="userSpaceOnUse" x1="7.8061" y1="35.4295" x2="55.9717" y2="35.4295">
		<stop  offset="0" style="stop-color:#DADADA"/>
		<stop  offset="1" style="stop-color:#B2B2B2"/>
	</linearGradient>
	<path class="st4" d="M54.6,18v4.7c0,0.8-0.7,1.5-1.5,1.5s-1.5-0.7-1.5-1.5v-5.1H23.9l16.7,12.5c0.4,0.3,0.6,0.7,0.6,1.2
		s-0.2,0.9-0.6,1.2L38.7,34l0.8,0.6c0.6,0.4,0.6,1.3,0,1.7l-12.6,9.4c-0.7,0.5-1.7,0-1.7-0.8l0-0.8l-1.4,1c-0.3,0.2-0.6,0.3-0.9,0.3
		c-0.2,0-0.5-0.1-0.7-0.2c-0.5-0.3-0.8-0.8-0.8-1.3l0-25.1c0-0.5,0.2-0.9,0.6-1.2H10.6c-1.5,0-2.8,1.3-2.8,2.8v27.7c0,0,0.1,0,0.1,0
		h42.3c0.8,0,1.4-0.6,1.4-1.4V28.3c0-0.8,0.7-1.5,1.5-1.5s1.5,0.7,1.5,1.5v18.5c0,2.4-2,4.4-4.4,4.4H7.9c0.3,1.2,1.4,2.1,2.7,2.1
		h10.1c0.2-0.5,0.8-0.9,1.4-0.9h14c0.6,0,1.1,0.4,1.4,0.9h15.7c1.5,0,2.8-1.3,2.8-2.8v-30C56,19.4,55.4,18.5,54.6,18z"/>
	<linearGradient id="SVGID_3_" gradientUnits="userSpaceOnUse" x1="7.8061" y1="39.9144" x2="55.9716" y2="39.9144">
		<stop  offset="0" style="stop-color:#DADADA"/>
		<stop  offset="1" style="stop-color:#B2B2B2"/>
	</linearGradient>
	<path class="st5" d="M25.3,44.8c0,0.9,1,1.3,1.7,0.8l12.6-9.4c0.6-0.4,0.6-1.2,0-1.7L38.7,34L25.3,44.1L25.3,44.8z"/>
	
		<linearGradient id="SVGID_4_" gradientUnits="userSpaceOnUse" x1="24.8902" y1="41.3941" x2="40.8949" y2="41.3941" gradientTransform="matrix(0.9193 2.407109e-003 2.420739e-003 0.9193 2.2686 1.7806)">
		<stop  offset="0" style="stop-color:#FCC778"/>
		<stop  offset="1" style="stop-color:#F08244"/>
	</linearGradient>
	<path class="st6" d="M25.3,44.8c0,0.9,1,1.3,1.7,0.8l12.6-9.4c0.6-0.4,0.6-1.2,0-1.7L38.7,34L25.3,44.1L25.3,44.8z"/>
	<linearGradient id="SVGID_5_" gradientUnits="userSpaceOnUse" x1="7.8061" y1="32.5898" x2="55.9716" y2="32.5898">
		<stop  offset="0" style="stop-color:#DADADA"/>
		<stop  offset="1" style="stop-color:#B2B2B2"/>
	</linearGradient>
	<path class="st7" d="M25.2,25.9l0,14.4l11-8.2l-9.4-7C26.2,24.6,25.2,25,25.2,25.9z"/>
	
		<linearGradient id="SVGID_6_" gradientUnits="userSpaceOnUse" x1="24.8891" y1="33.4461" x2="40.8949" y2="33.4461" gradientTransform="matrix(0.9193 2.407109e-003 2.420739e-003 0.9193 2.2686 1.7806)">
		<stop  offset="0" style="stop-color:#FCC778"/>
		<stop  offset="1" style="stop-color:#F08244"/>
	</linearGradient>
	<path class="st8" d="M25.2,25.9l0,14.4l11-8.2l-9.4-7C26.2,24.6,25.2,25,25.2,25.9z"/>
	<path class="st23" d="M54.6,46.8V28.3c0-0.8-0.7-1.5-1.5-1.5s-1.5,0.7-1.5,1.5v18.5c0,0.8-0.6,1.4-1.4,1.4H7.9c0,0-0.1,0-0.1,0
		c-0.7,0-1.3-0.7-1.3-1.4V16.9c0-0.8,0.6-1.4,1.4-1.4h42.3c0.8,0,1.4,0.6,1.4,1.4v0.7v5.1c0,0.8,0.7,1.5,1.5,1.5s1.5-0.7,1.5-1.5V18
		v-1.1c0-2.4-2-4.4-4.4-4.4H31.5l9.2-9.2c0.6-0.6,0.6-1.5,0-2.1s-1.5-0.6-2.1,0L27.5,12.3l-8-8c-0.6-0.6-1.5-0.6-2.1,0
		s-0.6,1.5,0,2.1l6.1,6.1H7.9c-2.4,0-4.4,2-4.4,4.4v29.8c0,2.4,2,4.4,4.4,4.4h0h42.3C52.7,51.2,54.6,49.2,54.6,46.8z"/>
	<path class="st23" d="M22.3,17.4c-0.1,0-0.2,0.1-0.2,0.2c-0.4,0.3-0.6,0.7-0.6,1.2l0,25.1c0,0.6,0.3,1.1,0.8,1.3
		c0.2,0.1,0.4,0.2,0.7,0.2c0.3,0,0.6-0.1,0.9-0.3l1.4-1L38.7,34l1.9-1.4c0.4-0.3,0.6-0.7,0.6-1.2s-0.2-0.9-0.6-1.2L23.9,17.6l0,0
		C23.4,17.2,22.8,17.2,22.3,17.4z M37.3,31.3l-1,0.8l-11,8.2l-0.7,0.6l0-19.1L37.3,31.3z"/>
	<path class="st23" d="M36,52.4h-14c-0.6,0-1.1,0.4-1.4,0.9c-0.1,0.2-0.1,0.4-0.1,0.6c0,0.8,0.7,1.5,1.5,1.5h14
		c0.8,0,1.5-0.7,1.5-1.5c0-0.2,0-0.4-0.1-0.6C37.2,52.7,36.7,52.4,36,52.4z"/>
</g>
</svg>
