<?xml version="1.0" encoding="utf-8"?>
<!-- Generator: Adobe Illustrator 19.0.1, SVG Export Plug-In . SVG Version: 6.00 Build 0)  -->
<svg version="1.1" id="Layer_1" xmlns="http://www.w3.org/2000/svg" xmlns:xlink="http://www.w3.org/1999/xlink" x="0px" y="0px"
	 viewBox="0 0 70 70" style="enable-background:new 0 0 70 70;" xml:space="preserve">
<style type="text/css">
	.st0{fill:none;}
	.st1{fill:#804754;}
	.st2{fill:#D1BF99;}
	.st3{fill:url(#SVGID_1_);}
	.st4{fill:url(#SVGID_2_);}
	.st5{fill:url(#SVGID_3_);}
	.st6{fill:url(#SVGID_4_);}
	.st7{fill:url(#SVGID_5_);}
	.st8{fill:url(#SVGID_6_);}
	.st9{fill:url(#SVGID_7_);}
	.st10{fill:url(#SVGID_8_);}
	.st11{fill:url(#SVGID_9_);}
	.st12{fill:url(#SVGID_10_);}
	.st13{fill:url(#SVGID_11_);}
	.st14{fill:url(#SVGID_12_);}
	.st15{fill:url(#SVGID_13_);}
	.st16{fill:url(#SVGID_14_);}
	.st17{fill:url(#SVGID_15_);}
	.st18{fill:url(#SVGID_16_);}
	.st19{fill:url(#SVGID_17_);}
	.st20{fill:url(#SVGID_18_);}
	.st21{fill:url(#SVGID_19_);}
	.st22{fill:url(#SVGID_20_);}
	.st23{fill:#562636;}
	.st24{fill:url(#SVGID_21_);}
	.st25{fill:url(#SVGID_22_);}
	.st26{fill:url(#SVGID_23_);}
	.st27{fill:url(#SVGID_24_);}
	.st28{fill:url(#SVGID_25_);}
	.st29{fill:url(#SVGID_26_);}
	.st30{fill:url(#SVGID_27_);}
	.st31{fill:#FFFFFF;}
	.st32{fill:url(#SVGID_28_);}
	.st33{fill:url(#SVGID_29_);}
	.st34{fill:url(#SVGID_30_);}
	.st35{fill:url(#SVGID_31_);}
	.st36{fill:url(#SVGID_32_);}
	.st37{fill:url(#SVGID_33_);}
	.st38{fill:url(#SVGID_34_);}
	.st39{fill:url(#SVGID_35_);}
	.st40{fill:url(#SVGID_36_);}
	.st41{fill:url(#SVGID_37_);}
	.st42{fill:url(#SVGID_38_);}
	.st43{fill:url(#SVGID_39_);}
	.st44{fill:url(#SVGID_40_);}
	.st45{fill:url(#SVGID_41_);}
	.st46{fill:url(#SVGID_42_);}
	.st47{fill:url(#SVGID_43_);}
	.st48{fill:url(#SVGID_44_);}
	.st49{fill:url(#SVGID_45_);}
	.st50{fill:url(#SVGID_46_);}
	.st51{fill:url(#SVGID_47_);}
	.st52{fill:url(#SVGID_48_);}
	.st53{fill:url(#SVGID_49_);}
	.st54{fill:url(#SVGID_50_);}
	.st55{fill:url(#SVGID_51_);}
	.st56{fill:url(#SVGID_52_);}
	.st57{fill:url(#SVGID_53_);}
	.st58{fill:url(#SVGID_54_);}
	.st59{fill:url(#SVGID_55_);}
	.st60{fill:url(#SVGID_56_);}
	.st61{fill:url(#SVGID_57_);}
	.st62{fill:url(#SVGID_58_);}
	.st63{fill:url(#SVGID_59_);}
	.st64{fill:url(#SVGID_60_);}
	.st65{fill:url(#SVGID_61_);}
	.st66{fill:url(#SVGID_62_);}
	.st67{fill:url(#SVGID_63_);}
	.st68{fill:#19A95A;}
	.st69{fill:url(#SVGID_64_);}
	.st70{fill:url(#SVGID_65_);}
	.st71{fill:url(#SVGID_66_);}
	.st72{fill:url(#SVGID_67_);}
	.st73{fill:url(#SVGID_68_);}
	.st74{fill:url(#SVGID_69_);}
	.st75{fill:url(#SVGID_70_);}
	.st76{fill:url(#SVGID_71_);}
	.st77{fill:url(#SVGID_72_);}
	.st78{fill:url(#SVGID_73_);}
	.st79{fill:url(#SVGID_74_);}
	.st80{fill:url(#SVGID_75_);}
	.st81{fill:url(#SVGID_76_);}
	.st82{fill:url(#SVGID_77_);}
	.st83{fill:url(#SVGID_78_);}
	.st84{fill:url(#SVGID_79_);}
	.st85{fill:#D9C198;}
	.st86{opacity:0.85;fill:url(#SVGID_80_);}
	.st87{fill:url(#SVGID_81_);}
	.st88{fill:url(#SVGID_82_);}
	.st89{opacity:0.85;fill:url(#SVGID_83_);}
	.st90{fill:url(#SVGID_84_);}
	.st91{opacity:0.85;fill:url(#SVGID_85_);}
	.st92{fill:url(#SVGID_86_);}
	.st93{fill:url(#SVGID_87_);}
	.st94{fill:url(#SVGID_88_);}
	.st95{fill:url(#SVGID_89_);}
	.st96{opacity:0.85;fill:url(#SVGID_90_);}
	.st97{fill:url(#SVGID_91_);}
	.st98{opacity:0.85;fill:url(#SVGID_92_);}
	.st99{fill:url(#SVGID_93_);}
	.st100{fill:url(#SVGID_94_);}
	.st101{opacity:0.85;fill:url(#SVGID_95_);}
	.st102{fill:url(#SVGID_96_);}
	.st103{fill:url(#SVGID_97_);}
	.st104{fill:url(#SVGID_98_);}
	.st105{fill:url(#SVGID_99_);}
	.st106{opacity:0.85;}
	.st107{fill:url(#SVGID_100_);}
	.st108{fill:url(#SVGID_101_);}
	.st109{fill:url(#SVGID_102_);}
	.st110{opacity:0.85;fill:url(#SVGID_103_);}
	.st111{fill:url(#SVGID_104_);}
	.st112{opacity:0.85;fill:url(#SVGID_105_);}
	.st113{fill:none;stroke:url(#SVGID_106_);stroke-width:6;stroke-linecap:round;stroke-linejoin:round;stroke-miterlimit:10;}
	.st114{fill:#010202;}
	.st115{fill:url(#SVGID_107_);}
	.st116{fill:#3175BB;}
	.st117{fill:url(#SVGID_108_);}
	.st118{fill:#F0C9A5;}
	.st119{fill:#E3B692;}
	.st120{fill:#7C4454;}
	.st121{fill:#5A3F50;}
	.st122{fill:#262421;}
	.st123{fill:#909090;}
</style>
<g>
	<linearGradient id="SVGID_1_" gradientUnits="userSpaceOnUse" x1="35" y1="65.0004" x2="35" y2="4.9996">
		<stop  offset="0" style="stop-color:#699398"/>
		<stop  offset="1" style="stop-color:#77A1A8"/>
	</linearGradient>
	<circle class="st3" cx="35" cy="35" r="30"/>
	<g>
		<g>
			<path class="st118" d="M35,65c7,0,13.5-2.4,18.6-6.4c-0.5-2.2-1.1-4.6-1.9-6.6c-1.5-2.8-8.3-4.9-12.7-6v-3.8
				c3.6-1.7,6.2-6.1,6.2-14c0-8.2-4.5-12.9-10.1-12.9c-5,0-9.2,3.8-10,10.5c-1.6,0.4-2.7,2.2-2.4,4.3c0.2,1.8,1.4,3.2,2.7,3.6
				c0.9,4.7,3,7.4,5.7,8.5v3.7c-4.4,1.1-11.3,3.2-12.7,6c-0.6,2.2-1.2,4.6-1.7,6.7C21.7,62.7,28.1,65,35,65z"/>
			<path class="st119" d="M44.6,33.7c1.4-0.4,2.6-1.8,2.9-3.6c0.3-2.1-0.8-4-2.5-4.3C44.2,19,40,15.2,35,15.2v21.2V43v2.1v4.5V65
				c7,0,13.5-2.4,18.6-6.4c-0.5-2.2-1.1-4.6-1.9-6.6c-1.5-2.8-8.3-4.9-12.7-6v-3.8C41.6,40.9,43.7,38.2,44.6,33.7z"/>
		</g>
		<g>
			<polygon class="st120" points="40.6,46.4 39.9,47.2 40.6,46.4 			"/>
			<path class="st120" d="M35,65c0-4.1,0-8.2,0-12.3l0,0l-5.6-6.4c-4.3,1.2-9.8,3.1-11.1,5.6c-0.6,2.2-1.2,4.6-1.7,6.7
				C21.7,62.6,28.1,65,35,65z"/>
			<path class="st121" d="M40.6,46.4l-0.7,0.8L35,52.7v0c0,4.1,0,8.2,0,12.3c0,0,0,0,0,0c7,0,13.5-2.4,18.6-6.4
				c-0.5-2.2-1.1-4.6-1.9-6.6C50.4,49.5,44.9,47.6,40.6,46.4L40.6,46.4z"/>
		</g>
		<path class="st122" d="M40.8,16.6c-7.9-4.2-14,0.7-15.5,2.9c-1.4,2.3-1.8,8.6,1.2,12.5c0,0,7.1-4.9,8-7.6c-0.1,2.4,0,4.6,0,4.6
			s4.6-4.5,6-9.3c1,1.6,2.8,5.2,3.3,10.9C46.1,27.3,48.6,17.3,40.8,16.6z"/>
		<g>
			<path class="st31" d="M41.8,47.8c-0.6-1.7-2.1-1.9-2.1-1.9L35,52.8l2.9-2.7l4.4,4.1C42.2,54.1,42,50.5,41.8,47.8z"/>
			<path class="st31" d="M28.1,47.8c-0.2,2.6-0.4,6.3-0.4,6.3l4.4-4.1l2.9,2.7L30.2,46C30.2,46,28.7,46.2,28.1,47.8z"/>
		</g>
	</g>
	<circle class="st0" cx="35" cy="35" r="30"/>
</g>
</svg>
