<?xml version="1.0" encoding="utf-8"?>
<!-- Generator: Adobe Illustrator 19.0.1, SVG Export Plug-In . SVG Version: 6.00 Build 0)  -->
<svg version="1.1" id="Layer_1" xmlns="http://www.w3.org/2000/svg" xmlns:xlink="http://www.w3.org/1999/xlink" x="0px" y="0px"
	 viewBox="0 0 60 60" style="enable-background:new 0 0 60 60;" xml:space="preserve">
<style type="text/css">
	.st0{fill:none;}
	.st1{fill:#804754;}
	.st2{fill:#D1BF99;}
	.st3{fill:url(#SVGID_1_);}
	.st4{fill:url(#SVGID_2_);}
	.st5{fill:url(#SVGID_3_);}
	.st6{fill:url(#SVGID_4_);}
	.st7{fill:url(#SVGID_5_);}
	.st8{fill:url(#SVGID_6_);}
	.st9{fill:url(#SVGID_7_);}
	.st10{fill:url(#SVGID_8_);}
	.st11{fill:url(#SVGID_9_);}
	.st12{fill:url(#SVGID_10_);}
	.st13{fill:url(#SVGID_11_);}
	.st14{fill:url(#SVGID_12_);}
	.st15{fill:url(#SVGID_13_);}
	.st16{fill:url(#SVGID_14_);}
	.st17{fill:url(#SVGID_15_);}
	.st18{fill:url(#SVGID_16_);}
	.st19{fill:url(#SVGID_17_);}
	.st20{fill:url(#SVGID_18_);}
	.st21{fill:url(#SVGID_19_);}
	.st22{fill:url(#SVGID_20_);}
	.st23{fill:#562636;}
	.st24{fill:url(#SVGID_21_);}
	.st25{fill:url(#SVGID_22_);}
	.st26{fill:url(#SVGID_23_);}
	.st27{fill:url(#SVGID_24_);}
	.st28{fill:url(#SVGID_25_);}
	.st29{fill:url(#SVGID_26_);}
	.st30{fill:url(#SVGID_27_);}
	.st31{fill:#FFFFFF;}
	.st32{fill:url(#SVGID_28_);}
	.st33{fill:url(#SVGID_29_);}
	.st34{fill:url(#SVGID_30_);}
	.st35{fill:url(#SVGID_31_);}
	.st36{fill:url(#SVGID_32_);}
	.st37{fill:url(#SVGID_33_);}
	.st38{fill:url(#SVGID_34_);}
	.st39{fill:url(#SVGID_35_);}
	.st40{fill:url(#SVGID_36_);}
	.st41{fill:url(#SVGID_37_);}
	.st42{fill:url(#SVGID_38_);}
	.st43{fill:url(#SVGID_39_);}
	.st44{fill:url(#SVGID_40_);}
	.st45{fill:url(#SVGID_41_);}
	.st46{fill:url(#SVGID_42_);}
	.st47{fill:url(#SVGID_43_);}
	.st48{fill:url(#SVGID_44_);}
	.st49{fill:url(#SVGID_45_);}
	.st50{fill:url(#SVGID_46_);}
	.st51{fill:url(#SVGID_47_);}
	.st52{fill:url(#SVGID_48_);}
	.st53{fill:url(#SVGID_49_);}
	.st54{fill:url(#SVGID_50_);}
	.st55{fill:url(#SVGID_51_);}
	.st56{fill:url(#SVGID_52_);}
	.st57{fill:url(#SVGID_53_);}
	.st58{fill:url(#SVGID_54_);}
	.st59{fill:url(#SVGID_55_);}
	.st60{fill:url(#SVGID_56_);}
	.st61{fill:url(#SVGID_57_);}
	.st62{fill:url(#SVGID_58_);}
	.st63{fill:url(#SVGID_59_);}
	.st64{fill:url(#SVGID_60_);}
	.st65{fill:url(#SVGID_61_);}
	.st66{fill:url(#SVGID_62_);}
	.st67{fill:url(#SVGID_63_);}
	.st68{fill:#19A95A;}
	.st69{fill:url(#SVGID_64_);}
	.st70{fill:url(#SVGID_65_);}
	.st71{fill:url(#SVGID_66_);}
	.st72{fill:url(#SVGID_67_);}
	.st73{fill:url(#SVGID_68_);}
	.st74{fill:url(#SVGID_69_);}
	.st75{fill:url(#SVGID_70_);}
	.st76{fill:url(#SVGID_71_);}
	.st77{fill:url(#SVGID_72_);}
	.st78{fill:url(#SVGID_73_);}
	.st79{fill:url(#SVGID_74_);}
	.st80{fill:url(#SVGID_75_);}
	.st81{fill:url(#SVGID_76_);}
	.st82{fill:url(#SVGID_77_);}
	.st83{fill:url(#SVGID_78_);}
	.st84{fill:url(#SVGID_79_);}
	.st85{fill:#D9C198;}
</style>
<g>
	<linearGradient id="SVGID_1_" gradientUnits="userSpaceOnUse" x1="36.6378" y1="42.4123" x2="54.0531" y2="42.4123">
		<stop  offset="0" style="stop-color:#FCC778"/>
		<stop  offset="1" style="stop-color:#F08244"/>
	</linearGradient>
	<path class="st3" d="M37.4,44.5c3.7-5,10-6.5,15.5-5.6l1.2,0.2l-0.7,1c-3.5,5.2-10,6.8-15.6,5.6l-1.1-0.3L37.4,44.5L37.4,44.5z"/>
	<linearGradient id="SVGID_2_" gradientUnits="userSpaceOnUse" x1="35.5632" y1="16.4503" x2="43.9914" y2="16.4503">
		<stop  offset="0" style="stop-color:#FCC778"/>
		<stop  offset="1" style="stop-color:#F08244"/>
	</linearGradient>
	<path class="st4" d="M37.4,9.5c4.7,3.2,7.5,8.4,6.3,13.5l-0.3,1.1l-1.1-0.7c-4.8-3-8.1-8.6-6.4-13.6l0.4-1L37.4,9.5L37.4,9.5z"/>
	<linearGradient id="SVGID_3_" gradientUnits="userSpaceOnUse" x1="43.5921" y1="31.5235" x2="54.9925" y2="31.5235">
		<stop  offset="0" style="stop-color:#FCC778"/>
		<stop  offset="1" style="stop-color:#F08244"/>
	</linearGradient>
	<path class="st5" d="M54.8,25.2c-0.8,6.1-4.7,12.2-10.2,13.6l-1,0.3l0.2-1.2c1-6.1,4.8-11.6,10.2-13.5L55,24L54.8,25.2L54.8,25.2z"
		/>
	<linearGradient id="SVGID_4_" gradientUnits="userSpaceOnUse" x1="44.0775" y1="21.0348" x2="51.1134" y2="21.0348">
		<stop  offset="0" style="stop-color:#FCC778"/>
		<stop  offset="1" style="stop-color:#F08244"/>
	</linearGradient>
	<path class="st6" d="M49.5,13.7c2.7,4.8,1.9,10.7-2.3,14.8l-1,1l-0.6-1.1c-2.6-4.8-1.9-10.7,2.3-14.8l1-0.9L49.5,13.7L49.5,13.7z"
		/>
	<linearGradient id="SVGID_5_" gradientUnits="userSpaceOnUse" x1="10.9204" y1="21.035" x2="17.9556" y2="21.035">
		<stop  offset="0" style="stop-color:#FCC778"/>
		<stop  offset="1" style="stop-color:#F08244"/>
	</linearGradient>
	<path class="st7" d="M14.1,13.5c4.3,4.2,4.9,10,2.3,14.8l-0.6,1.1l-1-1c-4.2-4.2-5.1-10-2.3-14.8l0.6-1.1L14.1,13.5L14.1,13.5z"/>
	<linearGradient id="SVGID_6_" gradientUnits="userSpaceOnUse" x1="7.9803" y1="42.412" x2="25.3956" y2="42.412">
		<stop  offset="0" style="stop-color:#FCC778"/>
		<stop  offset="1" style="stop-color:#F08244"/>
	</linearGradient>
	<path class="st8" d="M24.3,45.8c-5.5,1.3-12-0.4-15.6-5.6l-0.7-1l1.2-0.2c5.5-1,11.8,0.5,15.5,5.6l0.7,1L24.3,45.8L24.3,45.8z"/>
	<linearGradient id="SVGID_7_" gradientUnits="userSpaceOnUse" x1="18.0423" y1="16.4505" x2="26.47" y2="16.4505">
		<stop  offset="0" style="stop-color:#FCC778"/>
		<stop  offset="1" style="stop-color:#F08244"/>
	</linearGradient>
	<path class="st9" d="M26,9.8c1.7,5-1.5,10.6-6.4,13.6l-1.1,0.7L18.3,23c-1.2-5.1,1.6-10.3,6.3-13.5l1-0.7L26,9.8L26,9.8z"/>
	<linearGradient id="SVGID_8_" gradientUnits="userSpaceOnUse" x1="7.0409" y1="31.5233" x2="18.4423" y2="31.5233">
		<stop  offset="0" style="stop-color:#FCC778"/>
		<stop  offset="1" style="stop-color:#F08244"/>
	</linearGradient>
	<path class="st10" d="M8.1,24.4c5.4,1.9,9.2,7.5,10.2,13.5l0.2,1.2l-1-0.3C11.9,37.4,8,31.3,7.2,25.2L7,24L8.1,24.4L8.1,24.4z"/>
	<linearGradient id="SVGID_9_" gradientUnits="userSpaceOnUse" x1="14.482" y1="49.2188" x2="47.5524" y2="49.2188">
		<stop  offset="0" style="stop-color:#FCC778"/>
		<stop  offset="1" style="stop-color:#F08244"/>
	</linearGradient>
	<path class="st11" d="M29.8,49.1c-1.2,0.7-5.1,2.5-6.5,2.8c-2.5,0.5-5.2,0.6-7.6-0.5l-1.2-0.6l1-0.8c2.4-1.8,4.9-3.5,7.9-3.8
		c2.3-0.1,4.7-0.1,6.9,0.5l0,0l0,0c0.4,0.2,0.9,0.2,1.3,0l0,0l0,0c2.3-0.6,4.6-0.6,6.9-0.5c2.9,0.3,5.5,2,7.8,3.8l1,0.8l-1.2,0.6
		c-2.4,1.2-5.1,1-7.6,0.5c-1.4-0.3-2.6-1.1-3.9-1.8L32.8,49"/>
</g>
<path class="st0" d="M51.4,24.8c-4.1,1.8-7.2,6.2-8.3,11.5C47.6,34.7,50.6,29.6,51.4,24.8z"/>
<path class="st0" d="M36.8,43.6c2.6,0.5,5.3,0.2,7.7-0.7c2.2-0.8,4-2.2,5.4-4C45.6,38.4,40.2,39.4,36.8,43.6z"/>
<path class="st0" d="M46.6,13.5c-3.5,3.6-4.3,8.4-2.1,12.8C48,22.7,48.8,17.8,46.6,13.5z"/>
<path class="st0" d="M35,9.7c-1.1,4.3,1.8,8.8,5.6,11.3C41.2,17,39.1,12.6,35,9.7z"/>
<path class="st0" d="M22.9,9.7c-4.1,2.9-6.2,7.3-5.6,11.3C21.1,18.5,24.1,14,22.9,9.7z"/>
<path class="st0" d="M21.2,43.6c-3.4-4.2-8.8-5.2-13.1-4.6C11.4,43.2,16.8,44.4,21.2,43.6z"/>
<path class="st0" d="M21.4,46.4c-2.3,0.2-4.4,1.4-6.7,3.2c2.4,1.7,6.7,0.8,12.7-2.9C25.7,46.4,23.8,46.3,21.4,46.4z"/>
<path class="st0" d="M30.3,46.8c1.2,1.2,5.6,4.8,12.7,2.6c-2.3-1.7-4.3-2.8-6.5-3C34.1,46.3,32.1,46.4,30.3,46.8z"/>
<path class="st0" d="M11.4,13.5c-2.2,4.2-1.4,9.2,2.1,12.8C15.7,21.9,14.9,17.1,11.4,13.5z"/>
<path class="st23" d="M54,24.3l0.4-3.2l-3,1c-0.7,0.2-1.3,0.5-2,0.9c1.3-3.6,1-7.5-0.9-11l-1.4-2.5L45,11.6c-1.1,1.1-2,2.3-2.7,3.5
	c-1.1-2.9-3.3-5.7-6.3-7.7l-2.3-1.6l-0.9,2.6c-2.1,6.1,2.1,12.1,6.9,15.1l1.5,0.9c0.3,1.2,0.7,2.4,1.3,3.6l0.7,1.4
	c-1.3,2.2-2.2,4.7-2.7,7.4l-0.2,1.2c-2.2,1-4.3,2.6-6,4.8l-0.9,1.2c-1.5,0.1-2.8,0.2-4.1,0.6l-0.1,0c-0.2,0.1-0.3,0.1-0.5,0l-0.1,0
	c-1.3-0.3-2.6-0.5-4.1-0.6l-0.9-1.2c-1.7-2.3-3.7-3.8-6-4.8l-0.2-1.2c-0.4-2.7-1.4-5.2-2.7-7.4l0.7-1.4c0.6-1.2,1-2.3,1.3-3.6
	l1.5-0.9c4.8-3,9-9,6.9-15.1l-0.9-2.6l-2.3,1.6c-3,2-5.2,4.8-6.3,7.7c-0.7-1.3-1.6-2.5-2.7-3.5l-2.1-2.1L9.4,12c-2,3.5-2.3,7.4-1,11
	c-0.6-0.3-1.3-0.6-1.9-0.9l-3-1.1l0.4,3.2c0.2,1.2,0.4,2.4,0.8,3.6c0.2,0.7,0.9,1,1.6,0.8c0.7-0.2,1-0.9,0.8-1.6
	c-0.2-0.8-0.4-1.5-0.6-2.3c4.1,1.8,7.2,6.2,8.3,11.5c-2.7-1-5.1-3.3-6.7-6.5c-0.3-0.6-1.1-0.9-1.7-0.6c-0.6,0.3-0.9,1.1-0.6,1.7
	c1.1,2.2,2.6,4.1,4.2,5.5c-1.1,0-2.2,0.1-3.3,0.3l-3.1,0.5l1.8,2.6c2.4,3.6,6.1,5.5,9.8,6.2c-0.9,0.6-1.9,1.2-2.7,1.9l-2.6,2
	l2.8,1.4c1.4,1.1,3,1.5,4.7,1.5c4.3,0,9-2.8,11.2-4.1c2,1.8,7.5,5.8,16,2.7l3.1-1.5l-2.6-2c-0.9-0.7-1.8-1.3-2.7-1.9
	c1-0.2,1.9-0.4,2.8-0.8c2.9-1.1,5.3-3,7-5.5l1.8-2.6l-3.1-0.5c-1-0.2-2.1-0.3-3.2-0.3C51.4,33.3,53.5,28.5,54,24.3z M22.9,9.7
	c1.1,4.3-1.8,8.8-5.6,11.3C16.7,17,18.9,12.6,22.9,9.7z M11.4,13.5c3.5,3.6,4.3,8.4,2.1,12.8C10,22.7,9.2,17.8,11.4,13.5z M8.1,39
	c4.3-0.5,9.7,0.4,13.1,4.6C16.8,44.4,11.4,43.2,8.1,39z M14.7,49.6c2.4-1.8,4.4-3,6.7-3.2c2.3-0.1,4.3,0,5.9,0.3
	C21.4,50.3,17.2,51.3,14.7,49.6z M30.3,46.8c1.8-0.4,3.8-0.5,6.2-0.4c2.2,0.2,4.3,1.3,6.5,3C35.9,51.7,31.5,48,30.3,46.8z M49.9,39
	c-1.4,1.8-3.2,3.1-5.4,4c-2.4,0.9-5.1,1.1-7.7,0.7C40.2,39.4,45.6,38.4,49.9,39z M46.6,13.5c2.2,4.2,1.4,9.2-2.1,12.8
	C42.3,21.9,43.1,17.1,46.6,13.5z M40.6,21c-3.7-2.5-6.7-7-5.6-11.3C39.1,12.6,41.2,17,40.6,21z M51.4,24.8
	c-0.8,4.8-3.8,9.9-8.3,11.5C44.2,31,47.4,26.7,51.4,24.8z"/>
</svg>
