<?xml version="1.0" encoding="utf-8"?>
<!-- Generator: Adobe Illustrator 19.0.1, SVG Export Plug-In . SVG Version: 6.00 Build 0)  -->
<svg version="1.1" id="Layer_1" xmlns="http://www.w3.org/2000/svg" xmlns:xlink="http://www.w3.org/1999/xlink" x="0px" y="0px"
	 viewBox="0 0 60 60" style="enable-background:new 0 0 60 60;" xml:space="preserve">
<style type="text/css">
	.st0{fill:none;}
	.st1{fill:#804754;}
	.st2{fill:#D1BF99;}
	.st3{fill:url(#SVGID_1_);}
	.st4{fill:url(#SVGID_2_);}
	.st5{fill:url(#SVGID_3_);}
	.st6{fill:url(#SVGID_4_);}
	.st7{fill:url(#SVGID_5_);}
	.st8{fill:url(#SVGID_6_);}
	.st9{fill:url(#SVGID_7_);}
	.st10{fill:url(#SVGID_8_);}
	.st11{fill:url(#SVGID_9_);}
	.st12{fill:url(#SVGID_10_);}
	.st13{fill:url(#SVGID_11_);}
	.st14{fill:url(#SVGID_12_);}
	.st15{fill:url(#SVGID_13_);}
	.st16{fill:url(#SVGID_14_);}
	.st17{fill:url(#SVGID_15_);}
	.st18{fill:url(#SVGID_16_);}
	.st19{fill:url(#SVGID_17_);}
	.st20{fill:url(#SVGID_18_);}
	.st21{fill:url(#SVGID_19_);}
	.st22{fill:url(#SVGID_20_);}
	.st23{fill:#562636;}
	.st24{fill:url(#SVGID_21_);}
	.st25{fill:url(#SVGID_22_);}
	.st26{fill:url(#SVGID_23_);}
	.st27{fill:url(#SVGID_24_);}
	.st28{fill:url(#SVGID_25_);}
	.st29{fill:url(#SVGID_26_);}
	.st30{fill:url(#SVGID_27_);}
	.st31{fill:#FFFFFF;}
	.st32{fill:url(#SVGID_28_);}
	.st33{fill:url(#SVGID_29_);}
	.st34{fill:url(#SVGID_30_);}
	.st35{fill:url(#SVGID_31_);}
	.st36{fill:url(#SVGID_32_);}
	.st37{fill:url(#SVGID_33_);}
	.st38{fill:url(#SVGID_34_);}
	.st39{fill:url(#SVGID_35_);}
	.st40{fill:url(#SVGID_36_);}
	.st41{fill:url(#SVGID_37_);}
	.st42{fill:url(#SVGID_38_);}
	.st43{fill:url(#SVGID_39_);}
	.st44{fill:url(#SVGID_40_);}
	.st45{fill:url(#SVGID_41_);}
	.st46{fill:url(#SVGID_42_);}
	.st47{fill:url(#SVGID_43_);}
	.st48{fill:url(#SVGID_44_);}
	.st49{fill:url(#SVGID_45_);}
	.st50{fill:url(#SVGID_46_);}
	.st51{fill:url(#SVGID_47_);}
	.st52{fill:url(#SVGID_48_);}
	.st53{fill:url(#SVGID_49_);}
	.st54{fill:url(#SVGID_50_);}
	.st55{fill:url(#SVGID_51_);}
	.st56{fill:url(#SVGID_52_);}
	.st57{fill:url(#SVGID_53_);}
	.st58{fill:url(#SVGID_54_);}
	.st59{fill:url(#SVGID_55_);}
	.st60{fill:url(#SVGID_56_);}
	.st61{fill:url(#SVGID_57_);}
	.st62{fill:url(#SVGID_58_);}
	.st63{fill:url(#SVGID_59_);}
	.st64{fill:url(#SVGID_60_);}
	.st65{fill:url(#SVGID_61_);}
	.st66{fill:url(#SVGID_62_);}
	.st67{fill:url(#SVGID_63_);}
	.st68{fill:#19A95A;}
	.st69{fill:url(#SVGID_64_);}
	.st70{fill:url(#SVGID_65_);}
	.st71{fill:url(#SVGID_66_);}
	.st72{fill:url(#SVGID_67_);}
	.st73{fill:url(#SVGID_68_);}
	.st74{fill:url(#SVGID_69_);}
	.st75{fill:url(#SVGID_70_);}
	.st76{fill:url(#SVGID_71_);}
	.st77{fill:url(#SVGID_72_);}
	.st78{fill:url(#SVGID_73_);}
	.st79{fill:url(#SVGID_74_);}
	.st80{fill:url(#SVGID_75_);}
	.st81{fill:url(#SVGID_76_);}
	.st82{fill:url(#SVGID_77_);}
	.st83{fill:url(#SVGID_78_);}
	.st84{fill:url(#SVGID_79_);}
	.st85{fill:#D9C198;}
</style>
<path class="st0" d="M25,6.3c0.1-0.2,0.1-0.4,0.2-0.7c-4.8,1.1-8.6,5-9.6,9.8c0.2-0.1,0.4-0.1,0.7-0.2C17.3,10.9,20.7,7.5,25,6.3z"
	/>
<path class="st0" d="M27.9,6.9C32,6.7,36,8.2,38.8,11c-2.3-3.5-6.2-5.7-10.6-5.7C28.2,5.8,28,6.4,27.9,6.9z"/>
<path class="st0" d="M27.9,31.1c0.5,0,0.9,0,1.4,0c6.6-0.6,11.7-6.2,11.7-12.9c0-0.5,0-1-0.1-1.4c-1.2,0.3-2.4,0.4-3.6,0.4
	c-4.4,0-9.1-1.9-12.1-4.9c-2.4,3.2-6,5.5-10.1,6.2c0.2,6.6,5.3,12,11.8,12.6C27.3,31.1,27.6,31.1,27.9,31.1z"/>
<linearGradient id="SVGID_1_" gradientUnits="userSpaceOnUse" x1="8.1269" y1="44.1036" x2="55.0385" y2="44.1036">
	<stop  offset="0" style="stop-color:#FCC778"/>
	<stop  offset="1" style="stop-color:#F08244"/>
</linearGradient>
<path class="st3" d="M21.2,49.6c-0.8-0.7-1.1-1.7-0.8-2.6l3.1-9.9l-0.8-0.8C15.6,38.9,10.1,44.8,8.6,52h15.3L21.2,49.6z"/>
<linearGradient id="SVGID_2_" gradientUnits="userSpaceOnUse" x1="8.1269" y1="43.4383" x2="55.0385" y2="43.4383">
	<stop  offset="0" style="stop-color:#FCC778"/>
	<stop  offset="1" style="stop-color:#F08244"/>
</linearGradient>
<path class="st4" d="M34.2,34.9l-2,2.1c0,0,0,0.1,0,0.1l3,9.9c0.3,1,0,2-0.8,2.6L31.8,52h17.6C48.7,43.9,42.5,37.2,34.2,34.9z"/>
<linearGradient id="SVGID_3_" gradientUnits="userSpaceOnUse" x1="8.1269" y1="48.7134" x2="55.0385" y2="48.7134">
	<stop  offset="0" style="stop-color:#FCC778"/>
	<stop  offset="1" style="stop-color:#F08244"/>
</linearGradient>
<path class="st5" d="M52.4,55H8.2c0,0.4,0,0.8,0,1.3H55c0-5.8-2.5-11.1-6.6-15c2.5,3.5,4,7.7,4,12.3V55z"/>
<path class="st31" d="M24.4,47.7l3.4-11c0.1-0.4,0-0.8-0.3-1.1l-1-1.1c-0.4,0-0.7,0.1-1.1,0.1l0.4,0.4c0.6,0.7,0.8,1.6,0.6,2.5
	l-3.1,9.9l1,0.9C24.3,48.2,24.3,48,24.4,47.7z"/>
<linearGradient id="SVGID_4_" gradientUnits="userSpaceOnUse" x1="8.1269" y1="45.4099" x2="55.0385" y2="45.4099">
	<stop  offset="0" style="stop-color:#FCC778"/>
	<stop  offset="1" style="stop-color:#F08244"/>
</linearGradient>
<path class="st6" d="M30.9,45.2c0.8,2.5-1.3,4.2-3.2,6.1l0.1,0.1l4.4-3.9l-2.5-8.1C29.8,41.2,30.2,43,30.9,45.2z"/>
<linearGradient id="SVGID_5_" gradientUnits="userSpaceOnUse" x1="24.3258" y1="45.4099" x2="37.2772" y2="45.4099">
	<stop  offset="0" style="stop-color:#EC6348"/>
	<stop  offset="0.9695" style="stop-color:#E8414E"/>
</linearGradient>
<path class="st7" d="M30.9,45.2c0.8,2.5-1.3,4.2-3.2,6.1l0.1,0.1l4.4-3.9l-2.5-8.1C29.8,41.2,30.2,43,30.9,45.2z"/>
<linearGradient id="SVGID_6_" gradientUnits="userSpaceOnUse" x1="8.1269" y1="37.0489" x2="55.0385" y2="37.0489">
	<stop  offset="0" style="stop-color:#FCC778"/>
	<stop  offset="1" style="stop-color:#F08244"/>
</linearGradient>
<path class="st8" d="M32.2,37L32.2,37C32.2,37.1,32.2,37,32.2,37L32.2,37z"/>
<linearGradient id="SVGID_7_" gradientUnits="userSpaceOnUse" x1="24.3258" y1="37.0489" x2="37.2772" y2="37.0489">
	<stop  offset="0" style="stop-color:#EC6348"/>
	<stop  offset="0.9695" style="stop-color:#E8414E"/>
</linearGradient>
<path class="st9" d="M32.2,37L32.2,37C32.2,37.1,32.2,37,32.2,37L32.2,37z"/>
<path class="st31" d="M27.5,35.7c0.3,0.3,0.4,0.7,0.3,1.1l-3.4,11c-0.1,0.2-0.1,0.5,0,0.7l3.3,2.9c1.8-1.9,4-3.6,3.2-6.1
	c-0.7-2.2-1.1-4-1.1-5.8l-0.5-1.8c-0.3-0.9,0-1.8,0.6-2.5l0.9-0.9c-0.2,0-0.3,0-0.5-0.1c-1.2,0.1-2.5,0.3-3.7,0.4L27.5,35.7z"/>
<linearGradient id="SVGID_8_" gradientUnits="userSpaceOnUse" x1="24.3293" y1="42.7483" x2="37.2807" y2="42.7483">
	<stop  offset="0" style="stop-color:#EC6348"/>
	<stop  offset="0.9695" style="stop-color:#E8414E"/>
</linearGradient>
<path class="st10" d="M27.5,35.7c0.3,0.3,0.4,0.7,0.3,1.1l-3.4,11c-0.1,0.2-0.1,0.5,0,0.7l3.3,2.9c1.8-1.9,4-3.6,3.2-6.1
	c-0.7-2.2-1.1-4-1.1-5.8l-0.5-1.8c-0.3-0.9,0-1.8,0.6-2.5l0.9-0.9c-0.2,0-0.3,0-0.5-0.1c-1.2,0.1-2.5,0.3-3.7,0.4L27.5,35.7z"/>
<linearGradient id="SVGID_9_" gradientUnits="userSpaceOnUse" x1="15.7257" y1="10.764" x2="27.4309" y2="10.764">
	<stop  offset="0" style="stop-color:#EC6348"/>
	<stop  offset="0.9695" style="stop-color:#E8414E"/>
</linearGradient>
<path class="st11" d="M16.1,15.2c4.3-1.3,7.6-4.7,8.8-8.9C20.7,7.5,17.3,10.9,16.1,15.2z"/>
<linearGradient id="SVGID_10_" gradientUnits="userSpaceOnUse" x1="25.7169" y1="8.9485" x2="37.4221" y2="8.9485" gradientTransform="matrix(0.3338 1.09 -1.09 0.3338 32.8155 -25.627)">
	<stop  offset="0" style="stop-color:#EC6348"/>
	<stop  offset="0.9695" style="stop-color:#E8414E"/>
</linearGradient>
<path class="st12" d="M27.9,6.9c-0.3,0.9-0.6,1.8-1,2.7c2.4,2.7,6.7,4.5,10.5,4.5c1,0,1.9-0.1,2.9-0.3c-0.4-1-0.9-2-1.4-2.9
	C36,8.2,32,6.7,27.9,6.9z"/>
<path class="st23" d="M9.3,43.8c0.4-0.7,0.2-1.6-0.5-2.1c-0.7-0.4-1.6-0.2-2.1,0.5c-2.2,3.4-3.3,7.3-3.3,11.3V55h4.7h44.3v-1.5
	c0-4.5-1.5-8.7-4-12.3c-3-4.2-7.4-7.4-12.7-9c5-2.7,8.3-8,8.3-14c0-1.2-0.2-2.4-0.4-3.7C41.9,7.3,35.5,2.3,28.1,2.3
	c-0.4,0-0.9,0-1.3,0.1c0,0,0,0,0,0c-7.8,0.6-14,7-14.6,14.8l0,0c0,0.1,0,0.2-0.1,0.3l0,0.1c0,0.2,0,0.3,0,0.6c0,6,3.3,11.2,8.2,13.9
	c-3.5,1-6.7,2.8-9.4,5.1c-0.6,0.5-0.7,1.5-0.1,2.1c0.5,0.6,1.5,0.7,2.1,0.1c2.5-2.2,5.4-3.7,8.6-4.6l1.2,1.3l0.8,0.8L20.4,47
	c-0.3,0.9,0,2,0.8,2.6l2.7,2.4H8.6H6.5C6.8,49.1,7.7,46.3,9.3,43.8z M26.5,37.7c0.3-0.9,0-1.8-0.6-2.5l-0.4-0.4
	c0.3,0,0.7-0.1,1.1-0.1c1.2-0.2,2.5-0.3,3.7-0.4c0.2,0,0.3,0,0.5,0.1l-0.9,0.9c-0.6,0.7-0.8,1.6-0.6,2.5l0.5,1.8l2.5,8.1l-4.4,3.9
	l-0.1-0.1l-3.3-2.9l-1-0.9L26.5,37.7z M31.8,52l2.7-2.4c0.8-0.7,1.1-1.7,0.8-2.6l-3-9.9l0-0.1l0,0l2-2.1c8.3,2.3,14.5,9,15.2,17.1
	H31.8z M38.8,11c0.6,0.9,1.1,1.8,1.4,2.9c-1,0.2-1.9,0.3-2.9,0.3c-3.8,0-8.1-1.9-10.5-4.5c0.4-0.9,0.8-1.8,1-2.7
	c0.1-0.5,0.3-1.1,0.4-1.7C32.6,5.3,36.5,7.5,38.8,11z M25.1,5.6c0,0.2-0.1,0.4-0.2,0.7c-1.2,4.3-4.6,7.7-8.8,8.9
	c-0.2,0.1-0.4,0.1-0.7,0.2C16.6,10.6,20.4,6.8,25.1,5.6z M15.2,18.5c4.1-0.7,7.7-3,10.1-6.2c3.1,3,7.7,4.9,12.1,4.9
	c1.2,0,2.4-0.1,3.6-0.4c0.1,0.5,0.1,1,0.1,1.4c0,6.7-5.2,12.3-11.7,12.9c-0.5,0-0.9,0-1.4,0c-0.3,0-0.7,0-1,0
	C20.5,30.5,15.4,25.1,15.2,18.5z"/>
</svg>
