<?xml version="1.0" standalone="no"?>
<!DOCTYPE svg PUBLIC "-//W3C//DTD SVG 1.1//EN" "http://www.w3.org/Graphics/SVG/1.1/DTD/svg11.dtd" >
<svg xmlns="http://www.w3.org/2000/svg" xmlns:xlink="http://www.w3.org/1999/xlink" version="1.1">
<metadata>
Created by FontForge 20150824 at Mon Jul 11 06:52:19 2016
 By Everything Fonts
Copyright (c) 2011, Joe Prince, Admix Designs (http://www.admixdesigns.com/) with Reserved Font Name Varela Round.
</metadata>
<defs>
<font id="VarelaRoundRegular" horiz-adv-x="628" >
  <font-face 
    font-family="VarelaRoundRegular"
    font-weight="400"
    font-stretch="normal"
    units-per-em="1000"
    panose-1="2 0 0 0 0 0 0 0 0 0"
    ascent="800"
    descent="-200"
    x-height="510"
    cap-height="703"
    bbox="-140 -286 988 918"
    underline-thickness="50"
    underline-position="-150"
    unicode-range="U+0020-FB06"
  />
<missing-glyph horiz-adv-x="514" 
d="M441 698q22 0 37.5 -15.5t15.5 -37.5v-593q0 -22 -15.5 -37t-37.5 -15h-369q-22 0 -37 15t-15 37v593q0 22 15 37.5t37 15.5h369zM444 602l-158 -253l158 -253v506zM100 648l157 -251l156 251h-313zM227 349l-157 253v-506zM413 50l-156 252l-157 -252h313z" />
    <glyph glyph-name=".notdef" horiz-adv-x="514" 
d="M441 698q22 0 37.5 -15.5t15.5 -37.5v-593q0 -22 -15.5 -37t-37.5 -15h-369q-22 0 -37 15t-15 37v593q0 22 15 37.5t37 15.5h369zM444 602l-158 -253l158 -253v506zM100 648l157 -251l156 251h-313zM227 349l-157 253v-506zM413 50l-156 252l-157 -252h313z" />
    <glyph glyph-name=".null" horiz-adv-x="0" 
 />
    <glyph glyph-name="nonmarkingreturn" horiz-adv-x="333" 
 />
    <glyph glyph-name="space" unicode=" " horiz-adv-x="260" 
 />
    <glyph glyph-name="exclam" unicode="!" horiz-adv-x="281" 
d="M141 193q-32 0 -34 29l-18 330v99q0 22 15 37t37 15t36.5 -15t14.5 -37v-99l-18 -330q-2 -29 -33 -29zM99.5 97.5q17.5 17.5 42 17.5t42 -17.5t17.5 -42t-17.5 -42t-42 -17.5t-42 17.5t-17.5 42t17.5 42z" />
    <glyph glyph-name="quotedbl" unicode="&#x22;" horiz-adv-x="411" 
d="M66.5 602q-3.5 24 -5 45t-1.5 45.5t15.5 39.5t35.5 15t35 -15q16 -15 16 -39.5t-1.5 -45.5t-5 -45t-8 -46.5t-7.5 -35.5q-5 -28 -29 -28q-12 0 -19.5 7.5t-10 20.5t-7 35.5t-8 46.5zM255.5 602q-3.5 24 -5 45t-1.5 45.5t15.5 39.5t35.5 15t35 -15q16 -15 16 -39.5
t-1.5 -45.5t-5 -45t-8 -46.5t-6.5 -35.5q-6 -28 -30 -28q-12 0 -19.5 7.5t-10 20.5t-7 35.5t-8 46.5z" />
    <glyph glyph-name="numbersign" unicode="#" horiz-adv-x="612" 
d="M134.5 5q-10.5 10 -10.5 19t24 158h-77q-14 0 -24.5 10.5t-10.5 24.5t10.5 24.5t24.5 10.5h88l24 152h-77q-14 0 -24.5 10.5t-10.5 24.5t10.5 24.5t24.5 10.5h88l25 158q2 11 11.5 19.5t24.5 8.5t24.5 -10t9.5 -18t-0.5 -11.5t-2.5 -18t-7 -44.5l-14 -84h127l25 158
q2 11 11.5 19.5t24.5 8.5t24.5 -10t9.5 -18t-0.5 -11.5t-2.5 -18t-7 -44.5l-14 -84h77q14 0 24.5 -10.5t10.5 -24.5t-10.5 -24.5t-24.5 -10.5h-88l-24 -152h77q14 0 24.5 -10.5t10.5 -24.5t-10.5 -24.5t-24.5 -10.5h-88l-25 -158q-2 -11 -11.5 -20t-23.5 -9t-24.5 10
t-10.5 19t24 158h-127l-25 -158q-2 -11 -11.5 -20t-23.5 -9t-24.5 10zM381 404h-127l-24 -152h127z" />
    <glyph glyph-name="dollar" unicode="$" horiz-adv-x="612" 
d="M334 387q42 -10 84 -23t76 -35q75 -50 75 -144q0 -81 -64 -135t-171 -60v-78q0 -10 -6.5 -16t-16.5 -6q-22 0 -22 22v78q-113 5 -214 48q-28 13 -28 34.5t11 33.5t25.5 12t34.5 -9q70 -31 171 -34v229q-111 29 -152 56t-62 60t-21 78t15 80.5t45 63.5q64 59 175 65v78
q0 10 6 16.5t16 6.5t16.5 -6.5t6.5 -16.5v-77q101 -4 178 -33q28 -10 28 -40q0 -15 -10.5 -28t-23 -13t-33.5 8q-61 21 -139 23v-238zM144 510q0 -66 88 -96q27 -9 57 -16v225q-63 -6 -104 -34.5t-41 -78.5zM334 76q103 7 134 65q11 21 11 46.5t-11.5 41t-31.5 27.5
q-29 18 -102 37v-217z" />
    <glyph glyph-name="percent" unicode="%" horiz-adv-x="814" 
d="M204 715q77 0 120 -52q41 -49 41 -127t-41 -127q-43 -52 -120 -52q-76 0 -120 52q-41 47 -41 127q0 123 91 165q30 14 70 14zM204 422q45 0 68 33t23 81t-23 81t-68 33t-68 -33t-23 -81t23 -81t68 -33zM610 340q77 0 120 -52q41 -49 41 -127t-41 -127q-43 -52 -120 -52
q-76 0 -120 52q-41 47 -41 127q0 123 91 165q30 14 70 14zM610 47q45 0 68 33t23 81t-23 81t-68 33t-68 -33t-23 -81t23 -81t68 -33zM635.5 699q9.5 -8 9.5 -20.5t-7 -23.5l-404 -647q-11 -18 -27 -18t-26 9.5t-10 21t5 19.5l407 651q10 16 26.5 16t26 -8z" />
    <glyph glyph-name="ampersand" unicode="&#x26;" horiz-adv-x="732" 
d="M521 68q-91 -78 -205 -78q-123 0 -189 66q-56 56 -56 140q0 68 41 125q32 43 72 67q-26 32 -43.5 64.5t-17.5 74t13 73.5t37 56q52 52 137 52q67 0 133 -44q18 -10 18 -27t-10 -27.5t-21.5 -10.5t-26.5 8q-43 23 -79 23t-56 -8t-34 -21q-27 -26 -27 -56t5.5 -47t17.5 -34
q17 -26 77 -81l209 -197q17 26 27.5 49t21 30t26 7t27.5 -11.5t12 -25.5q0 -32 -53 -106l67 -64q16 -14 16 -31t-10.5 -29.5t-29.5 -12.5t-32 12zM239 332q-55 -35 -75 -92q-7 -21 -7 -48t12 -50.5t32 -39.5q42 -35 99 -35t95 16.5t67 39.5z" />
    <glyph glyph-name="quotesingle" unicode="'" horiz-adv-x="238" 
d="M174.5 726.5q16.5 -16.5 16.5 -39.5v-59q0 -53 -27 -94q-19 -30 -55 -52q-5 -5 -17.5 -5t-20.5 9t-8 23t15 23q22 13 36.5 32.5t14.5 60.5h-4q-23 0 -39.5 16.5t-16.5 39.5v6q0 23 16.5 39.5t39.5 16.5h10q23 0 39.5 -16.5z" />
    <glyph glyph-name="parenleft" unicode="(" horiz-adv-x="312" 
d="M259 -93q6 -11 6 -25t-12 -25t-26.5 -11t-21 5t-13.5 13q-72 86 -106.5 201.5t-34.5 241.5t34.5 241.5t106.5 201.5q7 8 13.5 13t21 5t26.5 -11t12 -25.5t-6 -24.5q-117 -196 -117 -400t117 -400z" />
    <glyph glyph-name="parenright" unicode=")" horiz-adv-x="312" 
d="M60 -143q-12 11 -12 25t6 25q117 196 117 400t-117 400q-6 10 -6 24.5t12 25.5t26.5 11t21 -5t13.5 -13q72 -86 106.5 -201.5t34.5 -241.5t-34.5 -241.5t-106.5 -201.5q-7 -8 -13.5 -13t-21 -5t-26.5 11z" />
    <glyph glyph-name="asterisk" unicode="*" horiz-adv-x="417" 
d="M236 543l100 -39q14 -7 14 -20q0 -27 -22 -34q-14 -5 -25 4q-3 2 -27 21.5t-54 43.5q6 -38 9 -59l5 -32q1 -10 1.5 -12t0.5 -9t-9.5 -15t-20.5 -8t-20.5 8t-9.5 15v9q0 5 5 35t11 68q-84 -67 -89.5 -70t-16.5 1q-22 7 -22 27t14 27q1 0 3 1t11.5 5t29.5 11.5t56 21.5
l-100 39q-14 9 -14 21q0 27 22 34q11 4 22 -3q1 0 27.5 -21.5t56.5 -45.5q-16 101 -16 103v3q0 13 9.5 21t20.5 8t20.5 -8t9.5 -15t-0.5 -9t-1.5 -12l-5 -32q-3 -21 -9 -59l84 67q11 7 22 3q22 -7 22 -26.5t-14 -28.5q-1 0 -3 -1t-11.5 -5t-29.5 -11.5t-56 -21.5z" />
    <glyph glyph-name="plus" unicode="+" horiz-adv-x="562" 
d="M511 373q11 -11 11 -28t-11 -27.5t-28 -10.5h-163v-164q0 -17 -11 -28t-28 -11t-28 11t-11 28v164h-164q-17 0 -27.5 10.5t-10.5 27.5t10.5 28t27.5 11h164v164q0 17 11 28t28 11t28 -11t11 -28v-164h163q17 0 28 -11z" />
    <glyph glyph-name="comma" unicode="," horiz-adv-x="260" 
d="M174.5 98.5q16.5 -16.5 16.5 -39.5v-59q0 -53 -27 -94q-19 -30 -55 -52q-5 -5 -17.5 -5t-20.5 9t-8 23t15 23q22 13 36.5 32.5t14.5 60.5h-4q-23 0 -39.5 16.5t-16.5 39.5v6q0 23 16.5 39.5t39.5 16.5h10q23 0 39.5 -16.5z" />
    <glyph glyph-name="hyphen" unicode="-" horiz-adv-x="408" 
d="M327 309q12 -12 12 -29t-12 -28.5t-29 -11.5h-189q-17 0 -28.5 11.5t-11.5 28.5t11.5 29t28.5 12h189q17 0 29 -12z" />
    <glyph glyph-name="period" unicode="." horiz-adv-x="260" 
d="M174.5 98.5q16.5 -16.5 16.5 -39.5v-6q0 -23 -16.5 -39.5t-39.5 -16.5h-10q-23 0 -39.5 16.5t-16.5 39.5v6q0 23 16.5 39.5t39.5 16.5h10q23 0 39.5 -16.5z" />
    <glyph glyph-name="slash" unicode="/" horiz-adv-x="443" 
d="M316 736q9 28 40 28q17 0 28.5 -12t11.5 -22q0 -16 -3 -22l-265 -775q-9 -28 -39 -28q-18 0 -29.5 12t-11.5 23q0 15 3 21z" />
    <glyph glyph-name="zero" unicode="0" 
d="M314 708q67 0 118 -26t85 -74q68 -94 68 -259q0 -166 -68 -260q-72 -99 -203 -99t-203 99q-68 94 -68 260q0 165 68 259q71 100 203 100zM314 74q88 0 134 74q46 73 46 201q0 127 -46 200q-46 74 -134.5 74t-134 -74t-45.5 -200q0 -128 46 -201q46 -74 134 -74z" />
    <glyph glyph-name="one" unicode="1" 
d="M516.5 72.5q12.5 -12.5 12.5 -30.5t-12.5 -30t-30.5 -12h-309q-18 0 -30 12t-12 30t12 30.5t30 12.5h119v507l-102 -50l-10 -4t-18.5 -2t-25.5 12t-12 35.5t26 36.5l136 71q14 7 28 7h21q20 0 34 -14t14 -34v-565h99q18 0 30.5 -12.5z" />
    <glyph glyph-name="two" unicode="2" 
d="M534.5 72.5q12.5 -12.5 12.5 -30.5t-12.5 -30t-30.5 -12h-386q-23 0 -38 14.5t-15 37.5q0 53 29.5 95t74 78t96.5 68t96.5 64t74 66t29.5 68t-8.5 56.5t-26.5 38.5q-40 36 -123 36q-89 0 -171 -36q-10 -5 -23 -5t-23.5 11t-10.5 32t22 33q102 51 222 51q98 0 163 -56
q67 -57 67 -147q0 -91 -91 -175q-40 -36 -87.5 -68t-91.5 -61.5t-79 -58t-48 -57.5h348q18 0 30.5 -12.5z" />
    <glyph glyph-name="three" unicode="3" 
d="M528 528q0 -121 -121 -167q95 -23 131 -100q15 -32 15 -79t-20 -83t-55 -60q-71 -49 -184 -49q-110 0 -209 40q-26 12 -26 38q0 16 11 29t24.5 13t33.5 -8q62 -25 149 -25q125 0 169 57q16 21 16 54q0 126 -221 126h-16q-17 0 -29.5 12.5t-12.5 29.5t12.5 29.5t29.5 12.5
h6q206 0 206 121q0 47 -38.5 75.5t-119.5 28.5q-82 0 -155 -33q-8 -4 -20.5 -4t-23.5 10t-11 30t20 31q94 51 204 51t172.5 -47t62.5 -133z" />
    <glyph glyph-name="four" unicode="4" 
d="M555 257q17 0 29 -12t12 -29t-12 -28.5t-29 -11.5h-76v-136q0 -19 -13.5 -32t-32.5 -13t-32 13t-13 32v136h-305q-24 0 -41 16.5t-17 40.5v9q0 21 12 36l314 401q17 24 50 24h20q26 0 42 -17t16 -41v-388h76zM388 257v343l-266 -343h266z" />
    <glyph glyph-name="five" unicode="5" 
d="M169 401q75 41 169 41q111 0 174 -64q59 -61 59 -162q0 -158 -151 -208q-52 -18 -122 -18q-122 0 -214 58q-20 12 -20 32.5t11 33.5t25.5 13t35.5 -11q69 -36 149 -36q143 0 181 73q14 27 14 68q0 62 -41.5 98t-102.5 36q-93 0 -165 -43q-21 -12 -42 -12t-40 15.5
t-19 42.5q0 14 2 24l45 266q3 23 17.5 36.5t35.5 13.5h321q18 0 30.5 -12.5t12.5 -30.5t-12.5 -30t-30.5 -12h-290z" />
    <glyph glyph-name="six" unicode="6" 
d="M278 444q32 8 78 8t88 -16.5t72 -47.5q64 -65 64 -171q0 -97 -66 -161q-68 -66 -181 -66q-114 0 -181 62q-79 75 -90 222q-3 40 -3 86t14.5 110t48 116.5t89 87t128.5 34.5t115 -13.5t72 -29.5q21 -12 21 -32t-11 -32.5t-25.5 -12.5t-30.5 8q-54 24 -121.5 24
t-107.5 -27.5t-63 -66.5q-36 -65 -42 -162q44 58 132 80zM254 90q33 -15 74.5 -15t70 11.5t48.5 31.5q42 42 42 104.5t-37 104.5t-112 42q-78 0 -130 -40q-36 -27 -59 -70q18 -130 103 -169z" />
    <glyph glyph-name="seven" unicode="7" 
d="M551 683q16 -15 16 -37.5t-10 -44.5l-284 -581q-14 -25 -38.5 -25t-37 12.5t-12.5 28.5t6 28l275 547h-363q-18 0 -30.5 12.5t-12.5 30.5t12.5 31t30.5 13h408q24 0 40 -15z" />
    <glyph glyph-name="eight" unicode="8" 
d="M548 525q0 -30 -9.5 -54.5t-25.5 -43.5q-30 -35 -81 -53q67 -23 108 -67.5t41 -121.5q0 -79 -59 -131q-72 -64 -208 -64t-208 64q-59 52 -59 130t41 122.5t108 67.5q-80 28 -106 96q-10 25 -10 55t12 62t40 59q63 62 182 62t182 -62q52 -51 52 -121zM314 70q91 0 138 46
q38 35 38 74t-14.5 64t-39.5 42q-48 34 -121.5 34t-122.5 -34q-54 -37 -54 -101q0 -44 38 -79q47 -46 138 -46zM314 412q74 0 112 37q31 30 31 72.5t-35 74.5t-108 32t-108 -32t-35 -74.5t34.5 -76t108.5 -33.5z" />
    <glyph glyph-name="nine" unicode="9" 
d="M350 254q-32 -8 -78 -8t-88 16.5t-72 47.5q-64 65 -64 171q0 98 66 161q70 66 181 66q114 0 181 -62q79 -75 90 -222q3 -40 3 -86.5t-14.5 -110t-48 -116t-89.5 -87t-128.5 -34.5t-114.5 13.5t-72 29.5q-21 12 -21 32t11 32.5t25 12.5t31 -8q56 -24 122 -24t106.5 27.5
t63.5 66.5q36 65 42 162q-44 -58 -132 -80zM374 608q-33 15 -74.5 15t-70 -11.5t-48.5 -31.5q-42 -42 -42 -104.5t37 -104.5t112 -42q78 0 130 40q36 27 59 70q-18 130 -103 169z" />
    <glyph glyph-name="colon" unicode=":" horiz-adv-x="260" 
d="M135 115q23 0 39.5 -16.5t16.5 -39.5v-6q0 -23 -16.5 -39.5t-39.5 -16.5h-10q-23 0 -39.5 16.5t-16.5 39.5v6q0 23 16.5 39.5t39.5 16.5h10zM135 513q23 0 39.5 -16.5t16.5 -39.5v-6q0 -23 -16.5 -39.5t-39.5 -16.5h-10q-23 0 -39.5 16.5t-16.5 39.5v6q0 23 16.5 39.5
t39.5 16.5h10z" />
    <glyph glyph-name="semicolon" unicode=";" horiz-adv-x="260" 
d="M135 115q23 0 39.5 -16.5t16.5 -39.5v-59q0 -53 -27 -94q-19 -30 -55 -52q-5 -5 -17.5 -5t-20.5 9t-8 23t15 23q22 13 36.5 32.5t14.5 60.5h-4q-23 0 -39.5 16.5t-16.5 39.5v6q0 23 16.5 39.5t39.5 16.5h10zM135 513q23 0 39.5 -16.5t16.5 -39.5v-6q0 -23 -16.5 -39.5
t-39.5 -16.5h-10q-23 0 -39.5 16.5t-16.5 39.5v6q0 23 16.5 39.5t39.5 16.5h10z" />
    <glyph glyph-name="less" unicode="&#x3c;" horiz-adv-x="580" 
d="M514.5 69.5q-11.5 -11.5 -24.5 -11.5t-20 3l-399 179q-36 17 -36 52v8q0 35 36 52l399 179q7 3 20 3t24.5 -11.5t11.5 -26.5q0 -29 -27 -40l-360 -160l360 -160q12 -5 19.5 -15.5t7.5 -25t-11.5 -26z" />
    <glyph glyph-name="equal" unicode="=" horiz-adv-x="712" 
d="M112 404q-17 0 -28 11t-11 28t11 28t28 11h488q17 0 28 -11t11 -28t-11 -28t-28 -11h-488zM600 258q17 0 28 -11t11 -28t-11 -28t-28 -11h-488q-17 0 -28 11t-11 28t11 28t28 11h488z" />
    <glyph glyph-name="greater" unicode="&#x3e;" horiz-adv-x="580" 
d="M110 61q-8 -3 -20.5 -3t-24 11.5t-11.5 26.5q0 29 27 40l360 160l-360 160q-12 5 -19.5 15.5t-7.5 25t11.5 26t24 11.5t20.5 -3l399 -179q36 -17 36 -52v-8q0 -35 -36 -52z" />
    <glyph glyph-name="question" unicode="?" horiz-adv-x="497" 
d="M362 514q0 109 -143 109q-78 0 -128 -33q-13 -8 -27.5 -8t-26 11.5t-11.5 26.5q0 25 25 40q78 48 176 48q103 0 163 -51q62 -52 62 -138q0 -90 -94 -159q-55 -41 -79 -80q-14 -23 -14 -47.5t-13.5 -35.5t-31.5 -11t-30.5 11.5t-12.5 27.5q0 99 93 171q60 48 76 70.5
t16 47.5zM177.5 97.5q17.5 17.5 42 17.5t42 -17.5t17.5 -42t-17.5 -42t-42 -17.5t-42 17.5t-17.5 42t17.5 42z" />
    <glyph glyph-name="at" unicode="@" horiz-adv-x="898" 
d="M458 513q74 0 128 -51l3 17q2 14 12.5 22.5t25 8.5t25 -10.5t10.5 -19.5v-11q0 -2 -1 -7l-33 -190q-7 -42 -7 -66.5t11.5 -44t38.5 -19.5q63 0 96 55t33 136t-28.5 136t-75.5 92q-93 74 -223 74q-76 0 -143.5 -30t-118.5 -81t-80.5 -118.5t-29.5 -132.5t19.5 -117.5
t57.5 -93.5q85 -93 222 -93q65 0 102 10q46 12 79.5 25t41.5 13t15 -6.5t7 -20t-14 -20.5q-106 -53 -231 -53q-80 0 -145 28.5t-111 76t-70.5 110t-24.5 139.5t34 154t91.5 135.5t134.5 93t159 34.5t151.5 -25.5t121.5 -71t82.5 -109t30.5 -140.5q0 -100 -42 -168
q-51 -79 -144 -79q-75 0 -102 47q-7 14 -10 27q-62 -75 -165 -75q-80 0 -127 50q-43 48 -43 116t20.5 113.5t53.5 76.5q67 63 163 63zM575 396q-43 46 -113 46q-68 0 -114 -42q-50 -46 -50 -120q0 -59 34 -90q30 -27 81 -27q85 0 124 71q15 27 22 69z" />
    <glyph glyph-name="A" unicode="A" horiz-adv-x="697" 
d="M667 60q5 -12 5 -25.5t-12 -26.5t-38 -13t-38 28l-65 156h-340l-65 -156q-12 -28 -38 -28t-38 13t-12 26.5t5 25.5l255 602q18 41 58 41h10q40 0 58 -41zM484 262l-135 325l-135 -325h270z" />
    <glyph glyph-name="B" unicode="B" horiz-adv-x="693" 
d="M602 517q0 -108 -98 -154q95 -32 126 -105q11 -28 11 -67t-14 -75t-45 -62q-64 -54 -198 -54h-242q-19 0 -32 13t-13 32v607q0 19 13 32.5t32 13.5h236q110 0 167 -50t57 -131zM515 510q0 47 -37.5 75t-106.5 28h-183v-217h166q129 0 154 69q7 21 7 45zM375 85
q142 0 169 68q9 21 9 47q0 60 -45 87t-132 27h-188v-229h187z" />
    <glyph glyph-name="C" unicode="C" horiz-adv-x="698" 
d="M598 124q8 4 22.5 4t25 -11.5t10.5 -26.5q0 -27 -22 -38q-47 -26 -100.5 -44t-128 -18t-138.5 24.5t-111 71.5q-100 98 -100 263t100 263q97 96 250 96q74 0 127.5 -18t82 -33.5t34.5 -25t6 -24t-10.5 -26t-25 -11.5t-22.5 4q-40 21 -82 34t-104.5 13t-113 -21t-84.5 -58
q-67 -73 -67 -193t67 -193q73 -79 201 -79q59 0 101 13t82 34z" />
    <glyph glyph-name="D" unicode="D" horiz-adv-x="750" 
d="M343 698q167 0 266 -112q44 -49 65.5 -111.5t21.5 -125.5t-21.5 -125.5t-65.5 -111.5q-99 -112 -266 -112h-201q-19 0 -32 13t-13 32v607q0 19 13 32.5t32 13.5h201zM332 85q124 0 200 73q74 73 74 191t-74 191q-76 73 -200 73h-144v-528h144z" />
    <glyph glyph-name="E" unicode="E" horiz-adv-x="638" 
d="M573.5 72.5q12.5 -12.5 12.5 -30.5t-12.5 -30t-30.5 -12h-401q-19 0 -32 13t-13 32v607q0 19 13 32.5t32 13.5h401q18 0 30.5 -12.5t12.5 -30.5t-12.5 -30t-30.5 -12h-355v-221h319q18 0 30.5 -12.5t12.5 -30.5t-12.5 -30t-30.5 -12h-319v-222h355q18 0 30.5 -12.5z" />
    <glyph glyph-name="F" unicode="F" horiz-adv-x="610" 
d="M188 613v-221h308q18 0 30.5 -12.5t12.5 -30.5t-12.5 -30t-30.5 -12h-308v-267q0 -19 -13.5 -32t-32.5 -13t-32 13t-13 32v612q0 19 13 32.5t32 13.5h389q18 0 30.5 -12.5t12.5 -30.5t-12.5 -30t-30.5 -12h-343z" />
    <glyph glyph-name="G" unicode="G" horiz-adv-x="744" 
d="M418 76q94 0 175 44v181h-165q-17 0 -29 12t-12 29t12 29t29 12h197q20 0 34 -14t14 -34v-227q0 -21 -10.5 -37.5t-27.5 -24.5q-112 -56 -229 -56q-157 0 -254 100q-97 101 -97 258q0 159 101 262q97 98 247 98q85 0 143.5 -21t105.5 -51q20 -11 20 -31.5t-11 -33
t-26.5 -12.5t-25.5 5q-97 56 -196 56q-116 0 -190 -70q-77 -74 -77 -202q0 -118 72 -194q74 -78 200 -78z" />
    <glyph glyph-name="H" unicode="H" horiz-adv-x="755" 
d="M612 703q19 0 32.5 -13.5t13.5 -32.5v-617q0 -19 -13.5 -32t-32.5 -13t-32 13t-13 32v266h-379v-266q0 -19 -13.5 -32t-32.5 -13t-32 13t-13 32v617q0 19 13 32.5t32 13.5t32.5 -13.5t13.5 -32.5v-266h379v266q0 19 13 32.5t32 13.5z" />
    <glyph glyph-name="I" unicode="I" horiz-adv-x="285" 
d="M142 703q19 0 32.5 -13.5t13.5 -32.5v-617q0 -19 -13.5 -32t-32.5 -13t-32 13t-13 32v617q0 19 13 32.5t32 13.5z" />
    <glyph glyph-name="J" unicode="J" horiz-adv-x="466" 
d="M327 703q19 0 32.5 -13.5t13.5 -32.5v-427q0 -131 -65 -192q-52 -48 -141 -48q-73 0 -133 34q-22 12 -22 32.5t10.5 33t24 12.5t27.5 -7q38 -19 73.5 -19t57.5 5.5t39 21.5q38 36 38 121v433q0 19 13 32.5t32 13.5z" />
    <glyph glyph-name="K" unicode="K" horiz-adv-x="670" 
d="M629 68q11 -14 11 -31t-12.5 -29.5t-33.5 -12.5t-34 18l-258 329l-114 -115v-187q0 -19 -13.5 -32t-32.5 -13t-32 13t-13 32v617q0 19 13 32.5t32 13.5t32.5 -13.5t13.5 -32.5v-318l342 348q13 16 32.5 16t31.5 -11.5t12 -30t-11 -29.5l-231 -230z" />
    <glyph glyph-name="L" unicode="L" horiz-adv-x="576" 
d="M547.5 77.5q13.5 -13.5 13.5 -32.5t-13.5 -32t-32.5 -13h-355q-26 0 -44.5 18.5t-18.5 44.5v594q0 19 13 32.5t32 13.5t32.5 -13.5t13.5 -32.5v-566h327q19 0 32.5 -13.5z" />
    <glyph glyph-name="M" unicode="M" horiz-adv-x="966" 
d="M850 683.5q19 -19.5 19 -46.5v-597q0 -19 -13 -32t-32 -13t-32.5 13t-13.5 32v568l-231 -571q-8 -19 -25 -30.5t-39 -11.5t-39 11.5t-25 30.5l-231 571v-568q0 -19 -13.5 -32t-32.5 -13t-32 13t-13 32v597q0 27 19 46.5t46 19.5h33q20 0 36.5 -12t24.5 -30l227 -566
l227 566q8 18 24.5 30t36.5 12h33q27 0 46 -19.5z" />
    <glyph glyph-name="N" unicode="N" horiz-adv-x="803" 
d="M660 703q19 0 32.5 -13.5t13.5 -32.5v-597q0 -27 -19.5 -46t-46.5 -19h-12q-33 0 -53 27l-387 559v-541q0 -19 -13.5 -32t-32.5 -13t-32 13t-13 32v597q0 27 19 46.5t46 19.5h13q31 0 55 -30l385 -556v540q0 19 13 32.5t32 13.5z" />
    <glyph glyph-name="O" unicode="O" horiz-adv-x="811" 
d="M406 708q158 0 254 -101q93 -99 97 -258q-4 -159 -97 -258q-96 -101 -254 -101q-159 0 -254 101q-95 100 -97 258q2 158 97 258q95 101 254 101zM406 75q122 0 192 79q68 76 68 195t-68 195q-70 79 -192 79t-192 -79q-68 -76 -68 -195t68 -195q70 -79 192 -79z" />
    <glyph glyph-name="P" unicode="P" horiz-adv-x="669" 
d="M370 698q139 0 209 -72q58 -58 58 -150t-58 -150q-70 -72 -209 -72h-182v-214q0 -19 -13.5 -32t-32.5 -13t-32 13t-13 32v612q0 19 13 32.5t32 13.5h228zM361 340q103 0 149 44q36 34 36 92q0 93 -93 124q-36 12 -92 12h-173v-272h173z" />
    <glyph glyph-name="Q" unicode="Q" horiz-adv-x="812" 
d="M466 -6q-28 -4 -60 -4q-159 0 -254 101q-95 100 -97 258q2 158 97 258q95 101 254 101q158 0 254 -101q93 -99 97 -258q-2 -118 -56 -205t-151 -127l88 -97q12 -12 12 -29.5t-12.5 -30t-31 -12.5t-31.5 16zM406 75q122 0 192 79q68 76 68 195t-68 195q-70 79 -192 79
t-192 -79q-68 -76 -68 -195t68 -195q70 -79 192 -79z" />
    <glyph glyph-name="R" unicode="R" horiz-adv-x="712" 
d="M641 40q0 -19 -13 -32t-33 -13t-32.5 12.5t-12.5 32.5v30q0 81 -18 119t-49 60.5t-88 22.5h-207v-232q0 -19 -13.5 -32t-32.5 -13t-32 13t-13 32v612q0 19 13 32.5t32 13.5h233q137 0 207 -58q65 -55 65 -145q0 -58 -32.5 -108t-98.5 -73q72 -19 104 -104q21 -57 21 -124
v-46zM369 358q84 0 135.5 33t51.5 97q0 60 -40 90q-48 34 -152 34h-176v-254h181z" />
    <glyph glyph-name="S" unicode="S" horiz-adv-x="616" 
d="M308 76q175 0 175 115q0 48 -67 77q-29 12 -67.5 21.5t-78 20.5t-78 25t-68.5 36q-66 50 -66 132q0 88 66 144q72 61 193 61q109 0 199 -33q28 -10 28 -40q0 -15 -10.5 -28.5t-23 -13.5t-34.5 8q-65 23 -149 23q-77 0 -127 -29q-51 -30 -51 -85q0 -57 66 -86
q30 -14 68 -23t78 -19t78 -23.5t68 -35.5q66 -48 66 -138q0 -86 -69 -140q-71 -55 -187 -55q-127 0 -238 48q-11 5 -19.5 16t-8.5 26.5t11 28t25.5 12.5t36 -9.5t70.5 -22.5t114 -13z" />
    <glyph glyph-name="T" unicode="T" horiz-adv-x="611" 
d="M584.5 685.5q12.5 -12.5 12.5 -30.5t-12.5 -30t-30.5 -12h-203v-573q0 -19 -13.5 -32t-32.5 -13t-32 13t-13 32v573h-204q-18 0 -30 12t-12 30t12 30.5t30 12.5h498q18 0 30.5 -12.5z" />
    <glyph glyph-name="U" unicode="U" horiz-adv-x="758" 
d="M620 703q19 0 32.5 -13.5t13.5 -32.5v-395q0 -131 -94 -206q-81 -66 -193 -66q-114 0 -194 66q-93 75 -93 206v395q0 19 13 32.5t32 13.5t32.5 -13.5t13.5 -32.5v-398q0 -89 61 -140q56 -46 135 -46t135 46q61 51 61 140v398q0 19 13 32.5t32 13.5z" />
    <glyph glyph-name="V" unicode="V" horiz-adv-x="694" 
d="M347 86l235 586q13 31 38.5 31t37.5 -13t12 -28t-3 -22l-247 -599q-21 -46 -62 -46h-22q-41 0 -62 46l-247 599q-3 7 -3 22t12 28t30 13q33 0 46 -31z" />
    <glyph glyph-name="W" unicode="W" horiz-adv-x="1007" 
d="M504 703q18 0 32.5 -10.5t19.5 -27.5l169 -550l168 552q11 36 45 36q20 0 32 -11.5t12 -25t-3 -24.5l-196 -602q-16 -45 -59 -45q-20 0 -36.5 12.5t-22.5 32.5l-161 510l-161 -510q-6 -20 -22.5 -32.5t-36.5 -12.5q-43 0 -59 45l-196 602q-3 11 -3 24.5t12 25t30 11.5
q36 0 47 -36l168 -552l169 550q5 17 19.5 27.5t32.5 10.5z" />
    <glyph glyph-name="X" unicode="X" horiz-adv-x="669" 
d="M617 66q9 -11 9 -27.5t-12 -30t-28 -13.5q-27 0 -41 19l-214 269l-211 -270q-15 -18 -33.5 -18t-31 12.5t-12.5 29t9 28.5l231 284l-229 282q-9 12 -9 29.5t12.5 30t34 12.5t34.5 -18l211 -268l211 270q11 16 31 16t33 -12.5t13 -28.5t-8 -27l-231 -285z" />
    <glyph glyph-name="Y" unicode="Y" horiz-adv-x="645" 
d="M532 680q15 23 37.5 23t34.5 -13t12 -30t-8 -30l-240 -335v-255q0 -19 -13 -32t-32 -13t-32.5 13t-13.5 32v255l-239 335q-8 13 -8 30t12 30t34.5 13t37.5 -23l209 -304z" />
    <glyph glyph-name="Z" unicode="Z" horiz-adv-x="638" 
d="M580.5 72.5q12.5 -12.5 12.5 -30.5t-12.5 -30t-30.5 -12h-445q-24 0 -41 17t-17 40t12 38l418 516h-385q-18 0 -30.5 12.5t-12.5 30.5t12.5 31t30.5 13h434q29 0 45 -18.5t16 -42t-16 -41.5l-413 -511h392q18 0 30.5 -12.5z" />
    <glyph glyph-name="bracketleft" unicode="[" horiz-adv-x="322" 
d="M283.5 -71.5q10.5 -10.5 10.5 -24.5t-10.5 -25t-25.5 -11h-127q-18 0 -31 13t-13 31v776q0 18 13 31t31 13h127q15 0 25.5 -10.5t10.5 -25.5t-10.5 -25.5t-25.5 -10.5h-92v-721h92q15 0 25.5 -10.5z" />
    <glyph glyph-name="backslash" unicode="\" horiz-adv-x="443" 
d="M58.5 752q11.5 12 27.5 12q32 0 41 -28l265 -775q3 -6 3 -19t-11.5 -25t-27.5 -12q-32 0 -41 28l-265 775q-3 6 -3 19t11.5 25z" />
    <glyph glyph-name="bracketright" unicode="]" horiz-adv-x="322" 
d="M156 -61v721h-92q-15 0 -25.5 10.5t-10.5 25.5t10.5 25.5t25.5 10.5h127q18 0 31 -13t13 -31v-776q0 -18 -13 -31t-31 -13h-127q-15 0 -25.5 11t-10.5 25t10.5 24.5t25.5 10.5h92z" />
    <glyph glyph-name="asciicircum" unicode="^" horiz-adv-x="524" 
d="M280 702q20 0 30.5 -10t18.5 -24l105 -199q2 -5 4 -9t2 -13.5t-10 -20.5t-26 -11q-20 0 -30 16q-2 4 -13 22.5t-34.5 56.5t-65.5 106q-42 -68 -65 -105.5t-34.5 -56t-13.5 -22.5q-10 -17 -28 -17t-28 11t-10 20.5t2 13.5t4 9l105 199q8 14 18.5 24t30.5 10h38z" />
    <glyph glyph-name="underscore" unicode="_" horiz-adv-x="663" 
d="M601.5 -90.5q9.5 -9.5 9.5 -23.5t-9.5 -23.5t-23.5 -9.5h-493q-14 0 -23.5 9.5t-9.5 23.5t9.5 23.5t23.5 9.5h493q14 0 23.5 -9.5z" />
    <glyph glyph-name="grave" unicode="`" horiz-adv-x="246" 
d="M69 685q0 37 40 37q20 0 30 -19l51 -90q7 -7 7 -19t-7.5 -19.5t-20 -7.5t-21.5 11l-69 82q-10 11 -10 25z" />
    <glyph glyph-name="a" unicode="a" horiz-adv-x="555" 
d="M98 484q84 36 174 36q102 0 158 -62q50 -54 50 -135v-283q0 -19 -13.5 -32t-32.5 -13t-32 13t-13 32v26q-27 -28 -72.5 -52t-115.5 -24q-69 0 -115 40q-48 42 -48 110q0 74 56 116q61 46 174 46h121v8q0 67 -33 95.5t-101 28.5q-58 0 -133 -24q-8 -2 -18 -2t-21 10.5
t-11 32.5t26 33zM129 150q0 -80 106 -80q47 0 87.5 23t66.5 52v84h-109q-71 0 -111 -18t-40 -61z" />
    <glyph glyph-name="b" unicode="b" horiz-adv-x="631" 
d="M170 444q74 76 171 76t166 -69q76 -76 76 -196q0 -122 -76 -197q-70 -68 -166.5 -68t-170.5 76v-26q0 -19 -13 -32t-32.5 -13t-32.5 13t-13 32v649q0 20 13 33t32.5 13t32.5 -13t13 -33v-245zM170 150q68 -75 158 -75q114 0 152 102q12 34 12 78q0 86 -46 135
q-44 45 -118 45q-90 0 -158 -75v-210z" />
    <glyph glyph-name="c" unicode="c" horiz-adv-x="536" 
d="M321 75q56 0 107 28q18 10 32 10t25 -13t11 -31t-23 -33q-71 -46 -160 -46q-111 0 -187 70q-80 74 -80 195t80 195q76 70 187 70q60 0 98.5 -15.5t61.5 -30.5t23 -33t-11 -31t-22 -13q-17 0 -35 10q-51 28 -107 28q-88 0 -136 -49.5t-48 -130.5t48 -130.5t136 -49.5z" />
    <glyph glyph-name="d" unicode="d" horiz-adv-x="631" 
d="M461 66q-74 -76 -171 -76q-96 0 -166 68q-76 75 -76 197q0 120 76 196q69 69 166 69t171 -76v245q0 20 13 33t32.5 13t32.5 -13t13 -33v-649q0 -19 -13 -32t-32.5 -13t-32.5 13t-13 32v26zM461 360q-68 75 -158 75q-114 0 -151 -102q-13 -34 -13 -78q0 -86 47 -135
q43 -45 117 -45q90 0 158 75v210z" />
    <glyph glyph-name="e" unicode="e" horiz-adv-x="570" 
d="M192 115q43 -40 120 -40t129 26q18 9 31 9t25 -11t12 -25q0 -26 -21.5 -37.5t-38.5 -19.5t-37 -14q-45 -13 -104 -13q-123 0 -191 69t-68 196q0 110 57 183q64 82 182 82q112 0 177 -76q61 -71 61 -176q0 -19 -12.5 -32t-33.5 -13h-339q8 -68 51 -108zM288 443
q-89 0 -130 -79q-15 -28 -17 -67h295q-4 71 -52 112q-40 34 -96 34z" />
    <glyph glyph-name="f" unicode="f" horiz-adv-x="380" 
d="M340 647l-50 6q-38 0 -60 -17.5t-22 -70.5v-55h125q17 0 28 -11t11 -28t-11 -28t-28 -11h-125v-392q0 -19 -13 -32t-32.5 -13t-32.5 13t-13 32v392h-59q-17 0 -28 11t-11 28t11 28t28 11h59v58q0 87 49 134q40 38 101 38q47 0 87 -20q23 -13 23 -31t-10.5 -30t-26.5 -12z
" />
    <glyph glyph-name="g" unicode="g" horiz-adv-x="631" 
d="M461 444v25q0 19 13 32.5t32 13.5t32.5 -13.5t13.5 -32.5v-447q0 -127 -61 -194.5t-174 -67.5q-120 0 -214 52q-18 11 -18 30.5t11.5 32.5t24 13t22.5 -4q76 -38 165 -38q153 0 153 163v67q-71 -76 -171 -76q-95 0 -163 64q-79 73 -79 196t79 196q68 64 165.5 64
t168.5 -76zM461 363q-28 29 -64 51.5t-80 22.5t-75 -11t-54 -32q-49 -46 -49 -134q0 -129 103 -166q31 -11 75 -11q73 0 144 74v206z" />
    <glyph glyph-name="h" unicode="h" horiz-adv-x="609" 
d="M334 436q-88 0 -164 -96v-300q0 -19 -13.5 -32t-32.5 -13t-32 13t-13 32v649q0 20 13 33t32 13t32.5 -13t13.5 -33v-261q40 42 69 59q57 33 108.5 33t84.5 -15.5t56 -42.5q47 -55 47 -138v-284q0 -19 -13.5 -32t-32.5 -13t-32 13t-13 32v274q0 57 -25.5 89.5t-84.5 32.5z
" />
    <glyph glyph-name="i" unicode="i" horiz-adv-x="257" 
d="M96 502q13 13 32.5 13t32.5 -13t13 -33v-429q0 -19 -13 -32t-32.5 -13t-32.5 13t-13 32v429q0 20 13 33zM183 665q0 -21 -15 -36t-36 -15h-6q-21 0 -36 15t-15 36v4q0 21 15 36t36 15h6q21 0 36 -15t15 -36v-4z" />
    <glyph glyph-name="j" unicode="j" horiz-adv-x="257" 
d="M-8 -157l30 -3q31 0 41 8q20 13 20 51v569q0 20 13 33t32.5 13t32.5 -13t13 -33v-571q0 -97 -70 -127q-25 -10 -61 -10t-62.5 8.5t-26.5 36.5q0 15 10.5 26.5t27.5 11.5zM183 665q0 -21 -15 -36t-36 -15h-6q-21 0 -36 15t-15 36v4q0 21 15 36t36 15h6q21 0 36 -15t15 -36
v-4z" />
    <glyph glyph-name="k" unicode="k" horiz-adv-x="546" 
d="M502 66q10 -13 10 -30t-13 -29t-29 -12q-24 0 -41 19l-172 234l-87 -79v-129q0 -19 -13.5 -32t-32.5 -13t-32 13t-13 32v649q0 19 13 32.5t32 13.5t32.5 -13.5t13.5 -32.5v-409l238 220q16 13 36 13t29 -14.5t9 -24.5q0 -22 -17 -39l-144 -129z" />
    <glyph glyph-name="l" unicode="l" horiz-adv-x="265" 
d="M100 722q13 13 32.5 13t32.5 -13t13 -33v-649q0 -19 -13 -32t-32.5 -13t-32.5 13t-13 32v649q0 20 13 33z" />
    <glyph glyph-name="m" unicode="m" horiz-adv-x="919" 
d="M170 428q61 92 170 92q54 0 98 -32q36 -25 55 -71q28 44 55 62q57 41 129 41q81 0 127 -62q40 -53 40 -130v-288q0 -19 -13.5 -32t-32.5 -13t-32 13t-13 32v270q0 63 -22.5 94.5t-79.5 31.5q-88 0 -144 -96v-300q0 -19 -13.5 -32t-32.5 -13t-32 13t-13 32v270
q0 63 -22.5 94.5t-79.5 31.5q-88 0 -144 -96v-300q0 -19 -13.5 -32t-32.5 -13t-32 13t-13 32v429q0 19 13 32.5t32 13.5t32.5 -13.5t13.5 -32.5v-41z" />
    <glyph glyph-name="n" unicode="n" horiz-adv-x="609" 
d="M334 436q-88 0 -164 -96v-300q0 -19 -13.5 -32t-32.5 -13t-32 13t-13 32v429q0 20 13 33t32 13t32.5 -13t13.5 -33v-41q40 42 69 59q57 33 108.5 33t84.5 -15.5t56 -42.5q47 -55 47 -138v-284q0 -19 -13.5 -32t-32.5 -13t-32 13t-13 32v274q0 57 -25.5 89.5t-84.5 32.5z
" />
    <glyph glyph-name="o" unicode="o" horiz-adv-x="608" 
d="M304 520q116 0 186 -73q70 -74 70 -192t-70 -192q-70 -73 -186 -73q-117 0 -186 73q-70 73 -70 192t70 192q69 73 186 73zM245.5 83q29.5 -10 58 -10t58 10t53.5 31q54 49 54 142q0 90 -54 140q-45 41 -111 41q-108 0 -150 -97q-15 -35 -15 -84.5t15 -84.5t38.5 -56.5
t53 -31.5z" />
    <glyph glyph-name="p" unicode="p" horiz-adv-x="631" 
d="M170 444q74 76 171 76t166 -69q76 -76 76 -196q0 -122 -76 -197q-70 -68 -166.5 -68t-170.5 76v-255q0 -20 -13 -33t-32.5 -13t-32.5 13t-13 33v659q0 19 13 32t32.5 13t32.5 -13t13 -32v-26zM170 150q68 -75 158 -75q114 0 152 102q12 34 12 78q0 86 -46 135
q-44 45 -118 45q-90 0 -158 -75v-210z" />
    <glyph glyph-name="q" unicode="q" horiz-adv-x="631" 
d="M461 66q-74 -76 -171 -76q-96 0 -166 68q-76 75 -76 197q0 120 76 196q69 69 166 69t171 -76v26q0 19 13 32t32.5 13t32.5 -13t13 -32v-659q0 -20 -13 -33t-32.5 -13t-32.5 13t-13 33v255zM461 360q-68 75 -158 75q-114 0 -151 -102q-13 -34 -13 -78q0 -86 47 -135
q43 -45 117 -45q90 0 158 75v210z" />
    <glyph glyph-name="r" unicode="r" horiz-adv-x="387" 
d="M170 426q70 94 157 94h5q19 0 31.5 -13t12.5 -32.5t-13 -31t-33 -11.5h-5q-50 0 -89.5 -24.5t-65.5 -63.5v-304q0 -19 -13.5 -32t-32.5 -13t-32 13t-13 32v429q0 19 13 32.5t32 13.5t32.5 -13.5t13.5 -32.5v-43z" />
    <glyph glyph-name="s" unicode="s" horiz-adv-x="480" 
d="M241 74q111 0 111 71q0 22 -22 33.5t-55.5 20.5t-72.5 18.5t-72.5 26.5t-55.5 44.5t-22 67.5t12 69t36 50q53 45 147 45q75 0 145 -25q14 -5 21.5 -16t7.5 -24.5t-11.5 -25.5t-22.5 -12t-27 5q-48 15 -105 15t-86.5 -20t-29.5 -48t22.5 -41.5t55.5 -22.5t72.5 -18
t72.5 -25q78 -40 78 -124q0 -64 -48 -104q-52 -44 -145 -44q-101 0 -182 45q-17 12 -17 30t11 30.5t24 12.5t31 -8q58 -26 127 -26z" />
    <glyph glyph-name="t" unicode="t" horiz-adv-x="384" 
d="M303.5 74.5q11.5 4.5 25 4.5t24.5 -10t11 -30t-20 -29q-43 -20 -73.5 -20t-55.5 3t-48 17q-55 32 -55 112v310h-71q-19 0 -19 19q0 9 9 17l136 133q9 9 17 9t13.5 -6t5.5 -14v-80h113q17 0 28 -11t11 -28t-11 -28t-28 -11h-113v-302q0 -38 23 -52q13 -8 39.5 -8t38 4.5z
" />
    <glyph glyph-name="u" unicode="u" horiz-adv-x="610" 
d="M276 74q88 0 164 96v300q0 19 13.5 32t32.5 13t32 -13t13 -32v-429q0 -20 -13 -33t-32 -13t-32.5 13t-13.5 33v41q-40 -42 -69 -59q-57 -33 -108.5 -33t-84.5 15.5t-56 42.5q-47 55 -47 138v284q0 19 13.5 32t32.5 13t32 -13t13 -32v-274q0 -57 25.5 -89.5t84.5 -32.5z
" />
    <glyph glyph-name="v" unicode="v" horiz-adv-x="530" 
d="M418 489q12 26 44 26q16 0 29 -13.5t13 -25.5q0 -16 -5 -28l-174 -416q-7 -15 -21.5 -26t-33.5 -11h-10q-19 0 -33.5 11t-21.5 26l-174 416q-5 12 -5 26t13 27.5t29 13.5q32 0 44 -26l153 -388z" />
    <glyph glyph-name="w" unicode="w" horiz-adv-x="785" 
d="M675 488q8 27 43 27q17 0 30 -13t13 -26.5t-3 -22.5l-142 -416q-6 -17 -22 -29.5t-36 -12.5t-36 12.5t-23 30.5l-106 331l-106 -331q-7 -18 -23 -30.5t-36 -12.5t-36 12.5t-22 29.5l-142 416q-3 9 -3 22.5t13 26.5t30 13q35 0 43 -27l117 -385l116 376q5 16 18.5 26
t30.5 10t30.5 -10t18.5 -26l116 -376z" />
    <glyph glyph-name="x" unicode="x" horiz-adv-x="542" 
d="M480 70q11 -13 11 -29.5t-11.5 -31t-34 -14.5t-35.5 18l-142 170l-134 -168q-15 -20 -37 -20t-33.5 12.5t-11.5 30.5t10 31l155 183l-155 189q-11 14 -11 32t13 30t34.5 12t33.5 -17l140 -173l139 173q12 17 33.5 17t34.5 -12.5t13 -29t-10 -29.5l-158 -186z" />
    <glyph glyph-name="y" unicode="y" horiz-adv-x="533" 
d="M496 501.5q13 -13.5 13 -28t-3 -21.5l-273 -656q-13 -31 -42 -31q-18 0 -30.5 13t-12.5 26t3 21l65 167l-188 458q-4 10 -4 24t13 27.5t29 13.5q33 0 45 -28l154 -382l157 380q13 30 42 30q19 0 32 -13.5z" />
    <glyph glyph-name="z" unicode="z" horiz-adv-x="499" 
d="M457 42q0 -18 -12.5 -30t-30.5 -12h-312q-26 0 -44.5 13.5t-18.5 38t16 42.5l288 331h-253q-18 0 -30 12t-12 30t12 30.5t30 12.5h303q26 0 42 -15.5t16 -40t-14 -41.5l-280 -328h257q18 0 30.5 -12.5t12.5 -30.5z" />
    <glyph glyph-name="braceleft" unicode="{" horiz-adv-x="344" 
d="M117 307q90 -33 90 -118v-222q0 -19 7 -26q14 -16 52 -16h15q14 0 24.5 -10.5t10.5 -24.5t-10.5 -24.5t-24.5 -10.5h-12q-67 0 -100 23q-40 29 -40 97v211q0 32 -11 45q-21 25 -81 36q-34 6 -34 40t33.5 40t52 14.5t27.5 18.5q13 16 13 48v211q0 98 85 115q25 5 55 5h12
q14 0 24.5 -10.5t10.5 -24.5t-10.5 -24.5t-24.5 -10.5h-15q-54 0 -58 -29q-1 -7 -1 -13v-222q0 -85 -90 -118z" />
    <glyph glyph-name="bar" unicode="|" horiz-adv-x="253" 
d="M126 741q17 0 29 -12t12 -29v-856q0 -17 -12 -28.5t-29 -11.5t-28.5 11.5t-11.5 28.5v856q0 17 11.5 29t28.5 12z" />
    <glyph glyph-name="braceright" unicode="}" horiz-adv-x="344" 
d="M227 307q-90 33 -90 118v222q0 19 -7 26q-14 16 -52 16h-15q-14 0 -24.5 10.5t-10.5 24.5t10.5 24.5t24.5 10.5h12q67 0 100 -23q40 -29 40 -97v-211q0 -32 11 -45q21 -25 81 -36q34 -6 34 -40t-33.5 -40t-52 -14.5t-27.5 -18.5q-13 -16 -13 -48v-211q0 -98 -85 -115
q-25 -5 -55 -5h-12q-14 0 -24.5 10.5t-10.5 24.5t10.5 24.5t24.5 10.5h15q54 0 58 29q1 7 1 13v222q0 85 90 118z" />
    <glyph glyph-name="asciitilde" unicode="~" horiz-adv-x="638" 
d="M506.5 326q4.5 11 12 25.5t21.5 14.5q28 0 28 -23q0 -4 -1 -8q-12 -66 -46.5 -97.5t-77.5 -31.5t-76 12t-62.5 26t-56.5 26t-56 12q-52 0 -68 -54q-5 -19 -20 -19t-22.5 7.5t-7.5 25t10 41t28 41.5q40 43 84.5 43t78 -12t63 -26t56.5 -26t50 -12t33.5 4.5t17.5 12
t11.5 18.5z" />
    <glyph glyph-name="uni00A0" unicode="&#xa0;" horiz-adv-x="260" 
 />
    <glyph glyph-name="exclamdown" unicode="&#xa1;" horiz-adv-x="259" 
d="M131 317.012q-32 0 -34 -28.998l-18 -329.98v-98.9932q0 -21.999 15 -36.998t37 -14.999t36.5 14.999t14.5 36.998v98.9932l-18 329.98q-2 28.998 -33 28.998zM89.5 412.506q17.5 -17.499 42 -17.499t42 17.499t17.5 41.9971q0 24.499 -17.5 41.998t-42 17.499
t-42 -17.499t-17.5 -41.998q0 -24.498 17.5 -41.9971z" />
    <glyph glyph-name="cent" unicode="&#xa2;" horiz-adv-x="551" 
d="M209.5 502q48.5 18 89 18t64.5 -4l29 85q7 19 23.5 19t24 -9t7.5 -16.5t-2 -13.5l-27 -80q31 -11 56 -29q20 -13 20 -31t-11 -31t-22 -13q-17 0 -27 6l-43 20l-118 -344q19 -4 52 -4t58 9t41 18q21 11 34.5 11t24.5 -13t11 -31t-23 -33q-71 -46 -160 -46q-32 0 -66 8
l-35 -103q-6 -18 -22.5 -18t-24.5 8.5t-8 15.5q0 11 3 17l33 97q-65 29 -106 90t-41 150q0 121 80 195q37 34 85.5 52zM135 255q0 -112 85 -157l115 336q-4 1 -8 1h-8q-88 0 -136 -49.5t-48 -130.5z" />
    <glyph glyph-name="sterling" unicode="&#xa3;" horiz-adv-x="604" 
d="M223 118l25 1q38 0 81 -14t66 -20.5t45 -6.5q35 0 52 6q27 9 38 9t23 -11.5t12 -31.5q0 -34 -73 -53q-27 -7 -57.5 -7t-53.5 7t-45 15q-56 23 -94 23q-62 0 -113 -34q-11 -8 -24.5 -8t-24.5 10.5t-11 27t15 30t31.5 34.5t29.5 47q30 58 30 113q0 26 -6 52h-108
q-22 0 -22 22q0 10 6 16.5t16 6.5h96q-11 34 -21.5 69.5t-10.5 82.5t17.5 85t49.5 65q67 54 176 54q75 0 144 -29q30 -12 30 -40q0 -17 -11.5 -29.5t-23.5 -12.5q-18 0 -35 6q-48 17 -97.5 17t-79.5 -10t-47 -26q-32 -30 -32 -73.5t12 -81.5t23 -77h177q10 0 16.5 -6.5
t6.5 -16.5t-6.5 -16t-16.5 -6h-167q4 -20 4 -46q0 -77 -42 -143z" />
    <glyph glyph-name="currency" unicode="&#xa4;" horiz-adv-x="668" 
d="M334 112q-77 0 -139 45l-66 -65q-13 -11 -28 -11t-25 11t-10 26t11 26l65 65q-45 64 -45 140t45 140l-65 65q-11 11 -11 26t10 26t22 11q18 0 31 -11l66 -65q62 45 139 45t139 -45l66 65q13 11 28 11t25 -11t10 -26t-11 -26l-65 -65q45 -64 45 -140t-45 -140l65 -65
q11 -11 11 -26t-10 -26t-22 -11q-18 0 -31 11l-66 65q-62 -45 -139 -45zM334 505q-64 0 -110 -46t-46 -110t46 -110t110 -46t110 46t46 110t-46 110t-110 46z" />
    <glyph glyph-name="yen" unicode="&#xa5;" horiz-adv-x="658" 
d="M329 381l173 303q16 28 39.5 28t37.5 -13t14 -30t-8 -30l-168 -274h98q16 0 26.5 -11t10.5 -27t-10 -26.5t-27 -10.5h-141v-91h141q16 0 26.5 -11t10.5 -27t-10 -26.5t-27 -10.5h-141v-85q0 -19 -13.5 -32t-31.5 -13t-31.5 13t-13.5 32v85h-141q-17 0 -27 10.5t-10 26.5
t10.5 27t26.5 11h141v91h-141q-17 0 -27 10.5t-10 26.5t10.5 27t26.5 11h98l-168 274q-8 13 -8 30t14 30t32.5 13t28 -8t16.5 -20z" />
    <glyph glyph-name="section" unicode="&#xa7;" horiz-adv-x="529" 
d="M155 439q-64 46 -64 121q0 64 49 104q51 44 139.5 44t154.5 -27q27 -12 27 -39q0 -16 -12.5 -28t-24.5 -12t-28 6q-41 16 -106 16q-113 0 -113 -70q0 -25 22.5 -41t56 -30t72.5 -28.5t72 -35.5q79 -49 79 -127q0 -74 -62 -110q-18 -11 -37 -17q65 -45 65 -120
q0 -64 -49 -105q-51 -43 -144 -43q-117 0 -189 45q-16 10 -16 30t11 31.5t22 11.5q12 0 27 -6q56 -28 139 -28q113 0 113 70q0 24 -22.5 40.5t-56 30.5t-72.5 28.5t-72 35.5q-79 48 -79 127q0 74 61 109q18 11 37 17zM215 407q-74 -19 -74 -88q0 -43 58 -72
q26 -13 57.5 -24.5t63.5 -24.5q75 19 75 88q0 42 -59 72q-25 13 -57.5 24t-63.5 25z" />
    <glyph glyph-name="dieresis" unicode="&#xa8;" horiz-adv-x="400" 
d="M114 677q21 0 36 -15t15 -36t-15 -36t-36 -15t-36 15t-15 36t15 36t36 15zM283 677q21 0 36 -15t15 -36t-15 -36t-36 -15t-36 15t-15 36t15 36t36 15z" />
    <glyph glyph-name="copyright" unicode="&#xa9;" horiz-adv-x="819" 
d="M410 -9q-74 0 -139.5 28t-114.5 77t-77 114t-28 139t28 139t77 114t114.5 77t139.5 28t139.5 -28t114 -77t77 -114t28.5 -139t-28.5 -139t-77 -114t-114 -77t-139.5 -28zM410 655q-64 0 -119.5 -24t-97.5 -66q-90 -90 -90 -216t90 -216t216 -90q128 0 218 90t90 216
t-90 216t-217 90zM585 251q-24 -49 -66.5 -77t-94 -28t-87 14.5t-61.5 41.5q-53 55 -53 147t53.5 147.5t139.5 55.5q60 0 102.5 -28t66.5 -77q3 -6 3 -16.5t-9 -19.5t-20 -9t-18.5 4t-20 25.5t-38.5 40.5t-62 19t-59.5 -11.5t-38.5 -31.5q-32 -39 -32 -99t32 -99
q33 -43 94 -43q70 0 109 67q13 22 29 22t25 -9t9 -19.5t-3 -16.5z" />
    <glyph glyph-name="ordfeminine" unicode="&#xaa;" horiz-adv-x="485" 
d="M377 285q11 0 19.5 -8.5t8.5 -19.5t-8.5 -19.5t-19.5 -8.5h-283q-11 0 -19.5 8.5t-8.5 19.5t8.5 19.5t19.5 8.5h283zM318 387q-43 -48 -121 -48q-47 0 -81 29q-35 29 -35 78.5t39.5 78t121.5 28.5h76v2q0 46 -21.5 65.5t-56.5 19.5q-55 0 -98 -16q-6 -2 -15 -2t-18 9.5
t-9 20.5q0 23 24 32q61 24 109.5 24t76 -12t45.5 -32q35 -37 35 -95v-191q0 -15 -10.5 -25.5t-25.5 -10.5t-25.5 10.5t-10.5 25.5v9zM250 499q-97 0 -97 -47q0 -20 14.5 -34t48.5 -14q60 0 102 47v48h-68z" />
    <glyph glyph-name="guillemotleft" unicode="&#xab;" horiz-adv-x="585" 
d="M294 85q9 -11 9 -27t-11 -27t-29 -11t-27 11l-164 181q-18 18 -18 43t18 43l164 181q9 11 27 11t29 -11t11 -27.5t-9 -26.5l-160 -170zM502 85q9 -11 9 -27t-11 -27t-29 -11t-27 11l-164 181q-18 18 -18 43t18 43l164 181q9 11 27 11t29 -11t11 -27.5t-9 -26.5l-160 -170
z" />
    <glyph glyph-name="logicalnot" unicode="&#xac;" horiz-adv-x="579" 
d="M483.5 370.5q12.5 -12.5 12.5 -29.5v-136q0 -16 -11 -26.5t-27 -10.5t-26.5 10.5t-10.5 26.5v106h-312q-15 0 -25.5 10.5t-10.5 25.5t10.5 25.5t25.5 10.5h345q17 0 29.5 -12.5z" />
    <glyph glyph-name="registered" unicode="&#xae;" horiz-adv-x="819" 
d="M410 708q74 0 139.5 -28.5t114 -77t77 -114t28.5 -139.5t-28.5 -139.5t-77 -114.5t-114 -77t-139.5 -28t-139.5 28t-114.5 77t-77 114.5t-28 139.5t28 139.5t77 114t114.5 77t139.5 28.5zM410 42q63 0 119 24t98 66q90 90 90 218q0 126 -90 216t-218 90q-126 0 -216 -90
t-90 -216q0 -128 90 -218t217 -90zM545.5 513.5q37.5 -34.5 37.5 -79t-22.5 -68.5t-51.5 -35q24 -8 46.5 -37t22.5 -88v-27q0 -14 -10 -24t-24 -10t-24 10t-10 24v18q0 43 -8 62q-18 40 -65 40h-109v-121q0 -14 -10 -23.5t-24 -9.5t-23.5 9.5t-9.5 23.5v324q0 19 13 32.5
t32 13.5h120q82 0 119.5 -34.5zM423 358q42 0 68 17t26 48.5t-20.5 49t-75.5 17.5h-93v-132h95z" />
    <glyph glyph-name="macron" unicode="&#xaf;" horiz-adv-x="312" 
d="M293.5 639.5q8.5 -8.5 8.5 -21.5t-8.5 -21.5t-21.5 -8.5h-234q-13 0 -21.5 8.5t-8.5 21.5t8.5 21.5t21.5 8.5h234q13 0 21.5 -8.5z" />
    <glyph glyph-name="degree" unicode="&#xb0;" horiz-adv-x="378" 
d="M189 708q57 0 97 -40t40 -97q0 -58 -40 -97q-42 -40 -97 -40q-56 0 -96.5 40.5t-40.5 96.5q0 55 40 97q39 40 97 40zM189 486q35 0 60 25t25 60t-25 60t-60 25t-60 -25t-25 -60t25 -60t60 -25z" />
    <glyph glyph-name="plusminus" unicode="&#xb1;" horiz-adv-x="606" 
d="M505 77q17 0 28 -11t11 -28t-11 -27.5t-28 -10.5h-405q-17 0 -27.5 10.5t-10.5 27.5t10.5 28t27.5 11h405zM100 342q-17 0 -27.5 10.5t-10.5 27.5t10.5 28t27.5 11h164v158q0 17 11 28t28 11t28 -11t11 -28v-158h163q17 0 28 -11t11 -28t-11 -27.5t-28 -10.5h-163v-158
q0 -17 -11 -28t-28 -11t-28 11t-11 28v158h-164z" />
    <glyph glyph-name="twosuperior" unicode="&#xb2;" horiz-adv-x="370" 
d="M318.5 501.5q8.5 -8.5 8.5 -21.5t-8.5 -21t-21.5 -8h-220q-17 0 -28 12.5t-11 34t16.5 44.5t41 42.5t53.5 37.5t53.5 35t41 34.5t16.5 40t-17.5 40t-54.5 17.5q-59 0 -101 -22q-6 -3 -15.5 -3t-17.5 7.5t-8 22.5t18 26q51 30 118 30t104 -33.5t37 -83.5q0 -69 -95 -133
q-25 -18 -49 -34q-59 -38 -72 -56h190q13 0 21.5 -8.5z" />
    <glyph glyph-name="threesuperior" unicode="&#xb3;" horiz-adv-x="370" 
d="M141 681q105 0 105 58q0 38 -51 47q-14 3 -35 3q-40 0 -78 -19q-6 -3 -15 -3t-17.5 7.5t-8.5 21.5t21 26q54 28 118.5 28t96 -31t31.5 -73t-20.5 -63t-41.5 -29q76 -23 76 -97q0 -76 -78 -103q-28 -9 -68 -9q-78 0 -123 25q-17 10 -17 24.5t9 23t16 8.5q9 0 20 -4
q51 -15 86 -15q92 0 92 52q0 62 -112 62h-11q-13 0 -21.5 8.5t-8.5 21.5t8.5 21.5t21.5 8.5h5z" />
    <glyph glyph-name="acute" unicode="&#xb4;" horiz-adv-x="240" 
d="M106 703q10 19 30 19q40 0 40 -37q0 -14 -10 -25l-69 -82q-9 -11 -21.5 -11t-20 7.5t-7.5 16.5q0 15 7 22z" />
    <glyph glyph-name="mu" unicode="&#xb5;" horiz-adv-x="604" 
d="M285 74q88 0 164 96v300q0 19 13.5 32t32.5 13t32 -13t13 -32v-429q0 -20 -13 -33t-32 -13t-32.5 13t-13.5 33v41q-42 -45 -69 -60q-53 -32 -108 -32t-97 27v-190q0 -19 -13.5 -32t-32.5 -13t-32 13t-13 32v643q0 19 13.5 32t32.5 13t32 -13t13 -32v-274
q0 -57 25.5 -89.5t84.5 -32.5z" />
    <glyph glyph-name="paragraph" unicode="&#xb6;" horiz-adv-x="732" 
d="M676.5 686.5q11.5 -11.5 11.5 -28.5t-11.5 -28t-28.5 -11h-46v-803q0 -17 -11.5 -28.5t-28.5 -11.5t-28 11.5t-11 28.5v803h-112v-803q0 -17 -11.5 -28.5t-28.5 -11.5t-28 11.5t-11 28.5v368h-36q-107 0 -182 75t-75 182t75 182t182 75h352q17 0 28.5 -11.5z" />
    <glyph glyph-name="periodcentered" unicode="&#xb7;" horiz-adv-x="260" 
d="M174.5 327.5q16.5 -16.5 16.5 -39.5v-6q0 -23 -16.5 -39.5t-39.5 -16.5h-10q-23 0 -39.5 16.5t-16.5 39.5v6q0 23 16.5 39.5t39.5 16.5h10q23 0 39.5 -16.5z" />
    <glyph glyph-name="cedilla" unicode="&#xb8;" horiz-adv-x="307" 
d="M133 -178q57 0 57 46q0 15 -10.5 23t-23.5 8q-24 0 -36 -6q-16 -8 -21.5 -8t-11 4.5t-5.5 12t4 13.5l64 102h42l-46 -80q16 4 42 4t47.5 -19t21.5 -51q0 -92 -111 -92q-48 0 -90 26q-11 5 -11 17q0 20 19 20q4 0 10 -3q31 -17 59 -17z" />
    <glyph glyph-name="onesuperior" unicode="&#xb9;" horiz-adv-x="370" 
d="M303.5 501.5q8.5 -8.5 8.5 -21.5t-8.5 -21t-21.5 -8h-174q-13 0 -21 8t-8 21t8 21.5t21 8.5h60v265l-45 -22q-8 -4 -17.5 -4t-18.5 8.5t-9 24t19 25.5l72 37q10 5 25 5t26.5 -12.5t11.5 -30.5v-296h50q13 0 21.5 -8.5z" />
    <glyph glyph-name="ordmasculine" unicode="&#xba;" horiz-adv-x="514" 
d="M256 708q41 0 74 -13.5t56 -37.5q49 -50 49 -133t-49 -134t-129 -51t-129 51t-49 134t49 133q49 51 128 51zM257 403q67 0 96 66q10 23 10 56q0 59 -35 93q-28 27 -71 27q-42 0 -71 -27q-35 -33 -35 -93q0 -61 35 -94q28 -28 71 -28zM416 285q11 0 19.5 -8.5t8.5 -19.5
t-8.5 -19.5t-19.5 -8.5h-318q-11 0 -19.5 8.5t-8.5 19.5t8.5 19.5t19.5 8.5h318z" />
    <glyph glyph-name="guillemotright" unicode="&#xbb;" horiz-adv-x="585" 
d="M293 31q-11 11 -11 27t9 27l160 170l-160 170q-9 10 -9 26.5t11 27.5t29 11t27 -11l164 -181q18 -18 18 -43t-18 -43l-164 -181q-9 -11 -27 -11t-29 11zM85 31q-11 11 -11 27t9 27l160 170l-160 170q-9 10 -9 26.5t11 27.5t29 11t27 -11l164 -181q18 -18 18 -43t-18 -43
l-164 -181q-9 -11 -27 -11t-29 11z" />
    <glyph glyph-name="onequarter" unicode="&#xbc;" horiz-adv-x="940" 
d="M837 155q13 0 21.5 -8.5t8.5 -21.5t-8.5 -21t-21.5 -8h-36v-69q0 -14 -9 -23t-23 -9t-23 9t-9 23v69h-156q-17 0 -29.5 12.5t-12.5 28.5t11 30l165 208q18 21 36 21h8q18 0 30 -12.5t12 -29.5v-199h36zM737 155v162l-127 -162h127zM290 -10q-9 -14 -25.5 -14t-26.5 9.5
t-10 21t5 21.5l414 682q9 14 25.5 14t26.5 -9.5t10 -21t-5 -21.5zM289 369q13 0 21.5 -8.5t8.5 -21.5t-8.5 -21t-21.5 -8h-174q-13 0 -21 8t-8 21t8 21.5t21 8.5h60v265l-45 -22q-8 -4 -17.5 -4t-18.5 8.5t-9 24t19 25.5l72 37q10 5 25 5t26.5 -12.5t11.5 -30.5v-296h50z
" />
    <glyph glyph-name="onehalf" unicode="&#xbd;" horiz-adv-x="940" 
d="M283 369q13 0 21.5 -8.5t8.5 -21.5t-8.5 -21t-21.5 -8h-174q-13 0 -21 8t-8 21t8 21.5t21 8.5h60v265l-45 -22q-8 -4 -17.5 -4t-18.5 8.5t-9 24t19 25.5l72 37q10 5 25 5t26.5 -12.5t11.5 -30.5v-296h50zM284 -10q-9 -14 -25.5 -14t-26.5 9.5t-10 21t5 21.5l414 682
q9 14 25.5 14t26.5 -9.5t10 -21t-5 -21.5zM835 59q13 0 21.5 -8.5t8.5 -21.5t-8.5 -21t-21.5 -8h-220q-17 0 -28 12.5t-11 34t16.5 44.5t41 42.5t53.5 37.5t53.5 35t41 34.5t16.5 40t-17.5 40t-54.5 17.5q-59 0 -101 -22q-6 -3 -15.5 -3t-17.5 7.5t-8 22.5t18 26
q51 30 118 30t104 -33.5t37 -83.5q0 -69 -95 -134q-25 -17 -49 -32q-59 -39 -72 -57h190z" />
    <glyph glyph-name="threequarters" unicode="&#xbe;" horiz-adv-x="940" 
d="M851 155q13 0 21.5 -8.5t8.5 -21.5t-8.5 -21t-21.5 -8h-36v-69q0 -14 -9 -23t-23 -9t-23 9t-9 23v69h-156q-17 0 -29.5 12.5t-12.5 28.5t11 30l165 208q18 21 36 21h8q18 0 30 -12.5t12 -29.5v-199h36zM751 155v162l-127 -162h127zM304 -10q-9 -14 -25.5 -14t-26.5 9.5
t-10 21t5 21.5l414 682q9 14 25.5 14t26.5 -9.5t10 -21t-5 -21.5zM168 540q105 0 105 58q0 38 -51 48q-14 2 -34 2q-41 0 -79 -19q-6 -3 -15 -3t-17.5 7.5t-8.5 21.5t22 25q53 29 117.5 29t96 -31t31.5 -73t-20.5 -63t-41.5 -29q76 -23 76 -97q0 -76 -78 -102
q-28 -10 -68 -10q-78 0 -123 25q-17 10 -17 24.5t9 23t16 8.5q9 0 20 -3q51 -16 86 -16q92 0 92 52q0 62 -112 62h-11q-13 0 -21.5 8.5t-8.5 21.5t8.5 21.5t21.5 8.5h5z" />
    <glyph glyph-name="questiondown" unicode="&#xbf;" horiz-adv-x="488" 
d="M130.022 -3.96875q0 -108.993 142.991 -108.993q77.9951 0 127.992 32.998q12.999 7.99902 27.498 7.99902t25.998 -11.499q11.5 -11.499 11.5 -26.498q0 -24.999 -24.999 -39.998q-77.9951 -47.9971 -175.989 -47.9971q-102.993 0 -162.99 50.9971
q-61.9961 51.9971 -61.9961 137.991q0 89.9951 93.9941 158.99q54.9971 40.998 78.9951 79.9961q14 22.998 14 47.4971q0 24.498 13.499 35.4971q13.499 11 31.498 11t30.498 -11.5q12.499 -11.499 12.499 -27.498q0 -98.9941 -92.9941 -170.989
q-59.9961 -47.9971 -75.9951 -70.4961q-15.999 -22.498 -15.999 -47.4971zM314.511 412.506q-17.499 -17.499 -41.9971 -17.499q-24.499 0 -41.998 17.499t-17.499 41.9971q0 24.499 17.499 41.998t41.998 17.499q24.498 0 41.9971 -17.499t17.499 -41.998
q0 -24.498 -17.499 -41.9971z" />
    <glyph glyph-name="Agrave" unicode="&#xc0;" horiz-adv-x="697" 
d="M257 857q0 37 40 37q20 0 30 -19l51 -90q7 -7 7 -19t-7.5 -19.5t-20 -7.5t-21.5 11l-69 82q-10 11 -10 25zM667 60q5 -12 5 -25.5t-12 -26.5t-38 -13t-38 28l-65 156h-340l-65 -156q-12 -28 -38 -28t-38 13t-12 26.5t5 25.5l255 602q18 41 58 41h10q40 0 58 -41zM484 262
l-135 325l-135 -325h270z" />
    <glyph glyph-name="Aacute" unicode="&#xc1;" horiz-adv-x="697" 
d="M370 875q10 19 30 19q40 0 40 -37q0 -14 -10 -25l-69 -82q-9 -11 -21.5 -11t-20 7.5t-7.5 16.5q0 15 7 22zM667 60q5 -12 5 -25.5t-12 -26.5t-38 -13t-38 28l-65 156h-340l-65 -156q-12 -28 -38 -28t-38 13t-12 26.5t5 25.5l255 602q18 41 58 41h10q40 0 58 -41zM484 262
l-135 325l-135 -325h270z" />
    <glyph glyph-name="Acircumflex" unicode="&#xc2;" horiz-adv-x="697" 
d="M476 787q8 -8 8 -19.5t-8.5 -20.5t-20.5 -9t-19 7l-87 74l-87 -74q-7 -7 -19 -7t-20.5 9t-8.5 14.5v11.5t8 14l68 70q20 20 40 20h38q20 0 40 -20zM667 60q5 -12 5 -25.5t-12 -26.5t-38 -13t-38 28l-65 156h-340l-65 -156q-12 -28 -38 -28t-38 13t-12 26.5t5 25.5
l255 602q18 41 58 41h10q40 0 58 -41zM484 262l-135 325l-135 -325h270z" />
    <glyph glyph-name="Atilde" unicode="&#xc3;" horiz-adv-x="697" 
d="M489 862q21 0 23 -22q0 -35 -23 -64q-26 -31 -61 -31q-30 0 -64 16.5t-52.5 24t-35.5 7.5q-27 0 -41 -32q-5 -18 -23 -18q-9 0 -16 6.5t-7 19t6 29t17 30.5q23 33 61 33q22 0 41 -7.5t37.5 -16t37 -16t36.5 -7.5t26 7t12 17q9 24 26 24zM667 60q5 -12 5 -25.5t-12 -26.5
t-38 -13t-38 28l-65 156h-340l-65 -156q-12 -28 -38 -28t-38 13t-12 26.5t5 25.5l255 602q18 41 58 41h10q40 0 58 -41zM484 262l-135 325l-135 -325h270z" />
    <glyph glyph-name="Adieresis" unicode="&#xc4;" horiz-adv-x="697" 
d="M667 60q5 -12 5 -25.5t-12 -26.5t-38 -13t-38 28l-65 156h-340l-65 -156q-12 -28 -38 -28t-38 13t-12 26.5t5 25.5l255 602q18 41 58 41h10q40 0 58 -41zM484 262l-135 325l-135 -325h270zM265 849q21 0 36 -15t15 -36t-15 -36t-36 -15t-36 15t-15 36t15 36t36 15z
M434 849q21 0 36 -15t15 -36t-15 -36t-36 -15t-36 15t-15 36t15 36t36 15z" />
    <glyph glyph-name="Aring" unicode="&#xc5;" horiz-adv-x="697" 
d="M348 918q20 0 37.5 -7.5t30.5 -19.5q27 -28 27 -67t-27.5 -66.5t-66.5 -27.5t-66.5 27.5t-27.5 66.5t27.5 66.5t65.5 27.5zM349 775q20 0 34.5 14.5t14.5 34.5t-14.5 34.5t-34.5 14.5t-34.5 -14.5t-14.5 -34.5t14.5 -34.5t34.5 -14.5zM667 60q5 -12 5 -25.5t-12 -26.5
t-38 -13t-38 28l-65 156h-340l-65 -156q-12 -28 -38 -28t-38 13t-12 26.5t5 25.5l255 602q18 41 58 41h10q40 0 58 -41zM484 262l-135 325l-135 -325h270z" />
    <glyph glyph-name="AE" unicode="&#xc6;" horiz-adv-x="1040" 
d="M945 85q18 0 30.5 -12.5t12.5 -30.5t-12.5 -30t-30.5 -12h-401q-19 0 -32 13t-13 32v134h-308l-102 -158q-17 -26 -39 -26t-35 13t-13 26q0 20 10 34l399 605q18 25 46 25h488q18 0 30.5 -12.5t12.5 -30.5t-12.5 -30t-30.5 -12h-355v-221h319q18 0 30.5 -12.5t12.5 -30.5
t-12.5 -30t-30.5 -12h-319v-222h355zM499 613h-25l-229 -351h254v351z" />
    <glyph glyph-name="Ccedilla" unicode="&#xc7;" horiz-adv-x="698" 
d="M368 -178q57 0 57 46q0 15 -10.5 23t-23.5 8q-24 0 -36 -6q-16 -8 -21.5 -8t-11 4.5t-5.5 12t4 13.5l48 77q-140 12 -225 106q-88 98 -88 251q0 165 100 263q97 96 250 96q74 0 127.5 -18t82 -33.5t34.5 -25t6 -24t-10.5 -26t-25 -11.5t-22.5 4q-40 21 -82 34t-104.5 13
t-113 -21t-84.5 -58q-67 -73 -67 -193t67 -193q73 -79 201 -79q59 0 101 13t66 25.5t38.5 12.5t25 -11.5t10.5 -26.5q0 -27 -22 -38q-46 -26 -98.5 -43.5t-124.5 -18.5l-30 -53q16 4 42 4t47.5 -19t21.5 -51q0 -92 -111 -92q-48 0 -90 26q-11 5 -11 17q0 20 19 20q4 0 10 -3
q31 -17 59 -17z" />
    <glyph glyph-name="Egrave" unicode="&#xc8;" horiz-adv-x="638" 
d="M573.5 72.5q12.5 -12.5 12.5 -30.5t-12.5 -30t-30.5 -12h-401q-19 0 -32 13t-13 32v607q0 19 13 32.5t32 13.5h401q18 0 30.5 -12.5t12.5 -30.5t-12.5 -30t-30.5 -12h-355v-221h319q18 0 30.5 -12.5t12.5 -30.5t-12.5 -30t-30.5 -12h-319v-222h355q18 0 30.5 -12.5z
M252 857q0 37 40 37q20 0 30 -19l51 -90q7 -7 7 -19t-7.5 -19.5t-20 -7.5t-21.5 11l-69 82q-10 11 -10 25z" />
    <glyph glyph-name="Eacute" unicode="&#xc9;" horiz-adv-x="638" 
d="M573.5 72.5q12.5 -12.5 12.5 -30.5t-12.5 -30t-30.5 -12h-401q-19 0 -32 13t-13 32v607q0 19 13 32.5t32 13.5h401q18 0 30.5 -12.5t12.5 -30.5t-12.5 -30t-30.5 -12h-355v-221h319q18 0 30.5 -12.5t12.5 -30.5t-12.5 -30t-30.5 -12h-319v-222h355q18 0 30.5 -12.5z
M360 875q10 19 30 19q40 0 40 -37q0 -14 -10 -25l-69 -82q-9 -11 -21.5 -11t-20 7.5t-7.5 16.5q0 15 7 22z" />
    <glyph glyph-name="Ecircumflex" unicode="&#xca;" horiz-adv-x="638" 
d="M573.5 72.5q12.5 -12.5 12.5 -30.5t-12.5 -30t-30.5 -12h-401q-19 0 -32 13t-13 32v607q0 19 13 32.5t32 13.5h401q18 0 30.5 -12.5t12.5 -30.5t-12.5 -30t-30.5 -12h-355v-221h319q18 0 30.5 -12.5t12.5 -30.5t-12.5 -30t-30.5 -12h-319v-222h355q18 0 30.5 -12.5z
M476 787q8 -8 8 -19.5t-8.5 -20.5t-20.5 -9t-19 7l-87 74l-87 -74q-7 -7 -19 -7t-20.5 9t-8.5 14.5v11.5t8 14l68 70q20 20 40 20h38q20 0 40 -20z" />
    <glyph glyph-name="Edieresis" unicode="&#xcb;" horiz-adv-x="638" 
d="M573.5 72.5q12.5 -12.5 12.5 -30.5t-12.5 -30t-30.5 -12h-401q-19 0 -32 13t-13 32v607q0 19 13 32.5t32 13.5h401q18 0 30.5 -12.5t12.5 -30.5t-12.5 -30t-30.5 -12h-355v-221h319q18 0 30.5 -12.5t12.5 -30.5t-12.5 -30t-30.5 -12h-319v-222h355q18 0 30.5 -12.5z
M254 849q21 0 36 -15t15 -36t-15 -36t-36 -15t-36 15t-15 36t15 36t36 15zM423 849q21 0 36 -15t15 -36t-15 -36t-36 -15t-36 15t-15 36t15 36t36 15z" />
    <glyph glyph-name="Igrave" unicode="&#xcc;" horiz-adv-x="285" 
d="M142 703q19 0 32.5 -13.5t13.5 -32.5v-617q0 -19 -13.5 -32t-32.5 -13t-32 13t-13 32v617q0 19 13 32.5t32 13.5zM57 857q0 37 40 37q20 0 30 -19l51 -90q7 -7 7 -19t-7.5 -19.5t-20 -7.5t-21.5 11l-69 82q-10 11 -10 25z" />
    <glyph glyph-name="Iacute" unicode="&#xcd;" horiz-adv-x="285" 
d="M142 703q19 0 32.5 -13.5t13.5 -32.5v-617q0 -19 -13.5 -32t-32.5 -13t-32 13t-13 32v617q0 19 13 32.5t32 13.5zM159 875q10 19 30 19q40 0 40 -37q0 -14 -10 -25l-69 -82q-9 -11 -21.5 -11t-20 7.5t-7.5 16.5q0 15 7 22z" />
    <glyph glyph-name="Icircumflex" unicode="&#xce;" horiz-adv-x="285" 
d="M142 703q19 0 32.5 -13.5t13.5 -32.5v-617q0 -19 -13.5 -32t-32.5 -13t-32 13t-13 32v617q0 19 13 32.5t32 13.5zM270 787q8 -8 8 -19.5t-8.5 -20.5t-20.5 -9t-19 7l-87 74l-87 -74q-7 -7 -19 -7t-20.5 9t-8.5 14.5v11.5t8 14l68 70q20 20 40 20h38q20 0 40 -20z" />
    <glyph glyph-name="Idieresis" unicode="&#xcf;" horiz-adv-x="285" 
d="M142 703q19 0 32.5 -13.5t13.5 -32.5v-617q0 -19 -13.5 -32t-32.5 -13t-32 13t-13 32v617q0 19 13 32.5t32 13.5zM59 849q21 0 36 -15t15 -36t-15 -36t-36 -15t-36 15t-15 36t15 36t36 15zM228 849q21 0 36 -15t15 -36t-15 -36t-36 -15t-36 15t-15 36t15 36t36 15z" />
    <glyph glyph-name="Eth" unicode="&#xd0;" horiz-adv-x="757" 
d="M350 698q167 0 266 -112q44 -49 65.5 -111.5t21.5 -125.5t-21.5 -125.5t-65.5 -111.5q-99 -112 -266 -112h-201q-19 0 -32 13t-13 32v270h-54q-14 0 -23.5 9.5t-9.5 23.5t9.5 24t23.5 10h54v270q0 19 13 32.5t32 13.5h201zM339 85q124 0 199 73t75 191t-75 191t-199 73
h-144v-231h117q14 0 24 -10t10 -24t-10 -23.5t-24 -9.5h-117v-230h144z" />
    <glyph glyph-name="Ntilde" unicode="&#xd1;" horiz-adv-x="803" 
d="M660 703q19 0 32.5 -13.5t13.5 -32.5v-597q0 -27 -19.5 -46t-46.5 -19h-12q-33 0 -53 27l-387 559v-541q0 -19 -13.5 -32t-32.5 -13t-32 13t-13 32v597q0 27 19 46.5t46 19.5h13q31 0 55 -30l385 -556v540q0 19 13 32.5t32 13.5zM545 862q21 0 23 -22q0 -35 -23 -64
q-26 -31 -61 -31q-30 0 -64 16.5t-52.5 24t-35.5 7.5q-27 0 -41 -32q-5 -18 -23 -18q-9 0 -16 6.5t-7 19t6 29t17 30.5q23 33 61 33q22 0 41 -7.5t37.5 -16t37 -16t36.5 -7.5t26 7t12 17q9 24 26 24z" />
    <glyph glyph-name="Ograve" unicode="&#xd2;" horiz-adv-x="811" 
d="M406 708q158 0 254 -101q93 -99 97 -258q-4 -159 -97 -258q-96 -101 -254 -101q-159 0 -254 101q-95 100 -97 258q2 158 97 258q95 101 254 101zM406 75q122 0 192 79q68 76 68 195t-68 195q-70 79 -192 79t-192 -79q-68 -76 -68 -195t68 -195q70 -79 192 -79zM322 857
q0 37 40 37q20 0 30 -19l51 -90q7 -7 7 -19t-7.5 -19.5t-20 -7.5t-21.5 11l-69 82q-10 11 -10 25z" />
    <glyph glyph-name="Oacute" unicode="&#xd3;" horiz-adv-x="811" 
d="M406 708q158 0 254 -101q93 -99 97 -258q-4 -159 -97 -258q-96 -101 -254 -101q-159 0 -254 101q-95 100 -97 258q2 158 97 258q95 101 254 101zM406 75q122 0 192 79q68 76 68 195t-68 195q-70 79 -192 79t-192 -79q-68 -76 -68 -195t68 -195q70 -79 192 -79zM420 875
q10 19 30 19q40 0 40 -37q0 -14 -10 -25l-69 -82q-9 -11 -21.5 -11t-20 7.5t-7.5 16.5q0 15 7 22z" />
    <glyph glyph-name="Ocircumflex" unicode="&#xd4;" horiz-adv-x="811" 
d="M406 708q158 0 254 -101q93 -99 97 -258q-4 -159 -97 -258q-96 -101 -254 -101q-159 0 -254 101q-95 100 -97 258q2 158 97 258q95 101 254 101zM406 75q122 0 192 79q68 76 68 195t-68 195q-70 79 -192 79t-192 -79q-68 -76 -68 -195t68 -195q70 -79 192 -79zM533 787
q8 -8 8 -19.5t-8.5 -20.5t-20.5 -9t-19 7l-87 74l-87 -74q-7 -7 -19 -7t-20.5 9t-8.5 14.5v11.5t8 14l68 70q20 20 40 20h38q20 0 40 -20z" />
    <glyph glyph-name="Otilde" unicode="&#xd5;" horiz-adv-x="811" 
d="M406 708q158 0 254 -101q93 -99 97 -258q-4 -159 -97 -258q-96 -101 -254 -101q-159 0 -254 101q-95 100 -97 258q2 158 97 258q95 101 254 101zM406 75q122 0 192 79q68 76 68 195t-68 195q-70 79 -192 79t-192 -79q-68 -76 -68 -195t68 -195q70 -79 192 -79zM545 862
q21 0 23 -22q0 -35 -23 -64q-26 -31 -61 -31q-30 0 -64 16.5t-52.5 24t-35.5 7.5q-27 0 -41 -32q-5 -18 -23 -18q-9 0 -16 6.5t-7 19t6 29t17 30.5q23 33 61 33q22 0 41 -7.5t37.5 -16t37 -16t36.5 -7.5t26 7t12 17q9 24 26 24z" />
    <glyph glyph-name="Odieresis" unicode="&#xd6;" horiz-adv-x="811" 
d="M406 708q158 0 254 -101q93 -99 97 -258q-4 -159 -97 -258q-96 -101 -254 -101q-159 0 -254 101q-95 100 -97 258q2 158 97 258q95 101 254 101zM406 75q122 0 192 79q68 76 68 195t-68 195q-70 79 -192 79t-192 -79q-68 -76 -68 -195t68 -195q70 -79 192 -79zM322 849
q21 0 36 -15t15 -36t-15 -36t-36 -15t-36 15t-15 36t15 36t36 15zM491 849q21 0 36 -15t15 -36t-15 -36t-36 -15t-36 15t-15 36t15 36t36 15z" />
    <glyph glyph-name="multiply" unicode="&#xd7;" horiz-adv-x="563" 
d="M69.5 468.5q10.5 11.5 26.5 11.5t28 -12l157 -157l157 157q12 12 28 12t26.5 -11.5t10.5 -26.5t-12 -27l-157 -157l157 -157q12 -12 12 -27t-10.5 -26.5t-26.5 -11.5t-28 12l-157 157l-157 -157q-12 -12 -28 -12t-26.5 11.5t-10.5 26.5t12 27l157 157l-157 157
q-12 12 -12 27t10.5 26.5z" />
    <glyph glyph-name="Oslash" unicode="&#xd8;" horiz-adv-x="811" 
d="M178 66q-119 98 -123 283q2 158 97 258q95 101 254 101q105 0 188 -49l40 58q7 10 19.5 10t19.5 -7t7 -16t-6 -18l-39 -56q57 -48 88.5 -120t33.5 -161q-4 -159 -97 -258q-96 -101 -254 -101q-107 0 -187 47l-40 -57q-7 -10 -19.5 -10t-19.5 7t-7 16t6 18zM543 588
q-60 35 -129.5 35t-118 -21t-81.5 -58q-68 -76 -68 -195q0 -133 83 -210zM269 109q59 -34 129 -34t118.5 21t81.5 58q68 76 68 195q0 131 -82 209z" />
    <glyph glyph-name="Ugrave" unicode="&#xd9;" horiz-adv-x="758" 
d="M620 703q19 0 32.5 -13.5t13.5 -32.5v-395q0 -131 -94 -206q-81 -66 -193 -66q-114 0 -194 66q-93 75 -93 206v395q0 19 13 32.5t32 13.5t32.5 -13.5t13.5 -32.5v-398q0 -89 61 -140q56 -46 135 -46t135 46q61 51 61 140v398q0 19 13 32.5t32 13.5zM301 857q0 37 40 37
q20 0 30 -19l51 -90q7 -7 7 -19t-7.5 -19.5t-20 -7.5t-21.5 11l-69 82q-10 11 -10 25z" />
    <glyph glyph-name="Uacute" unicode="&#xda;" horiz-adv-x="758" 
d="M620 703q19 0 32.5 -13.5t13.5 -32.5v-395q0 -131 -94 -206q-81 -66 -193 -66q-114 0 -194 66q-93 75 -93 206v395q0 19 13 32.5t32 13.5t32.5 -13.5t13.5 -32.5v-398q0 -89 61 -140q56 -46 135 -46t135 46q61 51 61 140v398q0 19 13 32.5t32 13.5zM387 875q10 19 30 19
q40 0 40 -37q0 -14 -10 -25l-69 -82q-9 -11 -21.5 -11t-20 7.5t-7.5 16.5q0 15 7 22z" />
    <glyph glyph-name="Ucircumflex" unicode="&#xdb;" horiz-adv-x="758" 
d="M620 703q19 0 32.5 -13.5t13.5 -32.5v-395q0 -131 -94 -206q-81 -66 -193 -66q-114 0 -194 66q-93 75 -93 206v395q0 19 13 32.5t32 13.5t32.5 -13.5t13.5 -32.5v-398q0 -89 61 -140q56 -46 135 -46t135 46q61 51 61 140v398q0 19 13 32.5t32 13.5zM506 787q8 -8 8 -19.5
t-8.5 -20.5t-20.5 -9t-19 7l-87 74l-87 -74q-7 -7 -19 -7t-20.5 9t-8.5 14.5v11.5t8 14l68 70q20 20 40 20h38q20 0 40 -20z" />
    <glyph glyph-name="Udieresis" unicode="&#xdc;" horiz-adv-x="758" 
d="M620 703q19 0 32.5 -13.5t13.5 -32.5v-395q0 -131 -94 -206q-81 -66 -193 -66q-114 0 -194 66q-93 75 -93 206v395q0 19 13 32.5t32 13.5t32.5 -13.5t13.5 -32.5v-398q0 -89 61 -140q56 -46 135 -46t135 46q61 51 61 140v398q0 19 13 32.5t32 13.5zM295 849q21 0 36 -15
t15 -36t-15 -36t-36 -15t-36 15t-15 36t15 36t36 15zM464 849q21 0 36 -15t15 -36t-15 -36t-36 -15t-36 15t-15 36t15 36t36 15z" />
    <glyph glyph-name="Yacute" unicode="&#xdd;" horiz-adv-x="645" 
d="M532 680q15 23 37.5 23t34.5 -13t12 -30t-8 -30l-240 -335v-255q0 -19 -13 -32t-32 -13t-32.5 13t-13.5 32v255l-239 335q-8 13 -8 30t12 30t34.5 13t37.5 -23l209 -304zM340 875q10 19 30 19q40 0 40 -37q0 -14 -10 -25l-69 -82q-9 -11 -21.5 -11t-20 7.5t-7.5 16.5
q0 15 7 22z" />
    <glyph glyph-name="Thorn" unicode="&#xde;" horiz-adv-x="671" 
d="M370 586q139 0 209 -72q58 -58 58 -150t-58 -150q-70 -72 -209 -72h-182v-102q0 -19 -13.5 -32t-32.5 -13t-32 13t-13 32v617q0 19 13 32.5t32 13.5t32.5 -13.5t13.5 -32.5v-71h182zM361 228q103 0 149 44q36 34 36 92q0 93 -93 124q-36 12 -92 12h-173v-272h173z" />
    <glyph glyph-name="germandbls" unicode="&#xdf;" horiz-adv-x="610" 
d="M414 352q63 -16 98 -50q51 -49 51 -128q0 -87 -59 -139q-52 -45 -131 -45q-64 0 -111 17q-32 11 -32 38q0 17 11 28t23 11t31 -6.5t48 -6.5t48.5 4.5t37.5 16.5q43 30 43 93q0 57 -49 91q-47 33 -123 33q-18 0 -28 10t-10 26t10.5 26t27.5 12q62 7 97.5 39t35.5 84.5
t-34.5 84.5t-94.5 32q-91 0 -122 -75q-12 -28 -12 -73v-434q0 -19 -13.5 -32t-32.5 -13t-32 13t-13 32v445q0 105 63 164q61 58 163 58q86 0 147 -47q72 -54 72 -149q0 -101 -70 -142q-20 -12 -40 -18z" />
    <glyph glyph-name="agrave" unicode="&#xe0;" horiz-adv-x="555" 
d="M98 484q84 36 174 36q102 0 158 -62q50 -54 50 -135v-283q0 -19 -13.5 -32t-32.5 -13t-32 13t-13 32v26q-27 -28 -72.5 -52t-115.5 -24q-69 0 -115 40q-48 42 -48 110q0 74 56 116q61 46 174 46h121v8q0 67 -33 95.5t-101 28.5q-58 0 -133 -24q-8 -2 -18 -2t-21 10.5
t-11 32.5t26 33zM129 150q0 -80 106 -80q47 0 87.5 23t66.5 52v84h-109q-71 0 -111 -18t-40 -61zM189 685q0 37 40 37q20 0 30 -19l51 -90q7 -7 7 -19t-7.5 -19.5t-20 -7.5t-21.5 11l-69 82q-10 11 -10 25z" />
    <glyph glyph-name="aacute" unicode="&#xe1;" horiz-adv-x="555" 
d="M98 484q84 36 174 36q102 0 158 -62q50 -54 50 -135v-283q0 -19 -13.5 -32t-32.5 -13t-32 13t-13 32v26q-27 -28 -72.5 -52t-115.5 -24q-69 0 -115 40q-48 42 -48 110q0 74 56 116q61 46 174 46h121v8q0 67 -33 95.5t-101 28.5q-58 0 -133 -24q-8 -2 -18 -2t-21 10.5
t-11 32.5t26 33zM129 150q0 -80 106 -80q47 0 87.5 23t66.5 52v84h-109q-71 0 -111 -18t-40 -61zM282 703q10 19 30 19q40 0 40 -37q0 -14 -10 -25l-69 -82q-9 -11 -21.5 -11t-20 7.5t-7.5 16.5q0 15 7 22z" />
    <glyph glyph-name="acircumflex" unicode="&#xe2;" horiz-adv-x="555" 
d="M98 484q84 36 174 36q102 0 158 -62q50 -54 50 -135v-283q0 -19 -13.5 -32t-32.5 -13t-32 13t-13 32v26q-27 -28 -72.5 -52t-115.5 -24q-69 0 -115 40q-48 42 -48 110q0 74 56 116q61 46 174 46h121v8q0 67 -33 95.5t-101 28.5q-58 0 -133 -24q-8 -2 -18 -2t-21 10.5
t-11 32.5t26 33zM129 150q0 -80 106 -80q47 0 87.5 23t66.5 52v84h-109q-71 0 -111 -18t-40 -61zM400 615q8 -8 8 -19.5t-8.5 -20.5t-20.5 -9t-19 7l-87 74l-87 -74q-7 -7 -19 -7t-20.5 9t-8.5 14.5v11.5t8 14l68 70q20 20 40 20h38q20 0 40 -20z" />
    <glyph glyph-name="atilde" unicode="&#xe3;" horiz-adv-x="555" 
d="M98 484q84 36 174 36q102 0 158 -62q50 -54 50 -135v-283q0 -19 -13.5 -32t-32.5 -13t-32 13t-13 32v26q-27 -28 -72.5 -52t-115.5 -24q-69 0 -115 40q-48 42 -48 110q0 74 56 116q61 46 174 46h121v8q0 67 -33 95.5t-101 28.5q-58 0 -133 -24q-8 -2 -18 -2t-21 10.5
t-11 32.5t26 33zM129 150q0 -80 106 -80q47 0 87.5 23t66.5 52v84h-109q-71 0 -111 -18t-40 -61zM409 690q21 0 23 -22q0 -35 -23 -64q-26 -31 -61 -31q-30 0 -64 16.5t-52.5 24t-35.5 7.5q-27 0 -41 -32q-5 -18 -23 -18q-9 0 -16 6.5t-7 19t6 29t17 30.5q23 33 61 33
q22 0 41 -7.5t37.5 -16t37 -16t36.5 -7.5t26 7t12 17q9 24 26 24z" />
    <glyph glyph-name="adieresis" unicode="&#xe4;" horiz-adv-x="555" 
d="M98 484q84 36 174 36q102 0 158 -62q50 -54 50 -135v-283q0 -19 -13.5 -32t-32.5 -13t-32 13t-13 32v26q-27 -28 -72.5 -52t-115.5 -24q-69 0 -115 40q-48 42 -48 110q0 74 56 116q61 46 174 46h121v8q0 67 -33 95.5t-101 28.5q-58 0 -133 -24q-8 -2 -18 -2t-21 10.5
t-11 32.5t26 33zM129 150q0 -80 106 -80q47 0 87.5 23t66.5 52v84h-109q-71 0 -111 -18t-40 -61zM190 677q21 0 36 -15t15 -36t-15 -36t-36 -15t-36 15t-15 36t15 36t36 15zM359 677q21 0 36 -15t15 -36t-15 -36t-36 -15t-36 15t-15 36t15 36t36 15z" />
    <glyph glyph-name="aring" unicode="&#xe5;" horiz-adv-x="555" 
d="M98 484q84 36 174 36q102 0 158 -62q50 -54 50 -135v-283q0 -19 -13.5 -32t-32.5 -13t-32 13t-13 32v26q-27 -28 -72.5 -52t-115.5 -24q-69 0 -115 40q-48 42 -48 110q0 74 56 116q61 46 174 46h121v8q0 67 -33 95.5t-101 28.5q-58 0 -133 -24q-8 -2 -18 -2t-21 10.5
t-11 32.5t26 33zM129 150q0 -80 106 -80q47 0 87.5 23t66.5 52v84h-109q-71 0 -111 -18t-40 -61zM268 739q20 0 37.5 -7.5t30.5 -19.5q27 -28 27 -67t-27.5 -66.5t-66.5 -27.5t-66.5 27.5t-27.5 66.5t27.5 66.5t65.5 27.5zM269 596q20 0 34.5 14.5t14.5 34.5t-14.5 34.5
t-34.5 14.5t-34.5 -14.5t-14.5 -34.5t14.5 -34.5t34.5 -14.5z" />
    <glyph glyph-name="ae" unicode="&#xe6;" horiz-adv-x="904" 
d="M441 436q64 84 181 84q110 0 176 -72q63 -69 63 -179q0 -17 -11.5 -30t-32.5 -13h-344q18 -151 177 -151q73 0 135 31q8 4 21 4t25 -11t12 -25q0 -26 -21.5 -37.5t-38.5 -19.5t-37 -14q-45 -13 -104 -13q-137 0 -203 87q-58 -87 -206 -87q-83 0 -138 40q-58 41 -58 110
q0 113 128 148q43 11 102 11h121v11q0 67 -33 95.5t-101 28.5q-58 0 -133 -24q-8 -2 -18 -2t-21 10.5t-11 32.5t31 35q79 34 168 34q119 0 171 -84zM388 226h-109q-71 0 -111 -16.5t-40 -59.5q0 -32 31 -56t92 -24q93 0 125 50q12 19 12 49v57zM771 299q-4 72 -53 111
q-41 33 -96 33t-96 -33q-49 -39 -53 -111h298z" />
    <glyph glyph-name="ccedilla" unicode="&#xe7;" horiz-adv-x="537" 
d="M272 -178q57 0 57 46q0 15 -10.5 23t-23.5 8q-24 0 -36 -6q-16 -8 -21.5 -8t-11 4.5t-5.5 12t4 13.5l48 78q-98 13 -161 80q-66 72 -66 182q0 121 80 195q76 70 187 70q60 0 98.5 -15.5t61.5 -30.5t23 -33t-11 -31t-22 -13q-17 0 -35 10q-51 28 -107 28q-88 0 -136 -49.5
t-48 -130.5t48 -130.5t136 -49.5q39 0 64 9t41 18q21 11 34.5 11t24.5 -13t11 -31t-23 -33q-68 -44 -158 -46l-30 -53q16 4 42 4t47.5 -19t21.5 -51q0 -92 -111 -92q-48 0 -90 26q-11 5 -11 17q0 20 19 20q4 0 10 -3q31 -17 59 -17z" />
    <glyph glyph-name="egrave" unicode="&#xe8;" horiz-adv-x="570" 
d="M192 115q43 -40 120 -40t129 26q18 9 31 9t25 -11t12 -25q0 -26 -21.5 -37.5t-38.5 -19.5t-37 -14q-45 -13 -104 -13q-123 0 -191 69t-68 196q0 110 57 183q64 82 182 82q112 0 177 -76q61 -71 61 -176q0 -19 -12.5 -32t-33.5 -13h-339q8 -68 51 -108zM288 443
q-89 0 -130 -79q-15 -28 -17 -67h295q-4 71 -52 112q-40 34 -96 34zM209 685q0 37 40 37q20 0 30 -19l51 -90q7 -7 7 -19t-7.5 -19.5t-20 -7.5t-21.5 11l-69 82q-10 11 -10 25z" />
    <glyph glyph-name="eacute" unicode="&#xe9;" horiz-adv-x="570" 
d="M192 115q43 -40 120 -40t129 26q18 9 31 9t25 -11t12 -25q0 -26 -21.5 -37.5t-38.5 -19.5t-37 -14q-45 -13 -104 -13q-123 0 -191 69t-68 196q0 110 57 183q64 82 182 82q112 0 177 -76q61 -71 61 -176q0 -19 -12.5 -32t-33.5 -13h-339q8 -68 51 -108zM288 443
q-89 0 -130 -79q-15 -28 -17 -67h295q-4 71 -52 112q-40 34 -96 34zM296 703q10 19 30 19q40 0 40 -37q0 -14 -10 -25l-69 -82q-9 -11 -21.5 -11t-20 7.5t-7.5 16.5q0 15 7 22z" />
    <glyph glyph-name="ecircumflex" unicode="&#xea;" horiz-adv-x="570" 
d="M192 115q43 -40 120 -40t129 26q18 9 31 9t25 -11t12 -25q0 -26 -21.5 -37.5t-38.5 -19.5t-37 -14q-45 -13 -104 -13q-123 0 -191 69t-68 196q0 110 57 183q64 82 182 82q112 0 177 -76q61 -71 61 -176q0 -19 -12.5 -32t-33.5 -13h-339q8 -68 51 -108zM288 443
q-89 0 -130 -79q-15 -28 -17 -67h295q-4 71 -52 112q-40 34 -96 34zM414 615q8 -8 8 -19.5t-8.5 -20.5t-20.5 -9t-19 7l-87 74l-87 -74q-7 -7 -19 -7t-20.5 9t-8.5 14.5v11.5t8 14l68 70q20 20 40 20h38q20 0 40 -20z" />
    <glyph glyph-name="edieresis" unicode="&#xeb;" horiz-adv-x="570" 
d="M192 115q43 -40 120 -40t129 26q18 9 31 9t25 -11t12 -25q0 -26 -21.5 -37.5t-38.5 -19.5t-37 -14q-45 -13 -104 -13q-123 0 -191 69t-68 196q0 110 57 183q64 82 182 82q112 0 177 -76q61 -71 61 -176q0 -19 -12.5 -32t-33.5 -13h-339q8 -68 51 -108zM288 443
q-89 0 -130 -79q-15 -28 -17 -67h295q-4 71 -52 112q-40 34 -96 34zM203 677q21 0 36 -15t15 -36t-15 -36t-36 -15t-36 15t-15 36t15 36t36 15zM372 677q21 0 36 -15t15 -36t-15 -36t-36 -15t-36 15t-15 36t15 36t36 15z" />
    <glyph glyph-name="igrave" unicode="&#xec;" horiz-adv-x="257" 
d="M96 502q13 13 32.5 13t32.5 -13t13 -33v-429q0 -19 -13 -32t-32.5 -13t-32.5 13t-13 32v429q0 20 13 33zM42 685q0 37 40 37q20 0 30 -19l51 -90q7 -7 7 -19t-7.5 -19.5t-20 -7.5t-21.5 11l-69 82q-10 11 -10 25z" />
    <glyph glyph-name="iacute" unicode="&#xed;" horiz-adv-x="257" 
d="M96 502q13 13 32.5 13t32.5 -13t13 -33v-429q0 -19 -13 -32t-32.5 -13t-32.5 13t-13 32v429q0 20 13 33zM145 703q10 19 30 19q40 0 40 -37q0 -14 -10 -25l-69 -82q-9 -11 -21.5 -11t-20 7.5t-7.5 16.5q0 15 7 22z" />
    <glyph glyph-name="icircumflex" unicode="&#xee;" horiz-adv-x="257" 
d="M96 502q13 13 32.5 13t32.5 -13t13 -33v-429q0 -19 -13 -32t-32.5 -13t-32.5 13t-13 32v429q0 20 13 33zM255 615q8 -8 8 -19.5t-8.5 -20.5t-20.5 -9t-19 7l-87 74l-87 -74q-7 -7 -19 -7t-20.5 9t-8.5 14.5v11.5t8 14l68 70q20 20 40 20h38q20 0 40 -20z" />
    <glyph glyph-name="idieresis" unicode="&#xef;" horiz-adv-x="257" 
d="M96 502q13 13 32.5 13t32.5 -13t13 -33v-429q0 -19 -13 -32t-32.5 -13t-32.5 13t-13 32v429q0 20 13 33zM44 677q21 0 36 -15t15 -36t-15 -36t-36 -15t-36 15t-15 36t15 36t36 15zM213 677q21 0 36 -15t15 -36t-15 -36t-36 -15t-36 15t-15 36t15 36t36 15z" />
    <glyph glyph-name="eth" unicode="&#xf0;" horiz-adv-x="599" 
d="M396 477q-41 60 -107 117l-84 -49q-12 -6 -20 -6t-15 7t-7 20t15 21l68 40q-46 32 -65.5 42.5t-25 20t-5.5 24t12.5 26.5t26.5 12t30 -10q54 -32 103 -71l68 41q8 5 17 5t16 -7t7 -20t-12 -20l-56 -33q184 -168 184 -363q0 -198 -134 -262q-48 -22 -109.5 -22
t-107.5 18.5t-79 52.5q-67 71 -67 187q0 106 61 178q66 79 173 79q59 0 113 -28zM297 70q64 0 108 42q53 49 53 140q0 89 -53 138q-43 41 -108 41t-108 -41q-52 -48 -52 -138q0 -92 52 -140q44 -42 108 -42z" />
    <glyph glyph-name="ntilde" unicode="&#xf1;" horiz-adv-x="609" 
d="M334 436q-88 0 -164 -96v-300q0 -19 -13.5 -32t-32.5 -13t-32 13t-13 32v429q0 20 13 33t32 13t32.5 -13t13.5 -33v-41q40 42 69 59q57 33 108.5 33t84.5 -15.5t56 -42.5q47 -55 47 -138v-284q0 -19 -13.5 -32t-32.5 -13t-32 13t-13 32v274q0 57 -25.5 89.5t-84.5 32.5z
M449 690q21 0 23 -22q0 -35 -23 -64q-26 -31 -61 -31q-30 0 -64 16.5t-52.5 24t-35.5 7.5q-27 0 -41 -32q-5 -18 -23 -18q-9 0 -16 6.5t-7 19t6 29t17 30.5q23 33 61 33q22 0 41 -7.5t37.5 -16t37 -16t36.5 -7.5t26 7t12 17q9 24 26 24z" />
    <glyph glyph-name="ograve" unicode="&#xf2;" horiz-adv-x="608" 
d="M304 520q116 0 186 -73q70 -74 70 -192t-70 -192q-70 -73 -186 -73q-117 0 -186 73q-70 73 -70 192t70 192q69 73 186 73zM245.5 83q29.5 -10 58 -10t58 10t53.5 31q54 49 54 142q0 90 -54 140q-45 41 -111 41q-108 0 -150 -97q-15 -35 -15 -84.5t15 -84.5t38.5 -56.5
t53 -31.5zM218 685q0 37 40 37q20 0 30 -19l51 -90q7 -7 7 -19t-7.5 -19.5t-20 -7.5t-21.5 11l-69 82q-10 11 -10 25z" />
    <glyph glyph-name="oacute" unicode="&#xf3;" horiz-adv-x="608" 
d="M304 520q116 0 186 -73q70 -74 70 -192t-70 -192q-70 -73 -186 -73q-117 0 -186 73q-70 73 -70 192t70 192q69 73 186 73zM245.5 83q29.5 -10 58 -10t58 10t53.5 31q54 49 54 142q0 90 -54 140q-45 41 -111 41q-108 0 -150 -97q-15 -35 -15 -84.5t15 -84.5t38.5 -56.5
t53 -31.5zM320 703q10 19 30 19q40 0 40 -37q0 -14 -10 -25l-69 -82q-9 -11 -21.5 -11t-20 7.5t-7.5 16.5q0 15 7 22z" />
    <glyph glyph-name="ocircumflex" unicode="&#xf4;" horiz-adv-x="608" 
d="M304 520q116 0 186 -73q70 -74 70 -192t-70 -192q-70 -73 -186 -73q-117 0 -186 73q-70 73 -70 192t70 192q69 73 186 73zM245.5 83q29.5 -10 58 -10t58 10t53.5 31q54 49 54 142q0 90 -54 140q-45 41 -111 41q-108 0 -150 -97q-15 -35 -15 -84.5t15 -84.5t38.5 -56.5
t53 -31.5zM431 615q8 -8 8 -19.5t-8.5 -20.5t-20.5 -9t-19 7l-87 74l-87 -74q-7 -7 -19 -7t-20.5 9t-8.5 14.5v11.5t8 14l68 70q20 20 40 20h38q20 0 40 -20z" />
    <glyph glyph-name="otilde" unicode="&#xf5;" horiz-adv-x="608" 
d="M304 520q116 0 186 -73q70 -74 70 -192t-70 -192q-70 -73 -186 -73q-117 0 -186 73q-70 73 -70 192t70 192q69 73 186 73zM245.5 83q29.5 -10 58 -10t58 10t53.5 31q54 49 54 142q0 90 -54 140q-45 41 -111 41q-108 0 -150 -97q-15 -35 -15 -84.5t15 -84.5t38.5 -56.5
t53 -31.5zM444 690q21 0 23 -22q0 -35 -23 -64q-26 -31 -61 -31q-30 0 -64 16.5t-52.5 24t-35.5 7.5q-27 0 -41 -32q-5 -18 -23 -18q-9 0 -16 6.5t-7 19t6 29t17 30.5q23 33 61 33q22 0 41 -7.5t37.5 -16t37 -16t36.5 -7.5t26 7t12 17q9 24 26 24z" />
    <glyph glyph-name="odieresis" unicode="&#xf6;" horiz-adv-x="608" 
d="M304 520q116 0 186 -73q70 -74 70 -192t-70 -192q-70 -73 -186 -73q-117 0 -186 73q-70 73 -70 192t70 192q69 73 186 73zM245.5 83q29.5 -10 58 -10t58 10t53.5 31q54 49 54 142q0 90 -54 140q-45 41 -111 41q-108 0 -150 -97q-15 -35 -15 -84.5t15 -84.5t38.5 -56.5
t53 -31.5zM220 677q21 0 36 -15t15 -36t-15 -36t-36 -15t-36 15t-15 36t15 36t36 15zM389 677q21 0 36 -15t15 -36t-15 -36t-36 -15t-36 15t-15 36t15 36t36 15z" />
    <glyph glyph-name="divide" unicode="&#xf7;" horiz-adv-x="712" 
d="M356 197q21 0 36 -15t15 -36t-15 -36t-36 -15t-36 15t-15 36t15 36t36 15zM356 465q-21 0 -36 15t-15 36t15 36t36 15t36 -15t15 -36t-15 -36t-36 -15zM598 372q17 0 29 -12t12 -29t-12 -28.5t-29 -11.5h-485q-17 0 -28.5 11.5t-11.5 28.5t11.5 29t28.5 12h485z" />
    <glyph glyph-name="oslash" unicode="&#xf8;" horiz-adv-x="608" 
d="M130 51q-82 74 -82 204q0 119 70 192q69 73 186 73q70 0 132 -32l29 41q7 10 19.5 10t19.5 -7t7 -16t-6 -18l-28 -40q83 -73 83 -203q0 -118 -70 -192q-70 -73 -186 -73q-75 0 -133 32l-30 -43q-7 -10 -19.5 -10t-19.5 7t-7 16t6 18zM182 125l204 291q-39 21 -75 21
t-65.5 -9.5t-53.5 -31.5q-53 -50 -53 -137t43 -134zM222 94q38 -21 74 -21t65.5 10t53.5 31q54 49 54 142q0 79 -43 129z" />
    <glyph glyph-name="ugrave" unicode="&#xf9;" horiz-adv-x="610" 
d="M276 74q88 0 164 96v300q0 19 13.5 32t32.5 13t32 -13t13 -32v-429q0 -20 -13 -33t-32 -13t-32.5 13t-13.5 33v41q-40 -42 -69 -59q-57 -33 -108.5 -33t-84.5 15.5t-56 42.5q-47 55 -47 138v284q0 19 13.5 32t32.5 13t32 -13t13 -32v-274q0 -57 25.5 -89.5t84.5 -32.5z
M217 685q0 37 40 37q20 0 30 -19l51 -90q7 -7 7 -19t-7.5 -19.5t-20 -7.5t-21.5 11l-69 82q-10 11 -10 25z" />
    <glyph glyph-name="uacute" unicode="&#xfa;" horiz-adv-x="610" 
d="M276 74q88 0 164 96v300q0 19 13.5 32t32.5 13t32 -13t13 -32v-429q0 -20 -13 -33t-32 -13t-32.5 13t-13.5 33v41q-40 -42 -69 -59q-57 -33 -108.5 -33t-84.5 15.5t-56 42.5q-47 55 -47 138v284q0 19 13.5 32t32.5 13t32 -13t13 -32v-274q0 -57 25.5 -89.5t84.5 -32.5z
M319 703q10 19 30 19q40 0 40 -37q0 -14 -10 -25l-69 -82q-9 -11 -21.5 -11t-20 7.5t-7.5 16.5q0 15 7 22z" />
    <glyph glyph-name="ucircumflex" unicode="&#xfb;" horiz-adv-x="610" 
d="M276 74q88 0 164 96v300q0 19 13.5 32t32.5 13t32 -13t13 -32v-429q0 -20 -13 -33t-32 -13t-32.5 13t-13.5 33v41q-40 -42 -69 -59q-57 -33 -108.5 -33t-84.5 15.5t-56 42.5q-47 55 -47 138v284q0 19 13.5 32t32.5 13t32 -13t13 -32v-274q0 -57 25.5 -89.5t84.5 -32.5z
M430 615q8 -8 8 -19.5t-8.5 -20.5t-20.5 -9t-19 7l-87 74l-87 -74q-7 -7 -19 -7t-20.5 9t-8.5 14.5v11.5t8 14l68 70q20 20 40 20h38q20 0 40 -20z" />
    <glyph glyph-name="udieresis" unicode="&#xfc;" horiz-adv-x="610" 
d="M276 74q88 0 164 96v300q0 19 13.5 32t32.5 13t32 -13t13 -32v-429q0 -20 -13 -33t-32 -13t-32.5 13t-13.5 33v41q-40 -42 -69 -59q-57 -33 -108.5 -33t-84.5 15.5t-56 42.5q-47 55 -47 138v284q0 19 13.5 32t32.5 13t32 -13t13 -32v-274q0 -57 25.5 -89.5t84.5 -32.5z
M219 677q21 0 36 -15t15 -36t-15 -36t-36 -15t-36 15t-15 36t15 36t36 15zM388 677q21 0 36 -15t15 -36t-15 -36t-36 -15t-36 15t-15 36t15 36t36 15z" />
    <glyph glyph-name="yacute" unicode="&#xfd;" horiz-adv-x="533" 
d="M496 501.5q13 -13.5 13 -28t-3 -21.5l-273 -656q-13 -31 -42 -31q-18 0 -30.5 13t-12.5 26t3 21l65 167l-188 458q-4 10 -4 24t13 27.5t29 13.5q33 0 45 -28l154 -382l157 380q13 30 42 30q19 0 32 -13.5zM282 703q10 19 30 19q40 0 40 -37q0 -14 -10 -25l-69 -82
q-9 -11 -21.5 -11t-20 7.5t-7.5 16.5q0 15 7 22z" />
    <glyph glyph-name="thorn" unicode="&#xfe;" horiz-adv-x="631" 
d="M170 444q74 76 171 76t166 -69q76 -76 76 -196q0 -122 -76 -197q-70 -68 -166.5 -68t-170.5 76v-255q0 -20 -13 -33t-32.5 -13t-32.5 13t-13 33v878q0 20 13 33t32.5 13t32.5 -13t13 -33v-245zM170 150q68 -75 158 -75q114 0 152 102q12 34 12 78q0 86 -46 135
q-44 45 -118 45q-90 0 -158 -75v-210z" />
    <glyph glyph-name="ydieresis" unicode="&#xff;" horiz-adv-x="533" 
d="M496 501.5q13 -13.5 13 -28t-3 -21.5l-273 -656q-13 -31 -42 -31q-18 0 -30.5 13t-12.5 26t3 21l65 167l-188 458q-4 10 -4 24t13 27.5t29 13.5q33 0 45 -28l154 -382l157 380q13 30 42 30q19 0 32 -13.5zM181 677q21 0 36 -15t15 -36t-15 -36t-36 -15t-36 15t-15 36
t15 36t36 15zM350 677q21 0 36 -15t15 -36t-15 -36t-36 -15t-36 15t-15 36t15 36t36 15z" />
    <glyph glyph-name="longs" unicode="&#x17f;" horiz-adv-x="287" 
d="M340 647l-50 6q-38 0 -60 -17.5t-22 -70.5v-525q0 -19 -13 -32t-32.5 -13t-32.5 13t-13 32v392h-59q-17 0 -28 11t-11 28t11 28t28 11h59v58q0 87 49 134q40 38 101 38q47 0 87 -20q23 -13 23 -31t-10.5 -30t-26.5 -12z" />
    <glyph glyph-name="florin" unicode="&#x192;" horiz-adv-x="403" 
d="M356 746q39 0 57 -9q31 -15 31 -36t-11.5 -32.5t-24.5 -11.5t-25 3t-40 3t-52.5 -17.5t-31.5 -70.5l-21 -148h117q14 0 22.5 -9.5t8.5 -22.5t-9 -21.5t-22 -8.5h-125l-50 -353q-13 -88 -67 -132q-45 -36 -107 -36h-18q-17 0 -29 12t-12 29t12 29.5t29 12.5h7q40 0 57 13
q29 24 37 75l49 350h-78q-14 0 -22.5 9t-8.5 22t9 22t22 9h87l21 151q13 88 68 132q45 36 120 36z" />
    <glyph glyph-name="AEacute" unicode="&#x1fc;" horiz-adv-x="1040" 
d="M945 85q18 0 30.5 -12.5t12.5 -30.5t-12.5 -30t-30.5 -12h-401q-19 0 -32 13t-13 32v134h-308l-102 -158q-17 -26 -39 -26t-35 13t-13 26q0 20 10 34l399 605q18 25 46 25h488q18 0 30.5 -12.5t12.5 -30.5t-12.5 -30t-30.5 -12h-355v-221h319q18 0 30.5 -12.5t12.5 -30.5
t-12.5 -30t-30.5 -12h-319v-222h355zM499 613h-25l-229 -351h254v351zM544 875q10 19 30 19q40 0 40 -37q0 -14 -10 -25l-69 -82q-9 -11 -21.5 -11t-20 7.5t-7.5 16.5q0 15 7 22z" />
    <glyph glyph-name="aeacute" unicode="&#x1fd;" horiz-adv-x="904" 
d="M441 436q64 84 181 84q110 0 176 -72q63 -69 63 -179q0 -17 -11.5 -30t-32.5 -13h-344q18 -151 177 -151q73 0 135 31q8 4 21 4t25 -11t12 -25q0 -26 -21.5 -37.5t-38.5 -19.5t-37 -14q-45 -13 -104 -13q-137 0 -203 87q-58 -87 -206 -87q-83 0 -138 40q-58 41 -58 110
q0 113 128 148q43 11 102 11h121v11q0 67 -33 95.5t-101 28.5q-58 0 -133 -24q-8 -2 -18 -2t-21 10.5t-11 32.5t31 35q79 34 168 34q119 0 171 -84zM388 226h-109q-71 0 -111 -16.5t-40 -59.5q0 -32 31 -56t92 -24q93 0 125 50q12 19 12 49v57zM771 299q-4 72 -53 111
q-41 33 -96 33t-96 -33q-49 -39 -53 -111h298zM460 703q10 19 30 19q40 0 40 -37q0 -14 -10 -25l-69 -82q-9 -11 -21.5 -11t-20 7.5t-7.5 16.5q0 15 7 22z" />
    <glyph glyph-name="Oslashacute" unicode="&#x1fe;" horiz-adv-x="811" 
d="M178 66q-119 98 -123 283q2 158 97 258q95 101 254 101q105 0 188 -49l40 58q7 10 19.5 10t19.5 -7t7 -16t-6 -18l-39 -56q57 -48 88.5 -120t33.5 -161q-4 -159 -97 -258q-96 -101 -254 -101q-107 0 -187 47l-40 -57q-7 -10 -19.5 -10t-19.5 7t-7 16t6 18zM543 588
q-60 35 -129.5 35t-118 -21t-81.5 -58q-68 -76 -68 -195q0 -133 83 -210zM269 109q59 -34 129 -34t118.5 21t81.5 58q68 76 68 195q0 131 -82 209zM420 875q10 19 30 19q40 0 40 -37q0 -14 -10 -25l-69 -82q-9 -11 -21.5 -11t-20 7.5t-7.5 16.5q0 15 7 22z" />
    <glyph glyph-name="oslashacute" unicode="&#x1ff;" horiz-adv-x="608" 
d="M130 51q-82 74 -82 204q0 119 70 192q69 73 186 73q70 0 132 -32l29 41q7 10 19.5 10t19.5 -7t7 -16t-6 -18l-28 -40q83 -73 83 -203q0 -118 -70 -192q-70 -73 -186 -73q-75 0 -133 32l-30 -43q-7 -10 -19.5 -10t-19.5 7t-7 16t6 18zM182 125l204 291q-39 21 -75 21
t-65.5 -9.5t-53.5 -31.5q-53 -50 -53 -137t43 -134zM222 94q38 -21 74 -21t65.5 10t53.5 31q54 49 54 142q0 79 -43 129zM320 703q10 19 30 19q40 0 40 -37q0 -14 -10 -25l-69 -82q-9 -11 -21.5 -11t-20 7.5t-7.5 16.5q0 15 7 22z" />
    <glyph glyph-name="Scommaaccent" unicode="&#x218;" horiz-adv-x="617" 
d="M318 -47q20 0 35 -15t15 -36v-52q0 -85 -74 -131q-5 -5 -15.5 -5t-18 8t-7.5 20.5t14 21.5q20 11 32.5 28.5t12.5 54.5h-3q-21 0 -36 14.5t-15 35.5v5q0 21 15 36t36 15h9zM308 76q175 0 175 115q0 48 -67 77q-29 12 -67.5 21.5t-78 20.5t-78 25t-68.5 36q-66 50 -66 132
q0 88 66 144q72 61 193 61q109 0 199 -33q28 -10 28 -40q0 -15 -10.5 -28.5t-23 -13.5t-34.5 8q-65 23 -149 23q-77 0 -127 -29q-51 -30 -51 -85q0 -57 66 -86q30 -14 68 -23t78 -19t78 -23.5t68 -35.5q66 -48 66 -138q0 -86 -69 -140q-71 -55 -187 -55q-127 0 -238 48
q-11 5 -19.5 16t-8.5 26.5t11 28t25.5 12.5t36 -9.5t70.5 -22.5t114 -13z" />
    <glyph glyph-name="scommaaccent" unicode="&#x219;" horiz-adv-x="480" 
d="M250 -47q20 0 35 -15t15 -36v-52q0 -85 -74 -131q-5 -5 -15.5 -5t-18 8t-7.5 20.5t14 21.5q20 11 32.5 28.5t12.5 54.5h-3q-21 0 -36 14.5t-15 35.5v5q0 21 15 36t36 15h9zM241 74q111 0 111 71q0 22 -22 33.5t-55.5 20.5t-72.5 18.5t-72.5 26.5t-55.5 44.5t-22 67.5
t12 69t36 50q53 45 147 45q75 0 145 -25q14 -5 21.5 -16t7.5 -24.5t-11.5 -25.5t-22.5 -12t-27 5q-48 15 -105 15t-86.5 -20t-29.5 -48t22.5 -41.5t55.5 -22.5t72.5 -18t72.5 -25q78 -40 78 -124q0 -64 -48 -104q-52 -44 -145 -44q-101 0 -182 45q-17 12 -17 30t11 30.5
t24 12.5t31 -8q58 -26 127 -26z" />
    <glyph glyph-name="uni021A" unicode="&#x21a;" horiz-adv-x="609" 
d="M309 -47q20 0 35 -15t15 -36v-52q0 -85 -74 -131q-5 -5 -15.5 -5t-18 8t-7.5 20.5t14 21.5q20 11 32.5 28.5t12.5 54.5h-3q-21 0 -36 14.5t-15 35.5v5q0 21 15 36t36 15h9zM553 698q18 0 30.5 -12.5t12.5 -30.5t-12.5 -30t-30.5 -12h-203v-573q0 -19 -13.5 -32t-32.5 -13
t-32 13t-13 32v573h-204q-18 0 -30 12t-12 30t12 30.5t30 12.5h498z" />
    <glyph glyph-name="uni021B" unicode="&#x21b;" horiz-adv-x="383" 
d="M196 -47q20 0 35 -15t15 -36v-52q0 -85 -74 -131q-5 -5 -15.5 -5t-18 8t-7.5 20.5t14 21.5q20 11 32.5 28.5t12.5 54.5h-3q-21 0 -36 14.5t-15 35.5v5q0 21 15 36t36 15h9zM302.5 74.5q11.5 4.5 25 4.5t24.5 -10t11 -30t-21 -29q-42 -20 -72.5 -20t-55.5 3t-48 17
q-55 32 -55 112v310h-71q-19 0 -19 19q0 9 9 17l136 133q9 9 17 9t13.5 -6t5.5 -14v-80h113q17 0 28 -11t11 -28t-11 -28t-28 -11h-113v-302q0 -38 23 -52q13 -8 39.5 -8t38 4.5z" />
    <glyph glyph-name="dotlessj" unicode="&#x237;" horiz-adv-x="257" 
d="M-8 -157l30 -3q31 0 41 8q20 13 20 51v569q0 20 13 33t32.5 13t32.5 -13t13 -33v-571q0 -97 -70 -127q-25 -10 -61 -10t-62.5 8.5t-26.5 36.5q0 15 10.5 26.5t27.5 11.5z" />
    <glyph glyph-name="circumflex" unicode="&#x2c6;" horiz-adv-x="409" 
d="M330 615q8 -8 8 -19.5t-8.5 -20.5t-20.5 -9t-19 7l-87 74l-87 -74q-7 -7 -19 -7t-20.5 9t-8.5 14.5v11.5t8 14l68 70q20 20 40 20h38q20 0 40 -20z" />
    <glyph glyph-name="caron" unicode="&#x2c7;" horiz-adv-x="391" 
d="M330 656l-68 -70q-20 -20 -40 -20h-38q-20 0 -40 20l-68 70q-8 8 -8 19.5t8.5 20.5t20.5 9t19 -7l87 -74l87 74q7 7 19 7t20.5 -9t8.5 -20.5t-8 -19.5z" />
    <glyph glyph-name="breve" unicode="&#x2d8;" horiz-adv-x="385" 
d="M192 634q61 0 84 49q9 19 25.5 19t25 -9t8.5 -19.5t-3 -16.5q-17 -38 -54.5 -59.5t-85.5 -21.5t-85.5 21.5t-54.5 59.5q-3 6 -3 16.5t8.5 19.5t25 9t26.5 -21t32 -34t51 -13z" />
    <glyph glyph-name="dotaccent" unicode="&#x2d9;" horiz-adv-x="228" 
d="M114 677q21 0 36 -15t15 -36t-15 -36t-36 -15t-36 15t-15 36t15 36t36 15z" />
    <glyph glyph-name="ring" unicode="&#x2da;" horiz-adv-x="270" 
d="M136 739q20 0 37.5 -7.5t30.5 -19.5q27 -28 27 -67t-27.5 -66.5t-66.5 -27.5t-66.5 27.5t-27.5 66.5t27.5 66.5t65.5 27.5zM137 596q20 0 34.5 14.5t14.5 34.5t-14.5 34.5t-34.5 14.5t-34.5 -14.5t-14.5 -34.5t14.5 -34.5t34.5 -14.5z" />
    <glyph glyph-name="ogonek" unicode="&#x2db;" horiz-adv-x="351" 
d="M142 -100q0 -47 51 -47q11 0 19 2t15 4t10 2q22 0 22 -22q0 -21 -48 -35q-21 -7 -53 -7t-60.5 22t-28.5 62q0 76 107 119h78q-74 -25 -102 -66q-10 -15 -10 -34z" />
    <glyph glyph-name="tilde" unicode="&#x2dc;" horiz-adv-x="432" 
d="M355 690q21 0 23 -22q0 -35 -23 -64q-26 -31 -61 -31q-30 0 -64 16.5t-52.5 24t-35.5 7.5q-27 0 -41 -32q-5 -18 -23 -18q-9 0 -16 6.5t-7 19t6 29t17 30.5q23 33 61 33q22 0 41 -7.5t37.5 -16t37 -16t36.5 -7.5t26 7t12 17q9 24 26 24z" />
    <glyph glyph-name="hungarumlaut" unicode="&#x2dd;" horiz-adv-x="399" 
d="M106 703q10 19 30 19q40 0 40 -37q0 -14 -10 -25l-69 -82q-9 -11 -21.5 -11t-20 7.5t-7.5 16.5q0 15 7 22zM260 703q10 19 30 19q40 0 40 -37q0 -14 -10 -25l-69 -82q-9 -11 -21.5 -11t-20 7.5t-7.5 16.5q0 15 7 22z" />
    <glyph glyph-name="uni03A9" unicode="&#x3a9;" horiz-adv-x="790" 
d="M721 369q0 -188 -125 -291h101q17 0 28 -11t11 -28t-11 -28t-28 -11h-185q-19 0 -33 13.5t-14 28.5q0 30 22.5 43.5t49 34.5t49.5 54q53 77 53 184q0 108 -65 180q-69 79 -179 79t-179 -79q-65 -72 -65 -180q0 -107 53 -184q36 -51 98 -88q23 -14 23 -36.5t-14 -36
t-33 -13.5h-185q-17 0 -28 11t-11 28t11 28t28 11h101q-125 103 -125 291q0 61 22 121.5t64 109t102.5 78.5t137 30t137 -30t102.5 -78.5t64.5 -109t22.5 -121.5z" />
    <glyph glyph-name="pi" unicode="&#x3c0;" horiz-adv-x="634" 
d="M604.5 498.5q11.5 -11.5 11.5 -28.5t-11.5 -28t-28.5 -11h-60v-393q0 -18 -12.5 -30.5t-30.5 -12.5t-30.5 12.5t-12.5 30.5v393h-176q-6 -209 -60 -404q-4 -14 -15.5 -23t-27.5 -9t-29.5 12t-13.5 26t11 43t21.5 74.5t15.5 91.5q6 48 12 189h-22q-45 0 -62 -5
q-26 -8 -35.5 -8t-21 11t-11.5 23q0 23 20 34q45 24 110 24h430q17 0 28.5 -11.5z" />
    <glyph glyph-name="endash" unicode="&#x2013;" horiz-adv-x="684" 
d="M603 309q12 -12 12 -29t-12 -28.5t-29 -11.5h-465q-17 0 -28.5 11.5t-11.5 28.5t11.5 29t28.5 12h465q17 0 29 -12z" />
    <glyph glyph-name="emdash" unicode="&#x2014;" horiz-adv-x="891" 
d="M810 309q12 -12 12 -29t-12 -28.5t-29 -11.5h-672q-17 0 -28.5 11.5t-11.5 28.5t11.5 29t28.5 12h672q17 0 29 -12z" />
    <glyph glyph-name="quoteleft" unicode="&#x2018;" horiz-adv-x="255" 
d="M122 477q-23 0 -39.5 16.5t-16.5 39.5v59q0 53 26 94q20 30 56 52q5 5 17.5 5t20.5 -9t8 -23t-15 -23q-22 -13 -36.5 -32.5t-14.5 -60.5h4q23 0 39.5 -16.5t16.5 -39.5v-6q0 -23 -16.5 -39.5t-39.5 -16.5h-10z" />
    <glyph glyph-name="quoteright" unicode="&#x2019;" horiz-adv-x="238" 
d="M174.5 726.5q16.5 -16.5 16.5 -39.5v-59q0 -53 -27 -94q-19 -30 -55 -52q-5 -5 -17.5 -5t-20.5 9t-8 23t15 23q22 13 36.5 32.5t14.5 60.5h-4q-23 0 -39.5 16.5t-16.5 39.5v6q0 23 16.5 39.5t39.5 16.5h10q23 0 39.5 -16.5z" />
    <glyph glyph-name="quotesinglbase" unicode="&#x201a;" horiz-adv-x="260" 
d="M174.5 98.5q16.5 -16.5 16.5 -39.5v-59q0 -53 -27 -94q-19 -30 -55 -52q-5 -5 -17.5 -5t-20.5 9t-8 23t15 23q22 13 36.5 32.5t14.5 60.5h-4q-23 0 -39.5 16.5t-16.5 39.5v6q0 23 16.5 39.5t39.5 16.5h10q23 0 39.5 -16.5z" />
    <glyph glyph-name="quotedblleft" unicode="&#x201c;" horiz-adv-x="437" 
d="M303 477q-23 0 -39.5 16.5t-16.5 39.5v59q0 53 27 94q19 30 55 52q5 5 17.5 5t20.5 -9t8 -23t-15 -23q-22 -13 -36.5 -32.5t-14.5 -60.5h4q23 0 39.5 -16.5t16.5 -39.5v-6q0 -23 -16.5 -39.5t-39.5 -16.5h-10zM122 477q-23 0 -39.5 16.5t-16.5 39.5v59q0 53 26 94
q20 30 56 52q5 5 17.5 5t20.5 -9t8 -23t-15 -23q-22 -13 -36.5 -32.5t-14.5 -60.5h4q23 0 39.5 -16.5t16.5 -39.5v-6q0 -23 -16.5 -39.5t-39.5 -16.5h-10z" />
    <glyph glyph-name="quotedblright" unicode="&#x201d;" horiz-adv-x="420" 
d="M135 743q23 0 39.5 -16.5t16.5 -39.5v-59q0 -53 -27 -94q-19 -30 -55 -52q-5 -5 -17.5 -5t-20.5 9t-8 23t15 23q22 13 36.5 32.5t14.5 60.5h-4q-23 0 -39.5 16.5t-16.5 39.5v6q0 23 16.5 39.5t39.5 16.5h10zM316 743q23 0 39.5 -16.5t16.5 -39.5v-59q0 -53 -26 -94
q-20 -30 -56 -52q-5 -5 -17.5 -5t-20.5 9t-8 23t15 23q22 13 36.5 32.5t14.5 60.5h-4q-23 0 -39.5 16.5t-16.5 39.5v6q0 23 16.5 39.5t39.5 16.5h10z" />
    <glyph glyph-name="quotedblbase" unicode="&#x201e;" horiz-adv-x="442" 
d="M135 115q23 0 39.5 -16.5t16.5 -39.5v-59q0 -53 -27 -94q-19 -30 -55 -52q-5 -5 -17.5 -5t-20.5 9t-8 23t15 23q22 13 36.5 32.5t14.5 60.5h-4q-23 0 -39.5 16.5t-16.5 39.5v6q0 23 16.5 39.5t39.5 16.5h10zM316 115q23 0 39.5 -16.5t16.5 -39.5v-59q0 -53 -26 -94
q-20 -30 -56 -52q-5 -5 -17.5 -5t-20.5 9t-8 23t15 23q22 13 36.5 32.5t14.5 60.5h-4q-23 0 -39.5 16.5t-16.5 39.5v6q0 23 16.5 39.5t39.5 16.5h10z" />
    <glyph glyph-name="dagger" unicode="&#x2020;" horiz-adv-x="505" 
d="M417 485q54 0 54 -31t-54 -31h-39q-25 0 -85 10q-8 2 -13.5 -3.5t-3.5 -17.5t4 -27q5 -37 5 -54l-11 -370q0 -54 -21 -54t-21 54l-11 370q0 37 9 85q2 8 -3.5 13.5t-13.5 3.5q-60 -10 -85 -10h-39q-54 0 -54 31t54 31h39q31 0 85 -9q8 -2 13.5 3.5t3.5 13.5
q-10 60 -10 85v41q0 33 16 48q7 6 17 6q16 0 26 -21q7 -14 7 -33v-41q0 -25 -10 -85q-2 -8 3.5 -13.5t13.5 -3.5q54 9 85 9h39z" />
    <glyph glyph-name="daggerdbl" unicode="&#x2021;" horiz-adv-x="531" 
d="M430 156q54 0 54 -31t-54 -31h-39q-31 0 -85 9q-8 2 -13.5 -3.5t-3.5 -13.5q10 -60 10 -85v-41q0 -31 -17 -48q-6 -6 -16 -6q-25 0 -32 38q-1 9 -1 16v41q0 25 10 85q2 8 -3.5 13.5t-13.5 3.5q-54 -9 -85 -9h-39q-54 0 -54 31t54 31h39q25 0 85 -10q8 -2 13.5 3.5t3 23.5
t-4.5 41q-4 46 -4 76q0 43 9 127q2 8 -3.5 13.5t-13.5 3.5q-60 -10 -85 -10h-39q-54 0 -54 31t54 31h39q31 0 85 -9q8 -2 13.5 3.5t3.5 13.5q-10 60 -10 85v41q0 33 17 48q6 6 16 6q16 0 26 -20q7 -15 7 -34v-41q0 -25 -10 -85q-2 -8 3.5 -13.5t13.5 -3.5q54 9 85 9h39
q54 0 54 -31t-54 -31h-39q-25 0 -85 10q-8 2 -13.5 -3.5t-3.5 -23.5t4 -41q5 -58 5 -76q0 -22 -3.5 -60.5t-5.5 -56.5t3.5 -23.5t13.5 -3.5q60 10 85 10h39z" />
    <glyph glyph-name="bullet" unicode="&#x2022;" horiz-adv-x="377" 
d="M188 526q28 0 52 -10.5t42 -28.5q39 -39 39 -94t-39 -94t-93 -39q-55 0 -94 39t-39 94t39 94t93 39z" />
    <glyph glyph-name="ellipsis" unicode="&#x2026;" horiz-adv-x="968" 
d="M135 115q23 0 39.5 -16.5t16.5 -39.5v-6q0 -23 -16.5 -39.5t-39.5 -16.5h-10q-23 0 -39.5 16.5t-16.5 39.5v6q0 23 16.5 39.5t39.5 16.5h10zM490 115q23 0 39.5 -16.5t16.5 -39.5v-6q0 -23 -16.5 -39.5t-39.5 -16.5h-10q-23 0 -39.5 16.5t-16.5 39.5v6q0 23 16.5 39.5
t39.5 16.5h10zM842 115q23 0 39.5 -16.5t16.5 -39.5v-6q0 -23 -16.5 -39.5t-39.5 -16.5h-10q-23 0 -39.5 16.5t-16.5 39.5v6q0 23 16.5 39.5t39.5 16.5h10z" />
    <glyph glyph-name="guilsinglleft" unicode="&#x2039;" horiz-adv-x="377" 
d="M294 85q9 -11 9 -27t-11 -27t-29 -11t-27 11l-164 181q-18 18 -18 43t18 43l164 181q9 11 27 11t29 -11t11 -27.5t-9 -26.5l-160 -170z" />
    <glyph glyph-name="guilsinglright" unicode="&#x203a;" horiz-adv-x="377" 
d="M85 31q-11 11 -11 27t9 27l160 170l-160 170q-9 10 -9 26.5t11 27.5t29 11t27 -11l164 -181q18 -18 18 -43t-18 -43l-164 -181q-9 -11 -27 -11t-29 11z" />
    <glyph glyph-name="fraction" unicode="&#x2044;" horiz-adv-x="200" 
d="M-78 -10q-9 -14 -25.5 -14t-26.5 9.5t-10 21t5 21.5l414 682q9 14 25.5 14t26.5 -9.5t10 -21t-5 -21.5z" />
    <glyph glyph-name="Euro" unicode="&#x20ac;" horiz-adv-x="682" 
d="M129 349q0 23 4 47h-55q-15 0 -25.5 10.5t-10.5 25.5t10.5 25.5t25.5 10.5h71q33 106 117 172q86 68 202 68q80 0 146 -32q23 -12 23 -32.5t-12 -32t-23 -11.5q-15 0 -32 6q-39 16 -89 16t-84 -10.5t-63 -30.5q-60 -42 -90 -113h287q15 0 25.5 -10.5t10.5 -25
t-10.5 -25.5t-25.5 -11h-308q-3 -23 -3 -47.5t3 -46.5h258q15 0 26 -11t11 -26.5t-10 -25.5t-27 -10h-237q30 -71 89.5 -112t134.5 -41q60 0 109 17q10 5 23 5t25 -11.5t12 -32.5t-23 -32q-66 -32 -136 -32t-121 18t-91 50q-85 67 -117 171h-71q-15 0 -25.5 10.5t-10.5 25.5
t10.5 26t25.5 11h55q-4 22 -4 47z" />
    <glyph glyph-name="trademark" unicode="&#x2122;" horiz-adv-x="953" 
d="M648 387l116 287q12 26 39 26h17q18 0 30 -12.5t12 -29.5v-309q0 -14 -9 -23t-23 -9t-23 9t-9 23v262l-111 -269q-10 -25 -39 -25t-39 25l-111 269v-262q0 -14 -9 -23t-23 -9t-23 9t-9 23v309q0 17 12 29.5t30 12.5h17q27 0 39 -26zM350 698q12 0 20.5 -8.5t8.5 -20.5
t-8.5 -20.5t-20.5 -8.5h-101v-292q0 -14 -9 -22.5t-23 -8.5t-22.5 8.5t-8.5 22.5v292h-100q-12 0 -20.5 8.5t-8.5 20.5t8.5 20.5t20.5 8.5h264z" />
    <glyph glyph-name="Omega" unicode="&#x2126;" horiz-adv-x="790" 
d="M721 369q0 -188 -125 -291h101q17 0 28 -11t11 -28t-11 -28t-28 -11h-185q-19 0 -33 13.5t-14 28.5q0 30 22.5 43.5t49 34.5t49.5 54q53 77 53 184q0 108 -65 180q-69 79 -179 79t-179 -79q-65 -72 -65 -180q0 -107 53 -184q36 -51 98 -88q23 -14 23 -36.5t-14 -36
t-33 -13.5h-185q-17 0 -28 11t-11 28t11 28t28 11h101q-125 103 -125 291q0 61 22 121.5t64 109t102.5 78.5t137 30t137 -30t102.5 -78.5t64.5 -109t22.5 -121.5z" />
    <glyph glyph-name="partialdiff" unicode="&#x2202;" horiz-adv-x="685" 
d="M530 363q4 34 4 71t-10 80t-33 78q-51 76 -150 76q-61 0 -103 -13q-6 -2 -18.5 -2t-24 11.5t-11.5 26.5q0 27 26 39q65 24 138 24t123.5 -27t84.5 -71q66 -89 66 -223q0 -201 -84 -318q-91 -125 -255 -125q-121 0 -187 72q-54 61 -54 146q0 106 76 175q79 71 202 71
q88 0 170 -57q23 -16 40 -34zM298 70q48 0 88 20.5t66 51.5q44 52 65 140q-30 40 -79 68.5t-101 28.5t-88 -11t-61 -32q-55 -45 -55 -119q0 -61 39 -101q43 -46 126 -46z" />
    <glyph glyph-name="Delta" unicode="&#x2206;" horiz-adv-x="721" 
d="M646 106q8 -21 8 -36q0 -31 -21.5 -50.5t-52.5 -19.5h-438q-31 0 -52.5 19.5t-21.5 50.5q0 15 8 36l215 540q20 52 70 52t70 -52zM576 71l-215 539l-215 -539h430z" />
    <glyph glyph-name="product" unicode="&#x220f;" horiz-adv-x="741" 
d="M692.5 685.5q12.5 -12.5 12.5 -30.5t-12.5 -30.5t-30.5 -12.5h-74v-684q0 -18 -12.5 -30.5t-30.5 -12.5t-30.5 12.5t-12.5 30.5v684h-263v-684q0 -18 -12.5 -30.5t-30.5 -12.5t-30.5 12.5t-12.5 30.5v684h-74q-18 0 -30.5 12.5t-12.5 30.5t12.5 30.5t30.5 12.5h583
q18 0 30.5 -12.5z" />
    <glyph glyph-name="summation" unicode="&#x2211;" horiz-adv-x="631" 
d="M104 -103q-26 0 -44.5 19t-18.5 39q0 28 19 52l272 291l-272 291q-19 24 -19 48t18.5 43t44.5 19h442q18 0 31 -13t13 -31t-13 -30.5t-31 -12.5h-393l251 -265q19 -21 19 -49t-19 -49l-251 -265h393q18 0 31 -12.5t13 -30.5t-13 -31t-31 -13h-442z" />
    <glyph glyph-name="minus" unicode="&#x2212;" horiz-adv-x="712" 
d="M627 359q12 -12 12 -29t-12 -28.5t-29 -11.5h-485q-17 0 -28.5 11.5t-11.5 28.5t11.5 29t28.5 12h485q17 0 29 -12z" />
    <glyph glyph-name="radical" unicode="&#x221a;" horiz-adv-x="620" 
d="M619 690q8 -8 8 -19t-8 -18.5t-19 -7.5h-89l-195 -611q-5 -15 -17.5 -24.5t-28.5 -9.5h-4q-33 0 -47 37l-114 311l-56 -22q-6 -3 -15.5 -3t-18 9t-8.5 20.5t6.5 17.5t17.5 11l82 33q10 4 21 4q22 0 32 -29l100 -283l184 552q12 40 47 40h103q11 0 19 -8z" />
    <glyph glyph-name="infinity" unicode="&#x221e;" horiz-adv-x="963" 
d="M631.5 444.5q32.5 12.5 81.5 12.5t86 -20t59 -50q40 -55 40 -132t-40 -132q-51 -70 -153 -70q-104 0 -181 90q-22 25 -41 50h-3q-45 -62 -80 -89q-70 -51 -134.5 -51t-101.5 20t-59 50q-40 55 -40 132t40 132q51 70 153 70q103 0 182 -90q22 -25 40 -50h3q51 67 83.5 91
t65 36.5zM632 143.5q28 -13.5 61 -13.5t56.5 11t38.5 29q30 34 30 85t-30 85q-34 40 -93 40q-60 0 -113 -46q-21 -19 -37 -41t-28 -38q12 -16 28 -37.5t37.5 -41t49.5 -33zM270 130q33 0 61 13.5t49 32.5q31 28 66 79q-37 54 -62 76q-56 49 -116 49q-59 0 -93 -40
q-30 -34 -30 -85t30 -85q34 -40 95 -40z" />
    <glyph glyph-name="integral" unicode="&#x222b;" horiz-adv-x="371" 
d="M37 -71l21 -1q25 0 42 9t19 47l48 681q3 55 34 92t99 37q48 0 59 -12.5t11 -26.5t-11 -25t-25 -11l-20 1q-25 0 -42 -9.5t-20 -47.5l-47 -681q-7 -91 -75 -119q-24 -10 -46 -10q-34 0 -50 3q-33 6 -33 37q0 14 9.5 25t26.5 11z" />
    <glyph glyph-name="approxequal" unicode="&#x2248;" horiz-adv-x="675" 
d="M586.5 436.5q8.5 -8.5 8.5 -16.5t-2 -14q-33 -95 -124 -95q-56 0 -139 37q-32 15 -62 26.5t-60 11.5q-54 0 -72 -51q-7 -18 -21.5 -18t-23 8.5t-8.5 16.5t3 14q41 95 123 95q56 0 139 -37q32 -15 62 -26.5t59 -11.5q54 0 71 49q8 20 23 20t23.5 -8.5zM586.5 251.5
q8.5 -8.5 8.5 -16.5t-2 -14q-33 -95 -124 -95q-56 0 -139 38q-32 14 -62 25.5t-60 11.5q-54 0 -72 -51q-7 -18 -21.5 -18t-23 8.5t-8.5 16.5t3 14q41 95 123 95q56 0 139 -38q32 -14 62 -25.5t59 -11.5q54 0 71 49q8 20 23 20t23.5 -8.5z" />
    <glyph glyph-name="notequal" unicode="&#x2260;" horiz-adv-x="688" 
d="M70 415q-11 11 -11 28t11 28t28 11h304l86 136q8 13 22.5 13t23.5 -7.5t9 -19t-5 -20.5l-65 -102h113q17 0 28 -11t11 -28t-11 -28t-28 -11h-163l-92 -146h255q17 0 28 -11t11 -28t-11 -28t-28 -11h-305l-88 -140q-8 -13 -22.5 -13t-23.5 7.5t-9 19t5 20.5l67 106h-112
q-17 0 -28 11t-11 28t11 28t28 11h162l92 146h-254q-17 0 -28 11z" />
    <glyph glyph-name="lessequal" unicode="&#x2264;" horiz-adv-x="630" 
d="M541.5 124.5q-11.5 -11.5 -24.5 -11.5t-20 3l-399 179q-36 17 -36 52v8q0 35 36 52l399 179q7 3 20 3t24.5 -11.5t11.5 -25.5q0 -30 -27 -41l-360 -160l360 -160q12 -5 19.5 -15.5t7.5 -25t-11.5 -26zM517 73q15 0 26 -11t11 -26t-11 -25.5t-26 -10.5h-423
q-15 0 -25.5 10.5t-10.5 25.5t10.5 26t25.5 11h423z" />
    <glyph glyph-name="greaterequal" unicode="&#x2265;" horiz-adv-x="630" 
d="M133 116q-8 -3 -20.5 -3t-24 11.5t-11.5 25.5q0 30 27 41l360 160l-360 160q-12 5 -19.5 15.5t-7.5 25t11.5 26t24 11.5t20.5 -3l399 -179q36 -17 36 -52v-8q0 -35 -36 -52zM536 73q15 0 25.5 -11t10.5 -26t-10.5 -25.5t-25.5 -10.5h-423q-15 0 -26 10.5t-11 25.5t11 26
t26 11h423z" />
    <glyph glyph-name="lozenge" unicode="&#x25ca;" horiz-adv-x="626" 
d="M309 -105q-35 0 -51 28l-210 345q-8 14 -8 31t8 31l210 345q16 28 51 28h8q35 0 51 -28l210 -345q8 -14 8 -31t-8 -31l-210 -345q-16 -28 -51 -28h-8zM508 299l-195 328l-195 -328l195 -328z" />
    <glyph glyph-name="f_f" unicode="&#xfb00;" horiz-adv-x="774" 
d="M734 647l-50 6q-38 0 -60 -17.5t-22 -70.5v-55h125q17 0 28 -11t11 -28t-11 -28t-28 -11h-125v-392q0 -19 -13 -32t-32.5 -13t-32.5 13t-13 32v392h-303v-392q0 -19 -13 -32t-32.5 -13t-32.5 13t-13 32v392h-59q-17 0 -28 11t-11 28t11 28t28 11h59v58q0 87 49 134
q40 38 101 38q47 0 87 -20q23 -13 23 -31t-10.5 -30t-26.5 -12l-50 6q-38 0 -60 -17.5t-22 -70.5v-55h303v58q0 87 49 134q40 38 101 38q47 0 87 -20q23 -13 23 -31t-10.5 -30t-26.5 -12z" />
    <glyph glyph-name="fi" unicode="&#xfb01;" horiz-adv-x="641" 
d="M340 647l-50 6q-38 0 -60 -17.5t-22 -70.5v-55h307q19 -2 31 -14.5t12 -31.5v-424q0 -19 -13 -32t-32.5 -13t-32.5 13t-13 32v392h-259v-392q0 -19 -13 -32t-32.5 -13t-32.5 13t-13 32v392h-59q-17 0 -28 11t-11 28t11 28t28 11h59v58q0 87 49 134q40 38 101 38
q47 0 87 -20q23 -13 23 -31t-10.5 -30t-26.5 -12zM567 665q0 -21 -15 -36t-36 -15h-6q-21 0 -36 15t-15 36v4q0 21 15 36t36 15h6q21 0 36 -15t15 -36v-4z" />
    <glyph glyph-name="fl" unicode="&#xfb02;" horiz-adv-x="644" 
d="M340 647l-50 6q-38 0 -60 -17.5t-22 -70.5v-55h125q17 0 28 -11t11 -28t-11 -28t-28 -11h-125v-392q0 -19 -13 -32t-32.5 -13t-32.5 13t-13 32v392h-59q-17 0 -28 11t-11 28t11 28t28 11h59v58q0 87 49 134q40 38 101 38q47 0 87 -20q23 -13 23 -31t-10.5 -30t-26.5 -12z
M479 722q13 13 32.5 13t32.5 -13t13 -33v-649q0 -19 -13 -32t-32.5 -13t-32.5 13t-13 32v649q0 20 13 33z" />
    <glyph glyph-name="f_f_i" unicode="&#xfb03;" horiz-adv-x="1035" 
d="M734 647l-50 6q-38 0 -60 -17.5t-22 -70.5v-55h304q20 0 33 -13t13 -33v-424q0 -19 -13 -32t-32.5 -13t-32.5 13t-13 32v392h-259v-392q0 -19 -13 -32t-32.5 -13t-32.5 13t-13 32v392h-303v-392q0 -19 -13 -32t-32.5 -13t-32.5 13t-13 32v392h-59q-17 0 -28 11t-11 28
t11 28t28 11h59v58q0 87 49 134q40 38 101 38q47 0 87 -20q23 -13 23 -31t-10.5 -30t-26.5 -12l-50 6q-38 0 -60 -17.5t-22 -70.5v-55h303v58q0 87 49 134q40 38 101 38q47 0 87 -20q23 -13 23 -31t-10.5 -30t-26.5 -12zM961 665q0 -21 -15 -36t-36 -15h-6q-21 0 -36 15
t-15 36v4q0 21 15 36t36 15h6q21 0 36 -15t15 -36v-4z" />
    <glyph glyph-name="f_f_l" unicode="&#xfb04;" horiz-adv-x="1038" 
d="M873 722q13 13 32.5 13t32.5 -13t13 -33v-649q0 -19 -13 -32t-32.5 -13t-32.5 13t-13 32v649q0 20 13 33zM734 647l-50 6q-38 0 -60 -17.5t-22 -70.5v-55h125q17 0 28 -11t11 -28t-11 -28t-28 -11h-125v-392q0 -19 -13 -32t-32.5 -13t-32.5 13t-13 32v392h-303v-392
q0 -19 -13 -32t-32.5 -13t-32.5 13t-13 32v392h-59q-17 0 -28 11t-11 28t11 28t28 11h59v58q0 87 49 134q40 38 101 38q47 0 87 -20q23 -13 23 -31t-10.5 -30t-26.5 -12l-50 6q-38 0 -60 -17.5t-22 -70.5v-55h303v58q0 87 49 134q40 38 101 38q47 0 87 -20q23 -13 23 -31
t-10.5 -30t-26.5 -12z" />
    <glyph glyph-name="s_t" unicode="&#xfb06;" horiz-adv-x="842" 
d="M323 513q-26 37 -26 81t12 75.5t35 54.5q48 50 135 50q85 0 135 -58q47 -54 47 -132v-74h113q17 0 28 -11t11 -28t-11 -28t-28 -11h-113v-302q0 -38 23 -52q13 -8 39.5 -8t38 4.5t25 4.5t24.5 -10t11 -30t-20 -29q-43 -20 -73.5 -20t-55.5 3t-48 17q-55 32 -55 112v310
h-61q-17 0 -28 11t-11 28t11 28t28 11h61v84q0 76 -58 103q-22 10 -61.5 10t-72.5 -29t-33 -75.5t16 -71.5t33 -35q27 -17 27 -36t-11.5 -31t-22.5 -12t-27 5q-48 15 -105 15t-86.5 -20t-29.5 -48t22.5 -41.5t55.5 -22.5t72.5 -18t72.5 -25q78 -40 78 -124q0 -64 -48 -104
q-52 -44 -145 -44q-101 0 -182 45q-17 12 -17 30t11 30.5t24 12.5t31 -8q58 -26 127 -26q111 0 111 71q0 22 -22 33.5t-55.5 20.5t-72.5 18.5t-72.5 26.5t-55.5 44.5t-22 67.5t12 69t36 50q53 45 147 45q34 0 76 -7z" />
    <glyph glyph-name="f_j" horiz-adv-x="641" 
d="M340 647l-50 6q-38 0 -60 -17.5t-22 -70.5v-55h307q19 -2 31 -14.5t12 -31.5v-567q0 -97 -70 -127q-25 -10 -61 -10t-62.5 8.5t-26.5 36.5q0 15 10.5 26.5t27.5 11.5l30 -3q31 0 41 8q20 13 20 51v533h-259v-392q0 -19 -13 -32t-32.5 -13t-32.5 13t-13 32v392h-59
q-17 0 -28 11t-11 28t11 28t28 11h59v58q0 87 49 134q40 38 101 38q47 0 87 -20q23 -13 23 -31t-10.5 -30t-26.5 -12zM567 665q0 -21 -15 -36t-36 -15h-6q-21 0 -36 15t-15 36v4q0 21 15 36t36 15h6q21 0 36 -15t15 -36v-4z" />
    </font>
</defs>
</svg>
